<?xml version="1.0" encoding="UTF-8" standalone="no"?>
<!-- Created with Inkscape (http://www.inkscape.org/) -->

<svg
   xmlns:dc="http://purl.org/dc/elements/1.1/"
   xmlns:cc="http://creativecommons.org/ns#"
   xmlns:rdf="http://www.w3.org/1999/02/22-rdf-syntax-ns#"
   xmlns:svg="http://www.w3.org/2000/svg"
   xmlns="http://www.w3.org/2000/svg"
   xmlns:sodipodi="http://sodipodi.sourceforge.net/DTD/sodipodi-0.dtd"
   xmlns:inkscape="http://www.inkscape.org/namespaces/inkscape"
   inkscape:version="0.92.4 (5da689c313, 2019-01-14)"
   width="100.0mm"
   height="100.0mm"
   viewBox="0 0 100.0 100.0"
   version="1.1"
   id="svg1104"
   sodipodi:docname="hankhill.svg">
  <defs
     id="defs1098" />
  <sodipodi:namedview
     id="base"
     pagecolor="#ffffff"
     bordercolor="#666666"
     borderopacity="1.0"
     inkscape:pageopacity="0.0"
     inkscape:pageshadow="2"
     inkscape:zoom="5.6"
     inkscape:cx="155.54665"
     inkscape:cy="225.30933"
     inkscape:document-units="mm"
     inkscape:current-layer="g2447"
     showgrid="true"
     inkscape:window-width="1920"
     inkscape:window-height="1017"
     inkscape:window-x="1672"
     inkscape:window-y="-8"
     inkscape:window-maximized="1"
     borderlayer="true"
     inkscape:snap-global="false">
    <inkscape:grid
       id="grid2435"
       units="mm"
       type="xygrid"
       empspacing="1"
       spacingy="2.54"
       spacingx="2.54" />
  </sodipodi:namedview>
  <metadata
     id="metadata1101">
    <rdf:RDF>
      <cc:Work
         rdf:about="">
        <dc:format>image/svg+xml</dc:format>
        <dc:type
           rdf:resource="http://purl.org/dc/dcmitype/StillImage" />
        <dc:title />
      </cc:Work>
    </rdf:RDF>
  </metadata>
  <g
     id="g2441"
     sodipodi:insensitive="true"
     inkscape:groupmode="layer"
     inkscape:label="[fixed] BG">
    <rect
       id="rect2439"
       style="stroke:none;fill-opacity:1;fill:#FFFFFF"
       height="100.0"
       width="100.0"
       y="0"
       x="0" />
  </g>
  <g
     id="g2443"
     inkscape:groupmode="layer"
     inkscape:label="Edge.Cuts"
     style="display:inline">
    <path
       transform="matrix(0.35963709,0,0,0.35963709,8.2235408,-2.7303735)"
       style="display:inline;fill:none;stroke:#000000;stroke-width:0.58459675;stroke-opacity:1"
       d="M88.869934 281.83157L87.417459 281.59661L87.033591 281.51781L86.924487 281.48541L86.869547 281.45671L86.867947 281.43091L86.918977 281.40721L87.175642 281.36311L88.285297 281.26701L89.056095 281.20221L89.330122 281.16971L89.518942 281.13441L89.614332 281.09431L89.624422 281.07181L89.608082 281.04741L89.491969 280.99171L89.257775 280.92511L88.402265 280.75138L86.975804 280.51007L82.147025 279.76012L80.465863 279.47838L78.706083 279.1379L76.888981 278.74546L75.035852 278.30783L73.167993 277.83178L71.306701 277.32409L69.473271 276.79154L67.689001 276.24088L65.975185 275.67891L64.353121 275.11238L62.844105 274.54808L61.469433 273.99279L60.250401 273.45326L59.705905 273.19153L59.208306 272.93628L58.760264 272.68836L58.364443 272.44862L58.023505 272.21791L57.74011 271.99706L57.622257 271.88632L57.511697 271.76092L57.31249 271.46812L57.142542 271.12255L57.001909 270.72812L56.890647 270.28871L56.808807 269.80824L56.756457 269.29061L56.733637 268.7397L56.740437 268.15943L56.776857 267.55368L56.842977 266.92637L56.938857 266.28138L57.064551 265.62263L57.220113 264.95401L57.405599 264.27941L57.621064 263.60275L57.89472 262.75549L58.000647 262.37414L58.085567 262.00855L58.149177 261.64942L58.191177 261.28742L58.211257 260.91324L58.209157 260.51757L58.184497 260.09108L58.137007 259.62447L57.972339 258.53359L57.712719 257.17041L57.355719 255.46041L56.322922 250.70114L55.308919 246.20075L54.32946 242.02199L53.400295 238.22763L52.537175 234.88043L51.755849 232.04314L51.400781 230.83532L51.072068 229.77852L50.771679 228.88057L50.501582 228.14933L50.217121 227.36233L49.926845 226.43364L49.632411 225.3726L49.335476 224.18857L49.037698 222.89089L48.740735 221.4889L48.446243 219.99195L48.155881 218.40938L47.871306 216.75054L47.594175 215.02477L47.326146 213.24141L47.068877 211.40982L46.824024 209.53933L46.593246 207.63929L46.3782 205.71905L46.180543 203.78795L45.866 200.82615L45.430699 197.08335L44.932151 193.03913L44.427865 189.17303L43.237122 180.3506L42.332514 173.80333L41.963637 171.2745L41.637647 169.1844L41.344994 167.48967L41.076128 166.14695L40.821502 165.1129L40.696544 164.69807L40.571565 164.34415L40.445371 164.04572L40.316768 163.79735L40.184564 163.59364L40.047563 163.42915L39.904573 163.29848L39.7544 163.19619L39.59585 163.11689L39.42773 163.05509L39.058004 162.96249L38.635673 162.87509L38.051793 162.7235L37.776174 162.6309L37.509911 162.52423L37.251862 162.40132L37.000883 162.25999L36.755833 162.09809L36.515568 161.91346L36.278946 161.70393L36.044823 161.46733L35.812058 161.20151L35.579506 160.90429L35.346027 160.57352L35.110475 160.20704L34.87171 159.80267L34.628588 159.35825L34.124702 158.34063L33.589675 157.13686L33.014365 155.72964L32.38963 154.10165L31.706327 152.23559L30.955315 150.11414L29.213591 145.03586L28.78204 143.7346L28.423258 142.6045L27.905227 140.86063L27.621947 139.81005L27.535867 139.45857L27.467867 139.228L27.407707 138.95866L27.309397 138.31433L27.237857 137.54684L27.190027 136.67746L27.162837 135.72745L27.153237 134.71806L27.174457 132.60622L27.229177 130.51205L27.292857 128.60563L27.340967 127.05708L27.348967 126.03647L27.418137 124.41005L27.456297 123.89165L27.525727 123.37544L27.624977 122.86407L27.752607 122.3602L27.90718 121.86646L28.087256 121.38552L28.291395 120.92003L28.518158 120.47263L28.766104 120.04597L29.033794 119.64272L29.319789 119.26551L29.622649 118.91699L29.940934 118.59983L30.273205 118.31667L30.618022 118.07015L30.973945 117.86294L31.353628 117.64113L31.73314 117.37187L32.102365 117.06552L32.451188 116.73242L32.769494 116.38293L33.047166 116.02739L33.274091 115.67616L33.440152 115.33958L33.517962 115.04154L33.592282 114.53976L33.663092 113.83488L33.730372 112.92755L33.854292 110.50809L33.963891 107.28655L34.059021 103.26808L34.139541 98.45784L34.205301 92.860977L34.256161 86.482651L34.430923 59.205367L36.767607 52.576045L38.155495 48.6847L39.3272 45.519472L39.845695 44.17983L40.326598 42.986532L40.775393 41.927849L41.197565 40.992053L41.598598 40.167415L41.983976 39.442206L42.359184 38.804698L42.729706 38.243162L43.101027 37.74587L43.478631 37.301094L43.868002 36.897104L44.274626 36.522172L44.503957 36.30738L44.753198 36.04715L45.302289 35.403762L45.903651 34.618781L46.539038 33.71898L47.190202 32.73113L47.838897 31.682003L48.466875 30.598373L49.05589 29.507011L51.748062 24.316645L54.781326 24.0115L55.97848 23.870967L56.995771 23.713902L57.725604 23.559487L57.949101 23.489267L58.060386 23.426907L61.103288 19.932174L61.93826 18.997831L62.743376 18.149744L63.520875 17.386861L64.272998 16.708126L65.001986 16.112486L65.710078 15.598888L66.399516 15.166277L66.73794 14.980013L67.07254 14.8136L67.403597 14.666907L67.73139 14.539803L68.0562 14.432155L68.378307 14.343835L68.697991 14.274705L69.015531 14.224635L69.331208 14.193495L69.645303 14.181155L69.958094 14.187455L70.269863 14.212315L70.580888 14.255575L70.891451 14.317105L71.201831 14.396775L71.512309 14.494455L71.823164 14.610009L72.134676 14.743308L72.362046 14.838518L72.58859 14.914248L72.819433 14.969308L73.059701 15.002518L73.31452 15.012698L73.589015 14.998668L73.888313 14.959248L74.217539 14.893258L74.581818 14.799518L74.986278 14.676842L75.936239 14.339972L77.108428 13.873204L78.543852 13.267095L79.954793 12.673928L81.143502 12.207087L82.150739 11.856851L82.599044 11.722422L83.017265 11.613497L83.4105 11.528867L83.783841 11.467307L84.142386 11.427607L84.491227 11.408547L84.835462 11.408917L85.180184 11.427497L85.891472 11.514437L86.357329 11.570537L86.846322 11.595937L87.35019 11.592837L87.860675 11.563577L88.36952 11.510357L88.868465 11.435437L89.349253 11.341057L89.803623 11.229472L90.223319 11.102932L90.600081 10.963687L90.92565 10.813985L91.191769 10.656078L91.390179 10.492215L91.461409 10.408755L91.512619 10.324645L91.542769 10.240175L91.550869 10.155625L91.535809 10.071265L91.496599 9.987389L91.443629 9.8652634L91.437029 9.7474109L91.475149 9.6343291L91.556369 9.5265155L91.679068 9.4244676L91.841615 9.3286826L92.042382 9.2396586L92.279741 9.1578936L92.552064 9.0838846L92.857723 9.0181286L93.562537 8.9133684L94.381159 8.8475934L95.300566 8.8247834L96.239234 8.8478434L97.066313 8.9146804L97.770872 9.0217774L98.073789 9.0893244L98.341976 9.1656184L98.574066 9.2502194L98.768692 9.3426874L98.924488 9.4425834L99.040087 9.5494674L99.114117 9.6629003L99.145227 9.7824423L99.132037 9.907654L99.073177 10.038096L99.045257 10.098256L99.034947 10.158696L99.041347 10.219176L99.063477 10.279446L99.151257 10.398372L99.290854 10.513518L99.474805 10.622921L99.69565 10.724614L99.945929 10.816634L100.21818 10.897024L100.50495 10.963814L100.79877 11.015034L101.09218 11.048724L101.37773 11.062924L101.64795 11.055624L101.89538 11.024944L102.11257 10.968884L102.29205 10.885474L102.41198 10.797734L102.51209 10.696823L102.59099 10.586314L102.64739 10.469779L102.67999 10.35079L102.68699 10.232916L102.66779 10.119731L102.62059 10.014804L102.56239 9.8842595L102.55169 9.7595159L102.58729 9.6409349L102.66799 9.5288781L102.79251 9.4237072L102.95961 9.3257842L103.16805 9.2354702L103.41659 9.1531272L103.70399 9.0791172L104.02902 9.0138012L104.78699 8.9107004L105.68057 8.8467174L106.69985 8.8247464L107.72816 8.8468194L108.62572 8.9112574L109.38361 9.0153909L109.70738 9.0815089L109.99287 9.1565499L110.23897 9.2401799L110.44456 9.3320659L110.60852 9.4318739L110.72973 9.5392696L110.80713 9.6539195L110.83953 9.7754901L110.82583 9.9036477L110.76493 10.038058L110.73893 10.093768L110.72893 10.150088L110.75413 10.263687L110.83473 10.377155L110.96487 10.488796L111.13877 10.596916L111.35066 10.699817L111.59473 10.795807L111.8652 10.883187L112.15627 10.960257L112.46216 11.025327L112.77707 11.076697L113.09521 11.112677L113.4108 11.131567L113.71804 11.131674L114.01114 11.111304L114.28431 11.068754L114.4743 11.018404L114.64835 10.950944L114.80289 10.869314L114.93434 10.776454L115.0391 10.675314L115.1136 10.568832L115.1543 10.459948L115.1573 10.351605L115.1513 10.191889L115.1818 10.03803L115.2478 9.8906404L115.34787 9.750332L115.48057 9.6177166L115.64445 9.4934063L115.83808 9.3780128L116.06005 9.272148L116.30892 9.176424L116.58327 9.091452L116.88165 9.017845L117.20265 8.956214L117.54483 8.907171L117.90677 8.871328L118.28704 8.849297L118.6842 8.841687L119.67427 8.868821L120.59007 8.945559L121.40091 9.0634642L121.75738 9.1352172L122.07611 9.2140982L122.35325 9.2990522L122.58498 9.3890252L122.76745 9.4829612L122.89683 9.5798072L122.96923 9.6785072L122.98293 9.7282232L122.98093 9.7780072L122.92803 9.8772522L122.80669 9.9751872L122.75109 10.0210822L122.72129 10.0734322L122.71629 10.1316722L122.73569 10.1952522L122.77849 10.2636222L122.84389 10.3362222L123.03906 10.4919072L123.31475 10.6578722L123.66448 10.8296842L124.08174 11.0029102L124.56005 11.1731152L125.21547 11.3778292L125.78095 11.5268142L126.27065 11.6204742L126.69875 11.6592142L127.07944 11.6434342L127.42689 11.5735342L127.75527 11.4499152L128.07877 11.2729832L128.37389 11.1075822L128.69091 10.9660672L129.0293 10.8484232L129.3885 10.7546332L129.76799 10.6846832L130.16721 10.6385532L130.58561 10.6162232L131.02267 10.6177232L131.47783 10.6429532L131.95055 10.6919432L132.44029 10.7646732L132.9465 10.8611332L133.46864 10.9812962L134.00617 11.1251512L134.55854 11.2926812L135.12522 11.4838702L135.80829 11.7032912L136.49376 11.8771032L137.19187 12.0061912L137.91286 12.0914412L138.66698 12.1337412L139.46447 12.1339702L140.31556 12.0930202L141.23051 12.0117702L142.38109 11.9024642L142.882 11.8724042L143.34979 11.8631042L143.79681 11.8777842L144.23541 11.9197142L144.67796 11.9921542L145.13679 12.0983552L145.62427 12.2415742L146.15275 12.4250682L146.73458 12.6520932L147.38212 12.9259042L148.92371 13.6269092L150.87636 14.5541302L152.14079 15.1489072L153.39645 15.7197552L154.61043 16.2530372L155.74981 16.7351182L156.78167 17.1523622L157.67308 17.4911322L158.39112 17.7377932L158.90287 17.8787092L159.27329 17.9870472L159.66992 18.1604512L160.08999 18.3960362L160.53078 18.6909142L160.98952 19.0421972L161.46349 19.4469982L161.94993 19.9024302L162.4461 20.4056052L162.94926 20.9536372L163.45666 21.5436382L163.96555 22.1727222L164.47319 22.8379992L164.97684 23.5365842L165.47375 24.2655892L165.96117 25.0221272L166.43637 25.8033112L166.68085 26.1610582L166.99285 26.5283852L167.35955 26.8948512L167.76811 27.2500152L168.20571 27.5834372L168.65951 27.8846762L169.11668 28.1432922L169.5644 28.3488432L170.0226 28.5376542L170.43686 28.7273992L170.81729 28.9334692L171.17399 29.1712532L171.51709 29.4561442L171.85668 29.8035312L172.20288 30.2288062L172.56581 30.7473602L172.95556 31.3745842L173.38226 32.1258682L173.85601 33.0166042L174.38692 34.0621822L175.66068 36.6794282L177.28441 40.1007332L178.81997 43.4035552L179.49408 44.8992882L180.10991 46.3029072L180.67059 47.6231662L181.17925 48.8688182L181.63902 50.0486192L182.05303 51.1713212L182.42441 52.2456792L182.75629 53.2804462L183.0518 54.2843772L183.31406 55.2662252L183.54621 56.2347442L183.75137 57.1986872L183.93268 58.1668102L184.09326 59.1478652L184.20118 60.0046752L184.31715 61.2044052L184.44008 62.7247702L184.56888 64.5434822L184.83967 68.9867972L185.12079 74.3560542L185.40348 80.4729552L185.67899 87.1592032L185.93856 94.2365012L186.17345 101.5265502L186.30855 105.2425602L186.46846 108.4140602L186.55146 109.6905002L186.63316 110.7046702L186.71106 111.4145302L186.74786 111.6422002L186.78276 111.7780202L186.89104 111.9725502L187.07399 112.1981602L187.32175 112.4467602L187.62446 112.7102402L187.97225 112.9805102L188.35526 113.2494902L188.76363 113.5090802L189.1875 113.7511902L189.62282 114.0109502L190.06404 114.3211502L190.49897 114.6701502L190.91546 115.0462902L191.30134 115.4379502L191.64444 115.8334702L191.9326 116.2212102L192.15365 116.5895402L192.25554 116.8084302L192.35927 117.0720902L192.57093 117.7221902L192.78596 118.5167302L193.00171 119.4326102L193.21552 120.4467402L193.42473 121.5359902L193.62669 122.6772802L193.81873 123.8475002L194.16244 126.1823002L194.43461 128.3555602L194.53721 129.3238502L194.61401 130.1824602L194.66221 130.9082602L194.67931 131.4781602L194.66531 131.9805302L194.62331 132.5560702L194.55481 133.1996302L194.46131 133.9060502L194.20455 135.4868702L193.86429 137.2573102L193.45177 139.1761502L192.97826 141.2021602L192.455 143.2941202L191.89324 145.4108102L191.30424 147.5109902L190.69924 149.5534602L190.08949 151.4969802L189.48626 153.3003302L188.90078 154.9223002L188.34432 156.3216402L188.08048 156.9249502L187.82811 157.4571502L187.58862 157.9130902L187.36342 158.2876002L187.12676 158.5892202L186.79304 158.9278402L186.37762 159.2919602L185.8959 159.6700602L185.36325 160.0506602L184.79505 160.4222402L184.20668 160.7732902L183.61353 161.0923302L182.87364 161.4852602L182.24863 161.8586602L181.72965 162.2210502L181.50715 162.4007802L181.30783 162.5809402L181.13058 162.7626202L180.97429 162.9468702L180.83787 163.1347502L180.72018 163.3273302L180.62014 163.5256802L180.53664 163.7308702L180.46854 163.9439402L180.41474 164.1659802L180.33134 164.6850902L180.23724 165.4784402L180.02264 167.7992302L179.78217 170.9510902L179.52708 174.7567802L179.26863 179.0390502L179.01806 183.6206402L178.78665 188.3242902L178.58563 192.9727702L178.45151 196.1277302L178.306 199.1630302L178.14966 202.0727702L177.98308 204.8510202L177.80682 207.4918902L177.62146 209.9894602L177.42758 212.3378202L177.22576 214.5310602L177.01655 216.5632802L176.80055 218.4285602L176.57833 220.1210002L176.35045 221.6346802L176.1175 222.9637002L175.88006 224.1021402L175.63868 225.0441002L175.5167 225.4395502L175.39396 225.7836702L175.151 226.4508802L174.8949 227.2275402L174.62815 228.1028202L174.35321 229.0659202L173.78872 231.2123902L173.22128 233.5804902L172.67071 236.0837802L172.15688 238.6358302L171.6996 241.1501702L171.31872 243.5403802L170.70679 247.7659702L170.25649 251.0439702L170.08901 252.3855702L169.95839 253.5598002L169.86349 254.5898302L169.80309 255.4988602L169.77599 256.3100402L169.78099 257.0465702L169.81709 257.7316102L169.88299 258.3883402L169.97749 259.0399402L170.09941 259.7095902L170.42085 261.1957202L170.66264 262.2951002L170.8634 263.2948502L171.02188 264.2016402L171.13684 265.0221502L171.20704 265.7630502L171.23124 266.4310102L171.20814 267.0327002L171.13654 267.5747902L171.08214 267.8255702L171.01514 268.0639602L170.93534 268.2907802L170.84264 268.5068702L170.73691 268.7130702L170.61797 268.9102002L170.48564 269.0991102L170.33978 269.2806202L170.00683 269.6248002L169.61788 269.9494202L169.17166 270.2611402L168.66693 270.5666302L167.94317 270.9401602L167.00016 271.3646802L165.86225 271.8324302L164.55377 272.3356402L163.09905 272.8665302L161.52244 273.4173502L159.84828 273.9803102L158.10089 274.5476602L156.30461 275.1116202L154.48379 275.6644102L152.66275 276.1982802L150.86584 276.7054602L149.11739 277.1781602L147.44174 277.6086302L145.86322 277.9891002L144.40617 278.3117902L143.04187 278.5858702L141.51538 278.8713602L139.87826 279.1598902L138.18204 279.4430802L136.47829 279.7125502L134.81855 279.9599102L133.25439 280.1768002L131.83734 280.3548202L130.2724 280.5449202L129.03239 280.7099602L128.11056 280.8515502L127.50015 280.9713202L127.30961 281.0235202L127.19439 281.0709202L127.15369 281.1136202L127.18659 281.1519202L127.29226 281.1859202L127.46987 281.2159202L128.03752 281.2645202L129.49457 281.3605202L129.82928 281.4044202L129.89378 281.4283202L129.89978 281.4411202L129.88798 281.4546202L129.81068 281.4842202L129.66058 281.5179202L129.13695 281.6010202L127.16063 281.8541202L126.6735 281.9037202L126.04401 281.9500202L124.39663 282.0326202L122.29575 282.1021202L119.81863 282.1585202L117.04252 282.2019202L114.0447 282.2323202L107.69296 282.2543202L101.38148 282.2249202L98.433991 282.1910202L95.728355 282.1444202L93.341831 282.0851202L91.35168 282.0132202L89.835165 281.9287202L89.278665 281.8818202L88.869546 281.8317202L88.869546 281.8317202"
       id="path1813"
       inkscape:connector-curvature="0"
       sodipodi:nodetypes="ccscssssscscccccscssscscsssscscccssccccccssscscccccscccccscsssccccc" />
  </g>
  <g
     id="g2445"
     inkscape:groupmode="layer"
     inkscape:label="B.Cu"
     style="display:none">
    <path
       style="display:inline;fill:#000000;fill-opacity:1;stroke:none;stroke-width:0.20418039;stroke-opacity:1"
       d="m 40.413261,97.213369 -0.507302,-0.08206 -0.134072,-0.02752 -0.03811,-0.01132 -0.01919,-0.01002 -5.58e-4,-0.009 0.01782,-0.0083 0.08964,-0.0154 0.387566,-0.03356 0.269215,-0.02263 0.09571,-0.01135 0.06595,-0.01233 0.03332,-0.014 0.0035,-0.0079 -0.0057,-0.0085 -0.04055,-0.01945 -0.0818,-0.02326 -0.298802,-0.06068 -0.498216,-0.08428 -1.686533,-0.261933 -0.587174,-0.0984 -0.614634,-0.118918 -0.634654,-0.137066 -0.647236,-0.15285 -0.652382,-0.166269 -0.650088,-0.177319 -0.640357,-0.186002 -0.623186,-0.192328 -0.59858,-0.196277 -0.566533,-0.197871 -0.52705,-0.197091 -0.480128,-0.193944 -0.425767,-0.18844 -0.190175,-0.09141 -0.173795,-0.08915 -0.156486,-0.08659 -0.138247,-0.08373 -0.119079,-0.08058 -0.09898,-0.07713 -0.04116,-0.03868 -0.03862,-0.0438 -0.06958,-0.102265 -0.05936,-0.120697 -0.04912,-0.137761 -0.03886,-0.153472 -0.02858,-0.167812 -0.01828,-0.180791 -0.008,-0.192415 0.0024,-0.202669 0.01272,-0.211568 0.02309,-0.219099 0.03349,-0.225274 0.0439,-0.23008 0.05433,-0.233526 0.06478,-0.235616 0.07526,-0.236335 0.09558,-0.29592 0.037,-0.133193 0.02966,-0.127689 0.02222,-0.125432 0.01467,-0.126435 0.007,-0.130688 -7.34e-4,-0.138195 -0.0086,-0.148959 -0.01659,-0.162971 -0.05751,-0.381009 -0.09068,-0.476113 -0.124688,-0.597247 -0.360722,-1.662256 -0.354158,-1.571838 -0.342093,-1.459503 -0.324527,-1.325245 -0.301459,-1.169067 -0.272891,-0.990972 -0.124014,-0.421852 -0.114809,-0.369105 -0.104916,-0.313624 -0.09434,-0.255399 -0.09935,-0.274873 -0.101384,-0.32436 -0.102836,-0.370587 -0.10371,-0.413542 -0.104004,-0.453237 -0.103719,-0.489669 -0.102857,-0.522836 -0.101414,-0.552739 -0.09939,-0.579378 -0.09679,-0.602755 -0.09361,-0.622869 -0.08986,-0.639714 -0.08552,-0.6533 -0.0806,-0.663622 -0.07511,-0.670676 -0.06904,-0.67447 -0.10986,-1.034459 -0.152036,-1.307237 -0.174126,-1.412513 -0.176131,-1.350301 -0.415887,-3.081384 -0.31595,-2.286746 -0.128836,-0.883237 -0.113858,-0.730003 -0.102214,-0.591913 -0.09391,-0.468968 -0.08893,-0.36116 -0.04364,-0.144886 -0.04365,-0.123613 -0.04408,-0.104231 -0.04492,-0.08675 -0.04618,-0.07115 -0.04785,-0.05745 -0.04994,-0.04564 -0.05245,-0.03573 -0.05538,-0.0277 -0.05872,-0.02158 -0.129133,-0.03234 -0.147507,-0.03053 -0.20393,-0.05295 -0.09626,-0.03234 -0.093,-0.03726 -0.09013,-0.04293 -0.08766,-0.04936 -0.08559,-0.05655 -0.08392,-0.06448 -0.08265,-0.07318 -0.08177,-0.08264 -0.0813,-0.09284 -0.08122,-0.103809 -0.08155,-0.115527 -0.08227,-0.128 -0.08339,-0.141233 -0.08491,-0.155221 -0.175991,-0.355421 -0.186867,-0.420437 -0.200937,-0.491496 -0.2182,-0.568603 -0.238655,-0.651754 -0.262304,-0.740952 -0.608326,-1.773676 -0.150727,-0.454487 -0.125311,-0.394707 -0.180931,-0.609076 -0.09894,-0.366933 -0.03007,-0.122761 -0.02375,-0.08053 -0.02101,-0.09407 -0.03434,-0.225043 -0.02499,-0.268059 -0.01671,-0.303646 -0.0095,-0.331807 -0.0034,-0.352547 0.0074,-0.737596 0.01911,-0.731424 0.02224,-0.66585 0.0168,-0.540858 0.0028,-0.356465 0.02416,-0.568055 0.01333,-0.18106 0.02425,-0.180295 0.03467,-0.178605 0.04458,-0.175985 0.05399,-0.172447 0.0629,-0.167977 0.0713,-0.16258 0.0792,-0.156262 0.0866,-0.149018 0.09349,-0.140842 0.09989,-0.131747 0.105779,-0.121727 0.111167,-0.110773 0.116051,-0.0989 0.120433,-0.0861 0.124312,-0.07237 0.132611,-0.07747 0.132551,-0.09404 0.128958,-0.106998 0.121833,-0.116341 0.111173,-0.122065 0.09698,-0.124179 0.07926,-0.122673 0.058,-0.117556 0.02718,-0.104096 0.02596,-0.175255 0.02473,-0.246191 0.0235,-0.316901 0.04328,-0.845037 0.03828,-1.125178 0.03323,-1.403519 0.02812,-1.680059 0.02297,-1.9548 0.01776,-2.227739 0.06104,-9.527056 0.816127,-2.315404 0.484743,-1.359119 0.409238,-1.105509 0.181093,-0.467893 0.167964,-0.41678 0.156749,-0.369763 0.147451,-0.326843 0.140067,-0.288019 0.1346,-0.253291 0.131048,-0.222661 0.129411,-0.196126 0.12969,-0.173687 0.131885,-0.155346 0.135995,-0.1411 0.14202,-0.130952 0.0801,-0.07502 0.08705,-0.09089 0.19178,-0.224715 0.210036,-0.274168 0.221919,-0.31427 0.227431,-0.345024 0.226567,-0.3664252 0.219332,-0.378477 0.205724,-0.381176 0.940287,-1.8128243 1.059419,-0.1065771 0.418126,-0.049084 0.355307,-0.054858 0.254906,-0.053932 0.07806,-0.024526 0.03887,-0.02178 1.062785,-1.220595 0.291628,-0.3263353 0.281201,-0.2962088 0.271555,-0.2664499 0.262691,-0.2370598 0.254612,-0.2080374 0.247313,-0.1793829 0.240798,-0.1510967 0.1182,-0.065056 0.116865,-0.058123 0.115627,-0.051235 0.114488,-0.044393 0.113445,-0.037598 0.112501,-0.030847 0.111656,-0.024145 0.110906,-0.017488 0.110255,-0.010876 0.109703,-0.00431 0.109248,0.0022 0.108891,0.00868 0.10863,0.015109 0.10847,0.02149 0.108405,0.027826 0.10844,0.034116 0.108572,0.040359 0.1088,0.046557 0.07941,0.033254 0.07913,0.02645 0.08062,0.019231 0.08392,0.011599 0.089,0.00356 0.09587,-0.0049 0.104535,-0.013768 0.114988,-0.023048 0.12723,-0.03274 0.141265,-0.042847 0.33179,-0.1176576 0.409407,-0.1630266 0.501346,-0.2116939 0.492796,-0.2071737 0.415176,-0.1630522 0.351795,-0.1223259 0.156578,-0.046952 0.146071,-0.038044 0.137344,-0.029559 0.130396,-0.021501 0.125228,-0.013866 0.121839,-0.00666 0.120229,1.292e-4 0.120401,0.00649 0.248429,0.030365 0.162708,0.019594 0.17079,0.00887 0.175984,-0.00108 0.178296,-0.010219 0.177722,-0.018588 0.174266,-0.026167 0.167923,-0.032964 0.158696,-0.038973 0.146586,-0.044196 0.131591,-0.048634 0.11371,-0.052286 0.09295,-0.055152 0.0693,-0.057232 0.02488,-0.02915 0.01789,-0.029377 0.01053,-0.029503 0.0028,-0.02953 -0.0053,-0.029464 -0.01369,-0.029295 -0.0185,-0.042654 -0.0023,-0.041162 0.01331,-0.039496 0.02837,-0.037656 0.04285,-0.035642 0.05677,-0.033454 0.07012,-0.031093 0.0829,-0.028558 0.09511,-0.025849 0.106757,-0.022966 0.246168,-0.036589 0.285918,-0.022973 0.321118,-0.00797 0.327846,0.00805 0.288872,0.023344 0.246079,0.037405 0.105799,0.023592 0.09367,0.026647 0.08106,0.029548 0.06798,0.032296 0.05441,0.03489 0.04038,0.037331 0.02586,0.039618 0.01087,0.041752 -0.0046,0.043732 -0.02056,0.045559 -0.0098,0.021012 -0.0036,0.02111 0.0022,0.021124 0.0077,0.02105 0.03066,0.041537 0.04876,0.040217 0.06425,0.038211 0.07713,0.035518 0.08741,0.03214 0.09509,0.028078 0.100159,0.023327 0.102622,0.01789 0.102478,0.011767 0.09973,0.00496 0.09438,-0.00255 0.08642,-0.010715 0.07586,-0.01958 0.06269,-0.029132 0.04189,-0.030645 0.03496,-0.035245 0.02756,-0.038597 0.0197,-0.040702 0.01139,-0.041559 0.0024,-0.04117 -0.0067,-0.039532 -0.01648,-0.036647 -0.02033,-0.045595 -0.0037,-0.043569 0.01243,-0.041416 0.02819,-0.039138 0.04349,-0.036733 0.05836,-0.034201 0.0728,-0.031544 0.08681,-0.02876 0.10038,-0.025849 0.113522,-0.022813 0.264734,-0.03601 0.312098,-0.022347 0.356001,-0.00767 0.359155,0.00771 0.313488,0.022506 0.264706,0.03637 0.113082,0.023093 0.09971,0.026209 0.08595,0.029209 0.07181,0.032093 0.05727,0.03486 0.04233,0.03751 0.02703,0.040043 0.01132,0.042461 -0.0048,0.044761 -0.02127,0.046945 -0.0091,0.019458 -0.0035,0.019671 0.0088,0.039676 0.02815,0.039631 0.04545,0.038993 0.06074,0.037763 0.07401,0.03594 0.08525,0.033526 0.09447,0.030519 0.101662,0.026918 0.106837,0.022727 0.109987,0.017942 0.111116,0.012567 0.110226,0.0066 0.107308,3.74e-5 0.10237,-0.00711 0.09541,-0.014861 0.06636,-0.017586 0.06079,-0.023562 0.05398,-0.028511 0.04591,-0.032433 0.03659,-0.035325 0.02602,-0.037191 0.01422,-0.03803 0.001,-0.037841 -0.0021,-0.055784 0.01065,-0.053738 0.02305,-0.051478 0.03495,-0.049005 0.04635,-0.046318 0.05724,-0.043418 0.06763,-0.040303 0.07753,-0.036975 0.08692,-0.033433 0.09582,-0.029678 0.104214,-0.025709 0.112115,-0.021526 0.119512,-0.017129 0.126414,-0.012519 0.132815,-0.00769 0.138715,-0.00266 0.345799,0.00948 0.319859,0.026802 0.2832,0.04118 0.124503,0.025061 0.111322,0.02755 0.0968,0.029672 0.08094,0.031425 0.06373,0.032809 0.04519,0.033825 0.02529,0.034473 0.0048,0.017364 -6.98e-4,0.017388 -0.01848,0.034663 -0.04238,0.034205 -0.01942,0.01603 -0.01041,0.018284 -0.0017,0.020341 0.0068,0.022206 0.01495,0.023879 0.02284,0.025357 0.06817,0.054376 0.09629,0.057966 0.122149,0.060008 0.145735,0.060502 0.167058,0.059447 0.228917,0.0715 0.197503,0.052035 0.171036,0.032712 0.149522,0.013531 0.132962,-0.00551 0.121353,-0.024414 0.114692,-0.043176 0.112988,-0.061796 0.103076,-0.057769 0.110724,-0.049426 0.118189,-0.041089 0.125457,-0.032758 0.132543,-0.024431 0.139434,-0.016112 0.146134,-0.0078 0.15265,5.239e-4 0.158973,0.00881 0.165105,0.017111 0.17105,0.025402 0.176803,0.03369 0.182366,0.041969 0.187742,0.050244 0.192924,0.058513 0.197923,0.066776 0.238574,0.076637 0.239412,0.060707 0.243827,0.045086 0.251818,0.029775 0.263389,0.014774 0.278537,8e-5 0.297258,-0.014302 0.319562,-0.028378 0.401859,-0.038177 0.174952,-0.010499 0.163383,-0.00325 0.15613,0.00513 0.153188,0.014645 0.154568,0.025301 0.160254,0.037092 0.170261,0.050022 0.184581,0.064088 0.203214,0.079292 0.226164,0.095633 0.538427,0.2448379 0.681996,0.3238478 0.441624,0.207736 0.438561,0.1993784 0.424003,0.1862578 0.397948,0.168375 0.360394,0.1457296 0.311341,0.1183212 0.250787,0.08615 0.178738,0.049217 0.129375,0.037839 0.13853,0.060564 0.146717,0.082282 0.153953,0.1029912 0.160223,0.1226916 0.165542,0.1413836 0.169897,0.1590674 0.173296,0.1757425 0.175737,0.1914095 0.177218,0.2060679 0.177739,0.2197183 0.177302,0.2323593 0.175908,0.2439928 0.173555,0.2546174 0.170239,0.2642338 0.165972,0.2728418 0.08539,0.1249493 0.108971,0.1282952 0.128076,0.1279945 0.142697,0.1240471 0.152839,0.1164533 0.158498,0.1052128 0.159674,0.090326 0.156374,0.07179 0.160034,0.06594 0.144687,0.06627 0.132872,0.07197 0.124584,0.08305 0.119833,0.0995 0.118608,0.121331 0.120916,0.148535 0.126759,0.181114 0.136127,0.219068 0.149032,0.262399 0.165466,0.3111048 0.185429,0.365186 0.444883,0.914118 0.567115,1.194949 0.53632,1.153567 0.235445,0.52241 0.215089,0.490238 0.195827,0.461123 0.177658,0.435065 0.160583,0.412065 0.1446,0.392123 0.129711,0.375238 0.115914,0.36141 0.103212,0.35064 0.0916,0.342927 0.08108,0.338272 0.07166,0.336674 0.06333,0.338133 0.05608,0.34265 0.03769,0.299256 0.0405,0.419026 0.04294,0.531013 0.04498,0.635217 0.09458,1.551903 0.09819,1.875305 0.09873,2.136432 0.09623,2.335286 0.09066,2.471867 0.08204,2.546174 0.04719,1.297879 0.05585,1.107701 0.02899,0.445818 0.02854,0.354217 0.02721,0.24793 0.01285,0.07952 0.01219,0.04744 0.03782,0.06794 0.0639,0.0788 0.08653,0.08683 0.105727,0.09202 0.121471,0.0944 0.133773,0.09395 0.14263,0.09067 0.148044,0.08456 0.152043,0.09072 0.154104,0.108343 0.151906,0.121894 0.145467,0.131373 0.134775,0.136794 0.119833,0.138142 0.100645,0.135425 0.07721,0.128646 0.03559,0.07645 0.03623,0.09209 0.07393,0.227058 0.0751,0.277507 0.07535,0.319886 0.07468,0.354203 0.07307,0.380439 0.07054,0.398615 0.06707,0.408719 0.120047,0.815469 0.09506,0.759048 0.03583,0.338192 0.02682,0.299884 0.01684,0.253498 0.006,0.199047 -0.0049,0.175461 -0.01467,0.201018 -0.02392,0.224774 -0.03266,0.246729 -0.08968,0.552128 -0.118841,0.618357 -0.14408,0.670187 -0.165381,0.707619 -0.182758,0.730653 -0.196204,0.73929 -0.205718,0.733523 -0.211307,0.713368 -0.212966,0.678807 -0.210688,0.629851 -0.204489,0.566501 -0.194353,0.488743 -0.09215,0.210716 -0.08814,0.18588 -0.08365,0.159245 -0.07865,0.130804 -0.08266,0.105346 -0.116557,0.118269 -0.145092,0.127175 -0.168249,0.132058 -0.186037,0.132931 -0.198454,0.129781 -0.205498,0.12261 -0.207168,0.11143 -0.258419,0.137237 -0.218296,0.130417 -0.181262,0.126571 -0.07771,0.06277 -0.06962,0.06292 -0.06191,0.06345 -0.05459,0.06435 -0.04765,0.06562 -0.04111,0.06726 -0.03494,0.06928 -0.02916,0.07167 -0.02378,0.07442 -0.01879,0.07755 -0.02913,0.181308 -0.03287,0.277091 -0.07495,0.810575 -0.08399,1.100841 -0.08909,1.329202 -0.09027,1.495656 -0.08752,1.600198 -0.08082,1.64283 -0.07021,1.623561 -0.04684,1.101924 -0.05082,1.06013 -0.0546,1.016276 -0.05818,0.970352 -0.06156,0.922368 -0.06474,0.872319 -0.06772,0.820205 -0.07049,0.766027 -0.07307,0.709787 -0.07544,0.651481 -0.07762,0.591113 -0.07959,0.528679 -0.08136,0.464183 -0.08293,0.397619 -0.08431,0.328996 -0.0426,0.138118 -0.04287,0.120189 -0.08486,0.233035 -0.08945,0.271262 -0.09317,0.305706 -0.09603,0.336379 -0.197157,0.749691 -0.198189,0.8271 -0.192295,0.874317 -0.179464,0.891346 -0.159713,0.878177 -0.133029,0.834821 -0.213727,1.47586 -0.157275,1.144897 -0.0585,0.468577 -0.04562,0.410119 -0.03315,0.359756 -0.0211,0.317494 -0.0095,0.283319 0.0017,0.257245 0.01261,0.239262 0.02302,0.229374 0.03301,0.227583 0.04258,0.233886 0.112269,0.519057 0.08445,0.383977 0.07012,0.34918 0.05535,0.316712 0.04015,0.286577 0.02452,0.258772 0.0085,0.233296 -0.0081,0.210151 -0.02501,0.189334 -0.019,0.08759 -0.0234,0.08326 -0.02787,0.07922 -0.03238,0.07547 -0.03693,0.07202 -0.04154,0.06885 -0.04622,0.06598 -0.05094,0.0634 -0.116288,0.120211 -0.135847,0.113379 -0.15585,0.108873 -0.176286,0.106698 -0.252785,0.130462 -0.329363,0.14827 -0.397434,0.16337 -0.457009,0.175755 -0.508086,0.185422 -0.550658,0.192383 -0.584729,0.196624 -0.610306,0.198156 -0.627381,0.196973 -0.635952,0.193071 -0.63603,0.186464 -0.627601,0.177141 -0.610676,0.165098 -0.585249,0.150349 -0.551325,0.132886 -0.5089,0.112705 -0.476505,0.09573 -0.533153,0.09971 -0.571792,0.100774 -0.592434,0.09891 -0.595063,0.09412 -0.579693,0.08639 -0.546309,0.07575 -0.494929,0.06218 -0.546582,0.0664 -0.433095,0.05764 -0.321965,0.04945 -0.213196,0.04183 -0.06655,0.01823 -0.04024,0.01655 -0.01422,0.01491 0.01149,0.01338 0.03691,0.01188 0.06203,0.01048 0.198262,0.01697 0.508899,0.03353 0.116904,0.01533 0.02253,0.0083 0.0021,0.0045 -0.0041,0.0047 -0.027,0.01034 -0.05242,0.01177 -0.182886,0.02902 -0.690264,0.0884 -0.170138,0.01732 -0.21986,0.01617 -0.575376,0.02885 -0.733768,0.02427 -0.865177,0.0197 -0.969603,0.01516 -1.04704,0.01062 -2.218454,0.0077 -2.204392,-0.01027 -1.02946,-0.01184 -0.94499,-0.01628 -0.833534,-0.02071 -0.695094,-0.02511 -0.529669,-0.02951 -0.194367,-0.01638 -0.142892,-0.0175 v 0"
       id="path832"
       inkscape:connector-curvature="0"
       sodipodi:nodetypes="ccscssssscscccccscssscscsssscscccssccccccssscscccccscccccscsssccccc" />
  </g>
  <g
     id="g2447"
     inkscape:groupmode="layer"
     inkscape:label="B.Mask"
     style="display:none">
    <path
       inkscape:connector-curvature="0"
       id="path1296"
       d="m 142.10156,149.06641 c -1.55984,-0.0586 -3.76286,0.20652 -7.89453,0.74804 -9.36494,1.22747 -11.8067,2.30973 -13.77344,6.10743 -3.0216,5.83461 -1.18431,9.42559 6.16407,12.04296 5.62757,2.00445 11.7782,1.54561 18.26953,-1.36328 7.2801,-3.26235 8.68325,-6.10054 5.90039,-11.92773 -0.88629,-1.85587 -2.47489,-3.37082 -4.625,-4.41016 -1.56324,-0.75565 -2.48118,-1.13861 -4.04102,-1.19726 z m -6.47851,5.1914 c 1.92624,0 2.76172,0.36042 2.76172,1.19141 0,0.65561 -0.53581,1.19336 -1.19141,1.19336 -0.65561,0 -1.19141,0.67654 -1.19141,1.5039 0,0.82739 0.5358,1.70934 1.19141,1.96094 2.31053,0.88663 1.15396,2.09766 -2.00391,2.09766 -2.62339,0 -3.35503,-0.35091 -4.08593,-1.95508 -1.36651,-2.99915 0.8915,-5.99219 4.51953,-5.99219 z"
       style="display:inline;fill:#050505;stroke:#000000;stroke-width:0;stroke-miterlimit:4;stroke-dasharray:none;stroke-opacity:1"
       transform="scale(0.26458333)" />
    <path
       id="path1303"
       d="M 223.85352 147.48633 C 219.78753 147.40055 218.17194 148.44809 215.60156 151.56641 C 210.56531 157.67629 210.93271 161.16399 216.95898 164.48828 C 224.52971 168.66454 234.86493 169.54572 241.06445 166.54492 C 244.72073 164.77516 246.01251 161.67726 244.86719 157.42383 C 243.11422 150.91379 240.42868 149.3185 228.86328 147.91602 C 226.83726 147.67032 225.20884 147.51505 223.85352 147.48633 z M 229.14062 153.63086 C 229.64786 153.6537 230.16881 153.77428 230.68555 154.01367 L 232.55273 154.88086 L 230.36914 155.74219 C 227.792 156.75795 227.53021 158.61998 229.79492 159.83203 C 230.6813 160.3064 231.19601 161.03408 230.93945 161.44922 C 230.19637 162.65157 226.82787 162.32397 225.41602 160.91211 C 222.63961 158.1357 225.58991 153.47087 229.14062 153.63086 z "
       style="display:inline;fill:#050505;stroke:#000000;stroke-width:0;stroke-miterlimit:4;stroke-dasharray:none;stroke-opacity:1"
       transform="scale(0.26458333)" />
  </g>
  <g
     id="g2449"
     inkscape:groupmode="layer"
     inkscape:label="B.Silk"
     style="display:none" />
  <g
     id="g2451"
     inkscape:groupmode="layer"
     inkscape:label="F.Cu"
     style="display:inline">
    <g
       transform="matrix(0.35963709,0,0,0.35963709,8.2235408,-2.7303735)"
       id="g7104"
       style="display:inline">
      <path
         sodipodi:nodetypes="ccscsscsssscssssccccccccccscsccscscscssssccssccsscccccssssssssssscssscc"
         inkscape:connector-curvature="0"
         id="path7102"
         d="m 42.371537,118.29064 c 1.12138,-1.20573 2.315856,-3.00699 2.654393,-4.00279 0.394482,-1.16038 0.543611,-7.87828 0.415275,-18.707099 L 45.240959,78.684217 47.114283,74.59204 c 1.030329,-2.250697 2.85057,-6.232291 4.044981,-8.847989 1.427501,-3.126153 2.039532,-5.172099 1.786079,-5.970656 -0.314971,-0.992386 -0.0111,-1.371312 1.659456,-2.069314 1.124768,-0.469957 3.246601,-1.72919 4.715186,-2.798293 2.065524,-1.503666 2.620252,-2.245596 2.449781,-3.2765 -0.217212,-1.31356 -0.159404,-1.32715 4.030372,-0.947482 2.337909,0.211856 5.22607,0.20222 6.418136,-0.02141 2.025577,-0.380001 2.144949,-0.518822 1.824383,-2.12165 -0.407495,-2.037474 0.05402,-2.117823 3.135342,-0.545851 2.778153,1.417308 5.01761,1.500956 5.737652,0.214313 0.605028,-1.081126 2.328293,-0.915782 6.42973,0.616922 2.333155,0.871896 2.675805,0.869091 4.586419,-0.03755 1.925048,-0.913494 2.176086,-0.914162 3.706928,-0.0099 2.17632,1.285584 3.348282,1.224145 3.800042,-0.199213 0.48856,-1.539338 1.22179,-1.47482 3.32189,0.292298 2.07646,1.747233 4.33072,1.851426 6.32395,0.292299 1.87304,-1.465109 3.04154,-1.465109 3.95651,0 1.08899,1.74375 2.96422,1.419249 5.0674,-0.876895 2.23436,-2.43935 3.0997,-2.566643 3.61058,-0.531127 0.41313,1.646024 1.07017,1.666821 4.8045,0.152071 1.73579,-0.704082 2.02838,-0.67878 2.69514,0.23306 0.90511,1.237815 3.12864,1.298388 4.67682,0.127404 1.48701,-1.124717 3.19632,-1.093029 3.64166,0.06751 0.62917,1.639585 2.6272,1.88714 6.43723,0.797569 l 3.62572,-1.036864 0.18007,1.539456 c 0.21357,1.825968 5.06319,5.464512 9.2791,6.961871 2.2876,0.812483 2.88277,1.367242 3.94056,3.673027 0.6853,1.493798 2.98285,5.313785 5.10567,8.488861 2.12282,3.175073 4.10449,6.230304 4.40371,6.789406 0.98372,1.838095 1.72915,9.393078 2.17056,21.99883 l 0.43466,12.413227 2.50667,2.48487 c 2.41121,2.39024 2.53881,2.44175 3.35113,1.35284 0.93509,-1.25348 0.81869,-13.06503 -0.37483,-38.035968 -0.80346,-16.809818 -1.30806,-18.868626 -8.19567,-33.438487 -2.87243,-6.076275 -3.71308,-7.347376 -5.68073,-8.589499 -1.27018,-0.801824 -3.68989,-3.314328 -5.37714,-5.583342 -2.65602,-3.571802 -3.3122,-4.125481 -4.88919,-4.125481 -1.27755,0 -2.32993,-0.538716 -3.52421,-1.80406 -2.89053,-3.062524 -10.13704,-5.688325 -11.15459,-4.041907 -0.53608,0.867394 -3.06786,0.708148 -4.58916,-0.288655 -2.13349,-1.397911 -6.40866,-1.776791 -7.34317,-0.650776 -1.07774,1.298596 -2.30215,1.182733 -6.1585,-0.582761 -1.94825,-0.891937 -3.85338,-1.387602 -4.60127,-1.197131 -0.702,0.178783 -2.03016,0.505636 -2.95146,0.726341 -0.92129,0.220704 -3.48515,0.05974 -5.69745,-0.357687 -3.68685,-0.695657 -4.19365,-0.666731 -6.07561,0.346771 -1.97316,1.06262 -2.16438,1.066259 -4.903741,0.09333 -3.773642,-1.34028 -4.829594,-1.282781 -8.247258,0.44908 -3.101788,1.571795 -5.22547,1.848148 -6.259125,0.814495 -0.690871,-0.690871 -4.954044,0.653463 -9.618369,3.033023 -1.86286,0.95036 -2.97107,1.131409 -5.117999,0.836131 -2.702659,-0.37171 -2.776005,-0.337877 -5.341168,2.463747 -1.430484,1.562349 -3.136632,3.593469 -3.791442,4.5136 -0.903765,1.269961 -1.819127,1.756841 -3.799879,2.021146 -2.607787,0.347975 -2.610976,0.351326 -5.441951,5.717962 -2.124057,4.026542 -3.226282,5.507009 -4.406289,5.918362 -1.275675,0.444702 -1.864537,1.365094 -3.109824,4.860659 -0.844893,2.371644 -2.351898,6.588684 -3.3489,9.371199 l -1.81273,5.059118 -0.247807,24.551071 c -0.136294,13.503084 -0.431363,26.813289 -0.655709,29.578229 -0.394608,4.86334 -0.367435,5.02717 0.833818,5.02717 0.682946,0 2.159211,-0.98651 3.28059,-2.19224 z"
         style="fill:#050505;stroke-width:0.58459675" />
    </g>
  </g>
  <g
     id="g2453"
     inkscape:groupmode="layer"
     inkscape:label="F.Mask"
     style="display:inline">
    <g
       style="display:inline"
       id="g7098"
       transform="matrix(0.35963709,0,0,0.35963709,8.2235408,-2.7303735)">
      <path
         style="fill:#050505;stroke-width:0.58459675"
         d="m 42.371537,118.29064 c 1.12138,-1.20573 2.315856,-3.00699 2.654393,-4.00279 0.394482,-1.16038 0.543611,-7.87828 0.415275,-18.707099 L 45.240959,78.684217 47.114283,74.59204 c 1.030329,-2.250697 2.85057,-6.232291 4.044981,-8.847989 1.427501,-3.126153 2.039532,-5.172099 1.786079,-5.970656 -0.314971,-0.992386 -0.0111,-1.371312 1.659456,-2.069314 1.124768,-0.469957 3.246601,-1.72919 4.715186,-2.798293 2.065524,-1.503666 2.620252,-2.245596 2.449781,-3.2765 -0.217212,-1.31356 -0.159404,-1.32715 4.030372,-0.947482 2.337909,0.211856 5.22607,0.20222 6.418136,-0.02141 2.025577,-0.380001 2.144949,-0.518822 1.824383,-2.12165 -0.407495,-2.037474 0.05402,-2.117823 3.135342,-0.545851 2.778153,1.417308 5.01761,1.500956 5.737652,0.214313 0.605028,-1.081126 2.328293,-0.915782 6.42973,0.616922 2.333155,0.871896 2.675805,0.869091 4.586419,-0.03755 1.925048,-0.913494 2.176086,-0.914162 3.706928,-0.0099 2.17632,1.285584 3.348282,1.224145 3.800042,-0.199213 0.48856,-1.539338 1.22179,-1.47482 3.32189,0.292298 2.07646,1.747233 4.33072,1.851426 6.32395,0.292299 1.87304,-1.465109 3.04154,-1.465109 3.95651,0 1.08899,1.74375 2.96422,1.419249 5.0674,-0.876895 2.23436,-2.43935 3.0997,-2.566643 3.61058,-0.531127 0.41313,1.646024 1.07017,1.666821 4.8045,0.152071 1.73579,-0.704082 2.02838,-0.67878 2.69514,0.23306 0.90511,1.237815 3.12864,1.298388 4.67682,0.127404 1.48701,-1.124717 3.19632,-1.093029 3.64166,0.06751 0.62917,1.639585 2.6272,1.88714 6.43723,0.797569 l 3.62572,-1.036864 0.18007,1.539456 c 0.21357,1.825968 5.06319,5.464512 9.2791,6.961871 2.2876,0.812483 2.88277,1.367242 3.94056,3.673027 0.6853,1.493798 2.98285,5.313785 5.10567,8.488861 2.12282,3.175073 4.10449,6.230304 4.40371,6.789406 0.98372,1.838095 1.72915,9.393078 2.17056,21.99883 l 0.43466,12.413227 2.50667,2.48487 c 2.41121,2.39024 2.53881,2.44175 3.35113,1.35284 0.93509,-1.25348 0.81869,-13.06503 -0.37483,-38.035968 -0.80346,-16.809818 -1.30806,-18.868626 -8.19567,-33.438487 -2.87243,-6.076275 -3.71308,-7.347376 -5.68073,-8.589499 -1.27018,-0.801824 -3.68989,-3.314328 -5.37714,-5.583342 -2.65602,-3.571802 -3.3122,-4.125481 -4.88919,-4.125481 -1.27755,0 -2.32993,-0.538716 -3.52421,-1.80406 -2.89053,-3.062524 -10.13704,-5.688325 -11.15459,-4.041907 -0.53608,0.867394 -3.06786,0.708148 -4.58916,-0.288655 -2.13349,-1.397911 -6.40866,-1.776791 -7.34317,-0.650776 -1.07774,1.298596 -2.30215,1.182733 -6.1585,-0.582761 -1.94825,-0.891937 -3.85338,-1.387602 -4.60127,-1.197131 -0.702,0.178783 -2.03016,0.505636 -2.95146,0.726341 -0.92129,0.220704 -3.48515,0.05974 -5.69745,-0.357687 -3.68685,-0.695657 -4.19365,-0.666731 -6.07561,0.346771 -1.97316,1.06262 -2.16438,1.066259 -4.903741,0.09333 -3.773642,-1.34028 -4.829594,-1.282781 -8.247258,0.44908 -3.101788,1.571795 -5.22547,1.848148 -6.259125,0.814495 -0.690871,-0.690871 -4.954044,0.653463 -9.618369,3.033023 -1.86286,0.95036 -2.97107,1.131409 -5.117999,0.836131 -2.702659,-0.37171 -2.776005,-0.337877 -5.341168,2.463747 -1.430484,1.562349 -3.136632,3.593469 -3.791442,4.5136 -0.903765,1.269961 -1.819127,1.756841 -3.799879,2.021146 -2.607787,0.347975 -2.610976,0.351326 -5.441951,5.717962 -2.124057,4.026542 -3.226282,5.507009 -4.406289,5.918362 -1.275675,0.444702 -1.864537,1.365094 -3.109824,4.860659 -0.844893,2.371644 -2.351898,6.588684 -3.3489,9.371199 l -1.81273,5.059118 -0.247807,24.551071 c -0.136294,13.503084 -0.431363,26.813289 -0.655709,29.578229 -0.394608,4.86334 -0.367435,5.02717 0.833818,5.02717 0.682946,0 2.159211,-0.98651 3.28059,-2.19224 z"
         id="path7096"
         inkscape:connector-curvature="0"
         sodipodi:nodetypes="ccscsscsssscssssccccccccccscsccscscscssssccssccsscccccssssssssssscssscc" />
    </g>
    <path
       style="display:inline;fill:#050505;stroke:#000000;stroke-width:0;stroke-miterlimit:4;stroke-dasharray:none;stroke-opacity:1"
       d="m 142.10156,149.06641 c -1.55984,-0.0586 -3.76286,0.20652 -7.89453,0.74804 -9.36494,1.22747 -11.8067,2.30973 -13.77344,6.10743 -3.0216,5.83461 -1.18431,9.42559 6.16407,12.04296 5.62757,2.00445 11.7782,1.54561 18.26953,-1.36328 7.2801,-3.26235 8.68325,-6.10054 5.90039,-11.92773 -0.88629,-1.85587 -2.47489,-3.37082 -4.625,-4.41016 -1.56324,-0.75565 -2.48118,-1.13861 -4.04102,-1.19726 z m -6.47851,5.1914 c 1.92624,0 2.76172,0.36042 2.76172,1.19141 0,0.65561 -0.53581,1.19336 -1.19141,1.19336 -0.65561,0 -1.19141,0.67654 -1.19141,1.5039 0,0.82739 0.5358,1.70934 1.19141,1.96094 2.31053,0.88663 1.15396,2.09766 -2.00391,2.09766 -2.62339,0 -3.35503,-0.35091 -4.08593,-1.95508 -1.36651,-2.99915 0.8915,-5.99219 4.51953,-5.99219 z"
       id="path1194"
       transform="scale(0.26458333)"
       inkscape:connector-curvature="0" />
    <path
       style="display:inline;fill:#050505;stroke:#000000;stroke-width:0;stroke-miterlimit:4;stroke-dasharray:none;stroke-opacity:1"
       d="M 223.85352 147.48633 C 219.78753 147.40055 218.17194 148.44809 215.60156 151.56641 C 210.56531 157.67629 210.93271 161.16399 216.95898 164.48828 C 224.52971 168.66454 234.86493 169.54572 241.06445 166.54492 C 244.72073 164.77516 246.01251 161.67726 244.86719 157.42383 C 243.11422 150.91379 240.42868 149.3185 228.86328 147.91602 C 226.83726 147.67032 225.20884 147.51505 223.85352 147.48633 z M 229.14062 153.63086 C 229.64786 153.6537 230.16881 153.77428 230.68555 154.01367 L 232.55273 154.88086 L 230.36914 155.74219 C 227.792 156.75795 227.53021 158.61998 229.79492 159.83203 C 230.6813 160.3064 231.19601 161.03408 230.93945 161.44922 C 230.19637 162.65157 226.82787 162.32397 225.41602 160.91211 C 222.63961 158.1357 225.58991 153.47087 229.14062 153.63086 z "
       id="path1196"
       transform="scale(0.26458333)" />
  </g>
  <g
     id="g2455"
     inkscape:groupmode="layer"
     inkscape:label="F.Silk"
     style="display:none">
    <g
       id="g1811"
       transform="matrix(0.35963709,0,0,0.35963709,8.2235408,-2.7303735)" />
    <g
       transform="matrix(0.35963709,0,0,0.35963709,8.2235408,-2.7303735)"
       id="g2483">
      <path
         style="fill:#050505;stroke-width:0.79461801"
         d="m 160.61914,1.6757812 c -3.49948,0 -5.72591,0.6804574 -5.16992,1.5800782 0.7486,1.2112618 -4.34578,2.5996032 -7.61914,2.0761718 -2.66792,-0.4266168 -4.42205,-0.00793 -9.98828,2.3828126 -5.72959,2.4609042 -7.04726,2.7638822 -8.71094,2.0058593 -4.52266,-2.0606614 -8.82747,-0.035872 -14.99414,7.0527349 -2.09109,2.403719 -3.95296,4.541084 -4.13672,4.75 -0.18376,0.208915 -2.18939,0.566797 -4.45703,0.794921 l -4.12305,0.414063 -3.660154,7.05664 c -2.042335,3.937514 -4.913221,8.150832 -6.498047,9.535157 -3.023555,2.641036 -4.727655,6.286057 -10.203125,21.820312 l -3.177735,9.011719 -0.236328,37.07617 c -0.157157,24.5295 -0.532722,37.80409 -1.109375,39.22461 -0.479392,1.18092 -1.987239,2.72418 -3.351562,3.42969 -2.616999,1.3533 -4.674101,5.13882 -4.833985,8.89844 l -0.09375,2.21093 c 0.07334,2.53703 -0.790715,15.19496 0.253907,18.24414 0,0 0.577502,2.55608 2.279296,7.58204 6.958703,20.55136 8.401513,23.28009 12.808594,24.24804 3.275391,0.71939 2.9461,-0.77493 7.873047,35.7461 0.884397,6.55559 1.954969,15.49483 2.380859,19.86523 1.365853,14.01607 3.837924,27.94414 5.875,33.11328 1.843478,4.67786 5.557808,19.47882 9.316408,37.12305 1.47343,6.91684 1.49843,7.72346 0.35937,11.06641 -1.67078,4.90348 -1.59946,9.91313 0.16211,11.41015 3.67885,3.12636 21.32484,8.73957 33.17578,10.55274 11.37703,1.74065 11.61633,1.79796 8.34375,2.04687 -2.70868,0.20601 -2.68767,0.22613 0.79493,0.76758 4.81661,0.74883 46.06264,0.77373 52.04687,0.0312 4.74092,-0.58823 4.74709,-0.59225 1.19141,-0.80078 -2.56479,-0.15043 -1.10348,-0.4999 5.16601,-1.23633 4.80744,-0.56472 12.49506,-1.81472 17.08399,-2.77734 10.06359,-2.11112 28.58321,-8.02313 32.97656,-10.52735 3.87405,-2.20821 4.28326,-4.39124 2.38477,-12.73828 -1.34412,-5.90962 -1.30362,-6.74022 1.21875,-23.99805 1.21812,-8.33433 3.83332,-19.72261 5.54101,-24.13672 1.78484,-4.61351 3.40834,-21.30669 4.33789,-44.59765 0.65994,-16.53511 1.92394,-36.4406 2.48633,-39.15625 0.34059,-1.64469 1.44685,-2.70779 4.34766,-4.17774 2.14008,-1.08447 4.43435,-2.80016 5.09765,-3.8125 3.15483,-4.81486 9.9488,-29.71298 9.94336,-36.4414 -0.004,-3.5105 -1.97126,-17.4013 -3.43359,-20.23633 -0.66492,-1.28582 -2.47871,-3.02133 -4.03125,-3.85742 -1.55255,-0.8361 -3.02236,-2.04457 -3.26758,-2.6836 -0.24521,-0.63901 -0.61979,-6.9087 -0.83008,-13.93359 -0.79607,-26.59432 -2.07563,-52.689017 -2.82617,-57.603515 -1.09655,-7.18007 -3.21451,-13.10308 -9.25586,-25.890625 -6.61752,-14.007166 -6.98681,-14.570082 -10.49219,-15.972656 -1.59019,-0.636274 -3.50366,-2.194192 -4.25195,-3.460938 -3.39392,-5.74545 -7.65649,-10.228929 -10.24023,-10.771484 -1.44131,-0.302654 -6.35091,-2.336756 -10.91016,-4.5195314 C 228.22,5.6605504 227.67034,5.516336 223.05078,6.0078125 c -3.4445,0.3664615 -5.81489,0.1622667 -8.29883,-0.7167969 -4.15857,-1.4717165 -7.51943,-1.5727842 -9.57812,-0.2871094 -1.18086,0.7374616 -2.22735,0.7067881 -4.78321,-0.1367187 -1.83652,-0.6061109 -2.88117,-1.3189543 -2.38281,-1.6269531 1.13695,-0.7026753 -1.9173,-1.5427555 -5.60351,-1.5410156 -2.93698,0.00139 -4.97819,0.8751363 -4.79492,2.0527343 0.0604,0.388177 -0.47235,0.8266473 -1.18555,0.9746094 -1.89409,0.3929453 -5.28107,-0.5999396 -4.78516,-1.4023437 0.61572,-0.9962544 -1.57196,-1.6484376 -5.52539,-1.6484376 -3.91038,0 -6.14031,0.6506697 -5.54297,1.6171876 0.22315,0.3610448 0.0217,0.8937305 -0.44726,1.1835937 -1.14642,0.7085256 -4.914,-0.2833903 -4.37696,-1.1523437 0.59549,-0.9635179 -1.53555,-1.6484376 -5.12695,-1.6484376 z m -0.13867,8.8554688 c 1.58068,-0.08607 3.22243,0.350825 5.78711,1.261719 3.7235,1.322462 3.98203,1.317422 6.66406,-0.126953 2.55807,-1.377611 3.24838,-1.416281 8.25977,-0.470704 3.00708,0.567392 6.49187,0.786322 7.74414,0.486329 1.25228,-0.299995 3.05752,-0.745269 4.01172,-0.988282 1.01657,-0.258899 3.60573,0.414581 6.2539,1.626953 5.24178,2.399763 6.90617,2.558097 8.3711,0.792969 1.27024,-1.530545 7.0805,-1.015356 9.98046,0.884766 2.06784,1.354913 5.50961,1.57159 6.23829,0.392578 1.38311,-2.237907 11.23313,1.329426 15.1621,5.492187 1.62334,1.71993 3.0545,2.453126 4.79102,2.453126 2.14354,-10e-7 3.03431,0.75242 6.64453,5.607421 2.29341,3.084176 5.58209,6.499958 7.3086,7.589844 2.67454,1.688366 3.81828,3.414601 7.72265,11.673828 9.36204,19.804205 10.04852,22.604241 11.14063,45.453125 1.6223,33.941954 1.77884,49.995414 0.50781,51.699224 -1.10415,1.4801 -1.27723,1.41106 -4.55469,-1.8379 l -3.40625,-3.37695 -0.5918,-16.87305 c -0.59999,-17.13447 -1.61208,-27.403894 -2.94921,-29.902339 -0.40672,-0.759964 -3.10087,-4.912772 -5.98633,-9.228516 -2.88546,-4.315748 -6.00796,-9.508605 -6.93946,-11.539063 -1.4378,-3.134157 -2.24798,-3.887813 -5.35742,-4.992187 -5.73051,-2.035298 -12.32103,-6.980928 -12.61132,-9.462891 l -0.2461,-2.091796 -4.92773,1.408203 c -5.17882,1.481008 -7.8948,1.144635 -8.75,-1.083985 -0.60534,-1.577472 -2.92799,-1.620578 -4.94922,-0.0918 -2.10438,1.59167 -5.12715,1.508683 -6.35742,-0.173828 -0.9063,-1.239426 -1.30468,-1.273435 -3.66407,-0.316406 -5.07592,2.058936 -5.96774,2.030341 -6.52929,-0.207031 -0.69442,-2.766792 -1.87113,-2.593051 -4.90821,0.722656 -2.85876,3.121053 -5.40845,3.561613 -6.88867,1.191406 -1.24368,-1.991461 -2.83101,-1.991461 -5.37695,0 -2.70932,2.119257 -5.77326,1.978457 -8.5957,-0.396484 -2.85458,-2.40197 -3.85155,-2.490796 -4.51563,-0.398438 -0.61406,1.934712 -2.20783,2.018925 -5.16601,0.271485 -2.08081,-1.229126 -2.42243,-1.228003 -5.03907,0.01367 -2.59702,1.232359 -3.06106,1.235913 -6.23242,0.05078 -5.57491,-2.083341 -7.91784,-2.30742 -8.74023,-0.837891 -0.97873,1.74888 -4.0226,1.635472 -7.79883,-0.291015 -4.18831,-2.136716 -4.81561,-2.029219 -4.26172,0.740234 0.43573,2.178657 0.27281,2.368246 -2.48047,2.884766 -1.62032,0.303971 -5.54679,0.317264 -8.72461,0.0293 -5.69499,-0.516066 -5.77181,-0.498357 -5.47656,1.28711 0.23171,1.401265 -0.5225,2.411208 -3.33008,4.455078 -1.99619,1.453187 -4.88131,3.163941 -6.41016,3.802734 -2.27071,0.948765 -2.68398,1.463591 -2.25585,2.8125 0.3445,1.085446 -0.4874,3.865985 -2.42774,8.115235 -1.623512,3.555409 -4.097563,8.968065 -5.498046,12.027343 l -2.544922,5.5625 0.271484,22.9668 c 0.174442,14.71916 -0.02825,23.85048 -0.564453,25.42773 -0.460159,1.35355 -2.083177,3.80251 -3.607422,5.44141 -1.524243,1.6389 -3.532637,2.97852 -4.460937,2.97852 -1.632813,0 -1.669187,-0.2215 -1.132813,-6.83204 0.304944,-3.75826 0.70732,-21.85089 0.892578,-40.20507 l 0.335938,-33.3711 2.464844,-6.876953 c 1.355183,-3.782156 3.402353,-9.514604 4.550781,-12.738281 1.692667,-4.751376 2.492591,-6.001004 4.226562,-6.605469 1.603935,-0.559135 3.103093,-2.571811 5.990236,-8.044921 3.84802,-7.294645 3.85183,-7.30045 7.39648,-7.773438 2.69236,-0.359259 3.93757,-1.019889 5.16602,-2.746094 0.89005,-1.250695 3.20795,-4.01113 5.15234,-6.134765 3.48672,-3.808131 3.58616,-3.85486 7.25977,-3.34961 2.91823,0.401359 4.42492,0.155066 6.95703,-1.136719 6.34002,-3.234436 12.13515,-5.062119 13.07422,-4.123046 1.405,1.405001 4.29168,1.029053 8.50781,-1.107422 2.32274,-1.177023 3.84315,-1.785023 5.42383,-1.871094 z m -10.96289,48.443359 c 6.36243,-0.0095 12.70138,0.505749 16.41992,1.546875 1.86042,0.52089 4.19262,0.735198 5.18164,0.476563 0.98901,-0.258634 3.12779,-0.07255 4.75195,0.414062 2.48382,0.744167 3.29249,0.661988 5.09571,-0.519531 1.91402,-1.254121 2.60002,-1.296071 6.39062,-0.386719 3.77545,0.905716 4.4101,0.868564 5.73242,-0.328125 1.54534,-1.398513 0.81194,-1.392504 33.53125,-0.251953 3.65188,0.127299 5.16866,0.667632 8.74024,3.107422 2.37699,1.623761 6.17019,3.947064 8.42969,5.164063 3.58258,1.929643 4.99589,3.534499 11.04492,12.542968 3.81504,5.681518 7.57756,11.765047 8.36133,13.519532 1.70135,3.808531 2.86871,12.806884 3.55273,27.402344 0.42866,9.14667 0.31499,10.9633 -0.76758,12.31836 -1.26619,1.58495 -1.27387,1.58295 -2.66015,-0.11328 -0.76453,-0.93547 -2.00129,-2.81479 -2.74805,-4.17774 -0.74676,-1.36293 -2.34061,-2.85146 -3.54297,-3.30859 -1.45507,-0.55322 -10.03631,-0.66274 -25.66016,-0.32617 -25.84882,0.5568 -34.63944,1.2703 -36.31836,2.94922 -0.61143,0.61142 -1.5484,2.8761 -2.08203,5.03125 l -0.9707,3.91796 -3.17578,-0.23828 c -3.96701,-0.29701 -13.52554,-0.28992 -16.64453,0.0117 -2.1762,0.21047 -2.42534,-0.0477 -3.42578,-3.55273 -0.78459,-2.74887 -1.68917,-4.094 -3.32032,-4.9375 -3.11891,-1.61286 -23.23746,-2.27246 -44.32812,-1.45313 -19.06611,0.7407 -18.37688,0.4974 -21.181642,7.46289 -0.924792,2.29667 -2.104382,4.31373 -2.621094,4.48243 -2.318548,0.75699 -2.73729,-3.08419 -2.464843,-22.67579 l 0.273437,-19.624996 3.654297,-8.041015 c 5.991545,-13.183116 9.521125,-18.60399 14.828125,-22.773438 5.58419,-4.387184 8.35041,-5.585565 11.36328,-4.923828 1.25743,0.276178 4.69233,-0.203234 8.00586,-1.119141 3.80703,-1.052314 10.19226,-1.586243 16.55469,-1.595703 z m 31.07422,27.021485 c -5.21835,-0.182597 -10.16486,1.187195 -16.19922,4.0625 -4.26114,2.030384 -7.7461,4.072353 -7.7461,4.537109 0,1.257458 0.57199,1.121267 9.65821,-2.302734 12.20603,-4.599661 13.02801,-4.643207 23.54687,-1.242188 4.93372,1.595196 9.94015,2.789201 11.125,2.652344 1.9074,-0.220317 1.61586,-0.502123 -2.55078,-2.453125 -7.12392,-3.335738 -12.61563,-5.071309 -17.83398,-5.253906 z m -3.04688,20.259766 c -4.50724,0.0124 -5.88803,0.50045 -11.82422,3.22852 -3.96779,1.82346 -9.33016,3.91834 -11.91797,4.65624 -2.5878,0.73791 -5.04575,1.66019 -5.46093,2.04883 -0.45039,0.42161 0.3719,0.70508 2.03711,0.70508 2.53283,0 6.60431,-1.25661 22.16015,-6.84375 2.84076,-1.0203 6.11893,-1.86372 7.28516,-1.875 1.16622,-0.0113 6.02491,1.20306 10.79687,2.69922 8.66847,2.71786 20.0586,4.49204 20.0586,3.125 0,-0.39384 -2.33689,-1.15931 -5.19336,-1.70117 -2.85647,-0.54187 -8.30881,-2.09433 -12.11719,-3.45117 -5.48969,-1.95585 -8.32485,-2.49007 -13.67969,-2.57422 -0.79396,-0.0125 -1.50064,-0.0193 -2.14453,-0.0176 z m 50.21875,24.94336 c 25.49948,0 27.32884,0.30384 28.89649,4.80078 0.51819,1.48651 0.90234,7.66636 0.90234,14.52148 0,27.00887 -2.02132,29.2427 -27.8125,30.7461 -15.44565,0.90033 -12.74021,0.9993 -19.25977,-0.70117 -5.87062,-1.53121 -8.87101,-3.77951 -10.09961,-7.56836 -2.18245,-6.73038 -3.20902,-30.59861 -1.57031,-36.5 1.40129,-5.04644 2.78615,-5.29883 28.94336,-5.29883 z m -85.67969,2.48437 c 9.28957,-0.0129 16.49803,0.098 17.57813,0.29688 3.50072,0.64461 4.08891,2.45035 4.7832,14.66015 0.63677,11.19819 -0.55652,21.81794 -2.90429,25.8379 -1.76943,3.02967 -6.13953,5.50769 -12.55469,7.11914 -5.48149,1.3769 -19.17985,1.55502 -26.47461,0.3457 -2.38507,-0.3954 -6.17151,-1.55731 -8.41406,-2.58398 -7.59812,-3.47854 -9.36533,-9.40314 -8.96289,-30.04493 0.18584,-9.53222 0.54987,-13.56431 1.29101,-14.30468 0.79066,-0.78986 6.82785,-1.08702 25.82422,-1.27149 3.40906,-0.0331 6.73746,-0.0504 9.83398,-0.0547 z m 78.51172,3.97266 c -0.33467,0.003 -0.39988,0.2359 -0.24023,0.71484 0.19602,0.58805 3.19487,2.04679 6.66406,3.24219 3.46921,1.19541 6.78319,2.02401 7.36524,1.83984 0.58204,-0.18416 2.10157,-0.33593 3.37695,-0.33593 1.27536,0 2.31836,-0.3579 2.31836,-0.79492 0,-0.43705 -1.19261,-0.79297 -2.65235,-0.79297 -2.47375,0 -12.54272,-2.29756 -15.92968,-3.63477 -0.4029,-0.15907 -0.70154,-0.24032 -0.90235,-0.23828 z m -81.45898,3.37891 c -1.04552,-0.071 -3.39068,0.19095 -6.7793,0.80273 l -6.30469,1.13672 4.91602,0.0723 c 2.70305,0.0392 5.92008,-0.32922 7.15039,-0.81836 1.80878,-0.71911 2.0631,-1.12233 1.01758,-1.19336 z m 10.39648,0.49414 c -0.41532,0 -1.04113,0.499 -1.39062,1.10937 -1.86228,3.25239 -13.91576,6.83322 -23.01563,6.83594 -3.28904,10e-4 -3.3282,0.0336 -5.84375,5.19727 -4.07416,8.36295 -2.03767,12.70459 7.11914,15.17382 5.28804,1.42599 9.55212,1.28794 15.32813,-0.49609 12.42027,-3.83622 15.60016,-10.03128 8.93555,-17.4082 -2.96368,-3.28045 -3.47693,-5.65042 -1.56836,-7.23438 1.32551,-1.10007 1.60988,-3.17773 0.43554,-3.17773 z m 64.57227,1.83789 c -1.25934,0.04 -1.361,0.5433 -0.39258,1.51172 1.10739,1.10738 1.26761,4.5957 0.21094,4.5957 -1.57559,0 -4.03906,5.418 -4.03906,8.88477 0,2.82767 0.43608,3.93935 2.18554,5.57617 2.79851,2.6183 6.59766,4.52794 10.78907,5.42187 8.31773,1.77396 21.46149,-0.83098 23.50976,-4.6582 1.79903,-3.36153 -0.0266,-12.03761 -3.12305,-14.83984 -1.72941,-1.56508 -11.61333,-4.42032 -13.19726,-3.8125 -0.58168,0.22321 -4.4547,-0.41342 -8.60547,-1.41407 -3.6622,-0.88287 -6.07855,-1.30562 -7.33789,-1.26562 z m 50.66406,1.33984 c 2.16099,0 3.12305,2.9536 3.12305,9.58789 0,4.89976 0.16816,5.50977 1.52148,5.50977 0.87845,0 3.43949,-2.18309 6.05664,-5.16407 3.46806,-3.95016 5.03714,-5.16601 6.66992,-5.16601 3.04606,0 5.02723,1.69382 4.69922,4.01758 -0.24215,1.71548 -0.61948,1.91586 -3.24414,1.71093 -2.61491,-0.20416 -3.16608,0.0807 -4.58789,2.38282 -0.88856,1.4387 -2.37152,5.07903 -3.29687,8.08984 -1.45873,4.74616 -1.56249,5.99699 -0.77735,9.39844 0.49808,2.15774 0.9043,5.14628 0.9043,6.64258 0,1.4963 0.35254,2.7207 0.78125,2.7207 1.25892,0 1.84556,-3.77853 1.21094,-7.79492 -0.98067,-6.20655 -0.65962,-9.37658 1.4043,-13.88477 1.67285,-3.654 2.36972,-4.3837 4.61132,-4.83203 3.54991,-0.70998 4.65734,0.56979 5.48242,6.33008 0.70357,4.91187 -0.007,8.80451 -4.35546,23.83789 -3.39905,11.75029 -5.72442,15.11261 -10.01758,14.48242 -1.60935,-0.23624 -1.94111,-1.1929 -3.63867,-10.49219 -1.9703,-10.79328 -3.35663,-14.94426 -3.40039,-10.1875 -0.0133,1.44336 0.56317,5.1982 1.27929,8.34375 1.04565,4.59295 1.1806,7.5982 0.6875,15.25586 -0.33771,5.24448 -0.70982,11.85847 -0.82617,14.69922 -1.15463,28.20639 -3.95211,66.69817 -5.1543,70.91211 -0.48388,1.69607 -2.71031,4.98481 -5.18359,7.65625 -2.38426,2.57527 -4.33398,4.90251 -4.33398,5.17188 0,0.26936 1.10776,0.49023 2.46289,0.49023 2.42661,0 2.45791,0.0509 2.0957,3.37695 -0.20229,1.85742 -1.00658,7.13178 -1.78711,11.72071 -0.89828,5.28121 -1.44438,12.78079 -1.48828,20.43554 l -0.0684,12.09375 -4.38281,1.95508 c -12.01003,5.35839 -36.9906,11.07004 -54.14844,12.37891 -18.68988,1.42574 -33.56204,0.7754 -50.75195,-2.21875 -17.45869,-3.04095 -29.71579,-6.89493 -30.37305,-9.54883 -0.18051,-0.72889 -0.0717,-2.21795 0.24219,-3.31055 1.5816,-5.50525 0.71438,-12.64721 -3.69922,-30.46093 -3.21323,-12.9689 -3.35459,-14.83399 -1.13281,-14.83399 2.04413,0 2.01492,-0.95597 -0.084,-2.85547 -2.29419,-2.07621 -5.42791,-7.58412 -6.67578,-11.73047 -1.30921,-4.35018 -5.154067,-31.0244 -7.576172,-52.55859 -0.49157,-4.3704 -1.726115,-13.86052 -2.742187,-21.08984 -1.738486,-12.36928 -1.784216,-13.68174 -0.763672,-22.25 1.275578,-10.70948 1.4044,-14.07916 0.49414,-13.03907 -1.32918,1.51876 -2.517578,7.429 -2.517578,12.51758 0,7.1516 -0.908284,9.29492 -3.935547,9.29492 -3.170531,0 -3.905626,-1.2574 -8.726562,-14.9414 -4.132307,-11.72938 -5.916758,-19.73623 -5.111328,-22.94531 0.393028,-1.56595 0.970338,-1.84375 3.84375,-1.84375 3.376344,0 3.384786,0.007 5.58789,4.91601 1.731062,3.85732 2.178098,5.97173 2.072266,9.81836 -0.155229,5.64242 0.892554,9.10352 2.757812,9.10352 0.95389,0 1.124944,-0.36761 0.644532,-1.39063 -0.35916,-0.76481 -0.666268,-4.25784 -0.681641,-7.76367 -0.02487,-5.6688 -0.335215,-6.98853 -2.808594,-11.91992 l -2.78125,-5.54492 h -3.576171 c -3.229529,0 -3.595337,-0.19214 -3.78125,-1.98633 -0.284938,-2.74982 0.842162,-4.17188 3.30664,-4.17188 2.496774,0 7.881456,3.56649 10.109375,6.69531 1.003675,1.40954 2.317711,2.24415 3.53125,2.24415 1.833264,0 1.931641,-0.24574 1.931641,-4.79297 0,-4.8803 1.421367,-9.61573 3.21875,-10.72657 1.984838,-1.22669 2.983436,2.1017 3.542966,11.80274 0.94244,16.33971 4.36868,21.60824 16.43555,25.27344 5.14912,1.564 6.85372,1.66909 20.80469,1.29297 12.92363,-0.34841 15.85812,-0.66128 19.61914,-2.09571 8.78468,-3.35043 10.87595,-7.48432 11.59179,-22.92578 0.2789,-6.0162 0.81074,-11.76115 1.18164,-12.76562 0.74666,-2.0221 4.37996,-3.81524 9.33399,-4.60743 2.59606,-0.41513 4.10823,-0.0971 7.57617,1.59961 5.26382,2.57535 5.68742,3.64839 6.43164,16.26758 0.81602,13.83672 3.20316,18.81392 10.29883,21.46875 6.28452,2.35133 9.94847,2.58976 27.03711,1.76953 17.54855,-0.84229 21.33715,-1.70429 25.58984,-5.82617 3.92594,-3.80518 5.1599,-8.29191 5.52735,-20.10547 0.42663,-13.71693 0.73723,-15.49414 2.70898,-15.49414 z m -40.9375,2.76367 c 1.35524,0.0286 2.98387,0.18402 5.00977,0.42969 11.56469,1.40239 14.25104,2.99819 16.0039,9.50781 1.14526,4.25315 -0.14669,7.35145 -3.80273,9.1211 -6.19914,3.0006 -16.5352,2.11935 -24.10547,-2.05664 -6.0259,-3.32408 -6.39337,-6.81239 -1.35742,-12.92188 2.57022,-3.11812 4.18622,-4.16585 8.25195,-4.08008 z m -81.88867,1.625 c 1.5471,0.0583 2.45733,0.43889 4.00781,1.18946 2.13257,1.03237 3.70884,2.53746 4.58789,4.38086 2.76014,5.78804 1.36716,8.60721 -5.85351,11.84765 -6.43833,2.88935 -12.53751,3.3445 -18.11914,1.35352 -7.28838,-2.59979 -9.11021,-6.16551 -6.11329,-11.96094 1.95068,-3.77219 4.37168,-4.84719 13.66016,-6.06641 4.09794,-0.53789 6.28298,-0.80239 7.83008,-0.74414 z m 129.12695,1.96875 c 1.23608,0 1.58985,0.52871 1.58985,2.38282 0,1.85411 -0.35377,2.38476 -1.58985,2.38476 -1.23607,0 -1.58789,-0.53065 -1.58789,-2.38476 0,-1.85411 0.35182,-2.38282 1.58789,-2.38282 z m -41.95117,2.55078 c -3.55049,-0.15998 -6.50085,4.50502 -3.72461,7.28125 1.41177,1.41177 4.7804,1.73938 5.52344,0.53711 0.25655,-0.41511 -0.25821,-1.14284 -1.14453,-1.61718 -2.26457,-1.21197 -2.00276,-3.07416 0.57422,-4.08985 l 2.18359,-0.86133 -1.86719,-0.86718 c -0.5167,-0.23939 -1.03771,-0.35996 -1.54492,-0.38282 z m -93.51172,0.62696 c -3.62781,0 -5.88595,2.99323 -4.51953,5.99219 0.73086,1.60406 1.46271,1.95507 4.08594,1.95507 3.15767,0 4.31429,-1.21108 2.0039,-2.09765 -0.65556,-0.25157 -1.1914,-1.13361 -1.1914,-1.96094 0,-0.82731 0.53584,-1.50391 1.1914,-1.50391 0.65556,0 1.19141,-0.5378 1.19141,-1.19336 0,-0.83094 -0.8356,-1.1914 -2.76172,-1.1914 z m 64.65235,40.52539 c -2.33858,0 1.01745,5.33491 6.91992,11 4.37692,4.20089 5.45589,6.6714 4.32617,9.91211 -0.45416,1.30283 -0.82617,3.06097 -0.82617,3.90625 0,0.87448 0.42897,1.3954 0.99414,1.20898 1.61606,-0.53303 2.95456,-3.93393 2.96679,-7.53711 0.0108,-3.11468 -0.49361,-3.92313 -6.83203,-10.92773 -3.76405,-4.15966 -7.161,-7.5625 -7.54882,-7.5625 z m -36.52735,1.58984 c -1.21483,0 -9.93421,8.52281 -11.88281,11.61524 -2.00648,3.1843 -2.14733,10.25854 -0.24609,12.35937 1.42989,1.58003 3.45312,1.94974 3.45312,0.63086 0,-0.45241 -0.58159,-1.71118 -1.29297,-2.79687 -2.17973,-3.32669 -0.98375,-7.03832 3.92774,-12.1875 4.5604,-4.78111 7.59927,-9.6211 6.04101,-9.6211 z m 35.94727,15.09766 c -4.42153,0 -4.85612,0.18504 -9.06836,3.87109 -6.95477,6.08597 -11.02955,6.11763 -17.82422,0.13672 -4.11389,-3.62119 -7.09401,-4.49492 -10.97266,-3.21484 -4.39567,1.45069 -3.50837,2.93611 1.99219,3.33398 3.97528,0.28755 5.20768,0.75396 7.34961,2.77344 1.41552,1.33459 3.28998,2.81948 4.16406,3.30078 2.26303,1.2461 10.41181,1.12658 12.95117,-0.18945 1.18017,-0.61163 3.11741,-2.20415 4.30469,-3.53907 1.62975,-1.83238 3.33365,-2.66842 6.95313,-3.41601 6.40818,-1.32359 6.49354,-3.05664 0.15039,-3.05664 z m 25.375,10.36914 c -0.5856,-0.004 -0.86524,0.20825 -0.86524,0.63281 0,1.41423 3.11477,3.37734 8.40625,5.29883 7.31118,2.65489 14.6261,2.45242 21.19141,-0.58789 4.28597,-1.98478 5.9462,-3.79297 3.48047,-3.79297 -0.59977,0 -3.90873,0.92373 -7.35156,2.05469 -5.75865,1.89168 -6.60836,1.9807 -10.62891,1.09375 -2.40373,-0.53028 -6.29373,-1.81385 -8.64258,-2.85156 -2.79045,-1.23284 -4.61384,-1.84085 -5.58984,-1.84766 z m -84.39063,0.0293 c -1.15627,0.0141 -3.68654,0.9271 -8.01758,2.83203 -8.21275,3.61223 -11.95337,4.07074 -18.58593,2.27539 -2.83896,-0.7685 -5.41401,-1.13642 -5.72266,-0.81641 -0.66972,0.69435 2.27995,2.82299 5.71484,4.12305 4.00055,1.51418 9.20602,1.18651 15.73047,-0.98633 6.27317,-2.08915 10.99362,-4.74155 11.57227,-6.50391 0.20301,-0.61828 0.002,-0.93231 -0.69141,-0.92382 z m 55.71289,26.95312 c -1.52962,0.0282 -4.82565,0.54146 -7.32422,1.13867 -3.08869,0.73828 -5.505,0.86122 -7.54882,0.38672 -5.00909,-1.16293 -11.55271,-0.82499 -18.17579,0.9375 -3.74987,0.99791 -8.76931,1.68113 -12.44335,1.69336 -6.48487,0.0226 -7.89864,0.85349 -3.57618,2.10156 3.94419,1.13884 8.3823,0.99465 14.50196,-0.4707 3.76491,-0.9015 9.28524,-1.35669 17.08398,-1.4082 6.33708,-0.0419 12.89459,-0.38212 14.57031,-0.75586 2.89859,-0.64649 7.26492,-0.16801 18.63868,2.04101 4.06754,0.79 10.49609,0.31175 10.49609,-0.78125 0,-0.7193 -22.70639,-4.94751 -26.22266,-4.88281 z m 5.63672,14.60742 c -1.15663,0.0585 -2.79037,0.35117 -4.84961,0.88477 -6.50889,1.68663 -17.73771,1.87236 -26.39062,0.4375 -3.81124,-0.63192 -7.1846,-0.89353 -7.4961,-0.58203 -1.07868,1.07866 1.02892,2.13976 6.52344,3.28711 9.7638,2.03882 31.35674,0.50801 33.76563,-2.39453 0.97604,-1.17606 0.37499,-1.73027 -1.55274,-1.63282 z m 21.85156,45.83985 c -0.67714,0.0293 -1.59049,0.57091 -2.5332,1.61523 -2.34287,2.59538 -11.40983,6.83333 -17.06836,7.97656 -3.17005,0.64047 -10.82947,1.01698 -20.20312,0.99414 -17.5614,-0.0427 -22.67311,-0.98033 -32.11133,-5.89062 -6.05301,-3.14913 -8.01758,-3.76515 -8.01758,-2.51172 0,1.23071 3.56868,3.95145 8.79102,6.70117 4.68231,2.46541 6.26599,2.84071 15.49609,3.6836 5.65405,0.51632 12.24666,1.05847 14.65039,1.20312 5.57046,0.33518 17.41275,-0.26899 22.95313,-1.16992 8.0441,-1.30807 19.16015,-7.7738 19.16015,-11.14453 0,-1.00345 -0.44004,-1.48639 -1.11719,-1.45703 z"
         transform="matrix(0.73569535,0,0,0.73569535,-22.86622,7.5920242)"
         id="path2481"
         inkscape:connector-curvature="0" />
    </g>
    <g
       id="g2532"
       transform="matrix(0.35963709,0,0,0.35963709,8.2235408,-2.7303735)" />
    <g
       transform="matrix(0.35963709,0,0,0.35963709,8.2235408,-2.7303735)"
       id="g7110"
       style="display:inline" />
  </g>
  <g
     id="g2457"
     inkscape:groupmode="layer"
     inkscape:label="Drill"
     style="display:inline" />
</svg>
