<?xml version="1.0" encoding="UTF-8" standalone="no"?>
<!-- Created with Inkscape (http://www.inkscape.org/) -->

<svg
   xmlns:dc="http://purl.org/dc/elements/1.1/"
   xmlns:cc="http://creativecommons.org/ns#"
   xmlns:rdf="http://www.w3.org/1999/02/22-rdf-syntax-ns#"
   xmlns:svg="http://www.w3.org/2000/svg"
   xmlns="http://www.w3.org/2000/svg"
   xmlns:sodipodi="http://sodipodi.sourceforge.net/DTD/sodipodi-0.dtd"
   xmlns:inkscape="http://www.inkscape.org/namespaces/inkscape"
   sodipodi:docname="hankhill.svg"
   id="svg1104"
   version="1.1"
   viewBox="0 0 100.0 100.0"
   height="100.0mm"
   width="100.0mm"
   inkscape:version="0.92.4 (5da689c313, 2019-01-14)">
  <defs
     id="defs1098" />
  <sodipodi:namedview
     id="base"
     pagecolor="#ffffff"
     bordercolor="#666666"
     borderopacity="1.0"
     inkscape:pageopacity="0.0"
     inkscape:pageshadow="2"
     inkscape:zoom="2.8"
     inkscape:cx="241.35104"
     inkscape:cy="217.58946"
     inkscape:document-units="mm"
     inkscape:current-layer="g2449"
     showgrid="true"
     inkscape:window-width="1920"
     inkscape:window-height="1017"
     inkscape:window-x="1672"
     inkscape:window-y="-8"
     inkscape:window-maximized="1"
     borderlayer="true"
     inkscape:snap-global="false">
    <inkscape:grid
       id="grid2435"
       units="mm"
       type="xygrid"
       empspacing="1"
       spacingy="2.54"
       spacingx="2.54" />
  </sodipodi:namedview>
  <metadata
     id="metadata1101">
    <rdf:RDF>
      <cc:Work
         rdf:about="">
        <dc:format>image/svg+xml</dc:format>
        <dc:type
           rdf:resource="http://purl.org/dc/dcmitype/StillImage" />
        <dc:title />
      </cc:Work>
    </rdf:RDF>
  </metadata>
  <g
     id="g2441"
     sodipodi:insensitive="true"
     inkscape:groupmode="layer"
     inkscape:label="[fixed] BG">
    <rect
       id="rect2439"
       style="stroke:none;fill-opacity:1;fill:#FFFFFF"
       height="100.0"
       width="100.0"
       y="0"
       x="0" />
  </g>
  <g
     id="g2443"
     inkscape:groupmode="layer"
     inkscape:label="Edge.Cuts"
     style="display:inline">
    <path
       style="display:inline;fill:none;stroke:#000000;stroke-width:0.58459675;stroke-opacity:1"
       d="M88.869934 281.83157L87.417459 281.59661L87.033591 281.51781L86.924487 281.48541L86.869547 281.45671L86.867947 281.43091L86.918977 281.40721L87.175642 281.36311L88.285297 281.26701L89.056095 281.20221L89.330122 281.16971L89.518942 281.13441L89.614332 281.09431L89.624422 281.07181L89.608082 281.04741L89.491969 280.99171L89.257775 280.92511L88.402265 280.75138L86.975804 280.51007L82.147025 279.76012L80.465863 279.47838L78.706083 279.1379L76.888981 278.74546L75.035852 278.30783L73.167993 277.83178L71.306701 277.32409L69.473271 276.79154L67.689001 276.24088L65.975185 275.67891L64.353121 275.11238L62.844105 274.54808L61.469433 273.99279L60.250401 273.45326L59.705905 273.19153L59.208306 272.93628L58.760264 272.68836L58.364443 272.44862L58.023505 272.21791L57.74011 271.99706L57.622257 271.88632L57.511697 271.76092L57.31249 271.46812L57.142542 271.12255L57.001909 270.72812L56.890647 270.28871L56.808807 269.80824L56.756457 269.29061L56.733637 268.7397L56.740437 268.15943L56.776857 267.55368L56.842977 266.92637L56.938857 266.28138L57.064551 265.62263L57.220113 264.95401L57.405599 264.27941L57.621064 263.60275L57.89472 262.75549L58.000647 262.37414L58.085567 262.00855L58.149177 261.64942L58.191177 261.28742L58.211257 260.91324L58.209157 260.51757L58.184497 260.09108L58.137007 259.62447L57.972339 258.53359L57.712719 257.17041L57.355719 255.46041L56.322922 250.70114L55.308919 246.20075L54.32946 242.02199L53.400295 238.22763L52.537175 234.88043L51.755849 232.04314L51.400781 230.83532L51.072068 229.77852L50.771679 228.88057L50.501582 228.14933L50.217121 227.36233L49.926845 226.43364L49.632411 225.3726L49.335476 224.18857L49.037698 222.89089L48.740735 221.4889L48.446243 219.99195L48.155881 218.40938L47.871306 216.75054L47.594175 215.02477L47.326146 213.24141L47.068877 211.40982L46.824024 209.53933L46.593246 207.63929L46.3782 205.71905L46.180543 203.78795L45.866 200.82615L45.430699 197.08335L44.932151 193.03913L44.427865 189.17303L43.237122 180.3506L42.332514 173.80333L41.963637 171.2745L41.637647 169.1844L41.344994 167.48967L41.076128 166.14695L40.821502 165.1129L40.696544 164.69807L40.571565 164.34415L40.445371 164.04572L40.316768 163.79735L40.184564 163.59364L40.047563 163.42915L39.904573 163.29848L39.7544 163.19619L39.59585 163.11689L39.42773 163.05509L39.058004 162.96249L38.635673 162.87509L38.051793 162.7235L37.776174 162.6309L37.509911 162.52423L37.251862 162.40132L37.000883 162.25999L36.755833 162.09809L36.515568 161.91346L36.278946 161.70393L36.044823 161.46733L35.812058 161.20151L35.579506 160.90429L35.346027 160.57352L35.110475 160.20704L34.87171 159.80267L34.628588 159.35825L34.124702 158.34063L33.589675 157.13686L33.014365 155.72964L32.38963 154.10165L31.706327 152.23559L30.955315 150.11414L29.213591 145.03586L28.78204 143.7346L28.423258 142.6045L27.905227 140.86063L27.621947 139.81005L27.535867 139.45857L27.467867 139.228L27.407707 138.95866L27.309397 138.31433L27.237857 137.54684L27.190027 136.67746L27.162837 135.72745L27.153237 134.71806L27.174457 132.60622L27.229177 130.51205L27.292857 128.60563L27.340967 127.05708L27.348967 126.03647L27.418137 124.41005L27.456297 123.89165L27.525727 123.37544L27.624977 122.86407L27.752607 122.3602L27.90718 121.86646L28.087256 121.38552L28.291395 120.92003L28.518158 120.47263L28.766104 120.04597L29.033794 119.64272L29.319789 119.26551L29.622649 118.91699L29.940934 118.59983L30.273205 118.31667L30.618022 118.07015L30.973945 117.86294L31.353628 117.64113L31.73314 117.37187L32.102365 117.06552L32.451188 116.73242L32.769494 116.38293L33.047166 116.02739L33.274091 115.67616L33.440152 115.33958L33.517962 115.04154L33.592282 114.53976L33.663092 113.83488L33.730372 112.92755L33.854292 110.50809L33.963891 107.28655L34.059021 103.26808L34.139541 98.45784L34.205301 92.860977L34.256161 86.482651L34.430923 59.205367L36.767607 52.576045L38.155495 48.6847L39.3272 45.519472L39.845695 44.17983L40.326598 42.986532L40.775393 41.927849L41.197565 40.992053L41.598598 40.167415L41.983976 39.442206L42.359184 38.804698L42.729706 38.243162L43.101027 37.74587L43.478631 37.301094L43.868002 36.897104L44.274626 36.522172L44.503957 36.30738L44.753198 36.04715L45.302289 35.403762L45.903651 34.618781L46.539038 33.71898L47.190202 32.73113L47.838897 31.682003L48.466875 30.598373L49.05589 29.507011L51.748062 24.316645L54.781326 24.0115L55.97848 23.870967L56.995771 23.713902L57.725604 23.559487L57.949101 23.489267L58.060386 23.426907L61.103288 19.932174L61.93826 18.997831L62.743376 18.149744L63.520875 17.386861L64.272998 16.708126L65.001986 16.112486L65.710078 15.598888L66.399516 15.166277L66.73794 14.980013L67.07254 14.8136L67.403597 14.666907L67.73139 14.539803L68.0562 14.432155L68.378307 14.343835L68.697991 14.274705L69.015531 14.224635L69.331208 14.193495L69.645303 14.181155L69.958094 14.187455L70.269863 14.212315L70.580888 14.255575L70.891451 14.317105L71.201831 14.396775L71.512309 14.494455L71.823164 14.610009L72.134676 14.743308L72.362046 14.838518L72.58859 14.914248L72.819433 14.969308L73.059701 15.002518L73.31452 15.012698L73.589015 14.998668L73.888313 14.959248L74.217539 14.893258L74.581818 14.799518L74.986278 14.676842L75.936239 14.339972L77.108428 13.873204L78.543852 13.267095L79.954793 12.673928L81.143502 12.207087L82.150739 11.856851L82.599044 11.722422L83.017265 11.613497L83.4105 11.528867L83.783841 11.467307L84.142386 11.427607L84.491227 11.408547L84.835462 11.408917L85.180184 11.427497L85.891472 11.514437L86.357329 11.570537L86.846322 11.595937L87.35019 11.592837L87.860675 11.563577L88.36952 11.510357L88.868465 11.435437L89.349253 11.341057L89.803623 11.229472L90.223319 11.102932L90.600081 10.963687L90.92565 10.813985L91.191769 10.656078L91.390179 10.492215L91.461409 10.408755L91.512619 10.324645L91.542769 10.240175L91.550869 10.155625L91.535809 10.071265L91.496599 9.987389L91.443629 9.8652634L91.437029 9.7474109L91.475149 9.6343291L91.556369 9.5265155L91.679068 9.4244676L91.841615 9.3286826L92.042382 9.2396586L92.279741 9.1578936L92.552064 9.0838846L92.857723 9.0181286L93.562537 8.9133684L94.381159 8.8475934L95.300566 8.8247834L96.239234 8.8478434L97.066313 8.9146804L97.770872 9.0217774L98.073789 9.0893244L98.341976 9.1656184L98.574066 9.2502194L98.768692 9.3426874L98.924488 9.4425834L99.040087 9.5494674L99.114117 9.6629003L99.145227 9.7824423L99.132037 9.907654L99.073177 10.038096L99.045257 10.098256L99.034947 10.158696L99.041347 10.219176L99.063477 10.279446L99.151257 10.398372L99.290854 10.513518L99.474805 10.622921L99.69565 10.724614L99.945929 10.816634L100.21818 10.897024L100.50495 10.963814L100.79877 11.015034L101.09218 11.048724L101.37773 11.062924L101.64795 11.055624L101.89538 11.024944L102.11257 10.968884L102.29205 10.885474L102.41198 10.797734L102.51209 10.696823L102.59099 10.586314L102.64739 10.469779L102.67999 10.35079L102.68699 10.232916L102.66779 10.119731L102.62059 10.014804L102.56239 9.8842595L102.55169 9.7595159L102.58729 9.6409349L102.66799 9.5288781L102.79251 9.4237072L102.95961 9.3257842L103.16805 9.2354702L103.41659 9.1531272L103.70399 9.0791172L104.02902 9.0138012L104.78699 8.9107004L105.68057 8.8467174L106.69985 8.8247464L107.72816 8.8468194L108.62572 8.9112574L109.38361 9.0153909L109.70738 9.0815089L109.99287 9.1565499L110.23897 9.2401799L110.44456 9.3320659L110.60852 9.4318739L110.72973 9.5392696L110.80713 9.6539195L110.83953 9.7754901L110.82583 9.9036477L110.76493 10.038058L110.73893 10.093768L110.72893 10.150088L110.75413 10.263687L110.83473 10.377155L110.96487 10.488796L111.13877 10.596916L111.35066 10.699817L111.59473 10.795807L111.8652 10.883187L112.15627 10.960257L112.46216 11.025327L112.77707 11.076697L113.09521 11.112677L113.4108 11.131567L113.71804 11.131674L114.01114 11.111304L114.28431 11.068754L114.4743 11.018404L114.64835 10.950944L114.80289 10.869314L114.93434 10.776454L115.0391 10.675314L115.1136 10.568832L115.1543 10.459948L115.1573 10.351605L115.1513 10.191889L115.1818 10.03803L115.2478 9.8906404L115.34787 9.750332L115.48057 9.6177166L115.64445 9.4934063L115.83808 9.3780128L116.06005 9.272148L116.30892 9.176424L116.58327 9.091452L116.88165 9.017845L117.20265 8.956214L117.54483 8.907171L117.90677 8.871328L118.28704 8.849297L118.6842 8.841687L119.67427 8.868821L120.59007 8.945559L121.40091 9.0634642L121.75738 9.1352172L122.07611 9.2140982L122.35325 9.2990522L122.58498 9.3890252L122.76745 9.4829612L122.89683 9.5798072L122.96923 9.6785072L122.98293 9.7282232L122.98093 9.7780072L122.92803 9.8772522L122.80669 9.9751872L122.75109 10.0210822L122.72129 10.0734322L122.71629 10.1316722L122.73569 10.1952522L122.77849 10.2636222L122.84389 10.3362222L123.03906 10.4919072L123.31475 10.6578722L123.66448 10.8296842L124.08174 11.0029102L124.56005 11.1731152L125.21547 11.3778292L125.78095 11.5268142L126.27065 11.6204742L126.69875 11.6592142L127.07944 11.6434342L127.42689 11.5735342L127.75527 11.4499152L128.07877 11.2729832L128.37389 11.1075822L128.69091 10.9660672L129.0293 10.8484232L129.3885 10.7546332L129.76799 10.6846832L130.16721 10.6385532L130.58561 10.6162232L131.02267 10.6177232L131.47783 10.6429532L131.95055 10.6919432L132.44029 10.7646732L132.9465 10.8611332L133.46864 10.9812962L134.00617 11.1251512L134.55854 11.2926812L135.12522 11.4838702L135.80829 11.7032912L136.49376 11.8771032L137.19187 12.0061912L137.91286 12.0914412L138.66698 12.1337412L139.46447 12.1339702L140.31556 12.0930202L141.23051 12.0117702L142.38109 11.9024642L142.882 11.8724042L143.34979 11.8631042L143.79681 11.8777842L144.23541 11.9197142L144.67796 11.9921542L145.13679 12.0983552L145.62427 12.2415742L146.15275 12.4250682L146.73458 12.6520932L147.38212 12.9259042L148.92371 13.6269092L150.87636 14.5541302L152.14079 15.1489072L153.39645 15.7197552L154.61043 16.2530372L155.74981 16.7351182L156.78167 17.1523622L157.67308 17.4911322L158.39112 17.7377932L158.90287 17.8787092L159.27329 17.9870472L159.66992 18.1604512L160.08999 18.3960362L160.53078 18.6909142L160.98952 19.0421972L161.46349 19.4469982L161.94993 19.9024302L162.4461 20.4056052L162.94926 20.9536372L163.45666 21.5436382L163.96555 22.1727222L164.47319 22.8379992L164.97684 23.5365842L165.47375 24.2655892L165.96117 25.0221272L166.43637 25.8033112L166.68085 26.1610582L166.99285 26.5283852L167.35955 26.8948512L167.76811 27.2500152L168.20571 27.5834372L168.65951 27.8846762L169.11668 28.1432922L169.5644 28.3488432L170.0226 28.5376542L170.43686 28.7273992L170.81729 28.9334692L171.17399 29.1712532L171.51709 29.4561442L171.85668 29.8035312L172.20288 30.2288062L172.56581 30.7473602L172.95556 31.3745842L173.38226 32.1258682L173.85601 33.0166042L174.38692 34.0621822L175.66068 36.6794282L177.28441 40.1007332L178.81997 43.4035552L179.49408 44.8992882L180.10991 46.3029072L180.67059 47.6231662L181.17925 48.8688182L181.63902 50.0486192L182.05303 51.1713212L182.42441 52.2456792L182.75629 53.2804462L183.0518 54.2843772L183.31406 55.2662252L183.54621 56.2347442L183.75137 57.1986872L183.93268 58.1668102L184.09326 59.1478652L184.20118 60.0046752L184.31715 61.2044052L184.44008 62.7247702L184.56888 64.5434822L184.83967 68.9867972L185.12079 74.3560542L185.40348 80.4729552L185.67899 87.1592032L185.93856 94.2365012L186.17345 101.5265502L186.30855 105.2425602L186.46846 108.4140602L186.55146 109.6905002L186.63316 110.7046702L186.71106 111.4145302L186.74786 111.6422002L186.78276 111.7780202L186.89104 111.9725502L187.07399 112.1981602L187.32175 112.4467602L187.62446 112.7102402L187.97225 112.9805102L188.35526 113.2494902L188.76363 113.5090802L189.1875 113.7511902L189.62282 114.0109502L190.06404 114.3211502L190.49897 114.6701502L190.91546 115.0462902L191.30134 115.4379502L191.64444 115.8334702L191.9326 116.2212102L192.15365 116.5895402L192.25554 116.8084302L192.35927 117.0720902L192.57093 117.7221902L192.78596 118.5167302L193.00171 119.4326102L193.21552 120.4467402L193.42473 121.5359902L193.62669 122.6772802L193.81873 123.8475002L194.16244 126.1823002L194.43461 128.3555602L194.53721 129.3238502L194.61401 130.1824602L194.66221 130.9082602L194.67931 131.4781602L194.66531 131.9805302L194.62331 132.5560702L194.55481 133.1996302L194.46131 133.9060502L194.20455 135.4868702L193.86429 137.2573102L193.45177 139.1761502L192.97826 141.2021602L192.455 143.2941202L191.89324 145.4108102L191.30424 147.5109902L190.69924 149.5534602L190.08949 151.4969802L189.48626 153.3003302L188.90078 154.9223002L188.34432 156.3216402L188.08048 156.9249502L187.82811 157.4571502L187.58862 157.9130902L187.36342 158.2876002L187.12676 158.5892202L186.79304 158.9278402L186.37762 159.2919602L185.8959 159.6700602L185.36325 160.0506602L184.79505 160.4222402L184.20668 160.7732902L183.61353 161.0923302L182.87364 161.4852602L182.24863 161.8586602L181.72965 162.2210502L181.50715 162.4007802L181.30783 162.5809402L181.13058 162.7626202L180.97429 162.9468702L180.83787 163.1347502L180.72018 163.3273302L180.62014 163.5256802L180.53664 163.7308702L180.46854 163.9439402L180.41474 164.1659802L180.33134 164.6850902L180.23724 165.4784402L180.02264 167.7992302L179.78217 170.9510902L179.52708 174.7567802L179.26863 179.0390502L179.01806 183.6206402L178.78665 188.3242902L178.58563 192.9727702L178.45151 196.1277302L178.306 199.1630302L178.14966 202.0727702L177.98308 204.8510202L177.80682 207.4918902L177.62146 209.9894602L177.42758 212.3378202L177.22576 214.5310602L177.01655 216.5632802L176.80055 218.4285602L176.57833 220.1210002L176.35045 221.6346802L176.1175 222.9637002L175.88006 224.1021402L175.63868 225.0441002L175.5167 225.4395502L175.39396 225.7836702L175.151 226.4508802L174.8949 227.2275402L174.62815 228.1028202L174.35321 229.0659202L173.78872 231.2123902L173.22128 233.5804902L172.67071 236.0837802L172.15688 238.6358302L171.6996 241.1501702L171.31872 243.5403802L170.70679 247.7659702L170.25649 251.0439702L170.08901 252.3855702L169.95839 253.5598002L169.86349 254.5898302L169.80309 255.4988602L169.77599 256.3100402L169.78099 257.0465702L169.81709 257.7316102L169.88299 258.3883402L169.97749 259.0399402L170.09941 259.7095902L170.42085 261.1957202L170.66264 262.2951002L170.8634 263.2948502L171.02188 264.2016402L171.13684 265.0221502L171.20704 265.7630502L171.23124 266.4310102L171.20814 267.0327002L171.13654 267.5747902L171.08214 267.8255702L171.01514 268.0639602L170.93534 268.2907802L170.84264 268.5068702L170.73691 268.7130702L170.61797 268.9102002L170.48564 269.0991102L170.33978 269.2806202L170.00683 269.6248002L169.61788 269.9494202L169.17166 270.2611402L168.66693 270.5666302L167.94317 270.9401602L167.00016 271.3646802L165.86225 271.8324302L164.55377 272.3356402L163.09905 272.8665302L161.52244 273.4173502L159.84828 273.9803102L158.10089 274.5476602L156.30461 275.1116202L154.48379 275.6644102L152.66275 276.1982802L150.86584 276.7054602L149.11739 277.1781602L147.44174 277.6086302L145.86322 277.9891002L144.40617 278.3117902L143.04187 278.5858702L141.51538 278.8713602L139.87826 279.1598902L138.18204 279.4430802L136.47829 279.7125502L134.81855 279.9599102L133.25439 280.1768002L131.83734 280.3548202L130.2724 280.5449202L129.03239 280.7099602L128.11056 280.8515502L127.50015 280.9713202L127.30961 281.0235202L127.19439 281.0709202L127.15369 281.1136202L127.18659 281.1519202L127.29226 281.1859202L127.46987 281.2159202L128.03752 281.2645202L129.49457 281.3605202L129.82928 281.4044202L129.89378 281.4283202L129.89978 281.4411202L129.88798 281.4546202L129.81068 281.4842202L129.66058 281.5179202L129.13695 281.6010202L127.16063 281.8541202L126.6735 281.9037202L126.04401 281.9500202L124.39663 282.0326202L122.29575 282.1021202L119.81863 282.1585202L117.04252 282.2019202L114.0447 282.2323202L107.69296 282.2543202L101.38148 282.2249202L98.433991 282.1910202L95.728355 282.1444202L93.341831 282.0851202L91.35168 282.0132202L89.835165 281.9287202L89.278665 281.8818202L88.869546 281.8317202L88.869546 281.8317202"
       id="path1813"
       inkscape:connector-curvature="0"
       sodipodi:nodetypes="ccscssssscscccccscssscscsssscscccssccccccssscscccccscccccscsssccccc"
       transform="matrix(0.35963709,0,0,0.35963709,8.2235408,-2.7303735)" />
  </g>
  <g
     id="g2445"
     inkscape:groupmode="layer"
     inkscape:label="B.Cu"
     style="display:none">
    <path
       style="display:inline;fill:#000000;fill-opacity:1;stroke:none;stroke-width:0.77170539;stroke-opacity:1"
       d="m 161.23047,7.0332031 -1.21289,0.03125 -1.08008,0.085937 -0.93164,0.1386719 -0.40234,0.087891 -0.35938,0.097656 -0.31445,0.1074218 -0.26367,0.1171876 -0.21485,0.1269531 -0.16211,0.1347656 -0.10742,0.1425781 -0.0508,0.1484375 0.01,0.15625 0.0684,0.1601563 0.0527,0.1113281 0.0195,0.1113281 -0.01,0.1113282 -0.041,0.1113281 -0.0664,0.1113281 -0.0937,0.109375 -0.26172,0.2167969 -0.35156,0.2089843 -0.42969,0.1972657 -0.49804,0.1835945 -0.55469,0.167968 -0.59961,0.146485 -0.63477,0.125 -0.6582,0.09961 -0.67187,0.07031 -0.67383,0.03711 -0.66406,0.0039 -0.64649,-0.0332 -0.61523,-0.07422 -0.93946,-0.113281 -0.45507,-0.02539 h -0.45313 l -0.46094,0.02539 -0.47265,0.05078 -0.49414,0.08203 -0.51758,0.111328 -0.55274,0.144531 -0.59179,0.177734 -1.33008,0.460938 -1.56836,0.617187 -1.86328,0.783204 -1.89453,0.800781 -1.54688,0.615234 -1.2539,0.445313 -0.53516,0.162109 -0.48047,0.123047 -0.43359,0.08789 -0.39649,0.05078 -0.36133,0.01953 -0.33593,-0.01367 -0.31836,-0.04492 -0.30469,-0.07226 -0.29883,-0.09961 -0.30078,-0.125 -0.41016,-0.175781 -0.41015,-0.154297 -0.41016,-0.128906 -0.41015,-0.103516 -0.41016,-0.08203 -0.41016,-0.05664 -0.41211,-0.0332 -0.41211,-0.0078 -0.41406,0.01563 -0.41797,0.04101 -0.41797,0.06641 -0.42382,0.0918 -0.42383,0.115235 -0.42969,0.142578 -0.43164,0.167969 -0.4375,0.193359 -0.44141,0.220703 -0.44726,0.244141 -0.91016,0.572265 -0.93359,0.677735 -0.96289,0.787109 -0.99414,0.894532 -1.02539,1.007812 -1.0625,1.119141 -1.10157,1.234375 -4.01757,4.613281 -0.14649,0.08203 -0.29492,0.0918 -0.96484,0.205078 -1.3418,0.207031 -1.58008,0.185547 -4.00391,0.402344 -3.55468,6.851563 -0.777347,1.441406 -0.830078,1.429687 -0.855469,1.384766 -0.859375,1.304687 -0.839843,1.1875 -0.792969,1.035157 -0.72461,0.849609 -0.330078,0.34375 -0.302734,0.283203 -0.535156,0.496094 -0.515625,0.533203 -0.498047,0.585938 -0.490235,0.658203 -0.488281,0.740234 -0.496094,0.841797 -0.507812,0.957031 -0.529297,1.087891 -0.558594,1.236328 -0.591797,1.396484 -0.634765,1.576172 -0.683594,1.767578 -1.546875,4.179688 -1.832031,5.136718 -3.085938,8.75 -0.230468,36.007814 -0.06641,8.41992 -0.08789,7.38867 -0.105469,6.34961 -0.125,5.30469 -0.144531,4.25195 -0.164063,3.19531 -0.08984,1.19727 -0.0918,0.92968 -0.09961,0.66211 -0.101562,0.39453 -0.220704,0.44336 -0.298828,0.46485 -0.367187,0.46875 -0.419922,0.46094 -0.458984,0.43945 -0.488282,0.4043 -0.501953,0.35546 -0.5,0.29297 -0.470703,0.27344 -0.455078,0.32617 -0.4375,0.37305 -0.419922,0.41992 -0.400391,0.45899 -0.376953,0.49804 -0.353515,0.53321 -0.328125,0.5625 -0.298828,0.59179 -0.269532,0.61328 -0.238281,0.63477 -0.203125,0.65234 -0.169922,0.66602 -0.130859,0.67383 -0.0918,0.68164 -0.04883,0.68359 -0.0918,2.14844 -0.01172,1.3457 -0.0625,2.04492 -0.08398,2.51758 -0.07227,2.76367 -0.02734,2.78711 0.01172,1.33399 0.03711,1.2539 0.0625,1.14649 0.09375,1.01367 0.130859,0.84961 0.07813,0.35547 0.08984,0.30469 0.113281,0.46484 0.375,1.38672 0.683594,2.30273 0.474609,1.49024 0.56836,1.71875 2.298828,6.70312 0.992187,2.80078 0.902344,2.46289 0.824219,2.14844 0.759765,1.85938 0.707031,1.58789 0.664063,1.34375 0.320313,0.58593 0.316406,0.53516 0.310547,0.48242 0.308593,0.4375 0.306641,0.39258 0.306641,0.34961 0.308593,0.3125 0.3125,0.27734 0.31836,0.24414 0.322265,0.21289 0.332032,0.1875 0.339843,0.16211 0.351563,0.14063 0.365234,0.12109 0.769532,0.20117 0.558593,0.11524 0.488281,0.12305 0.220704,0.0801 0.208984,0.10547 0.199219,0.13477 0.189453,0.17187 0.179687,0.21875 0.175782,0.26758 0.169921,0.32813 0.166016,0.39453 0.164063,0.4668 0.166015,0.54687 0.335938,1.36523 0.355468,1.77344 0.384766,2.23633 0.431641,2.75977 0.486328,3.33789 1.193359,8.64257 1.572266,11.64649 0.666016,5.10351 0.658203,5.3379 0.574218,4.9414 0.416016,3.91016 0.259766,2.54883 0.285156,2.53515 0.304687,2.50781 0.322266,2.46875 0.339844,2.41797 0.353515,2.35352 0.367188,2.2793 0.375,2.18945 0.382812,2.08984 0.388672,1.97461 0.392575,1.85156 0.39258,1.71289 0.39258,1.5625 0.38867,1.4004 0.38281,1.22656 0.375,1.03906 0.35742,0.96484 0.39649,1.18555 0.43359,1.39453 0.46875,1.59571 1.03125,3.74414 1.13867,4.41992 1.22656,5.00781 1.29297,5.51563 1.33985,5.9414 1.36328,6.28321 0.4707,2.25781 0.34375,1.79883 0.2168,1.43945 0.0625,0.61719 0.0332,0.5625 0.002,0.52148 -0.0273,0.49414 -0.0547,0.47852 -0.084,0.47461 -0.11133,0.48242 -0.14062,0.50195 -0.36133,1.11914 -0.28516,0.89258 -0.24414,0.89062 -0.20508,0.88282 -0.16601,0.86914 -0.12696,0.85156 -0.0859,0.82813 -0.0488,0.80078 -0.01,0.76562 0.0312,0.72656 0.0684,0.6836 0.10742,0.63476 0.14844,0.58008 0.18555,0.51953 0.22461,0.45703 0.26172,0.38672 0.14648,0.16602 0.15625,0.14453 0.37305,0.29297 0.45117,0.30469 0.52148,0.3164 0.5918,0.32617 0.65625,0.33789 0.71875,0.34571 1.60938,0.71094 1.81445,0.73437 1.99219,0.74414 2.14062,0.74805 2.26367,0.74219 2.35547,0.72656 2.41992,0.70312 2.45703,0.66992 2.46485,0.62891 2.44726,0.57813 2.39844,0.51757 2.32227,0.44922 2.2207,0.3711 6.37305,0.99023 1.88281,0.31836 1.13086,0.23047 0.30859,0.0879 0.15235,0.0723 0.0215,0.0332 -0.0117,0.0293 -0.12695,0.0527 -0.25,0.0469 -0.36133,0.043 -1.01758,0.0859 -1.46484,0.12695 -0.33789,0.0586 -0.0684,0.0312 0.002,0.0332 0.0742,0.0371 0.14258,0.043 0.50781,0.10547 1.91602,0.30859 0.53906,0.0664 0.73437,0.0625 2.00196,0.11133 2.62695,0.0957 3.15039,0.0781 3.57227,0.0605 3.89062,0.0449 8.33203,0.0391 8.38477,-0.0293 3.95703,-0.0391 3.66406,-0.0586 3.27149,-0.0742 2.77148,-0.0918 2.17578,-0.10938 0.83008,-0.0605 0.64453,-0.0664 2.60742,-0.33399 0.69141,-0.10937 0.19922,-0.0449 0.10156,-0.0391 0.0156,-0.0176 -0.008,-0.0156 -0.0859,-0.0312 -0.44141,-0.0586 -1.92383,-0.12695 -0.74804,-0.0645 -0.23633,-0.0391 -0.13867,-0.0449 -0.043,-0.0508 0.0527,-0.0566 0.15235,-0.0625 0.25195,-0.0684 0.80664,-0.15821 1.2168,-0.1875 1.63671,-0.21679 2.06446,-0.25196 1.87109,-0.23437 2.06445,-0.28711 2.19141,-0.32617 2.25,-0.35547 2.23828,-0.37305 2.16211,-0.38086 2.01367,-0.37695 1.80078,-0.36328 1.92383,-0.42578 2.08399,-0.50196 2.21289,-0.56836 2.30664,-0.62304 2.37304,-0.66992 2.4043,-0.70508 2.40235,-0.73047 2.37109,-0.74414 2.30664,-0.74805 2.21094,-0.74414 2.08008,-0.72656 1.92187,-0.70117 1.72656,-0.66407 1.50196,-0.61718 1.24414,-0.56055 0.95703,-0.49219 0.66601,-0.4043 0.58789,-0.41015 0.51368,-0.42969 0.43945,-0.45508 0.19336,-0.23828 0.17383,-0.25 0.1582,-0.25976 0.13867,-0.27149 0.12305,-0.28711 0.10547,-0.29883 0.0879,-0.31445 0.0723,-0.33008 0.0937,-0.71679 0.0312,-0.79297 -0.0332,-0.88282 -0.0918,-0.97851 -0.15234,-1.08203 -0.20898,-1.19727 -0.26563,-1.32031 -0.31836,-1.45117 -0.42383,-1.96094 -0.16211,-0.88477 -0.125,-0.85937 -0.0859,-0.86719 -0.0488,-0.9043 -0.006,-0.97265 0.0371,-1.07031 0.0781,-1.20118 0.12696,-1.35937 0.17187,-1.54883 0.2207,-1.77148 0.59375,-4.32813 0.8086,-5.57812 0.50195,-3.1543 0.60352,-3.32031 0.67968,-3.36719 0.72657,-3.30469 0.74804,-3.12695 0.7461,-2.83399 0.36328,-1.26953 0.35156,-1.15625 0.33789,-1.02539 0.32031,-0.88086 0.16211,-0.45507 0.16211,-0.52149 0.31836,-1.24219 0.3125,-1.5039 0.3086,-1.75391 0.30078,-1.99805 0.29297,-2.23437 0.28515,-2.46289 0.27539,-2.68164 0.26758,-2.89649 0.25586,-3.09961 0.24414,-3.29687 0.23242,-3.48633 0.22071,-3.66601 0.20507,-3.8418 0.19336,-4.00781 0.17579,-4.16407 0.26562,-6.13671 0.30664,-6.20899 0.33008,-6.04687 0.3418,-5.6543 0.33593,-5.02344 0.31836,-4.16016 0.28321,-3.06445 0.12304,-1.04687 0.11133,-0.68555 0.0703,-0.29297 0.0898,-0.28125 0.11133,-0.26953 0.13085,-0.26172 0.15625,-0.25586 0.17969,-0.24804 0.20703,-0.24219 0.23242,-0.24024 0.26368,-0.23828 0.29297,-0.23633 0.68554,-0.47851 0.82617,-0.49219 0.97657,-0.51953 0.7832,-0.42188 0.77539,-0.46289 0.75,-0.49023 0.70313,-0.50195 0.63671,-0.5 0.54883,-0.48047 0.43946,-0.44727 0.3125,-0.39844 0.29687,-0.49414 0.31641,-0.60156 0.33398,-0.70312 0.34766,-0.79493 0.73437,-1.84765 0.77344,-2.14063 0.79688,-2.38086 0.80468,-2.5664 0.79883,-2.69531 0.77734,-2.77344 0.74024,-2.79297 0.69141,-2.76172 0.625,-2.67578 0.54492,-2.53125 0.44922,-2.33789 0.33789,-2.08789 0.125,-0.93164 0.0898,-0.84961 0.0547,-0.75977 0.0195,-0.66211 -0.0234,-0.7539 -0.0625,-0.95703 -0.10156,-1.13282 -0.13672,-1.27929 -0.35937,-2.86915 -0.45313,-3.08203 -0.25391,-1.54492 -0.26562,-1.50586 -0.27734,-1.4375 -0.28126,-1.33984 -0.28515,-1.20899 -0.2832,-1.04882 -0.2793,-0.85743 -0.13672,-0.34765 -0.13477,-0.28906 -0.29296,-0.48633 -0.37891,-0.51172 -0.45313,-0.52344 -0.50976,-0.51562 -0.55078,-0.49805 -0.57422,-0.45898 -0.58203,-0.41016 -0.57422,-0.34375 -0.56055,-0.31836 -0.53906,-0.34375 -0.50391,-0.35547 -0.45898,-0.35547 -0.40039,-0.34765 -0.32813,-0.32813 -0.24023,-0.29883 -0.14258,-0.25586 -0.0469,-0.17968 -0.0488,-0.30079 -0.10156,-0.9375 -0.10938,-1.33789 -0.10938,-1.68554 -0.21093,-4.18555 -0.17774,-4.90625 -0.31054,-9.62305 -0.3418,-9.34179 -0.36523,-8.82813 -0.37305,-8.074214 -0.3711,-7.08789 -0.35742,-5.865234 -0.16992,-2.400391 -0.16211,-2.007813 -0.15234,-1.582031 -0.14258,-1.132812 -0.21289,-1.294922 -0.23828,-1.277344 -0.27149,-1.271484 -0.30664,-1.279297 -0.3457,-1.296875 -0.39063,-1.324219 -0.4375,-1.367188 -0.49023,-1.417968 -0.54688,-1.482422 -0.60742,-1.556641 -0.66992,-1.644531 -0.74023,-1.742188 -0.81446,-1.853515 -0.88867,-1.974609 -2.02734,-4.359376 -2.14258,-4.515624 -1.68164,-3.455079 -0.70117,-1.380859 -0.625,-1.175781 -0.56446,-0.992188 -0.51367,-0.828125 -0.48047,-0.683594 -0.45703,-0.5625 -0.44726,-0.457031 -0.45313,-0.376953 -0.4707,-0.314453 -0.50195,-0.271484 -0.54688,-0.25 -0.60547,-0.25 -0.58984,-0.271485 -0.60352,-0.339844 -0.59961,-0.398437 -0.57812,-0.439453 -0.53906,-0.46875 -0.48438,-0.484375 -0.41211,-0.484375 -0.32226,-0.472656 -0.62696,-1.03125 -0.64453,-1 -0.6543,-0.960938 -0.66601,-0.921875 -0.66992,-0.878906 -0.67188,-0.830078 -0.66992,-0.779297 -0.66406,-0.722656 -0.6543,-0.664063 -0.64258,-0.601562 -0.625,-0.535157 -0.60547,-0.46289 -0.58203,-0.390625 -0.55469,-0.310547 -0.52343,-0.228516 -0.49024,-0.142578 -0.67578,-0.185547 -0.94726,-0.326172 -1.17579,-0.447265 -1.36328,-0.550782 -1.5039,-0.636718 -1.60156,-0.703125 -1.65821,-0.753907 -1.66992,-0.785156 -2.57617,-1.224609 -2.03516,-0.925781 -0.85547,-0.361328 -0.76757,-0.298829 -0.69727,-0.242187 -0.64453,-0.189453 -0.60547,-0.140625 -0.58399,-0.0957 -0.57812,-0.05469 -0.5918,-0.01953 -0.61718,0.01172 -0.66016,0.04101 -1.51953,0.142578 -1.20703,0.107422 -1.125,0.05469 h -1.05274 l -0.99414,-0.05664 -0.95312,-0.111328 -0.91992,-0.171875 -0.90626,-0.228516 -0.90039,-0.289062 -0.74804,-0.253906 -0.73047,-0.220704 -0.70899,-0.189453 -0.68945,-0.1582032 -0.66797,-0.1269531 -0.64648,-0.097656 -0.62305,-0.064453 -0.60156,-0.033203 -0.57813,-0.00195 -0.55078,0.029297 -0.52734,0.0625 -0.50195,0.091797 -0.47266,0.1230469 -0.44727,0.15625 -0.41797,0.1855474 -0.39062,0.21875 -0.42578,0.234375 -0.4336,0.162109 -0.45898,0.09375 -0.50391,0.01953 -0.56445,-0.05078 -0.64648,-0.123047 -0.7461,-0.197265 -0.86523,-0.269531 -0.63086,-0.2246103 -0.55078,-0.2285156 -0.46289,-0.2285156 -0.36328,-0.21875 -0.25782,-0.2050781 -0.0859,-0.095703 -0.0566,-0.089844 -0.0254,-0.083984 0.006,-0.078125 0.0391,-0.068359 0.0742,-0.060547 0.16015,-0.1289063 0.0703,-0.1308593 0.002,-0.066406 -0.0176,-0.066406 -0.0957,-0.1289062 -0.17188,-0.1289062 -0.24023,-0.1230469 -0.30664,-0.1191407 -0.36524,-0.1113281 -0.41992,-0.1054687 -0.4707,-0.09375 -1.07032,-0.15625 -1.20898,-0.1015625 -1.30859,-0.035156 -0.52344,0.00977 -0.50195,0.029297 -0.47852,0.046875 -0.45117,0.064453 -0.42383,0.082031 -0.39453,0.097656 -0.36133,0.1113281 -0.32812,0.1269531 -0.29297,0.1386719 -0.25586,0.1523437 -0.2168,0.1640625 -0.17383,0.1757813 -0.13281,0.1855468 -0.0879,0.1933594 -0.0391,0.203125 0.008,0.2109375 -0.004,0.1445313 -0.0547,0.1425781 -0.0977,0.140625 -0.13867,0.1347656 -0.17383,0.1210938 -0.20313,0.1074219 -0.23046,0.089844 -0.25,0.066406 -0.36133,0.056641 -0.38672,0.02734 h -0.40625 l -0.41602,-0.02539 -0.41992,-0.04883 -0.41601,-0.066406 -0.4043,-0.085937 -0.38281,-0.1015625 -0.35743,-0.1152343 -0.32226,-0.1269532 -0.2793,-0.1367187 -0.23047,-0.1425781 -0.17187,-0.1464844 -0.10547,-0.1503906 -0.0332,-0.1503907 0.0137,-0.074219 0.0332,-0.074219 0.0801,-0.1757812 0.0195,-0.1699219 -0.043,-0.1601563 -0.10351,-0.1523437 -0.16016,-0.140625 -0.21484,-0.1328125 -0.27149,-0.1210938 -0.32617,-0.109375 -0.37695,-0.099609 -0.42578,-0.087891 -1.00196,-0.1367187 -1.18359,-0.085937 -1.35742,-0.029297 -1.34571,0.029297 -1.17968,0.083984 -1,0.1367187 -0.42969,0.085937 -0.37891,0.097656 -0.32812,0.109375 -0.27539,0.1191406 -0.22071,0.1289063 -0.16406,0.1386718 -0.10742,0.1484375 -0.0469,0.15625 0.0137,0.1640625 0.0781,0.1738282 0.0606,0.1386718 0.0254,0.1484375 -0.008,0.15625 -0.043,0.15625 -0.0742,0.1542969 -0.10547,0.1464844 -0.13086,0.1328125 -0.1582,0.1152343 -0.23828,0.1113282 -0.28711,0.072266 -0.32617,0.041016 -0.35547,0.00977 -0.37696,-0.017578 -0.38867,-0.044922 -0.38672,-0.068359 -0.3789,-0.087891 -0.35938,-0.1054687 -0.33008,-0.1230469 -0.29297,-0.1328125 -0.24218,-0.1445312 -0.1836,-0.1523438 -0.11718,-0.15625 -0.0274,-0.080078 -0.01,-0.080078 0.0137,-0.080078 0.0371,-0.080078 0.0781,-0.171875 0.0176,-0.1640625 -0.041,-0.1582031 -0.0977,-0.1503906 -0.15235,-0.140625 -0.20703,-0.1328125 -0.25586,-0.1210938 -0.30664,-0.1113281 -0.35351,-0.1015625 -0.40039,-0.087891 -0.92969,-0.1425781 -1.0918,-0.087891 z M 223.85352,147.48633 c 1.35532,0.0287 2.98374,0.18399 5.00976,0.42969 11.5654,1.40248 14.25094,2.99777 16.00391,9.50781 1.14532,4.25343 -0.14646,7.35133 -3.80274,9.12109 -6.19952,3.0008 -16.53474,2.11962 -24.10547,-2.05664 -6.02627,-3.32429 -6.39367,-6.81199 -1.35742,-12.92187 2.57038,-3.11832 4.18597,-4.16588 8.25196,-4.08008 z m -81.75196,1.58008 c 1.55984,0.0587 2.47778,0.44161 4.04102,1.19726 2.15011,1.03934 3.73871,2.55429 4.625,4.41016 2.78286,5.82719 1.37971,8.66538 -5.90039,11.92773 -6.49133,2.90889 -12.64196,3.36773 -18.26953,1.36328 -7.34838,-2.61737 -9.18567,-6.20837 -6.16407,-12.04296 1.96674,-3.7977 4.4085,-4.87996 13.77344,-6.10743 4.13167,-0.54152 6.33469,-0.80664 7.89453,-0.74804 z m 87.03906,4.56445 c -3.5507,-0.15999 -6.50101,4.50484 -3.7246,7.28125 1.41185,1.41186 4.78035,1.73946 5.52343,0.53711 0.25656,-0.41514 -0.25815,-1.14282 -1.14453,-1.61719 -2.26471,-1.21205 -2.00292,-3.07408 0.57422,-4.08984 l 2.18359,-0.86133 -1.86718,-0.86719 c -0.51674,-0.23939 -1.03769,-0.36001 -1.54493,-0.38281 z m -93.51757,0.62695 c -3.62803,0 -5.88604,2.99304 -4.51953,5.99219 0.7309,1.60417 1.46254,1.95508 4.08593,1.95508 3.15787,0 4.31444,-1.21103 2.00391,-2.09766 -0.65561,-0.2516 -1.19141,-1.13355 -1.19141,-1.96094 0,-0.82736 0.5358,-1.5039 1.19141,-1.5039 0.6556,0 1.19141,-0.53775 1.19141,-1.19336 0,-0.83099 -0.83548,-1.19141 -2.76172,-1.19141 z"
       transform="scale(0.26458333)"
       id="path832"
       inkscape:connector-curvature="0" />
  </g>
  <g
     id="g2447"
     inkscape:groupmode="layer"
     inkscape:label="B.Mask"
     style="display:inline">
    <path
       inkscape:connector-curvature="0"
       id="path1296"
       d="m 142.10156,149.06641 c -1.55984,-0.0586 -3.76286,0.20652 -7.89453,0.74804 -9.36494,1.22747 -11.8067,2.30973 -13.77344,6.10743 -3.0216,5.83461 -1.18431,9.42559 6.16407,12.04296 5.62757,2.00445 11.7782,1.54561 18.26953,-1.36328 7.2801,-3.26235 8.68325,-6.10054 5.90039,-11.92773 -0.88629,-1.85587 -2.47489,-3.37082 -4.625,-4.41016 -1.56324,-0.75565 -2.48118,-1.13861 -4.04102,-1.19726 z m -6.47851,5.1914 c 1.92624,0 2.76172,0.36042 2.76172,1.19141 0,0.65561 -0.53581,1.19336 -1.19141,1.19336 -0.65561,0 -1.19141,0.67654 -1.19141,1.5039 0,0.82739 0.5358,1.70934 1.19141,1.96094 2.31053,0.88663 1.15396,2.09766 -2.00391,2.09766 -2.62339,0 -3.35503,-0.35091 -4.08593,-1.95508 -1.36651,-2.99915 0.8915,-5.99219 4.51953,-5.99219 z"
       style="display:inline;fill:#050505;stroke:#000000;stroke-width:0;stroke-miterlimit:4;stroke-dasharray:none;stroke-opacity:1"
       transform="scale(0.26458333)" />
    <path
       id="path1303"
       d="m 223.85352,147.48633 c -4.06599,-0.0858 -5.68158,0.96176 -8.25196,4.08008 -5.03625,6.10988 -4.66885,9.59758 1.35742,12.92187 7.57073,4.17626 17.90595,5.05744 24.10547,2.05664 3.65628,-1.76976 4.94806,-4.86766 3.80274,-9.12109 -1.75297,-6.51004 -4.43851,-8.10533 -16.00391,-9.50781 -2.02602,-0.2457 -3.65444,-0.40097 -5.00976,-0.42969 z m 5.2871,6.14453 c 0.50724,0.0228 1.02819,0.14342 1.54493,0.38281 l 1.86718,0.86719 -2.18359,0.86133 c -2.57714,1.01576 -2.83893,2.87779 -0.57422,4.08984 0.88638,0.47437 1.40109,1.20205 1.14453,1.61719 -0.74308,1.20235 -4.11158,0.87475 -5.52343,-0.53711 -2.77641,-2.77641 0.17389,-7.44124 3.7246,-7.28125 z"
       style="display:inline;fill:#050505;stroke:#000000;stroke-width:0;stroke-miterlimit:4;stroke-dasharray:none;stroke-opacity:1"
       transform="scale(0.26458333)"
       inkscape:connector-curvature="0" />
    <path
       d="m 33.946081,25.255557 c 0.02571,-0.02472 0.04675,-0.220929 0.04675,-0.436044 0,-0.310876 0.02051,-0.383529 0.09997,-0.354228 0.0583,0.0215 0.147738,-0.03322 0.214579,-0.13127 0.168043,-0.246523 0.309071,-0.274603 0.387193,-0.07706 0.10446,0.264112 0.241555,0.196841 0.380399,-0.186659 0.166968,-0.461154 0.589347,-1.061673 0.746754,-1.061673 0.07563,0 0.353533,-0.303609 0.724992,-0.792042 0.331291,-0.435622 0.717147,-0.923508 0.857439,-1.08417 l 0.255074,-0.292128 -0.04051,-0.601025 c -0.03959,-0.587312 -0.03697,-0.601025 0.114874,-0.601025 0.105041,0 0.179059,-0.06006 0.228472,-0.185372 0.0491,-0.124557 0.358969,-0.377651 0.944524,-0.771481 1.859092,-1.250394 1.997651,-1.355656 2.294364,-1.742998 0.457207,-0.597001 0.600478,-0.959255 0.553276,-1.39888 -0.07512,-0.699588 -0.476907,-0.908405 -1.765761,-0.917631 -0.785803,-0.0056 -0.946671,-0.04119 -0.946671,-0.209352 0,-0.107105 -0.208645,-0.230725 -0.464768,-0.275361 -0.09458,-0.01649 -0.334205,0.01633 -0.532503,0.07295 -0.489551,0.13975 -0.949059,0.130111 -1.246691,-0.02616 -0.628923,-0.330214 -0.697403,-0.348161 -0.915291,-0.239845 -0.111396,0.05537 -0.237741,0.163892 -0.280736,0.241151 -0.04944,0.0888 -0.121139,0.126601 -0.19492,0.102764 -0.948797,-0.306537 -1.361431,-0.369332 -2.273545,-0.345992 -1.346443,0.03445 -2.159573,0.222319 -2.682456,0.61971 -0.476709,0.362337 -0.640164,0.838258 -0.440201,1.281632 0.162832,0.361032 0.749404,1.133631 1.014977,1.336907 0.990257,0.757896 1.447683,0.984702 2.073078,1.027843 0.434482,0.02998 0.473336,0.04514 0.473336,0.184763 0,0.08366 -0.109339,0.299501 -0.242979,0.479649 -0.133637,0.180151 -0.337493,0.480786 -0.453,0.668074 -0.115512,0.187289 -0.35211,0.438615 -0.525797,0.558516 -0.377069,0.260299 -0.485607,0.397832 -0.205967,0.261016 0.110307,-0.05398 0.271555,-0.119195 0.358332,-0.144928 0.149029,-0.04419 0.157439,-0.02877 0.151648,0.277953 -0.0034,0.1786 -0.04427,0.582571 -0.09088,0.897702 -0.06821,0.461133 -0.06692,0.631275 0.0066,0.87171 0.05025,0.164309 0.11167,0.596559 0.136485,0.960561 0.02482,0.364002 0.06562,0.661818 0.09068,0.661818 0.02506,0 0.08343,-0.0364 0.129707,-0.08089 0.06545,-0.06292 0.08485,-0.01423 0.08731,0.219075 0.0041,0.385446 0.102326,0.587185 0.471627,0.968313 0.298157,0.307716 0.371239,0.349657 0.460209,0.264133 z M 33.482826,24.764029 C 33.14667,24.404618 33.038877,24.069391 33.12217,23.64251 c 0.04935,-0.252885 -0.0073,-0.292171 -0.160733,-0.111468 -0.08822,0.103886 -0.09589,0.05763 -0.06428,-0.387594 0.0322,-0.453591 0.02606,-0.488243 -0.0597,-0.337039 -0.08957,0.157911 -0.09536,0.143658 -0.09193,-0.226427 0.0023,-0.250484 -0.029,-0.414348 -0.08564,-0.448009 -0.110488,-0.06564 -0.03994,-0.787028 0.110901,-1.134073 0.115744,-0.266282 0.131991,-0.510298 0.02994,-0.449674 -0.04235,0.02516 -0.07012,-0.06671 -0.07012,-0.231946 0,-0.213683 0.02688,-0.274728 0.122718,-0.278773 0.158709,-0.0066 0.268486,-0.02759 0.803049,-0.152955 0.242913,-0.05697 0.503071,-0.112956 0.578126,-0.124405 0.07507,-0.01145 0.24151,-0.117593 0.36986,-0.235864 0.284088,-0.261774 0.458981,-0.321725 0.650704,-0.223099 0.19483,0.100232 0.414608,0.02432 0.49135,-0.169732 0.05097,-0.128859 0.108685,-0.155917 0.311217,-0.1459 0.136762,0.0067 0.248808,0.03505 0.248962,0.06285 1.55e-4,0.02781 0.07131,0.04816 0.158094,0.04523 0.08678,-0.003 0.118333,-0.02063 0.07012,-0.03932 -0.04821,-0.0187 -0.08765,-0.08022 -0.08765,-0.136705 0,-0.06715 -0.03948,-0.08814 -0.114073,-0.06063 -0.06274,0.02314 -0.1546,0.0097 -0.204129,-0.02976 -0.06262,-0.04996 -0.103897,-0.05031 -0.135499,-0.0012 -0.05998,0.0933 -0.339092,0.09053 -0.43777,-0.0043 -0.08852,-0.08509 -0.254264,-0.01648 -0.19245,0.07967 0.02219,0.03451 0.101594,0.06275 0.176454,0.06275 0.171084,0 0.176468,0.10931 0.0096,0.195147 -0.0773,0.03977 -0.165935,0.04109 -0.227903,0.0034 -0.176406,-0.107284 -0.399355,-0.06927 -0.614547,0.104783 -0.114589,0.09269 -0.239363,0.16852 -0.277296,0.16852 -0.03794,0 -0.109525,0.047 -0.159124,0.104448 -0.119732,0.138681 -0.622064,0.10543 -0.721903,-0.04779 -0.05619,-0.08623 -0.03123,-0.164367 0.108914,-0.340998 0.175839,-0.221604 0.806511,-0.591968 1.008029,-0.591968 0.05429,0 0.09871,-0.02565 0.09871,-0.05699 0,-0.07734 -0.561253,0.06516 -0.774693,0.196673 -0.09459,0.05829 -0.204488,0.124203 -0.244206,0.146475 -0.04773,0.02676 -0.06768,-0.167576 -0.05883,-0.573008 0.01096,-0.502126 0.03358,-0.61634 0.124585,-0.629189 0.08466,-0.01194 0.101064,0.02309 0.06875,0.146836 -0.06875,0.26329 0.0243,0.475814 0.247208,0.564561 0.385725,0.153589 0.667579,-0.07102 0.650092,-0.518071 -0.0048,-0.121549 0.02195,-0.220992 0.05935,-0.220992 0.03739,0 0.07012,-0.05309 0.07274,-0.117964 0.0038,-0.09392 0.02025,-0.08705 0.08084,0.0337 0.04185,0.08342 0.134984,0.151669 0.206961,0.151669 0.104577,0 0.122029,0.03385 0.08687,0.168519 -0.07156,0.274075 0.02083,0.481038 0.256675,0.574946 0.290903,0.115828 0.719886,0.01887 0.754422,-0.170497 0.02445,-0.134081 0.024,-0.134089 -0.08009,-0.0015 -0.09681,0.123274 -0.102134,0.110616 -0.07092,-0.16852 0.05106,-0.456604 -0.06567,-0.564077 -0.592743,-0.545792 -0.376741,0.01307 -0.429991,-0.0013 -0.471408,-0.126649 -0.05834,-0.176703 0.06761,-0.32884 0.374243,-0.452049 0.164365,-0.06604 0.260225,-0.07314 0.322,-0.02385 0.04839,0.0386 0.108741,0.05023 0.13412,0.02583 0.02538,-0.02439 0.04615,0.0062 0.04615,0.068 0,0.09938 0.232306,0.14561 0.535614,0.106589 0.02461,-0.0031 0.07023,0.03387 0.101372,0.0823 0.03114,0.04843 0.07728,0.06821 0.102518,0.04395 0.09051,-0.087 -0.05116,-0.188291 -0.321474,-0.22984 -0.151332,-0.02326 -0.311153,-0.084 -0.355177,-0.134993 -0.176861,-0.204851 -0.897739,-0.04364 -1.006036,0.224995 -0.04323,0.107215 -0.05765,0.109001 -0.131215,0.01625 -0.220715,-0.278289 -0.766826,-0.450557 -0.83204,-0.262469 -0.01364,0.03931 -0.126708,0.07427 -0.251284,0.07767 -0.124571,0.0034 -0.226501,0.03191 -0.226501,0.06334 0,0.03143 -0.071,0.05757 -0.157778,0.05807 -0.29417,0.0017 -0.442569,0.07401 -0.52663,0.256571 -0.10274,0.22312 -0.02605,0.57305 0.108078,0.493214 0.06325,-0.03765 0.07125,-0.101807 0.02702,-0.216716 -0.04941,-0.128393 -0.03262,-0.18842 0.07866,-0.281196 0.07781,-0.06488 0.207656,-0.122583 0.288538,-0.12823 0.08087,-0.0056 0.182216,-0.01369 0.225207,-0.01787 0.04298,-0.0042 0.129352,-0.04845 0.19193,-0.09837 0.06647,-0.05303 0.184638,-0.07367 0.284199,-0.04966 0.103937,0.02508 0.181306,0.0097 0.198328,-0.03937 0.04434,-0.127877 0.544687,0.200945 0.544687,0.357956 0,0.07229 -0.04159,0.146774 -0.09242,0.165525 -0.07975,0.02942 -0.939045,0.08574 -1.438502,0.09429 -0.0995,0.0017 -0.151408,0.03567 -0.132588,0.08676 0.01701,0.04618 0.111427,0.07862 0.209812,0.07211 0.138122,-0.0092 0.189084,0.02721 0.223652,0.159623 0.02463,0.09432 0.03073,0.184975 0.01358,0.201469 -0.01716,0.01649 -0.231014,-0.0048 -0.475221,-0.04741 -1.346968,-0.234793 -2.964922,-1.618107 -3.057178,-2.613741 -0.02516,-0.271569 -0.0028,-0.343759 0.155823,-0.504484 0.295506,-0.299291 0.662583,-0.498797 1.227146,-0.666916 0.466608,-0.138962 0.664334,-0.156483 1.753095,-0.155356 1.161469,0.0012 1.25905,0.01156 1.822714,0.193475 1.02922,0.332174 1.849713,0.844725 2.912549,1.819421 0.452364,0.414853 0.601113,0.512847 0.779053,0.513205 0.205842,3.94e-4 0.222489,-0.01793 0.259831,-0.286041 0.02194,-0.157565 0.06035,-0.576105 0.08536,-0.93008 l 0.04547,-0.643598 0.886803,0.0066 c 1.32442,0.0099 1.67219,0.210327 1.60943,0.927468 -0.05379,0.614569 -0.772327,1.517518 -1.613966,2.028195 -0.438734,0.266219 -0.511575,0.308327 -0.616322,0.356419 -0.05785,0.02656 -0.120964,0.06636 -0.140248,0.08846 -0.01928,0.0221 -0.120639,0.0925 -0.225229,0.156458 l -0.190174,0.116281 -0.07277,-0.252653 c -0.117901,-0.409314 -0.162942,-0.445376 -0.501736,-0.401708 -0.327106,0.04217 -0.932231,-0.153872 -1.091543,-0.353639 -0.06313,-0.07916 -0.102696,-0.08527 -0.165694,-0.0256 -0.115874,0.109752 -0.02873,0.213198 0.234543,0.278415 0.154351,0.03824 0.231453,0.101731 0.246858,0.203291 0.01233,0.08122 -0.0094,0.147683 -0.04819,0.147683 -0.04194,0 -0.05389,0.0989 -0.02946,0.243658 0.03811,0.225795 0.03009,0.240288 -0.109594,0.197682 -0.110461,-0.0337 -0.150729,-0.01776 -0.150729,0.05967 0,0.05811 -0.04734,0.105654 -0.105186,0.105654 -0.07312,0 -0.105186,0.07071 -0.105186,0.231946 0,0.127571 -0.03164,0.250757 -0.07031,0.273717 -0.04676,0.02778 -0.04593,0.08557 0.0025,0.172499 0.115358,0.207199 0.172514,0.154082 0.179616,-0.166918 0.0066,-0.295458 0.1713,-0.559338 0.301094,-0.482239 0.07697,0.04573 0.148133,-0.116572 0.148133,-0.337861 0,-0.08966 0.0355,-0.163007 0.07889,-0.163007 0.04962,0 0.06383,-0.07239 0.03829,-0.1951 -0.03515,-0.168919 -0.02221,-0.190477 0.09642,-0.160657 0.163248,0.04104 0.1777,0.171973 0.03183,0.288357 -0.05785,0.04615 -0.105185,0.170079 -0.105185,0.275382 0,0.105304 -0.06311,0.345381 -0.140249,0.533512 -0.07818,0.190667 -0.136574,0.482619 -0.13195,0.659712 0.0071,0.275087 0.01476,0.29057 0.05645,0.115467 0.0371,-0.155788 0.06054,-0.07356 0.10209,0.358083 0.04467,0.464039 0.03445,0.588913 -0.05953,0.726783 -0.06241,0.09156 -0.143274,0.148756 -0.179707,0.127112 -0.03643,-0.02165 -0.04755,0.0075 -0.02471,0.06469 0.02473,0.06198 -0.0053,0.121326 -0.07432,0.146781 -0.06372,0.0235 -0.153771,0.128062 -0.200116,0.232346 -0.114497,0.257646 -1.130242,1.492852 -1.159497,1.410025 -0.03248,-0.09197 -0.151934,-0.08321 -0.151934,0.01113 0,0.04252 -0.111321,0.207911 -0.247384,0.367519 -0.13606,0.159614 -0.320554,0.477311 -0.409983,0.706013 -0.115737,0.295942 -0.175816,0.382729 -0.208421,0.30104 -0.08611,-0.215727 -0.04808,-0.385426 0.09444,-0.421236 0.09076,-0.02281 0.140247,-0.09195 0.140247,-0.195913 0,-0.233083 -0.07803,-0.193684 -0.315556,0.159287 -0.254133,0.377652 -0.365697,0.425216 -0.405185,0.172758 -0.02514,-0.160785 -0.0312,-0.152045 -0.04012,0.0579 -0.0058,0.135997 -0.03002,0.296131 -0.05386,0.355871 -0.03894,0.09754 -0.05264,0.0964 -0.134516,-0.01123 -0.138192,-0.181671 -0.207812,-0.05064 -0.207812,0.391134 0,0.219348 -0.02075,0.398822 -0.04609,0.398822 -0.02536,0 -0.186777,-0.150412 -0.358728,-0.334259 z m 0.677812,-1.187937 c 0.02341,-0.05864 0.04156,-0.157227 0.04033,-0.219075 -0.002,-0.097 -0.01637,-0.09448 -0.105185,0.0184 -0.11494,0.146078 -0.136102,0.307296 -0.04034,0.307296 0.03444,0 0.08178,-0.04798 0.105186,-0.106624 z m -0.658682,-0.689855 c 0,-0.145852 0.01843,-0.367562 0.04096,-0.492689 0.03236,-0.179687 0.02409,-0.20625 -0.03931,-0.126389 -0.06294,0.07927 -0.07019,0.05013 -0.03358,-0.134815 0.03576,-0.180637 0.02725,-0.218086 -0.03634,-0.159831 -0.108514,0.09944 -0.192209,0.669401 -0.08932,0.608292 0.04938,-0.02934 0.06197,0.04307 0.03772,0.216864 -0.02176,0.155914 -0.0049,0.279595 0.04173,0.307338 0.05237,0.03111 0.07814,-0.04101 0.07814,-0.21876 z m 1.82116,-0.376094 c 0.04808,-0.16508 0.07336,-0.340367 0.05617,-0.389533 -0.01718,-0.04916 -0.0715,0.0715 -0.120709,0.268136 -0.109604,0.438024 -0.05668,0.537556 0.06453,0.121383 z m 1.151015,-1.120044 c 0.06826,-0.148714 0.148604,-0.255833 0.178551,-0.238033 0.09755,0.05795 0.215427,-0.299312 0.205835,-0.623818 l -0.0094,-0.317006 -0.04791,0.332931 c -0.02635,0.183109 -0.08591,0.345107 -0.132354,0.359979 -0.08528,0.02733 -0.238991,0.276877 -0.361795,0.587375 -0.109807,0.277636 0.03282,0.191046 0.167055,-0.101412 z m -3.471127,-0.276624 c 0.0045,-0.05988 0.0718,-0.186677 0.149615,-0.281765 0.07781,-0.09509 0.112334,-0.190216 0.07671,-0.211387 -0.03562,-0.02116 -0.04699,-0.103862 -0.02524,-0.183772 0.02708,-0.09954 0.01397,-0.130104 -0.04165,-0.09707 -0.04464,0.02652 -0.08117,0.124259 -0.08117,0.2172 0,0.09293 -0.03355,0.229228 -0.07455,0.302893 -0.04101,0.07365 -0.06044,0.185409 -0.0432,0.248355 0.02713,0.09899 0.03246,0.09974 0.03949,0.0055 z m 4.144317,-0.851698 c -8.14e-4,-0.144451 -0.01609,-0.163051 -0.06905,-0.08426 -0.08866,0.131886 -0.08866,0.269631 0,0.269631 0.03857,0 0.06964,-0.08342 0.06905,-0.18537 z m -1.822782,0.123818 c 0.239166,-0.03004 0.321255,-0.07148 0.341175,-0.172229 0.02184,-0.110421 0.0088,-0.118769 -0.07766,-0.04978 -0.06426,0.05126 -0.274689,0.07617 -0.551547,0.06526 -0.360502,-0.0142 -0.464218,-0.04387 -0.532809,-0.15245 -0.08447,-0.133716 -0.08519,-0.133669 -0.08766,0.0054 -0.0042,0.236328 0.391642,0.368658 0.908498,0.303736 z m 0.596689,-0.515691 c 0.154272,-0.05475 0.383401,-0.14602 0.509164,-0.202819 0.125774,-0.0568 0.263973,-0.0823 0.30712,-0.05667 0.04737,0.02815 0.0652,0.0095 0.04501,-0.04704 -0.02543,-0.0712 -0.15784,-0.08871 -0.552554,-0.07307 -0.285513,0.01131 -0.740004,0.02648 -1.00998,0.03371 -0.535965,0.01433 -0.831536,0.158634 -0.681318,0.332616 0.11041,0.127882 1.03461,0.136753 1.382556,0.01327 z m -0.596053,0.0098 c 0,-0.01551 -0.02004,-0.0784 -0.04454,-0.139766 -0.03682,-0.09224 -0.0043,-0.107798 0.18744,-0.08977 0.255492,0.02401 0.358772,0.160767 0.159008,0.210546 -0.177808,0.04431 -0.301905,0.05212 -0.301905,0.01899 z m -0.656468,-0.140328 c 0.0222,-0.05561 0.08432,-0.101111 0.138047,-0.101111 0.05372,0 0.09768,0.0455 0.09768,0.101111 0,0.05564 -0.06208,0.101112 -0.138048,0.101112 -0.0939,0 -0.125138,-0.03234 -0.09768,-0.101112 z m 2.097797,-0.511445 c 0.02591,-0.04031 0.012,-0.10704 -0.03093,-0.148298 -0.0573,-0.05509 -0.07804,-0.03561 -0.07804,0.07328 0,0.162756 0.03642,0.187837 0.108961,0.07501 z m -0.306595,-0.675785 c 0.04861,-0.02888 0.06801,-0.0721 0.04311,-0.09603 -0.05634,-0.05417 -0.336332,0.02651 -0.336332,0.09691 0,0.06701 0.179866,0.06647 0.293228,-9.36e-4 z m -1.485331,-0.226237 c 0,-0.06014 -0.04113,-0.08383 -0.104782,-0.06034 -0.05763,0.02126 -0.08732,0.06581 -0.06598,0.099 0.06119,0.09518 0.170768,0.07037 0.170768,-0.03865 z m 1.8214,-0.641407 c 0.09064,-0.05385 0.09062,-0.06514 -1.56e-4,-0.09366 -0.05678,-0.01784 -0.19789,-0.02639 -0.313584,-0.01901 -0.115705,0.0074 -0.249817,-0.0137 -0.298027,-0.04686 -0.05448,-0.03746 -0.08766,-0.03315 -0.08766,0.01141 0,0.03943 0.0307,0.08992 0.06823,0.112217 0.126074,0.0749 0.527155,0.09772 0.631202,0.0359 z m 0.165431,-0.24823 c 0.09521,-0.09153 0.04896,-0.288674 -0.05844,-0.249072 -0.05785,0.02134 -0.105186,0.09622 -0.105186,0.166405 0,0.128049 0.07631,0.1666 0.163623,0.08266 z M 31.926082,16.17503 c 0.116712,-0.115774 0.305016,-0.278753 0.418442,-0.362169 0.18045,-0.13271 0.188363,-0.151669 0.0633,-0.151669 -0.146477,0 -0.799126,0.549605 -0.799126,0.672941 0,0.110898 0.09136,0.0651 0.317398,-0.159109 z m -0.264806,-0.113138 c 0.228517,-0.205862 0.288845,-0.33329 0.157779,-0.33329 -0.03857,0 -0.07012,0.03387 -0.07012,0.07526 0,0.04393 -0.07297,0.06185 -0.17531,0.04306 -0.09642,-0.01772 -0.17531,-0.0061 -0.17531,0.02584 0,0.03193 0.03156,0.05806 0.07012,0.05806 0.03857,0 0.07012,0.03387 0.07012,0.07527 0,0.04279 -0.06227,0.05962 -0.144331,0.03898 -0.10563,-0.02656 -0.138536,-0.0076 -0.122716,0.07081 0.03589,0.177817 0.149975,0.16201 0.389756,-0.05401 z m 1.139512,3.840138 c 0,-0.04032 0.156847,-0.302956 0.348559,-0.583667 0.362387,-0.530626 0.506032,-0.553208 0.323183,-0.05082 -0.07182,0.197319 -0.07752,0.293603 -0.02129,0.35903 0.0928,0.107951 -0.04225,0.211324 -0.278151,0.212904 -0.0845,5.87e-4 -0.173142,0.03136 -0.19698,0.06844 -0.05787,0.09 -0.175309,0.08605 -0.175309,-0.0059 z m 4.685805,-0.587312 c 0.01239,-0.08528 0.0827,-0.282438 0.156237,-0.438151 0.07354,-0.155705 0.134397,-0.364444 0.135243,-0.463891 0.0015,-0.1752 0.215391,-0.378284 0.503116,-0.47769 0.18461,-0.06378 0.346083,0.101546 0.387237,0.396484 0.03692,0.264618 0.02771,0.279658 -0.317244,0.517882 -0.195401,0.134944 -0.405754,0.339209 -0.467463,0.453907 -0.08207,0.152553 -0.153477,0.202912 -0.265923,0.187528 -0.115636,-0.01582 -0.148145,-0.05945 -0.131195,-0.176079 z m 0.569185,-0.37919 c 0.04717,-0.05464 0.07554,-0.193102 0.06304,-0.307695 -0.02348,-0.215115 0.09912,-0.352858 0.260926,-0.293161 0.0478,0.01764 0.107752,-3.34e-4 0.133214,-0.03994 0.07311,-0.113708 -0.295288,-0.08602 -0.490385,0.03687 -0.194385,0.122434 -0.225732,0.228175 -0.06766,0.228175 0.124254,0 0.13392,0.09207 0.02938,0.279827 -0.09323,0.167462 -0.04555,0.231462 0.07147,0.09593 z m -2.660321,-0.72002 c 0,-0.03311 0.04547,-0.0602 0.101048,-0.0602 0.132709,0 0.183896,-0.08624 0.114887,-0.19357 -0.04332,-0.06738 -0.08031,-0.06198 -0.170681,0.02489 -0.139398,0.133998 -0.159862,-0.006 -0.02549,-0.174271 0.129581,-0.162349 0.275741,-0.18754 0.488632,-0.08422 0.207553,0.100734 0.263293,0.355028 0.105186,0.479859 -0.1732,0.136739 -0.613583,0.142123 -0.613583,0.0075 z m -1.224164,0.01187 c -0.02219,-0.03451 -0.0097,-0.08099 0.02786,-0.103271 0.09421,-0.05597 0.01118,-0.238434 -0.108481,-0.238434 -0.05372,0 -0.100174,0.03792 -0.10322,0.08426 -0.0042,0.06339 -0.01463,0.06243 -0.04226,-0.0039 -0.0202,-0.04848 0.01696,-0.145183 0.08258,-0.214883 0.09704,-0.103074 0.153987,-0.114041 0.305214,-0.05877 0.102258,0.03738 0.200554,0.06173 0.218438,0.05412 0.01789,-0.0076 0.06376,0.03379 0.101946,0.09199 0.102629,0.156398 -0.08199,0.451632 -0.282424,0.451632 -0.08763,0 -0.177476,-0.02824 -0.199664,-0.06275 z m 3.936136,-2.103738 c -0.718615,-0.687496 -1.332791,-1.149093 -1.964606,-1.476569 l -0.549946,-0.285029 0.178726,-0.159306 c 0.23623,-0.210554 0.414497,-0.20094 0.829893,0.04476 0.443029,0.262047 0.817643,0.309633 1.363601,0.173221 0.880317,-0.219939 1.006671,-0.122822 1.006671,0.773758 0,0.319976 -0.02027,0.768237 -0.04506,0.996118 -0.06049,0.556282 -0.177873,0.546698 -0.819286,-0.06696 z m -6.463662,4.558031 c 0.274382,-0.227333 0.291408,-0.29887 0.04039,-0.169729 -0.102701,0.05284 -0.405622,0.413315 -0.340035,0.404658 0.01053,-0.0014 0.145371,-0.107107 0.299648,-0.234917 z"
       id="path12"
       inkscape:connector-curvature="0"
       style="stroke-width:0.06875239" />
    <path
       inkscape:connector-curvature="0"
       id="path66"
       d="m 60.734871,14.651301 c 0.862145,0 1.82807,0.197502 1.82807,0.373863 0,0.223968 -0.858811,1.459812 -1.655658,2.382442 -0.760711,0.880807 -1.186047,1.128721 -1.323111,0.77153 -0.101707,-0.265001 -0.683309,-0.531002 -0.970637,-0.444027 -0.690965,0.209404 -1.130178,0.997386 -1.019781,1.829607 0.06908,0.520428 0.05909,0.546311 -0.248436,0.660334 -0.522342,0.19359 -0.726504,0.106119 -1.132335,-0.483388 -0.34748,-0.504782 -0.380685,-0.619389 -0.339992,-1.174704 0.158804,-2.164878 2.332634,-3.915757 4.861906,-3.915757 z m 2.163712,0.481394 c 0.284144,-0.01082 1.237334,0.563707 1.685168,1.049512 0.518684,0.562709 0.994311,1.513984 1.081182,2.161755 0.05992,0.447101 0.03246,0.772361 -0.136743,1.125549 -0.0046,0.01997 -0.01579,0.03829 -0.02745,0.0541 -0.125341,0.242363 -0.317181,0.501037 -0.595416,0.823546 -0.815476,0.945093 -0.999657,1.362984 -1.001886,2.272101 -0.002,0.806399 -0.02415,0.852009 -0.570698,1.184122 -0.655676,0.398168 -0.770035,0.343404 -0.770035,-0.369534 0,-0.338403 -0.05078,-0.615308 -0.111857,-0.615308 -0.0616,0 -0.111862,0.293882 -0.111862,0.657755 0,0.825213 -0.161379,0.974383 -1.090801,1.007568 -0.363456,0.01332 -0.363626,0.01332 -0.363626,-0.546482 0,-0.307695 -0.05078,-0.559377 -0.111857,-0.559377 -0.06159,0 -0.111862,0.258839 -0.111862,0.575111 v 0.574857 l -0.571193,-0.06824 c -0.785097,-0.09296 -0.883239,-0.20216 -0.883239,-0.983954 0,-0.363791 -0.04995,-0.657755 -0.111861,-0.657755 -0.06159,0 -0.111857,0.276904 -0.111857,0.615312 0,0.03163 -0.0016,0.05493 -0.002,0.08456 v 0.09978 c 0,0.01084 -0.0016,0.02244 -0.0046,0.03245 -0.02828,0.500618 -0.183686,0.505696 -0.764375,0.153056 -0.551471,-0.33491 -0.568447,-0.372698 -0.573195,-1.264539 -0.002,-0.53391 -0.0749,-0.93838 -0.225545,-1.270874 -0.295048,-0.650351 -0.28173,-0.746644 0.127089,-0.916006 0.268746,-0.111197 0.396413,-0.114277 0.55788,-0.01332 0.378023,0.236119 0.927621,0.158133 1.247262,-0.17703 0.318682,-0.334079 0.531414,-0.802404 0.531414,-1.169926 0,-0.138076 0.356634,-0.604239 0.877315,-1.146536 0.775438,-0.807653 1.933165,-2.304028 2.06604,-2.670208 0.0091,-0.02747 0.03663,-0.04078 0.0774,-0.04245 z m -3.728932,0.07324 c -0.002,7.22e-4 -0.0046,0.0015 -0.0066,0.0022 0.002,0.0015 0.0066,0.0022 0.0092,0.0044 -0.001,-0.0022 -0.0016,-0.0044 -0.002,-0.0066 z m 3.60612,2.515318 c -0.134582,-0.0046 -0.269995,0.03245 -0.415811,0.107445 -0.33832,0.174867 -0.692044,0.771449 -0.692044,1.167068 0,0.723753 0.625881,1.472776 1.230656,1.472776 0.297876,0 0.48231,-0.08156 0.69446,-0.307694 0.553804,-0.589925 0.506031,-1.490347 -0.109695,-2.066696 -0.261666,-0.244943 -0.483223,-0.365793 -0.707524,-0.37295 z m -2.002885,2.635458 c -0.104787,0 -0.30753,0.69962 -0.251522,0.867733 0.02581,0.07657 0.138747,0.139159 0.251522,0.139159 0.112776,0 0.225963,-0.06242 0.251517,-0.139159 0.05576,-0.168041 -0.146652,-0.867733 -0.251517,-0.867733 z m 0.477233,0.334993 c -5.17e-4,1.34e-4 -10e-4,1.34e-4 -0.0016,2.47e-4 5.15e-4,0.002 10e-4,0.0046 0.0016,0.0066 z"
       style="fill:#000000;fill-opacity:1;stroke:#000000;stroke-width:0;stroke-miterlimit:4;stroke-dasharray:none;stroke-opacity:1" />
    <text
       xml:space="preserve"
       style="font-style:normal;font-variant:normal;font-weight:normal;font-stretch:normal;font-size:4.93888855px;line-height:1.25;font-family:'Franklin Gothic Medium';-inkscape-font-specification:'Franklin Gothic Medium, ';letter-spacing:0px;word-spacing:0px;fill:#000000;fill-opacity:1;stroke:none;stroke-width:0.26458332"
       x="-45.137051"
       y="27.664806"
       id="text2049"
       transform="scale(-1,1)"><tspan
         sodipodi:role="line"
         id="tspan2047"
         x="-45.137051"
         y="27.664806"
         style="font-style:normal;font-variant:normal;font-weight:normal;font-stretch:normal;font-size:2.82222223px;font-family:'Star Jedi';-inkscape-font-specification:'Star Jedi';stroke-width:0.26458332">jigglebilly</tspan></text>
    <text
       xml:space="preserve"
       style="font-style:normal;font-variant:normal;font-weight:normal;font-stretch:normal;font-size:4.93888855px;line-height:1.25;font-family:'Franklin Gothic Medium';-inkscape-font-specification:'Franklin Gothic Medium, ';letter-spacing:0px;word-spacing:0px;fill:#000000;fill-opacity:1;stroke:none;stroke-width:0.26458332"
       x="-72.321808"
       y="27.664673"
       id="text2053"
       transform="scale(-1,1)"><tspan
         sodipodi:role="line"
         id="tspan2051"
         x="-72.321808"
         y="27.664673"
         style="font-style:normal;font-variant:normal;font-weight:normal;font-stretch:normal;font-size:2.82222223px;font-family:'Star Jedi';-inkscape-font-specification:'Star Jedi';stroke-width:0.26458332">badgepirates</tspan></text>
  </g>
  <g
     id="g2449"
     inkscape:groupmode="layer"
     inkscape:label="B.Silk"
     style="display:inline">
    <text
       xml:space="preserve"
       style="font-style:normal;font-variant:normal;font-weight:normal;font-stretch:normal;font-size:4.93888855px;line-height:1.25;font-family:'Franklin Gothic Medium';-inkscape-font-specification:'Franklin Gothic Medium, ';letter-spacing:0px;word-spacing:0px;display:inline;fill:#000000;fill-opacity:1;stroke:none;stroke-width:0.26458332"
       x="-91.705101"
       y="-12.249358"
       id="text2057"
       transform="matrix(-0.19157558,-0.98147785,-0.98147785,0.19157558,0,0)"><tspan
         sodipodi:role="line"
         id="tspan2055"
         x="-91.705101"
         y="-12.249358"
         style="font-style:normal;font-variant:normal;font-weight:normal;font-stretch:normal;font-size:1.41111112px;font-family:'Star Jedi';-inkscape-font-specification:'Star Jedi';stroke-width:0.26458332">the mack daddy of Heimlich County!</tspan></text>
    <text
       xml:space="preserve"
       style="font-style:normal;font-variant:normal;font-weight:normal;font-stretch:normal;font-size:4.93888855px;line-height:0.2;font-family:'Franklin Gothic Medium';-inkscape-font-specification:'Franklin Gothic Medium, ';letter-spacing:0px;word-spacing:0px;fill:#000000;fill-opacity:1;stroke:none;stroke-width:0.26458332"
       x="50.357452"
       y="75.111702"
       id="text2063"
       transform="matrix(-0.10174019,0.994811,0.994811,0.10174019,0,0)"><tspan
         sodipodi:role="line"
         id="tspan2061"
         x="50.357452"
         y="75.111702"
         style="font-style:normal;font-variant:normal;font-weight:normal;font-stretch:normal;font-size:1.41111112px;line-height:0.2;font-family:'Star Jedi';-inkscape-font-specification:'Star Jedi';stroke-width:0.26458332">Why would anyone smoke weed</tspan><tspan
         sodipodi:role="line"
         x="50.357452"
         y="76.790825"
         style="font-style:normal;font-variant:normal;font-weight:normal;font-stretch:normal;font-size:1.41111112px;line-height:0.2;font-family:'Star Jedi';-inkscape-font-specification:'Star Jedi';stroke-width:0.26458332"
         id="tspan2069">when they could just mow a lawn?</tspan></text>
    <text
       xml:space="preserve"
       style="font-style:normal;font-variant:normal;font-weight:normal;font-stretch:normal;font-size:4.93888855px;line-height:1.25;font-family:'Franklin Gothic Medium';-inkscape-font-specification:'Franklin Gothic Medium, ';letter-spacing:0px;word-spacing:0px;fill:#000000;fill-opacity:1;stroke:none;stroke-width:0.26458332"
       x="-65.089462"
       y="6.4508939"
       id="text2073"
       transform="scale(-1,1)"><tspan
         sodipodi:role="line"
         id="tspan2071"
         x="-65.089462"
         y="6.4508939"
         style="font-style:normal;font-variant:normal;font-weight:normal;font-stretch:normal;font-size:1.41111112px;font-family:'Star Jedi';-inkscape-font-specification:'Star Jedi';stroke-width:0.26458332">6AM, and already the boy aint right!</tspan></text>
    <text
       xml:space="preserve"
       style="font-style:normal;font-variant:normal;font-weight:normal;font-stretch:normal;font-size:4.93888855px;line-height:1.25;font-family:'Franklin Gothic Medium';-inkscape-font-specification:'Franklin Gothic Medium, ';letter-spacing:0px;word-spacing:0px;fill:#000000;fill-opacity:1;stroke:none;stroke-width:0.26458332"
       x="-52.646706"
       y="-16.103466"
       id="text2077"
       transform="matrix(-0.09325182,-0.99564256,-0.99564256,0.09325182,0,0)"
       inkscape:transform-center-x="-20.599702"
       inkscape:transform-center-y="2.6458326"><tspan
         sodipodi:role="line"
         id="tspan2075"
         x="-52.646706"
         y="-16.103466"
         style="font-style:normal;font-variant:normal;font-weight:normal;font-stretch:normal;font-size:1.41111112px;font-family:'Star Jedi';-inkscape-font-specification:'Star Jedi';stroke-width:0.26458332">BWAAAAHH!</tspan></text>
  </g>
  <g
     id="g2451"
     inkscape:groupmode="layer"
     inkscape:label="F.Cu"
     style="display:none">
    <g
       transform="matrix(0.35963709,0,0,0.35963709,8.2235408,-2.7303735)"
       id="g7104"
       style="display:inline">
      <path
         sodipodi:nodetypes="ccscsscsssscssssccccccccccscsccscscscssssccssccsscccccssssssssssscssscc"
         inkscape:connector-curvature="0"
         id="path7102"
         d="m 42.371537,118.29064 c 1.12138,-1.20573 2.315856,-3.00699 2.654393,-4.00279 0.394482,-1.16038 0.543611,-7.87828 0.415275,-18.707099 L 45.240959,78.684217 47.114283,74.59204 c 1.030329,-2.250697 2.85057,-6.232291 4.044981,-8.847989 1.427501,-3.126153 2.039532,-5.172099 1.786079,-5.970656 -0.314971,-0.992386 -0.0111,-1.371312 1.659456,-2.069314 1.124768,-0.469957 3.246601,-1.72919 4.715186,-2.798293 2.065524,-1.503666 2.620252,-2.245596 2.449781,-3.2765 -0.217212,-1.31356 -0.159404,-1.32715 4.030372,-0.947482 2.337909,0.211856 5.22607,0.20222 6.418136,-0.02141 2.025577,-0.380001 2.144949,-0.518822 1.824383,-2.12165 -0.407495,-2.037474 0.05402,-2.117823 3.135342,-0.545851 2.778153,1.417308 5.01761,1.500956 5.737652,0.214313 0.605028,-1.081126 2.328293,-0.915782 6.42973,0.616922 2.333155,0.871896 2.675805,0.869091 4.586419,-0.03755 1.925048,-0.913494 2.176086,-0.914162 3.706928,-0.0099 2.17632,1.285584 3.348282,1.224145 3.800042,-0.199213 0.48856,-1.539338 1.22179,-1.47482 3.32189,0.292298 2.07646,1.747233 4.33072,1.851426 6.32395,0.292299 1.87304,-1.465109 3.04154,-1.465109 3.95651,0 1.08899,1.74375 2.96422,1.419249 5.0674,-0.876895 2.23436,-2.43935 3.0997,-2.566643 3.61058,-0.531127 0.41313,1.646024 1.07017,1.666821 4.8045,0.152071 1.73579,-0.704082 2.02838,-0.67878 2.69514,0.23306 0.90511,1.237815 3.12864,1.298388 4.67682,0.127404 1.48701,-1.124717 3.19632,-1.093029 3.64166,0.06751 0.62917,1.639585 2.6272,1.88714 6.43723,0.797569 l 3.62572,-1.036864 0.18007,1.539456 c 0.21357,1.825968 5.06319,5.464512 9.2791,6.961871 2.2876,0.812483 2.88277,1.367242 3.94056,3.673027 0.6853,1.493798 2.98285,5.313785 5.10567,8.488861 2.12282,3.175073 4.10449,6.230304 4.40371,6.789406 0.98372,1.838095 1.72915,9.393078 2.17056,21.99883 l 0.43466,12.413227 2.50667,2.48487 c 2.41121,2.39024 2.53881,2.44175 3.35113,1.35284 0.93509,-1.25348 0.81869,-13.06503 -0.37483,-38.035968 -0.80346,-16.809818 -1.30806,-18.868626 -8.19567,-33.438487 -2.87243,-6.076275 -3.71308,-7.347376 -5.68073,-8.589499 -1.27018,-0.801824 -3.68989,-3.314328 -5.37714,-5.583342 -2.65602,-3.571802 -3.3122,-4.125481 -4.88919,-4.125481 -1.27755,0 -2.32993,-0.538716 -3.52421,-1.80406 -2.89053,-3.062524 -10.13704,-5.688325 -11.15459,-4.041907 -0.53608,0.867394 -3.06786,0.708148 -4.58916,-0.288655 -2.13349,-1.397911 -6.40866,-1.776791 -7.34317,-0.650776 -1.07774,1.298596 -2.30215,1.182733 -6.1585,-0.582761 -1.94825,-0.891937 -3.85338,-1.387602 -4.60127,-1.197131 -0.702,0.178783 -2.03016,0.505636 -2.95146,0.726341 -0.92129,0.220704 -3.48515,0.05974 -5.69745,-0.357687 -3.68685,-0.695657 -4.19365,-0.666731 -6.07561,0.346771 -1.97316,1.06262 -2.16438,1.066259 -4.903741,0.09333 -3.773642,-1.34028 -4.829594,-1.282781 -8.247258,0.44908 -3.101788,1.571795 -5.22547,1.848148 -6.259125,0.814495 -0.690871,-0.690871 -4.954044,0.653463 -9.618369,3.033023 -1.86286,0.95036 -2.97107,1.131409 -5.117999,0.836131 -2.702659,-0.37171 -2.776005,-0.337877 -5.341168,2.463747 -1.430484,1.562349 -3.136632,3.593469 -3.791442,4.5136 -0.903765,1.269961 -1.819127,1.756841 -3.799879,2.021146 -2.607787,0.347975 -2.610976,0.351326 -5.441951,5.717962 -2.124057,4.026542 -3.226282,5.507009 -4.406289,5.918362 -1.275675,0.444702 -1.864537,1.365094 -3.109824,4.860659 -0.844893,2.371644 -2.351898,6.588684 -3.3489,9.371199 l -1.81273,5.059118 -0.247807,24.551071 c -0.136294,13.503084 -0.431363,26.813289 -0.655709,29.578229 -0.394608,4.86334 -0.367435,5.02717 0.833818,5.02717 0.682946,0 2.159211,-0.98651 3.28059,-2.19224 z"
         style="fill:#050505;stroke-width:0.58459675" />
    </g>
  </g>
  <g
     id="g2453"
     inkscape:groupmode="layer"
     inkscape:label="F.Mask"
     style="display:none">
    <g
       style="display:inline"
       id="g7098"
       transform="matrix(0.35963709,0,0,0.35963709,8.2235408,-2.7303735)">
      <path
         style="fill:#050505;stroke-width:0.58459675"
         d="m 42.371537,118.29064 c 1.12138,-1.20573 2.315856,-3.00699 2.654393,-4.00279 0.394482,-1.16038 0.543611,-7.87828 0.415275,-18.707099 L 45.240959,78.684217 47.114283,74.59204 c 1.030329,-2.250697 2.85057,-6.232291 4.044981,-8.847989 1.427501,-3.126153 2.039532,-5.172099 1.786079,-5.970656 -0.314971,-0.992386 -0.0111,-1.371312 1.659456,-2.069314 1.124768,-0.469957 3.246601,-1.72919 4.715186,-2.798293 2.065524,-1.503666 2.620252,-2.245596 2.449781,-3.2765 -0.217212,-1.31356 -0.159404,-1.32715 4.030372,-0.947482 2.337909,0.211856 5.22607,0.20222 6.418136,-0.02141 2.025577,-0.380001 2.144949,-0.518822 1.824383,-2.12165 -0.407495,-2.037474 0.05402,-2.117823 3.135342,-0.545851 2.778153,1.417308 5.01761,1.500956 5.737652,0.214313 0.605028,-1.081126 2.328293,-0.915782 6.42973,0.616922 2.333155,0.871896 2.675805,0.869091 4.586419,-0.03755 1.925048,-0.913494 2.176086,-0.914162 3.706928,-0.0099 2.17632,1.285584 3.348282,1.224145 3.800042,-0.199213 0.48856,-1.539338 1.22179,-1.47482 3.32189,0.292298 2.07646,1.747233 4.33072,1.851426 6.32395,0.292299 1.87304,-1.465109 3.04154,-1.465109 3.95651,0 1.08899,1.74375 2.96422,1.419249 5.0674,-0.876895 2.23436,-2.43935 3.0997,-2.566643 3.61058,-0.531127 0.41313,1.646024 1.07017,1.666821 4.8045,0.152071 1.73579,-0.704082 2.02838,-0.67878 2.69514,0.23306 0.90511,1.237815 3.12864,1.298388 4.67682,0.127404 1.48701,-1.124717 3.19632,-1.093029 3.64166,0.06751 0.62917,1.639585 2.6272,1.88714 6.43723,0.797569 l 3.62572,-1.036864 0.18007,1.539456 c 0.21357,1.825968 5.06319,5.464512 9.2791,6.961871 2.2876,0.812483 2.88277,1.367242 3.94056,3.673027 0.6853,1.493798 2.98285,5.313785 5.10567,8.488861 2.12282,3.175073 4.10449,6.230304 4.40371,6.789406 0.98372,1.838095 1.72915,9.393078 2.17056,21.99883 l 0.43466,12.413227 2.50667,2.48487 c 2.41121,2.39024 2.53881,2.44175 3.35113,1.35284 0.93509,-1.25348 0.81869,-13.06503 -0.37483,-38.035968 -0.80346,-16.809818 -1.30806,-18.868626 -8.19567,-33.438487 -2.87243,-6.076275 -3.71308,-7.347376 -5.68073,-8.589499 -1.27018,-0.801824 -3.68989,-3.314328 -5.37714,-5.583342 -2.65602,-3.571802 -3.3122,-4.125481 -4.88919,-4.125481 -1.27755,0 -2.32993,-0.538716 -3.52421,-1.80406 -2.89053,-3.062524 -10.13704,-5.688325 -11.15459,-4.041907 -0.53608,0.867394 -3.06786,0.708148 -4.58916,-0.288655 -2.13349,-1.397911 -6.40866,-1.776791 -7.34317,-0.650776 -1.07774,1.298596 -2.30215,1.182733 -6.1585,-0.582761 -1.94825,-0.891937 -3.85338,-1.387602 -4.60127,-1.197131 -0.702,0.178783 -2.03016,0.505636 -2.95146,0.726341 -0.92129,0.220704 -3.48515,0.05974 -5.69745,-0.357687 -3.68685,-0.695657 -4.19365,-0.666731 -6.07561,0.346771 -1.97316,1.06262 -2.16438,1.066259 -4.903741,0.09333 -3.773642,-1.34028 -4.829594,-1.282781 -8.247258,0.44908 -3.101788,1.571795 -5.22547,1.848148 -6.259125,0.814495 -0.690871,-0.690871 -4.954044,0.653463 -9.618369,3.033023 -1.86286,0.95036 -2.97107,1.131409 -5.117999,0.836131 -2.702659,-0.37171 -2.776005,-0.337877 -5.341168,2.463747 -1.430484,1.562349 -3.136632,3.593469 -3.791442,4.5136 -0.903765,1.269961 -1.819127,1.756841 -3.799879,2.021146 -2.607787,0.347975 -2.610976,0.351326 -5.441951,5.717962 -2.124057,4.026542 -3.226282,5.507009 -4.406289,5.918362 -1.275675,0.444702 -1.864537,1.365094 -3.109824,4.860659 -0.844893,2.371644 -2.351898,6.588684 -3.3489,9.371199 l -1.81273,5.059118 -0.247807,24.551071 c -0.136294,13.503084 -0.431363,26.813289 -0.655709,29.578229 -0.394608,4.86334 -0.367435,5.02717 0.833818,5.02717 0.682946,0 2.159211,-0.98651 3.28059,-2.19224 z"
         id="path7096"
         inkscape:connector-curvature="0"
         sodipodi:nodetypes="ccscsscsssscssssccccccccccscsccscscscssssccssccsscccccssssssssssscssscc" />
    </g>
    <path
       style="display:inline;fill:#050505;stroke:#000000;stroke-width:0;stroke-miterlimit:4;stroke-dasharray:none;stroke-opacity:1"
       d="m 142.10156,149.06641 c -1.55984,-0.0586 -3.76286,0.20652 -7.89453,0.74804 -9.36494,1.22747 -11.8067,2.30973 -13.77344,6.10743 -3.0216,5.83461 -1.18431,9.42559 6.16407,12.04296 5.62757,2.00445 11.7782,1.54561 18.26953,-1.36328 7.2801,-3.26235 8.68325,-6.10054 5.90039,-11.92773 -0.88629,-1.85587 -2.47489,-3.37082 -4.625,-4.41016 -1.56324,-0.75565 -2.48118,-1.13861 -4.04102,-1.19726 z m -6.47851,5.1914 c 1.92624,0 2.76172,0.36042 2.76172,1.19141 0,0.65561 -0.53581,1.19336 -1.19141,1.19336 -0.65561,0 -1.19141,0.67654 -1.19141,1.5039 0,0.82739 0.5358,1.70934 1.19141,1.96094 2.31053,0.88663 1.15396,2.09766 -2.00391,2.09766 -2.62339,0 -3.35503,-0.35091 -4.08593,-1.95508 -1.36651,-2.99915 0.8915,-5.99219 4.51953,-5.99219 z"
       id="path1194"
       transform="scale(0.26458333)"
       inkscape:connector-curvature="0" />
    <path
       style="display:inline;fill:#050505;stroke:#000000;stroke-width:0;stroke-miterlimit:4;stroke-dasharray:none;stroke-opacity:1"
       d="m 223.85352,147.48633 c -4.06599,-0.0858 -5.68158,0.96176 -8.25196,4.08008 -5.03625,6.10988 -4.66885,9.59758 1.35742,12.92187 7.57073,4.17626 17.90595,5.05744 24.10547,2.05664 3.65628,-1.76976 4.94806,-4.86766 3.80274,-9.12109 -1.75297,-6.51004 -4.43851,-8.10533 -16.00391,-9.50781 -2.02602,-0.2457 -3.65444,-0.40097 -5.00976,-0.42969 z m 5.2871,6.14453 c 0.50724,0.0228 1.02819,0.14342 1.54493,0.38281 l 1.86718,0.86719 -2.18359,0.86133 c -2.57714,1.01576 -2.83893,2.87779 -0.57422,4.08984 0.88638,0.47437 1.40109,1.20205 1.14453,1.61719 -0.74308,1.20235 -4.11158,0.87475 -5.52343,-0.53711 -2.77641,-2.77641 0.17389,-7.44124 3.7246,-7.28125 z"
       id="path1196"
       transform="scale(0.26458333)"
       inkscape:connector-curvature="0" />
  </g>
  <g
     id="g2455"
     inkscape:groupmode="layer"
     inkscape:label="F.Silk"
     style="display:none">
    <g
       id="g1811"
       transform="matrix(0.35963709,0,0,0.35963709,8.2235408,-2.7303735)" />
    <g
       transform="matrix(0.35963709,0,0,0.35963709,8.2235408,-2.7303735)"
       id="g2483">
      <path
         style="fill:#050505;stroke-width:0.79461801"
         d="m 160.61914,1.6757812 c -3.49948,0 -5.72591,0.6804574 -5.16992,1.5800782 0.7486,1.2112618 -4.34578,2.5996032 -7.61914,2.0761718 -2.66792,-0.4266168 -4.42205,-0.00793 -9.98828,2.3828126 -5.72959,2.4609042 -7.04726,2.7638822 -8.71094,2.0058593 -4.52266,-2.0606614 -8.82747,-0.035872 -14.99414,7.0527349 -2.09109,2.403719 -3.95296,4.541084 -4.13672,4.75 -0.18376,0.208915 -2.18939,0.566797 -4.45703,0.794921 l -4.12305,0.414063 -3.660154,7.05664 c -2.042335,3.937514 -4.913221,8.150832 -6.498047,9.535157 -3.023555,2.641036 -4.727655,6.286057 -10.203125,21.820312 l -3.177735,9.011719 -0.236328,37.07617 c -0.157157,24.5295 -0.532722,37.80409 -1.109375,39.22461 -0.479392,1.18092 -1.987239,2.72418 -3.351562,3.42969 -2.616999,1.3533 -4.674101,5.13882 -4.833985,8.89844 l -0.09375,2.21093 c 0.07334,2.53703 -0.790715,15.19496 0.253907,18.24414 0,0 0.577502,2.55608 2.279296,7.58204 6.958703,20.55136 8.401513,23.28009 12.808594,24.24804 3.275391,0.71939 2.9461,-0.77493 7.873047,35.7461 0.884397,6.55559 1.954969,15.49483 2.380859,19.86523 1.365853,14.01607 3.837924,27.94414 5.875,33.11328 1.843478,4.67786 5.557808,19.47882 9.316408,37.12305 1.47343,6.91684 1.49843,7.72346 0.35937,11.06641 -1.67078,4.90348 -1.59946,9.91313 0.16211,11.41015 3.67885,3.12636 21.32484,8.73957 33.17578,10.55274 11.37703,1.74065 11.61633,1.79796 8.34375,2.04687 -2.70868,0.20601 -2.68767,0.22613 0.79493,0.76758 4.81661,0.74883 46.06264,0.77373 52.04687,0.0312 4.74092,-0.58823 4.74709,-0.59225 1.19141,-0.80078 -2.56479,-0.15043 -1.10348,-0.4999 5.16601,-1.23633 4.80744,-0.56472 12.49506,-1.81472 17.08399,-2.77734 10.06359,-2.11112 28.58321,-8.02313 32.97656,-10.52735 3.87405,-2.20821 4.28326,-4.39124 2.38477,-12.73828 -1.34412,-5.90962 -1.30362,-6.74022 1.21875,-23.99805 1.21812,-8.33433 3.83332,-19.72261 5.54101,-24.13672 1.78484,-4.61351 3.40834,-21.30669 4.33789,-44.59765 0.65994,-16.53511 1.92394,-36.4406 2.48633,-39.15625 0.34059,-1.64469 1.44685,-2.70779 4.34766,-4.17774 2.14008,-1.08447 4.43435,-2.80016 5.09765,-3.8125 3.15483,-4.81486 9.9488,-29.71298 9.94336,-36.4414 -0.004,-3.5105 -1.97126,-17.4013 -3.43359,-20.23633 -0.66492,-1.28582 -2.47871,-3.02133 -4.03125,-3.85742 -1.55255,-0.8361 -3.02236,-2.04457 -3.26758,-2.6836 -0.24521,-0.63901 -0.61979,-6.9087 -0.83008,-13.93359 -0.79607,-26.59432 -2.07563,-52.689017 -2.82617,-57.603515 -1.09655,-7.18007 -3.21451,-13.10308 -9.25586,-25.890625 -6.61752,-14.007166 -6.98681,-14.570082 -10.49219,-15.972656 -1.59019,-0.636274 -3.50366,-2.194192 -4.25195,-3.460938 -3.39392,-5.74545 -7.65649,-10.228929 -10.24023,-10.771484 -1.44131,-0.302654 -6.35091,-2.336756 -10.91016,-4.5195314 C 228.22,5.6605504 227.67034,5.516336 223.05078,6.0078125 c -3.4445,0.3664615 -5.81489,0.1622667 -8.29883,-0.7167969 -4.15857,-1.4717165 -7.51943,-1.5727842 -9.57812,-0.2871094 -1.18086,0.7374616 -2.22735,0.7067881 -4.78321,-0.1367187 -1.83652,-0.6061109 -2.88117,-1.3189543 -2.38281,-1.6269531 1.13695,-0.7026753 -1.9173,-1.5427555 -5.60351,-1.5410156 -2.93698,0.00139 -4.97819,0.8751363 -4.79492,2.0527343 0.0604,0.388177 -0.47235,0.8266473 -1.18555,0.9746094 -1.89409,0.3929453 -5.28107,-0.5999396 -4.78516,-1.4023437 0.61572,-0.9962544 -1.57196,-1.6484376 -5.52539,-1.6484376 -3.91038,0 -6.14031,0.6506697 -5.54297,1.6171876 0.22315,0.3610448 0.0217,0.8937305 -0.44726,1.1835937 -1.14642,0.7085256 -4.914,-0.2833903 -4.37696,-1.1523437 0.59549,-0.9635179 -1.53555,-1.6484376 -5.12695,-1.6484376 z m -0.13867,8.8554688 c 1.58068,-0.08607 3.22243,0.350825 5.78711,1.261719 3.7235,1.322462 3.98203,1.317422 6.66406,-0.126953 2.55807,-1.377611 3.24838,-1.416281 8.25977,-0.470704 3.00708,0.567392 6.49187,0.786322 7.74414,0.486329 1.25228,-0.299995 3.05752,-0.745269 4.01172,-0.988282 1.01657,-0.258899 3.60573,0.414581 6.2539,1.626953 5.24178,2.399763 6.90617,2.558097 8.3711,0.792969 1.27024,-1.530545 7.0805,-1.015356 9.98046,0.884766 2.06784,1.354913 5.50961,1.57159 6.23829,0.392578 1.38311,-2.237907 11.23313,1.329426 15.1621,5.492187 1.62334,1.71993 3.0545,2.453126 4.79102,2.453126 2.14354,-10e-7 3.03431,0.75242 6.64453,5.607421 2.29341,3.084176 5.58209,6.499958 7.3086,7.589844 2.67454,1.688366 3.81828,3.414601 7.72265,11.673828 9.36204,19.804205 10.04852,22.604241 11.14063,45.453125 1.6223,33.941954 1.77884,49.995414 0.50781,51.699224 -1.10415,1.4801 -1.27723,1.41106 -4.55469,-1.8379 l -3.40625,-3.37695 -0.5918,-16.87305 c -0.59999,-17.13447 -1.61208,-27.403894 -2.94921,-29.902339 -0.40672,-0.759964 -3.10087,-4.912772 -5.98633,-9.228516 -2.88546,-4.315748 -6.00796,-9.508605 -6.93946,-11.539063 -1.4378,-3.134157 -2.24798,-3.887813 -5.35742,-4.992187 -5.73051,-2.035298 -12.32103,-6.980928 -12.61132,-9.462891 l -0.2461,-2.091796 -4.92773,1.408203 c -5.17882,1.481008 -7.8948,1.144635 -8.75,-1.083985 -0.60534,-1.577472 -2.92799,-1.620578 -4.94922,-0.0918 -2.10438,1.59167 -5.12715,1.508683 -6.35742,-0.173828 -0.9063,-1.239426 -1.30468,-1.273435 -3.66407,-0.316406 -5.07592,2.058936 -5.96774,2.030341 -6.52929,-0.207031 -0.69442,-2.766792 -1.87113,-2.593051 -4.90821,0.722656 -2.85876,3.121053 -5.40845,3.561613 -6.88867,1.191406 -1.24368,-1.991461 -2.83101,-1.991461 -5.37695,0 -2.70932,2.119257 -5.77326,1.978457 -8.5957,-0.396484 -2.85458,-2.40197 -3.85155,-2.490796 -4.51563,-0.398438 -0.61406,1.934712 -2.20783,2.018925 -5.16601,0.271485 -2.08081,-1.229126 -2.42243,-1.228003 -5.03907,0.01367 -2.59702,1.232359 -3.06106,1.235913 -6.23242,0.05078 -5.57491,-2.083341 -7.91784,-2.30742 -8.74023,-0.837891 -0.97873,1.74888 -4.0226,1.635472 -7.79883,-0.291015 -4.18831,-2.136716 -4.81561,-2.029219 -4.26172,0.740234 0.43573,2.178657 0.27281,2.368246 -2.48047,2.884766 -1.62032,0.303971 -5.54679,0.317264 -8.72461,0.0293 -5.69499,-0.516066 -5.77181,-0.498357 -5.47656,1.28711 0.23171,1.401265 -0.5225,2.411208 -3.33008,4.455078 -1.99619,1.453187 -4.88131,3.163941 -6.41016,3.802734 -2.27071,0.948765 -2.68398,1.463591 -2.25585,2.8125 0.3445,1.085446 -0.4874,3.865985 -2.42774,8.115235 -1.623512,3.555409 -4.097563,8.968065 -5.498046,12.027343 l -2.544922,5.5625 0.271484,22.9668 c 0.174442,14.71916 -0.02825,23.85048 -0.564453,25.42773 -0.460159,1.35355 -2.083177,3.80251 -3.607422,5.44141 -1.524243,1.6389 -3.532637,2.97852 -4.460937,2.97852 -1.632813,0 -1.669187,-0.2215 -1.132813,-6.83204 0.304944,-3.75826 0.70732,-21.85089 0.892578,-40.20507 l 0.335938,-33.3711 2.464844,-6.876953 c 1.355183,-3.782156 3.402353,-9.514604 4.550781,-12.738281 1.692667,-4.751376 2.492591,-6.001004 4.226562,-6.605469 1.603935,-0.559135 3.103093,-2.571811 5.990236,-8.044921 3.84802,-7.294645 3.85183,-7.30045 7.39648,-7.773438 2.69236,-0.359259 3.93757,-1.019889 5.16602,-2.746094 0.89005,-1.250695 3.20795,-4.01113 5.15234,-6.134765 3.48672,-3.808131 3.58616,-3.85486 7.25977,-3.34961 2.91823,0.401359 4.42492,0.155066 6.95703,-1.136719 6.34002,-3.234436 12.13515,-5.062119 13.07422,-4.123046 1.405,1.405001 4.29168,1.029053 8.50781,-1.107422 2.32274,-1.177023 3.84315,-1.785023 5.42383,-1.871094 z m -10.96289,48.443359 c 6.36243,-0.0095 12.70138,0.505749 16.41992,1.546875 1.86042,0.52089 4.19262,0.735198 5.18164,0.476563 0.98901,-0.258634 3.12779,-0.07255 4.75195,0.414062 2.48382,0.744167 3.29249,0.661988 5.09571,-0.519531 1.91402,-1.254121 2.60002,-1.296071 6.39062,-0.386719 3.77545,0.905716 4.4101,0.868564 5.73242,-0.328125 1.54534,-1.398513 0.81194,-1.392504 33.53125,-0.251953 3.65188,0.127299 5.16866,0.667632 8.74024,3.107422 2.37699,1.623761 6.17019,3.947064 8.42969,5.164063 3.58258,1.929643 4.99589,3.534499 11.04492,12.542968 3.81504,5.681518 7.57756,11.765047 8.36133,13.519532 1.70135,3.808531 2.86871,12.806884 3.55273,27.402344 0.42866,9.14667 0.31499,10.9633 -0.76758,12.31836 -1.26619,1.58495 -1.27387,1.58295 -2.66015,-0.11328 -0.76453,-0.93547 -2.00129,-2.81479 -2.74805,-4.17774 -0.74676,-1.36293 -2.34061,-2.85146 -3.54297,-3.30859 -1.45507,-0.55322 -10.03631,-0.66274 -25.66016,-0.32617 -25.84882,0.5568 -34.63944,1.2703 -36.31836,2.94922 -0.61143,0.61142 -1.5484,2.8761 -2.08203,5.03125 l -0.9707,3.91796 -3.17578,-0.23828 c -3.96701,-0.29701 -13.52554,-0.28992 -16.64453,0.0117 -2.1762,0.21047 -2.42534,-0.0477 -3.42578,-3.55273 -0.78459,-2.74887 -1.68917,-4.094 -3.32032,-4.9375 -3.11891,-1.61286 -23.23746,-2.27246 -44.32812,-1.45313 -19.06611,0.7407 -18.37688,0.4974 -21.181642,7.46289 -0.924792,2.29667 -2.104382,4.31373 -2.621094,4.48243 -2.318548,0.75699 -2.73729,-3.08419 -2.464843,-22.67579 l 0.273437,-19.624996 3.654297,-8.041015 c 5.991545,-13.183116 9.521125,-18.60399 14.828125,-22.773438 5.58419,-4.387184 8.35041,-5.585565 11.36328,-4.923828 1.25743,0.276178 4.69233,-0.203234 8.00586,-1.119141 3.80703,-1.052314 10.19226,-1.586243 16.55469,-1.595703 z m 31.07422,27.021485 c -5.21835,-0.182597 -10.16486,1.187195 -16.19922,4.0625 -4.26114,2.030384 -7.7461,4.072353 -7.7461,4.537109 0,1.257458 0.57199,1.121267 9.65821,-2.302734 12.20603,-4.599661 13.02801,-4.643207 23.54687,-1.242188 4.93372,1.595196 9.94015,2.789201 11.125,2.652344 1.9074,-0.220317 1.61586,-0.502123 -2.55078,-2.453125 -7.12392,-3.335738 -12.61563,-5.071309 -17.83398,-5.253906 z m -3.04688,20.259766 c -4.50724,0.0124 -5.88803,0.50045 -11.82422,3.22852 -3.96779,1.82346 -9.33016,3.91834 -11.91797,4.65624 -2.5878,0.73791 -5.04575,1.66019 -5.46093,2.04883 -0.45039,0.42161 0.3719,0.70508 2.03711,0.70508 2.53283,0 6.60431,-1.25661 22.16015,-6.84375 2.84076,-1.0203 6.11893,-1.86372 7.28516,-1.875 1.16622,-0.0113 6.02491,1.20306 10.79687,2.69922 8.66847,2.71786 20.0586,4.49204 20.0586,3.125 0,-0.39384 -2.33689,-1.15931 -5.19336,-1.70117 -2.85647,-0.54187 -8.30881,-2.09433 -12.11719,-3.45117 -5.48969,-1.95585 -8.32485,-2.49007 -13.67969,-2.57422 -0.79396,-0.0125 -1.50064,-0.0193 -2.14453,-0.0176 z m 50.21875,24.94336 c 25.49948,0 27.32884,0.30384 28.89649,4.80078 0.51819,1.48651 0.90234,7.66636 0.90234,14.52148 0,27.00887 -2.02132,29.2427 -27.8125,30.7461 -15.44565,0.90033 -12.74021,0.9993 -19.25977,-0.70117 -5.87062,-1.53121 -8.87101,-3.77951 -10.09961,-7.56836 -2.18245,-6.73038 -3.20902,-30.59861 -1.57031,-36.5 1.40129,-5.04644 2.78615,-5.29883 28.94336,-5.29883 z m -85.67969,2.48437 c 9.28957,-0.0129 16.49803,0.098 17.57813,0.29688 3.50072,0.64461 4.08891,2.45035 4.7832,14.66015 0.63677,11.19819 -0.55652,21.81794 -2.90429,25.8379 -1.76943,3.02967 -6.13953,5.50769 -12.55469,7.11914 -5.48149,1.3769 -19.17985,1.55502 -26.47461,0.3457 -2.38507,-0.3954 -6.17151,-1.55731 -8.41406,-2.58398 -7.59812,-3.47854 -9.36533,-9.40314 -8.96289,-30.04493 0.18584,-9.53222 0.54987,-13.56431 1.29101,-14.30468 0.79066,-0.78986 6.82785,-1.08702 25.82422,-1.27149 3.40906,-0.0331 6.73746,-0.0504 9.83398,-0.0547 z m 78.51172,3.97266 c -0.33467,0.003 -0.39988,0.2359 -0.24023,0.71484 0.19602,0.58805 3.19487,2.04679 6.66406,3.24219 3.46921,1.19541 6.78319,2.02401 7.36524,1.83984 0.58204,-0.18416 2.10157,-0.33593 3.37695,-0.33593 1.27536,0 2.31836,-0.3579 2.31836,-0.79492 0,-0.43705 -1.19261,-0.79297 -2.65235,-0.79297 -2.47375,0 -12.54272,-2.29756 -15.92968,-3.63477 -0.4029,-0.15907 -0.70154,-0.24032 -0.90235,-0.23828 z m -81.45898,3.37891 c -1.04552,-0.071 -3.39068,0.19095 -6.7793,0.80273 l -6.30469,1.13672 4.91602,0.0723 c 2.70305,0.0392 5.92008,-0.32922 7.15039,-0.81836 1.80878,-0.71911 2.0631,-1.12233 1.01758,-1.19336 z m 10.39648,0.49414 c -0.41532,0 -1.04113,0.499 -1.39062,1.10937 -1.86228,3.25239 -13.91576,6.83322 -23.01563,6.83594 -3.28904,10e-4 -3.3282,0.0336 -5.84375,5.19727 -4.07416,8.36295 -2.03767,12.70459 7.11914,15.17382 5.28804,1.42599 9.55212,1.28794 15.32813,-0.49609 12.42027,-3.83622 15.60016,-10.03128 8.93555,-17.4082 -2.96368,-3.28045 -3.47693,-5.65042 -1.56836,-7.23438 1.32551,-1.10007 1.60988,-3.17773 0.43554,-3.17773 z m 64.57227,1.83789 c -1.25934,0.04 -1.361,0.5433 -0.39258,1.51172 1.10739,1.10738 1.26761,4.5957 0.21094,4.5957 -1.57559,0 -4.03906,5.418 -4.03906,8.88477 0,2.82767 0.43608,3.93935 2.18554,5.57617 2.79851,2.6183 6.59766,4.52794 10.78907,5.42187 8.31773,1.77396 21.46149,-0.83098 23.50976,-4.6582 1.79903,-3.36153 -0.0266,-12.03761 -3.12305,-14.83984 -1.72941,-1.56508 -11.61333,-4.42032 -13.19726,-3.8125 -0.58168,0.22321 -4.4547,-0.41342 -8.60547,-1.41407 -3.6622,-0.88287 -6.07855,-1.30562 -7.33789,-1.26562 z m 50.66406,1.33984 c 2.16099,0 3.12305,2.9536 3.12305,9.58789 0,4.89976 0.16816,5.50977 1.52148,5.50977 0.87845,0 3.43949,-2.18309 6.05664,-5.16407 3.46806,-3.95016 5.03714,-5.16601 6.66992,-5.16601 3.04606,0 5.02723,1.69382 4.69922,4.01758 -0.24215,1.71548 -0.61948,1.91586 -3.24414,1.71093 -2.61491,-0.20416 -3.16608,0.0807 -4.58789,2.38282 -0.88856,1.4387 -2.37152,5.07903 -3.29687,8.08984 -1.45873,4.74616 -1.56249,5.99699 -0.77735,9.39844 0.49808,2.15774 0.9043,5.14628 0.9043,6.64258 0,1.4963 0.35254,2.7207 0.78125,2.7207 1.25892,0 1.84556,-3.77853 1.21094,-7.79492 -0.98067,-6.20655 -0.65962,-9.37658 1.4043,-13.88477 1.67285,-3.654 2.36972,-4.3837 4.61132,-4.83203 3.54991,-0.70998 4.65734,0.56979 5.48242,6.33008 0.70357,4.91187 -0.007,8.80451 -4.35546,23.83789 -3.39905,11.75029 -5.72442,15.11261 -10.01758,14.48242 -1.60935,-0.23624 -1.94111,-1.1929 -3.63867,-10.49219 -1.9703,-10.79328 -3.35663,-14.94426 -3.40039,-10.1875 -0.0133,1.44336 0.56317,5.1982 1.27929,8.34375 1.04565,4.59295 1.1806,7.5982 0.6875,15.25586 -0.33771,5.24448 -0.70982,11.85847 -0.82617,14.69922 -1.15463,28.20639 -3.95211,66.69817 -5.1543,70.91211 -0.48388,1.69607 -2.71031,4.98481 -5.18359,7.65625 -2.38426,2.57527 -4.33398,4.90251 -4.33398,5.17188 0,0.26936 1.10776,0.49023 2.46289,0.49023 2.42661,0 2.45791,0.0509 2.0957,3.37695 -0.20229,1.85742 -1.00658,7.13178 -1.78711,11.72071 -0.89828,5.28121 -1.44438,12.78079 -1.48828,20.43554 l -0.0684,12.09375 -4.38281,1.95508 c -12.01003,5.35839 -36.9906,11.07004 -54.14844,12.37891 -18.68988,1.42574 -33.56204,0.7754 -50.75195,-2.21875 -17.45869,-3.04095 -29.71579,-6.89493 -30.37305,-9.54883 -0.18051,-0.72889 -0.0717,-2.21795 0.24219,-3.31055 1.5816,-5.50525 0.71438,-12.64721 -3.69922,-30.46093 -3.21323,-12.9689 -3.35459,-14.83399 -1.13281,-14.83399 2.04413,0 2.01492,-0.95597 -0.084,-2.85547 -2.29419,-2.07621 -5.42791,-7.58412 -6.67578,-11.73047 -1.30921,-4.35018 -5.154067,-31.0244 -7.576172,-52.55859 -0.49157,-4.3704 -1.726115,-13.86052 -2.742187,-21.08984 -1.738486,-12.36928 -1.784216,-13.68174 -0.763672,-22.25 1.275578,-10.70948 1.4044,-14.07916 0.49414,-13.03907 -1.32918,1.51876 -2.517578,7.429 -2.517578,12.51758 0,7.1516 -0.908284,9.29492 -3.935547,9.29492 -3.170531,0 -3.905626,-1.2574 -8.726562,-14.9414 -4.132307,-11.72938 -5.916758,-19.73623 -5.111328,-22.94531 0.393028,-1.56595 0.970338,-1.84375 3.84375,-1.84375 3.376344,0 3.384786,0.007 5.58789,4.91601 1.731062,3.85732 2.178098,5.97173 2.072266,9.81836 -0.155229,5.64242 0.892554,9.10352 2.757812,9.10352 0.95389,0 1.124944,-0.36761 0.644532,-1.39063 -0.35916,-0.76481 -0.666268,-4.25784 -0.681641,-7.76367 -0.02487,-5.6688 -0.335215,-6.98853 -2.808594,-11.91992 l -2.78125,-5.54492 h -3.576171 c -3.229529,0 -3.595337,-0.19214 -3.78125,-1.98633 -0.284938,-2.74982 0.842162,-4.17188 3.30664,-4.17188 2.496774,0 7.881456,3.56649 10.109375,6.69531 1.003675,1.40954 2.317711,2.24415 3.53125,2.24415 1.833264,0 1.931641,-0.24574 1.931641,-4.79297 0,-4.8803 1.421367,-9.61573 3.21875,-10.72657 1.984838,-1.22669 2.983436,2.1017 3.542966,11.80274 0.94244,16.33971 4.36868,21.60824 16.43555,25.27344 5.14912,1.564 6.85372,1.66909 20.80469,1.29297 12.92363,-0.34841 15.85812,-0.66128 19.61914,-2.09571 8.78468,-3.35043 10.87595,-7.48432 11.59179,-22.92578 0.2789,-6.0162 0.81074,-11.76115 1.18164,-12.76562 0.74666,-2.0221 4.37996,-3.81524 9.33399,-4.60743 2.59606,-0.41513 4.10823,-0.0971 7.57617,1.59961 5.26382,2.57535 5.68742,3.64839 6.43164,16.26758 0.81602,13.83672 3.20316,18.81392 10.29883,21.46875 6.28452,2.35133 9.94847,2.58976 27.03711,1.76953 17.54855,-0.84229 21.33715,-1.70429 25.58984,-5.82617 3.92594,-3.80518 5.1599,-8.29191 5.52735,-20.10547 0.42663,-13.71693 0.73723,-15.49414 2.70898,-15.49414 z m -40.9375,2.76367 c 1.35524,0.0286 2.98387,0.18402 5.00977,0.42969 11.56469,1.40239 14.25104,2.99819 16.0039,9.50781 1.14526,4.25315 -0.14669,7.35145 -3.80273,9.1211 -6.19914,3.0006 -16.5352,2.11935 -24.10547,-2.05664 -6.0259,-3.32408 -6.39337,-6.81239 -1.35742,-12.92188 2.57022,-3.11812 4.18622,-4.16585 8.25195,-4.08008 z m -81.88867,1.625 c 1.5471,0.0583 2.45733,0.43889 4.00781,1.18946 2.13257,1.03237 3.70884,2.53746 4.58789,4.38086 2.76014,5.78804 1.36716,8.60721 -5.85351,11.84765 -6.43833,2.88935 -12.53751,3.3445 -18.11914,1.35352 -7.28838,-2.59979 -9.11021,-6.16551 -6.11329,-11.96094 1.95068,-3.77219 4.37168,-4.84719 13.66016,-6.06641 4.09794,-0.53789 6.28298,-0.80239 7.83008,-0.74414 z m 129.12695,1.96875 c 1.23608,0 1.58985,0.52871 1.58985,2.38282 0,1.85411 -0.35377,2.38476 -1.58985,2.38476 -1.23607,0 -1.58789,-0.53065 -1.58789,-2.38476 0,-1.85411 0.35182,-2.38282 1.58789,-2.38282 z m -41.95117,2.55078 c -3.55049,-0.15998 -6.50085,4.50502 -3.72461,7.28125 1.41177,1.41177 4.7804,1.73938 5.52344,0.53711 0.25655,-0.41511 -0.25821,-1.14284 -1.14453,-1.61718 -2.26457,-1.21197 -2.00276,-3.07416 0.57422,-4.08985 l 2.18359,-0.86133 -1.86719,-0.86718 c -0.5167,-0.23939 -1.03771,-0.35996 -1.54492,-0.38282 z m -93.51172,0.62696 c -3.62781,0 -5.88595,2.99323 -4.51953,5.99219 0.73086,1.60406 1.46271,1.95507 4.08594,1.95507 3.15767,0 4.31429,-1.21108 2.0039,-2.09765 -0.65556,-0.25157 -1.1914,-1.13361 -1.1914,-1.96094 0,-0.82731 0.53584,-1.50391 1.1914,-1.50391 0.65556,0 1.19141,-0.5378 1.19141,-1.19336 0,-0.83094 -0.8356,-1.1914 -2.76172,-1.1914 z m 64.65235,40.52539 c -2.33858,0 1.01745,5.33491 6.91992,11 4.37692,4.20089 5.45589,6.6714 4.32617,9.91211 -0.45416,1.30283 -0.82617,3.06097 -0.82617,3.90625 0,0.87448 0.42897,1.3954 0.99414,1.20898 1.61606,-0.53303 2.95456,-3.93393 2.96679,-7.53711 0.0108,-3.11468 -0.49361,-3.92313 -6.83203,-10.92773 -3.76405,-4.15966 -7.161,-7.5625 -7.54882,-7.5625 z m -36.52735,1.58984 c -1.21483,0 -9.93421,8.52281 -11.88281,11.61524 -2.00648,3.1843 -2.14733,10.25854 -0.24609,12.35937 1.42989,1.58003 3.45312,1.94974 3.45312,0.63086 0,-0.45241 -0.58159,-1.71118 -1.29297,-2.79687 -2.17973,-3.32669 -0.98375,-7.03832 3.92774,-12.1875 4.5604,-4.78111 7.59927,-9.6211 6.04101,-9.6211 z m 35.94727,15.09766 c -4.42153,0 -4.85612,0.18504 -9.06836,3.87109 -6.95477,6.08597 -11.02955,6.11763 -17.82422,0.13672 -4.11389,-3.62119 -7.09401,-4.49492 -10.97266,-3.21484 -4.39567,1.45069 -3.50837,2.93611 1.99219,3.33398 3.97528,0.28755 5.20768,0.75396 7.34961,2.77344 1.41552,1.33459 3.28998,2.81948 4.16406,3.30078 2.26303,1.2461 10.41181,1.12658 12.95117,-0.18945 1.18017,-0.61163 3.11741,-2.20415 4.30469,-3.53907 1.62975,-1.83238 3.33365,-2.66842 6.95313,-3.41601 6.40818,-1.32359 6.49354,-3.05664 0.15039,-3.05664 z m 25.375,10.36914 c -0.5856,-0.004 -0.86524,0.20825 -0.86524,0.63281 0,1.41423 3.11477,3.37734 8.40625,5.29883 7.31118,2.65489 14.6261,2.45242 21.19141,-0.58789 4.28597,-1.98478 5.9462,-3.79297 3.48047,-3.79297 -0.59977,0 -3.90873,0.92373 -7.35156,2.05469 -5.75865,1.89168 -6.60836,1.9807 -10.62891,1.09375 -2.40373,-0.53028 -6.29373,-1.81385 -8.64258,-2.85156 -2.79045,-1.23284 -4.61384,-1.84085 -5.58984,-1.84766 z m -84.39063,0.0293 c -1.15627,0.0141 -3.68654,0.9271 -8.01758,2.83203 -8.21275,3.61223 -11.95337,4.07074 -18.58593,2.27539 -2.83896,-0.7685 -5.41401,-1.13642 -5.72266,-0.81641 -0.66972,0.69435 2.27995,2.82299 5.71484,4.12305 4.00055,1.51418 9.20602,1.18651 15.73047,-0.98633 6.27317,-2.08915 10.99362,-4.74155 11.57227,-6.50391 0.20301,-0.61828 0.002,-0.93231 -0.69141,-0.92382 z m 55.71289,26.95312 c -1.52962,0.0282 -4.82565,0.54146 -7.32422,1.13867 -3.08869,0.73828 -5.505,0.86122 -7.54882,0.38672 -5.00909,-1.16293 -11.55271,-0.82499 -18.17579,0.9375 -3.74987,0.99791 -8.76931,1.68113 -12.44335,1.69336 -6.48487,0.0226 -7.89864,0.85349 -3.57618,2.10156 3.94419,1.13884 8.3823,0.99465 14.50196,-0.4707 3.76491,-0.9015 9.28524,-1.35669 17.08398,-1.4082 6.33708,-0.0419 12.89459,-0.38212 14.57031,-0.75586 2.89859,-0.64649 7.26492,-0.16801 18.63868,2.04101 4.06754,0.79 10.49609,0.31175 10.49609,-0.78125 0,-0.7193 -22.70639,-4.94751 -26.22266,-4.88281 z m 5.63672,14.60742 c -1.15663,0.0585 -2.79037,0.35117 -4.84961,0.88477 -6.50889,1.68663 -17.73771,1.87236 -26.39062,0.4375 -3.81124,-0.63192 -7.1846,-0.89353 -7.4961,-0.58203 -1.07868,1.07866 1.02892,2.13976 6.52344,3.28711 9.7638,2.03882 31.35674,0.50801 33.76563,-2.39453 0.97604,-1.17606 0.37499,-1.73027 -1.55274,-1.63282 z m 21.85156,45.83985 c -0.67714,0.0293 -1.59049,0.57091 -2.5332,1.61523 -2.34287,2.59538 -11.40983,6.83333 -17.06836,7.97656 -3.17005,0.64047 -10.82947,1.01698 -20.20312,0.99414 -17.5614,-0.0427 -22.67311,-0.98033 -32.11133,-5.89062 -6.05301,-3.14913 -8.01758,-3.76515 -8.01758,-2.51172 0,1.23071 3.56868,3.95145 8.79102,6.70117 4.68231,2.46541 6.26599,2.84071 15.49609,3.6836 5.65405,0.51632 12.24666,1.05847 14.65039,1.20312 5.57046,0.33518 17.41275,-0.26899 22.95313,-1.16992 8.0441,-1.30807 19.16015,-7.7738 19.16015,-11.14453 0,-1.00345 -0.44004,-1.48639 -1.11719,-1.45703 z"
         transform="matrix(0.73569535,0,0,0.73569535,-22.86622,7.5920242)"
         id="path2481"
         inkscape:connector-curvature="0" />
    </g>
    <g
       id="g2532"
       transform="matrix(0.35963709,0,0,0.35963709,8.2235408,-2.7303735)" />
    <g
       transform="matrix(0.35963709,0,0,0.35963709,8.2235408,-2.7303735)"
       id="g7110"
       style="display:inline" />
  </g>
  <g
     id="g2457"
     inkscape:groupmode="layer"
     inkscape:label="Drill"
     style="display:none" />
</svg>
