<?xml version="1.0" encoding="UTF-8" standalone="no"?>
<!-- Created with Inkscape (http://www.inkscape.org/) -->

<svg
   xmlns:dc="http://purl.org/dc/elements/1.1/"
   xmlns:cc="http://creativecommons.org/ns#"
   xmlns:rdf="http://www.w3.org/1999/02/22-rdf-syntax-ns#"
   xmlns:svg="http://www.w3.org/2000/svg"
   xmlns="http://www.w3.org/2000/svg"
   xmlns:sodipodi="http://sodipodi.sourceforge.net/DTD/sodipodi-0.dtd"
   xmlns:inkscape="http://www.inkscape.org/namespaces/inkscape"
   inkscape:version="0.92.4 (5da689c313, 2019-01-14)"
   width="100.0mm"
   height="100.0mm"
   viewBox="0 0 100.0 100.0"
   version="1.1"
   id="svg1104"
   sodipodi:docname="hankhill.svg">
  <defs
     id="defs1098" />
  <sodipodi:namedview
     id="base"
     pagecolor="#ffffff"
     bordercolor="#666666"
     borderopacity="1.0"
     inkscape:pageopacity="0.0"
     inkscape:pageshadow="2"
     inkscape:zoom="3.959798"
     inkscape:cx="168.9907"
     inkscape:cy="304.54461"
     inkscape:document-units="mm"
     inkscape:current-layer="g2455"
     showgrid="true"
     inkscape:window-width="1920"
     inkscape:window-height="1017"
     inkscape:window-x="1672"
     inkscape:window-y="-8"
     inkscape:window-maximized="1"
     borderlayer="true"
     inkscape:snap-global="false">
    <inkscape:grid
       spacingx="2.54"
       spacingy="2.54"
       empspacing="1"
       type="xygrid"
       units="mm"
       id="grid2435" />
  </sodipodi:namedview>
  <metadata
     id="metadata1101">
    <rdf:RDF>
      <cc:Work
         rdf:about="">
        <dc:format>image/svg+xml</dc:format>
        <dc:type
           rdf:resource="http://purl.org/dc/dcmitype/StillImage" />
        <dc:title></dc:title>
      </cc:Work>
    </rdf:RDF>
  </metadata>
  <g
     id="g2441"
     sodipodi:insensitive="true"
     inkscape:groupmode="layer"
     inkscape:label="[fixed] BG">
    <rect
       id="rect2439"
       style="stroke:none;fill-opacity:1;fill:#FFFFFF"
       height="100.0"
       width="100.0"
       y="0"
       x="0" />
  </g>
  <g
     id="g2443"
     inkscape:groupmode="layer"
     inkscape:label="Edge.Cuts">
    <path
       sodipodi:nodetypes="ccscssssscscccccscssscscsssscscccssccccccssscscccccscccccscsssccccc"
       inkscape:connector-curvature="0"
       id="path1813"
       d="M88.869934 281.83157L87.4174592812 281.596613125L87.0335912617 281.517834219L86.9244867026 281.485451172L86.86954925 281.4567225L86.8679895083 281.430885781L86.919018082 281.407178594L87.1756825937 281.363103125L88.285338 281.26696L89.0561363379 281.20215998L89.3301629919 281.169636008L89.5189829531 281.134339219L89.6143774592 281.09425198L89.6244718034 281.071781432L89.608127748 281.04735666L89.4920150574 280.991635627L89.257820625 280.92507125L88.4023114863 280.751341934L86.9758502344 280.510027656L82.147071 279.76008L80.4659094644 279.478339763L78.7061292461 279.137862324L76.8890266157 278.74542134L75.0358978437 278.307790469L73.1680392007 277.831743367L71.306746957 277.324053691L69.4733173833 276.7914951L67.68904675 276.24084125L65.9752313276 275.678865798L64.3531673867 275.112342402L62.8441511978 274.548044719L61.4694790313 273.992746406L60.2504471577 273.453221121L59.7059514153 273.191490131L59.2083518477 272.93624252L58.7603104885 272.688324994L58.3644893716 272.44858426L58.0235505308 272.217867027L57.740156 271.99702L57.6223025977 271.886278958L57.511743438 271.760883926L57.3125355039 271.468081719L57.1425875132 271.122513027L57.0019547812 270.7280775L56.8906926235 270.288674785L56.8088563555 269.808204531L56.7565012925 269.290566387L56.73368275 268.73966L56.7404560435 268.15938502L56.7768764883 267.553641094L56.8429993999 266.926327871L56.9388800937 266.281345L57.0645738853 265.622592129L57.2201360898 264.953968906L57.4056220229 264.27937498L57.621087 263.60271L57.8947431055 262.755445703L58.0006703188 262.374095127L58.0855921562 262.00851125L58.1492050054 261.649378311L58.1912052539 261.287380547L58.2112892896 260.913202197L58.2091535 260.5175275L58.1844942729 260.091040693L58.1370079961 259.624426016L57.9723398437 258.53355L57.7127201445 257.170373359L57.35572 255.46037L56.3229231641 250.701097852L55.3089200625 246.200705312L54.3294609297 242.021950742L53.400296 238.2275925L52.5371755078 234.880388945L51.7558496875 232.043098437L51.4007817275 230.835282563L51.0720687734 229.778479336L50.7716796045 228.88053355L50.501583 228.14929L50.2171224534 227.362286208L49.9268463145 226.433595918L49.6324120847 225.372563879L49.3354772656 224.188534844L49.0376993586 222.890853562L48.7407358652 221.488864785L48.4462442869 219.991913264L48.155882125 218.40934375L47.8713068811 216.750500994L47.5941760566 215.024729746L47.3261471531 213.241374758L47.0688776719 211.409780781L46.8240251145 209.539292566L46.5932469824 207.639254863L46.3782007771 205.719012424L46.180544 203.78791L45.8660008906 200.826105625L45.430700375 197.083315L44.9321521719 193.039091875L44.427866 189.17299L43.2371231523 180.350557461L42.3325148437 173.803294687L41.9636382827 171.274463999L41.6376479258 169.184360195L41.3449946294 167.489628091L41.07612925 166.1469125L40.821502644 165.112858237L40.6965447737 164.698030609L40.571565668 164.344110117L40.4453716838 164.045677365L40.3167691782 163.797312954L40.1845645084 163.593597486L40.0475640312 163.429111562L39.9045741039 163.298435786L39.7544010835 163.196150757L39.595851327 163.116837078L39.4277311914 163.055075352L39.0580052114 162.962530161L38.635674 162.87516L38.051794478 162.723571665L37.7761749849 162.630982612L37.5099119648 162.52431207L37.2518626386 162.401396368L37.0008842271 162.260071831L36.755833951 162.098174787L36.5155690312 161.913541562L36.2789466887 161.704008484L36.044824144 161.46741188L35.8120586182 161.201588076L35.579507332 160.904373398L35.3460275063 160.573604175L35.1104763618 160.207116733L34.8717111194 159.802747399L34.628589 159.3583325L34.1247030132 158.340711313L33.589676168 157.136943789L33.014366231 155.729720542L32.3896309687 154.101732187L31.7063281479 152.235669341L30.9553155352 150.114222617L29.213592 145.03594L28.7820406992 143.734683809L28.4232589687 142.604576094L27.90522825 140.86070625L27.6219479062 139.810130781L27.535866 139.45865L27.4678665701 139.228076203L27.4077107798 138.958739783L27.3093967383 138.314410137L27.2378571167 137.546923196L27.1900251562 136.677541094L27.1628340981 135.727525964L27.1532171836 134.718139941L27.17443875 132.60630375L27.2291557852 130.51212959L27.2928342187 128.605714531L27.3409399805 127.057155645L27.348939 126.03655L27.418109 124.41013L27.456274438 123.891729875L27.5257012383 123.37552041L27.6249497554 122.864152341L27.7525803437 122.360276406L27.9071533579 121.866543342L28.0872291523 121.385603887L28.2913680815 120.920108777L28.5181305 120.47270875L28.7660767622 120.046054543L29.0337672227 119.642796895L29.3197622358 119.265586541L29.6226221562 118.917074219L29.9409073384 118.599910667L30.2731781367 118.316746621L30.6179949058 118.07023282L30.973918 117.86302L31.3536012988 117.6412075L31.7331131406 117.37195L32.1023381934 117.0655975L32.451161125 116.7325L32.7694666035 116.3830075L33.0471392969 116.02747L33.274063873 115.6762375L33.440125 115.33966L33.5179317317 115.041622835L33.5922494004 114.539842209L33.6630597791 113.834962553L33.7303446406 112.927628297L33.8542649043 110.508173705L33.963864375 107.286633875L34.0589972363 103.268164248L34.1395176719 98.4579202656L34.2052798652 92.8610573691L34.256138 86.482731L34.4309 59.205447L36.767584 52.576125L38.1554718301 48.684779959L39.3271771406 45.5195518594L39.8456724387 44.1799103064L40.3265754121 42.9866123613L40.7753704958 41.9279294817L41.197542125 40.992133125L41.5985747346 40.1674947488L41.9839527598 39.4422858105L42.3591606355 38.8047777678L42.7296827969 38.2432420781L43.101003679 37.745950199L43.4786077168 37.3011735879L43.8679793455 36.8971837024L44.274603 36.522252L44.5039339568 36.3074598538L44.753175373 36.0472298145L45.3022661094 35.4038422031L45.9036282598 34.618861459L46.539014875 33.719059875L47.1901790059 32.7312097441L47.8388737031 31.6820833594L48.4668520176 30.5984530137L49.055867 29.507091L51.748039 24.316725L54.781303 24.01158L55.9784572656 23.8710472187L56.995748125 23.713982L57.7255814219 23.5595665312L57.9490783105 23.4893468867L58.060363 23.426983L61.103265 19.93225L61.9382374727 18.9979068086L62.7433530312 18.1498202969L63.5208521367 17.3869366211L64.27297525 16.7082019375L65.001962832 16.1125624023L65.7100553437 15.5989641719L66.3994932461 15.1663534023L66.7379168628 14.9800889893L67.072517 14.81367625L67.4035737153 14.6669834541L67.7313670664 14.5398788711L68.0561771108 14.4322307705L68.3782839063 14.3439074219L68.6979675103 14.2747770947L69.0155079805 14.2247080586L69.3311853745 14.193568583L69.64527975 14.1812269375L69.9580711646 14.1875513916L70.2698396758 14.2124102148L70.5808653413 14.2556716768L70.8914282188 14.3172040469L71.2018083657 14.3968755947L71.5122858398 14.4945545898L71.8231406987 14.6101093018L72.134653 14.743408L72.3620234116 14.8386216953L72.5885672148 14.9143479531L72.8194101997 14.9694061562L73.0596781562 15.0026156875L73.3144968745 15.0127959297L73.5889921445 14.9987662656L73.8882897563 14.9593460781L74.2175155 14.89335475L74.5817951655 14.7996116641L74.986254543 14.6769362031L75.9362155938 14.3400656875L77.1084049727 13.8732982656L78.543829 13.267189L79.9547698906 12.6740216914L81.14347875 12.2071814062L82.1507161094 11.8569453555L82.5990206426 11.7225155464L83.0172425 11.61359075L83.410476748 11.5289556177L83.7838184531 11.4673948008L84.1423626816 11.4276929507L84.4912045 11.4086347187L84.8354389746 11.4090047563L85.1801611719 11.4275877148L85.891449 11.514531L86.3573064648 11.5706322711L86.8462985469 11.5960287623L87.3501667148 11.5929703657L87.8606524375 11.5637069734L88.3694971836 11.5104884774L88.8684424219 11.4355647697L89.3492296211 11.3411857424L89.80360025 11.2296012875L90.2232957773 11.103061297L90.6000576719 10.9638156631L90.9256274023 10.8141142777L91.1917464375 10.6562070328L91.3901562461 10.4923438206L91.4613893994 10.408881818L91.5125982969 10.324774533L91.5427506221 10.2403032022L91.5508140586 10.1557490621L91.53575629 10.0713933492L91.496545 9.9875173L91.4435722581 9.86539171704L91.4369594551 9.74753922539L91.4750786003 9.63445738589L91.5563017031 9.52664375937L91.6790007727 9.42459590669L91.8415478184 9.32881138867L92.0423148494 9.23978776616L92.279673875 9.1580226L92.5519969045 9.08401345103L92.8576559473 9.01825788008L93.5624701094 8.91349771562L94.3810924355 8.84772259336L95.300499 8.824913L96.2391666484 8.84797334453L97.0662464375 8.91481018125L97.7708050078 9.02190721484L98.0737221611 9.08945446318L98.341909 9.16574815L98.5739988545 9.25034873838L98.7686250547 9.34281669141L98.9244209307 9.44271247217L99.0400198125 9.54959654375L99.1140550303 9.66302936924L99.1451599141 9.78257141172L99.1319677939 9.90778313428L99.073112 10.038225L99.0451904029 10.0983810374L99.0348849963 10.1588195454L99.041263264 10.2192950239L99.0633926895 10.2795619727L99.151174948 10.3984882808L99.2907716406 10.5136344687L99.474722636 10.6230365356L99.6955678027 10.7247304805L99.9458470095 10.8167523022L100.218100125 10.897138L100.504867018 10.9639235728L100.798687557 11.0151450195L101.09210161 11.0488383394L101.377649047 11.0630395312L101.647869736 11.0557845942L101.895303545 11.0251095273L102.112490344 10.9690503296L102.29197 10.885643L102.411902188 10.7978993945L102.512011875 10.6969875937L102.59095 10.5864787461L102.6473675 10.469944L102.679915313 10.3509545039L102.687244375 10.2330814062L102.668005625 10.1198958555L102.62085 10.014969L102.562635544 9.88442459119L102.551963105 9.75968101387L102.587592825 9.64109997297L102.668284844 9.52904317344L102.792799304 9.42387232019L102.959896348 9.32594911816L103.168336116 9.23563527229L103.41687875 9.1532924875L103.704284392 9.07928246873L104.029313184 9.0139669209L104.787280781 8.91086605781L105.680862676 8.8468835377L106.70014 8.824913L107.728446719 8.84698552012L108.626014375 8.91142335469L109.383899219 9.01555691504L109.707665664 9.08167534592L109.9931575 9.1567166125L110.239256758 9.24034701619L110.444845469 9.3322328584L110.608805664 9.43204044055L110.730019375 9.53943606406L110.807368633 9.65408603035L110.839735469 9.77565664082L110.826001914 9.9038141969L110.76505 10.038225L110.73909192 10.0939402554L110.729142625 10.1502587659L110.754375059 10.2638576426L110.834956643 10.3773258113L110.965096719 10.4889674531L111.139004626 10.5970867493L111.350889707 10.6999878809L111.594961301 10.7959750291L111.86542875 10.883352375L112.156501394 10.9604240999L112.462388574 11.0254943848L112.777299631 11.0768674109L113.095443906 11.1128473594L113.41103074 11.1317384114L113.718269473 11.131844748L114.011369446 11.1114705505L114.28454 11.06892L114.474529336 11.0185646973L114.648584688 10.9511010156L114.80312457 10.8694704199L114.9345675 10.776614375L115.039331992 10.6754743457L115.113836563 10.5689917969L115.154499727 10.4601081934L115.15774 10.351765L115.15138803 10.1920485212L115.181940645 10.0381895242L115.247968757 9.89079988076L115.348043281 9.7504914625L115.480735129 9.61787614111L115.644615215 9.49356578828L115.838254451 9.37817227568L116.06022375 9.272307475L116.309094026 9.17658325791L116.583436191 9.09161149609L116.88182116 9.01800406123L117.202819844 8.956372825L117.545003157 8.90732965908L117.906942012 8.87148643516L118.287207322 8.8494550249L118.68437 8.8418473L119.674438008 8.86898170996L120.590236563 8.94572011094L121.401078711 9.06362525957L121.75755146 9.13537872571L122.0762775 9.2142599125L122.353420962 9.29921416453L122.585145977 9.38918682637L122.767616675 9.4831232426L122.896997188 9.57996875781L122.969451646 9.67866871658L122.983132895 9.72838453247L122.98114418 9.77816846348L122.928238921 9.87741334309L122.8069 9.9753487L122.751330166 10.0212444525L122.721569766 10.0735897561L122.716807451 10.1318304109L122.736231875 10.1954122172L122.779031689 10.2637809753L122.844395547 10.3363824854L123.03957 10.4920669625L123.315264453 10.6580320506L123.664988125 10.8298441516L124.082250234 11.0030696674L124.56056 11.173275L125.215983047 11.3779885059L125.78145625 11.5269742344L126.271156953 11.620634502L126.6992625 11.659371625L127.079950234 11.6435879199L127.4273975 11.5736857031L127.755781641 11.450067291L128.07928 11.273135L128.37439637 11.1077339697L128.691419551 10.9662194141L129.029806277 10.8485750732L129.389013281 10.7547846875L129.768497297 10.6848319971L130.167715059 10.6387007422L130.586123298 10.6163746631L131.02317875 10.6178375L131.478338147 10.6430729932L131.951058223 10.6920648828L132.44079571 10.7647969092L132.947007344 10.8612528125L133.469149856 10.981416333L134.00667998 11.1252712109L134.559054451 11.2928011865L135.12573 11.48399L135.808798398 11.7034112012L136.494266563 11.8772229219L137.192376445 12.0063107129L137.91337 12.091560125L138.66748918 12.133856709L139.464975938 12.1340860156L140.316072227 12.0931335957L141.23102 12.011885L142.381604102 11.9025786074L142.882510288 11.8725229465L143.350296562 11.8632067969L143.797315923 11.8778860242L144.235921367 11.9198164941L144.678465894 11.9922540725L145.1373025 12.098454625L145.624784185 12.2416740173L146.153263945 12.4251681152L146.73509478 12.6521927844L147.382629687 12.9260038906L148.924223711 13.627008877L150.87687 14.55423L152.141295781 15.1490073105L153.396960625 15.7198551094L154.610943281 16.2531374473L155.7503225 16.735218375L156.782177031 17.1524619434L157.673585625 17.4912322031L158.391627031 17.7378932051L158.90338 17.878809L159.273803511 17.9871465908L159.67042543 18.1605513984L160.090500962 18.3961361631L160.531285312 18.691013625L160.990033687 19.0422965244L161.464001289 19.4470976016L161.950443325 19.9025295967L162.446615 20.40570525L162.949771519 20.9537373018L163.457168086 21.5437384922L163.966059907 22.1728215615L164.473702187 22.83809925L164.977350132 23.5366842979L165.474258945 24.2656894453L165.961683833 25.0222274326L166.43688 25.803411L166.681359941 26.1611581738L166.993363906 26.5284850156L167.360061855 26.8949508809L167.76862375 27.250115125L168.206219551 27.5835371035L168.660019219 27.8847761719L169.117192715 28.1433916855L169.56491 28.348943L170.023110588 28.5377544868L170.437368926 28.7274994102L170.817795496 28.9335686519L171.174500781 29.1713530937L171.517595266 29.4562436177L171.857189434 29.8036311055L172.203393767 30.228906439L172.56631875 30.7474605L172.956074866 31.3746841704L173.382772598 32.125968332L173.856522429 33.0167038667L174.387434844 34.0622816563L175.661189355 36.6795275273L177.28492 40.100833L178.820482695 43.4036553027L179.494589058 44.8993879631L180.110417812 46.3030067969L180.671098247 47.6232656794L181.179759648 48.8689184863L181.639531304 50.048719093L182.0535425 51.171421375L182.424922524 52.2457792078L182.756800664 53.2805464668L183.052306206 54.2844770276L183.314568437 55.2663247656L183.546716646 56.2348435564L183.751880117 57.1987872754L183.93318814 58.1669097981L184.09377 59.147965L184.201691958 60.0047745972L184.317664727 61.2045054023L184.440594272 62.7248702485L184.569386563 64.5435819688L184.840183242 68.9868973633L185.1213025 74.35615425L185.40399207 80.473055293L185.679499687 87.1593031562L185.939073086 94.2366005039L186.17396 101.52665L186.309061094 105.2426575L186.46897125 108.4141575L186.551982168 109.690598828L186.633698281 110.70477125L186.711620566 111.414627422L186.748378079 111.642297119L186.78325 111.77812L186.891528027 111.972654258L187.074479219 112.198264062L187.322240488 112.446856211L187.62494875 112.7103375L187.972740918 112.980614727L188.355753906 113.249594687L188.764124629 113.50918418L189.18799 113.75129L189.623314062 114.011054648L190.064525625 114.321254687L190.49945875 114.670248008L190.9159475 115.0463925L191.301825937 115.438046055L191.644928125 115.833566562L191.933088125 116.221311914L192.15414 116.58964L192.256030193 116.808526525L192.35976115 117.072188296L192.571416387 117.722285742L192.786447766 118.516828677L193.002197344 119.432713437L193.216007175 120.446836362L193.425219316 121.536093789L193.627175823 122.677382056L193.81921875 123.8475975L194.16293209 126.182395273L194.435095781 128.355657812L194.537701648 129.323954214L194.61444627 130.18255582L194.662671702 130.90835897L194.67972 131.47826L194.665672437 131.980631462L194.623717351 132.556172437L194.555261143 133.199729996L194.461710215 133.906151211L194.204949807 135.486972896L193.864687344 137.257414063L193.452174041 139.176251284L192.978661113 141.202261133L192.455399778 143.294220181L191.89364125 145.410905L191.304636746 147.511092163L190.69963748 149.553558242L190.08989467 151.49707981L189.486659531 153.300433437L188.901183279 154.922395698L188.344717129 156.321743164L188.080878847 156.925054028L187.828512297 157.457252407L187.589023881 157.913185374L187.36382 158.2877L187.127162461 158.589322285L186.793435937 158.927942656L186.37802082 159.292057637L185.8962975 159.67016375L185.363646367 160.05075752L184.795447812 160.422335469L184.207082227 160.773394121L183.61393 161.09243L182.874038008 161.485361094L182.249034062 161.85876125L181.730052461 162.221149531L181.507549507 162.400876426L181.3082275 162.581045L181.130978228 162.762720137L180.974693477 162.946966719L180.838265034 163.134849629L180.720584687 163.32743375L180.620544224 163.525783965L180.53703543 163.730965156L180.468950093 163.944042207L180.41518 164.16608L180.331788647 164.685189397L180.237708711 165.478537832L180.023110312 167.799325781L179.782639258 170.951191777L179.52755 174.75688375L179.269096992 179.039149629L179.018534687 183.620737344L178.787117539 188.324394824L178.5861 192.97287L178.451983894 196.127831877L178.306470059 199.163134082L178.150133342 202.072867097L177.983548594 204.851121406L177.807290662 207.491987493L177.621934395 209.98955584L177.428054641 212.337916931L177.22622625 214.53116125L177.01702407 216.56337928L176.801022949 218.428661504L176.578797737 220.121098406L176.350923281 221.634780469L176.117974431 222.963798176L175.880526035 224.102242012L175.639152942 225.044202458L175.517174274 225.439654687L175.39443 225.78377L175.15147031 226.450984797L174.895372012 227.227635566L174.628615012 228.102916873L174.353679219 229.066023281L173.789190879 231.212489668L173.22174625 233.58059125L172.67118459 236.083884551L172.157345156 238.635926094L171.700067207 241.150272402L171.31919 243.54048L170.707263223 247.766069258L170.256963906 251.044070312L170.089477756 252.385666646L169.958862324 253.559895586L169.863938894 254.589933687L169.80352875 255.4989575L169.776453176 256.310143579L169.781533457 257.046668477L169.817590876 257.731708745L169.883446719 258.388440937L169.977922268 259.040041606L170.099838809 259.709687305L170.42128 261.19582L170.663066062 262.295197493L170.863825527 263.294947754L171.02230969 264.201742458L171.137269844 265.022253281L171.207457283 265.763151897L171.231623301 266.43110998L171.208519192 267.032799207L171.13689625 267.57489125L171.082499996 267.825673227L171.015505769 268.064057786L170.935757481 268.290878886L170.843099043 268.506970488L170.737374367 268.713166551L170.618427366 268.910301033L170.48610195 269.099207894L170.340242031 269.280721094L170.007294333 269.624902346L169.618335566 269.949516465L169.172117024 270.261235125L168.66739 270.56673L167.943625007 270.940256748L167.000618184 271.364779922L165.862706135 271.832530166L164.554225469 272.335738125L163.099512791 272.866634443L161.522904707 273.417449766L159.848737825 273.980414736L158.10134875 274.54776L156.305074089 275.111716201L154.484250449 275.664513984L152.663214436 276.198383994L150.866302656 276.705556875L149.117851716 277.178263271L147.442198223 277.608733828L145.863678782 277.989199189L144.40663 278.31189L143.042331953 278.585966953L141.515843125 278.87146125L139.878715234 279.159993047L138.1825 279.4431825L136.478749141 279.712649766L134.819014375 279.960015L133.254847422 280.176898359L131.8378 280.35492L130.272856758 280.545020742L129.032850312 280.710059062L128.111020586 280.851652852L127.5006075 280.97142L127.310069673 281.023624175L127.194850977 281.070978398L127.154106401 281.113684907L127.186990937 281.151945937L127.292659575 281.185963726L127.470267305 281.215940508L128.03792 281.26458L129.494968906 281.360555L129.829682012 281.404412578L129.89416573 281.428280264L129.900136881 281.441070253L129.88838375 281.4545725L129.811073215 281.484138252L129.66097127 281.517826484L129.137341719 281.60096625L127.16102 281.85407L126.673885582 281.903628397L126.044402656 281.949887371L124.397021982 282.032529746L122.296139392 282.102042522L119.819016297 282.158471094L117.04291411 282.201860857L114.045094244 282.232257207L107.693347125 282.25425125L101.38186624 282.224816387L98.4343791672 282.190926604L95.7287428906 282.144315781L93.342218823 282.085029314L91.352068377 282.013112598L89.8355529651 281.928611028L89.2790525884 281.881655109L88.869934 281.83157L88.869934 281.83157"
       style="display:inline;fill:none;stroke-width:0.58459675;stroke:#000000;stroke-opacity:1"
       transform="matrix(0.35963709,0,0,0.35963709,8.2235408,-2.7303735)" />
  </g>
  <g
     id="g2445"
     inkscape:groupmode="layer"
     inkscape:label="B.Cu-disabled" />
  <g
     id="g2447"
     inkscape:groupmode="layer"
     inkscape:label="B.Mask-disabled" />
  <g
     id="g2449"
     inkscape:groupmode="layer"
     inkscape:label="B.Silk-disabled" />
  <g
     id="g2451"
     inkscape:groupmode="layer"
     inkscape:label="F.Cu"
     style="display:none">
    <g
       transform="matrix(0.35963709,0,0,0.35963709,8.2235408,-2.7303735)"
       id="g7104"
       style="display:inline">
      <path
         sodipodi:nodetypes="ccscsscsssscssssccccccccccscsccscscscssssccssccsscccccssssssssssscssscc"
         inkscape:connector-curvature="0"
         id="path7102"
         d="m 42.371537,118.29064 c 1.12138,-1.20573 2.315856,-3.00699 2.654393,-4.00279 0.394482,-1.16038 0.543611,-7.87828 0.415275,-18.707099 L 45.240959,78.684217 47.114283,74.59204 c 1.030329,-2.250697 2.85057,-6.232291 4.044981,-8.847989 1.427501,-3.126153 2.039532,-5.172099 1.786079,-5.970656 -0.314971,-0.992386 -0.0111,-1.371312 1.659456,-2.069314 1.124768,-0.469957 3.246601,-1.72919 4.715186,-2.798293 2.065524,-1.503666 2.620252,-2.245596 2.449781,-3.2765 -0.217212,-1.31356 -0.159404,-1.32715 4.030372,-0.947482 2.337909,0.211856 5.22607,0.20222 6.418136,-0.02141 2.025577,-0.380001 2.144949,-0.518822 1.824383,-2.12165 -0.407495,-2.037474 0.05402,-2.117823 3.135342,-0.545851 2.778153,1.417308 5.01761,1.500956 5.737652,0.214313 0.605028,-1.081126 2.328293,-0.915782 6.42973,0.616922 2.333155,0.871896 2.675805,0.869091 4.586419,-0.03755 1.925048,-0.913494 2.176086,-0.914162 3.706928,-0.0099 2.17632,1.285584 3.348282,1.224145 3.800042,-0.199213 0.48856,-1.539338 1.22179,-1.47482 3.32189,0.292298 2.07646,1.747233 4.33072,1.851426 6.32395,0.292299 1.87304,-1.465109 3.04154,-1.465109 3.95651,0 1.08899,1.74375 2.96422,1.419249 5.0674,-0.876895 2.23436,-2.43935 3.0997,-2.566643 3.61058,-0.531127 0.41313,1.646024 1.07017,1.666821 4.8045,0.152071 1.73579,-0.704082 2.02838,-0.67878 2.69514,0.23306 0.90511,1.237815 3.12864,1.298388 4.67682,0.127404 1.48701,-1.124717 3.19632,-1.093029 3.64166,0.06751 0.62917,1.639585 2.6272,1.88714 6.43723,0.797569 l 3.62572,-1.036864 0.18007,1.539456 c 0.21357,1.825968 5.06319,5.464512 9.2791,6.961871 2.2876,0.812483 2.88277,1.367242 3.94056,3.673027 0.6853,1.493798 2.98285,5.313785 5.10567,8.488861 2.12282,3.175073 4.10449,6.230304 4.40371,6.789406 0.98372,1.838095 1.72915,9.393078 2.17056,21.99883 l 0.43466,12.413227 2.50667,2.48487 c 2.41121,2.39024 2.53881,2.44175 3.35113,1.35284 0.93509,-1.25348 0.81869,-13.06503 -0.37483,-38.035968 -0.80346,-16.809818 -1.30806,-18.868626 -8.19567,-33.438487 -2.87243,-6.076275 -3.71308,-7.347376 -5.68073,-8.589499 -1.27018,-0.801824 -3.68989,-3.314328 -5.37714,-5.583342 -2.65602,-3.571802 -3.3122,-4.125481 -4.88919,-4.125481 -1.27755,0 -2.32993,-0.538716 -3.52421,-1.80406 -2.89053,-3.062524 -10.13704,-5.688325 -11.15459,-4.041907 -0.53608,0.867394 -3.06786,0.708148 -4.58916,-0.288655 -2.13349,-1.397911 -6.40866,-1.776791 -7.34317,-0.650776 -1.07774,1.298596 -2.30215,1.182733 -6.1585,-0.582761 -1.94825,-0.891937 -3.85338,-1.387602 -4.60127,-1.197131 -0.702,0.178783 -2.03016,0.505636 -2.95146,0.726341 -0.92129,0.220704 -3.48515,0.05974 -5.69745,-0.357687 -3.68685,-0.695657 -4.19365,-0.666731 -6.07561,0.346771 -1.97316,1.06262 -2.16438,1.066259 -4.903741,0.09333 -3.773642,-1.34028 -4.829594,-1.282781 -8.247258,0.44908 -3.101788,1.571795 -5.22547,1.848148 -6.259125,0.814495 -0.690871,-0.690871 -4.954044,0.653463 -9.618369,3.033023 -1.86286,0.95036 -2.97107,1.131409 -5.117999,0.836131 -2.702659,-0.37171 -2.776005,-0.337877 -5.341168,2.463747 -1.430484,1.562349 -3.136632,3.593469 -3.791442,4.5136 -0.903765,1.269961 -1.819127,1.756841 -3.799879,2.021146 -2.607787,0.347975 -2.610976,0.351326 -5.441951,5.717962 -2.124057,4.026542 -3.226282,5.507009 -4.406289,5.918362 -1.275675,0.444702 -1.864537,1.365094 -3.109824,4.860659 -0.844893,2.371644 -2.351898,6.588684 -3.3489,9.371199 l -1.81273,5.059118 -0.247807,24.551071 c -0.136294,13.503084 -0.431363,26.813289 -0.655709,29.578229 -0.394608,4.86334 -0.367435,5.02717 0.833818,5.02717 0.682946,0 2.159211,-0.98651 3.28059,-2.19224 z"
         style="fill:#050505;stroke-width:0.58459675" />
    </g>
  </g>
  <g
     id="g2453"
     inkscape:groupmode="layer"
     inkscape:label="F.Mask"
     style="display:none">
    <g
       style="display:inline"
       id="g7098"
       transform="matrix(0.35963709,0,0,0.35963709,8.2235408,-2.7303735)">
      <path
         style="fill:#050505;stroke-width:0.58459675"
         d="m 42.371537,118.29064 c 1.12138,-1.20573 2.315856,-3.00699 2.654393,-4.00279 0.394482,-1.16038 0.543611,-7.87828 0.415275,-18.707099 L 45.240959,78.684217 47.114283,74.59204 c 1.030329,-2.250697 2.85057,-6.232291 4.044981,-8.847989 1.427501,-3.126153 2.039532,-5.172099 1.786079,-5.970656 -0.314971,-0.992386 -0.0111,-1.371312 1.659456,-2.069314 1.124768,-0.469957 3.246601,-1.72919 4.715186,-2.798293 2.065524,-1.503666 2.620252,-2.245596 2.449781,-3.2765 -0.217212,-1.31356 -0.159404,-1.32715 4.030372,-0.947482 2.337909,0.211856 5.22607,0.20222 6.418136,-0.02141 2.025577,-0.380001 2.144949,-0.518822 1.824383,-2.12165 -0.407495,-2.037474 0.05402,-2.117823 3.135342,-0.545851 2.778153,1.417308 5.01761,1.500956 5.737652,0.214313 0.605028,-1.081126 2.328293,-0.915782 6.42973,0.616922 2.333155,0.871896 2.675805,0.869091 4.586419,-0.03755 1.925048,-0.913494 2.176086,-0.914162 3.706928,-0.0099 2.17632,1.285584 3.348282,1.224145 3.800042,-0.199213 0.48856,-1.539338 1.22179,-1.47482 3.32189,0.292298 2.07646,1.747233 4.33072,1.851426 6.32395,0.292299 1.87304,-1.465109 3.04154,-1.465109 3.95651,0 1.08899,1.74375 2.96422,1.419249 5.0674,-0.876895 2.23436,-2.43935 3.0997,-2.566643 3.61058,-0.531127 0.41313,1.646024 1.07017,1.666821 4.8045,0.152071 1.73579,-0.704082 2.02838,-0.67878 2.69514,0.23306 0.90511,1.237815 3.12864,1.298388 4.67682,0.127404 1.48701,-1.124717 3.19632,-1.093029 3.64166,0.06751 0.62917,1.639585 2.6272,1.88714 6.43723,0.797569 l 3.62572,-1.036864 0.18007,1.539456 c 0.21357,1.825968 5.06319,5.464512 9.2791,6.961871 2.2876,0.812483 2.88277,1.367242 3.94056,3.673027 0.6853,1.493798 2.98285,5.313785 5.10567,8.488861 2.12282,3.175073 4.10449,6.230304 4.40371,6.789406 0.98372,1.838095 1.72915,9.393078 2.17056,21.99883 l 0.43466,12.413227 2.50667,2.48487 c 2.41121,2.39024 2.53881,2.44175 3.35113,1.35284 0.93509,-1.25348 0.81869,-13.06503 -0.37483,-38.035968 -0.80346,-16.809818 -1.30806,-18.868626 -8.19567,-33.438487 -2.87243,-6.076275 -3.71308,-7.347376 -5.68073,-8.589499 -1.27018,-0.801824 -3.68989,-3.314328 -5.37714,-5.583342 -2.65602,-3.571802 -3.3122,-4.125481 -4.88919,-4.125481 -1.27755,0 -2.32993,-0.538716 -3.52421,-1.80406 -2.89053,-3.062524 -10.13704,-5.688325 -11.15459,-4.041907 -0.53608,0.867394 -3.06786,0.708148 -4.58916,-0.288655 -2.13349,-1.397911 -6.40866,-1.776791 -7.34317,-0.650776 -1.07774,1.298596 -2.30215,1.182733 -6.1585,-0.582761 -1.94825,-0.891937 -3.85338,-1.387602 -4.60127,-1.197131 -0.702,0.178783 -2.03016,0.505636 -2.95146,0.726341 -0.92129,0.220704 -3.48515,0.05974 -5.69745,-0.357687 -3.68685,-0.695657 -4.19365,-0.666731 -6.07561,0.346771 -1.97316,1.06262 -2.16438,1.066259 -4.903741,0.09333 -3.773642,-1.34028 -4.829594,-1.282781 -8.247258,0.44908 -3.101788,1.571795 -5.22547,1.848148 -6.259125,0.814495 -0.690871,-0.690871 -4.954044,0.653463 -9.618369,3.033023 -1.86286,0.95036 -2.97107,1.131409 -5.117999,0.836131 -2.702659,-0.37171 -2.776005,-0.337877 -5.341168,2.463747 -1.430484,1.562349 -3.136632,3.593469 -3.791442,4.5136 -0.903765,1.269961 -1.819127,1.756841 -3.799879,2.021146 -2.607787,0.347975 -2.610976,0.351326 -5.441951,5.717962 -2.124057,4.026542 -3.226282,5.507009 -4.406289,5.918362 -1.275675,0.444702 -1.864537,1.365094 -3.109824,4.860659 -0.844893,2.371644 -2.351898,6.588684 -3.3489,9.371199 l -1.81273,5.059118 -0.247807,24.551071 c -0.136294,13.503084 -0.431363,26.813289 -0.655709,29.578229 -0.394608,4.86334 -0.367435,5.02717 0.833818,5.02717 0.682946,0 2.159211,-0.98651 3.28059,-2.19224 z"
         id="path7096"
         inkscape:connector-curvature="0"
         sodipodi:nodetypes="ccscsscsssscssssccccccccccscsccscscscssssccssccsscccccssssssssssscssscc" />
    </g>
  </g>
  <g
     id="g2455"
     inkscape:groupmode="layer"
     inkscape:label="F.Silk"
     style="display:inline">
    <g
       id="g1811"
       transform="matrix(0.35963709,0,0,0.35963709,8.2235408,-2.7303735)" />
    <g
       transform="matrix(0.35963709,0,0,0.35963709,8.2235408,-2.7303735)"
       id="g2483">
      <path
         style="fill:#050505;stroke-width:0.79461801"
         d="M 160.61914 1.6757812 C 157.11966 1.6757812 154.89323 2.3562386 155.44922 3.2558594 C 156.19782 4.4671212 151.10344 5.8554626 147.83008 5.3320312 C 145.16216 4.9054144 143.40803 5.3241014 137.8418 7.7148438 C 132.11221 10.175748 130.79454 10.478726 129.13086 9.7207031 C 124.6082 7.6600417 120.30339 9.6848307 114.13672 16.773438 C 112.04563 19.177157 110.18376 21.314522 110 21.523438 C 109.81624 21.732353 107.81061 22.090235 105.54297 22.318359 L 101.41992 22.732422 L 97.759766 29.789062 C 95.717431 33.726576 92.846545 37.939894 91.261719 39.324219 C 88.238164 41.965255 86.534064 45.610276 81.058594 61.144531 L 77.880859 70.15625 L 77.644531 107.23242 C 77.487374 131.76192 77.111809 145.03651 76.535156 146.45703 C 76.055764 147.63795 74.547917 149.18121 73.183594 149.88672 C 70.566595 151.24002 68.509493 155.02554 68.349609 158.78516 L 68.255859 160.99609 C 68.329195 163.53312 67.465144 176.19105 68.509766 179.24023 C 68.509766 179.24023 69.087268 181.79631 70.789062 186.82227 C 77.747765 207.37363 79.190575 210.10236 83.597656 211.07031 C 86.873047 211.7897 86.543756 210.29538 91.470703 246.81641 C 92.3551 253.372 93.425672 262.31124 93.851562 266.68164 C 95.217415 280.69771 97.689486 294.62578 99.726562 299.79492 C 101.57004 304.47278 105.28437 319.27374 109.04297 336.91797 C 110.5164 343.83481 110.5414 344.64143 109.40234 347.98438 C 107.73156 352.88786 107.80288 357.89751 109.56445 359.39453 C 113.2433 362.52089 130.88929 368.1341 142.74023 369.94727 C 154.11726 371.68792 154.35656 371.74523 151.08398 371.99414 C 148.3753 372.20015 148.39631 372.22027 151.87891 372.76172 C 156.69552 373.51055 197.94155 373.53545 203.92578 372.79297 C 208.6667 372.20474 208.67287 372.20072 205.11719 371.99219 C 202.5524 371.84176 204.01371 371.49229 210.2832 370.75586 C 215.09064 370.19114 222.77826 368.94114 227.36719 367.97852 C 237.43078 365.8674 255.9504 359.95539 260.34375 357.45117 C 264.2178 355.24296 264.62701 353.05993 262.72852 344.71289 C 261.3844 338.80327 261.4249 337.97267 263.94727 320.71484 C 265.16539 312.38051 267.78059 300.99223 269.48828 296.57812 C 271.27312 291.96461 272.89662 275.27143 273.82617 251.98047 C 274.48611 235.44536 275.75011 215.53987 276.3125 212.82422 C 276.65309 211.17953 277.75935 210.11643 280.66016 208.64648 C 282.80024 207.56201 285.09451 205.84632 285.75781 204.83398 C 288.91264 200.01912 295.70661 175.121 295.70117 168.39258 C 295.69701 164.88208 293.72991 150.99128 292.26758 148.15625 C 291.60266 146.87043 289.78887 145.13492 288.23633 144.29883 C 286.68378 143.46273 285.21397 142.25426 284.96875 141.61523 C 284.72354 140.97622 284.34896 134.70653 284.13867 127.68164 C 283.3426 101.08732 282.06304 74.992623 281.3125 70.078125 C 280.21595 62.898055 278.09799 56.975045 272.05664 44.1875 C 265.43912 30.180334 265.06983 29.617418 261.56445 28.214844 C 259.97426 27.57857 258.06079 26.020652 257.3125 24.753906 C 253.91858 19.008456 249.65601 14.524977 247.07227 13.982422 C 245.63096 13.679768 240.72136 11.645666 236.16211 9.4628906 C 228.22 5.6605504 227.67034 5.516336 223.05078 6.0078125 C 219.60628 6.374274 217.23589 6.1700792 214.75195 5.2910156 C 210.59338 3.8192991 207.23252 3.7182314 205.17383 5.0039062 C 203.99297 5.7413678 202.94648 5.7106943 200.39062 4.8671875 C 198.5541 4.2610766 197.50945 3.5482332 198.00781 3.2402344 C 199.14476 2.5375591 196.09051 1.6974789 192.4043 1.6992188 C 189.46732 1.7006101 187.42611 2.5743551 187.60938 3.7519531 C 187.66978 4.1401301 187.13703 4.5786004 186.42383 4.7265625 C 184.52974 5.1195078 181.14276 4.1266229 181.63867 3.3242188 C 182.25439 2.3279644 180.06671 1.6757812 176.11328 1.6757812 C 172.2029 1.6757812 169.97297 2.3264509 170.57031 3.2929688 C 170.79346 3.6540136 170.59206 4.1866993 170.12305 4.4765625 C 168.97663 5.1850881 165.20905 4.1931722 165.74609 3.3242188 C 166.34158 2.3607009 164.21054 1.6757812 160.61914 1.6757812 z M 160.48047 10.53125 C 162.06115 10.445179 163.7029 10.882075 166.26758 11.792969 C 169.99108 13.115431 170.24961 13.110391 172.93164 11.666016 C 175.48971 10.288405 176.18002 10.249735 181.19141 11.195312 C 184.19849 11.762704 187.68328 11.981634 188.93555 11.681641 C 190.18783 11.381646 191.99307 10.936372 192.94727 10.693359 C 193.96384 10.43446 196.553 11.10794 199.20117 12.320312 C 204.44295 14.720075 206.10734 14.878409 207.57227 13.113281 C 208.84251 11.582736 214.65277 12.097925 217.55273 13.998047 C 219.62057 15.35296 223.06234 15.569637 223.79102 14.390625 C 225.17413 12.152718 235.02415 15.720051 238.95312 19.882812 C 240.57646 21.602742 242.00762 22.335938 243.74414 22.335938 C 245.88768 22.335937 246.77845 23.088358 250.38867 27.943359 C 252.68208 31.027535 255.97076 34.443317 257.69727 35.533203 C 260.37181 37.221569 261.51555 38.947804 265.41992 47.207031 C 274.78196 67.011236 275.46844 69.811272 276.56055 92.660156 C 278.18285 126.60211 278.33939 142.65557 277.06836 144.35938 C 275.96421 145.83948 275.79113 145.77044 272.51367 142.52148 L 269.10742 139.14453 L 268.51562 122.27148 C 267.91563 105.13701 266.90354 94.867586 265.56641 92.369141 C 265.15969 91.609177 262.46554 87.456369 259.58008 83.140625 C 256.69462 78.824877 253.57212 73.63202 252.64062 71.601562 C 251.20282 68.467405 250.39264 67.713749 247.2832 66.609375 C 241.55269 64.574077 234.96217 59.628447 234.67188 57.146484 L 234.42578 55.054688 L 229.49805 56.462891 C 224.31923 57.943899 221.60325 57.607526 220.74805 55.378906 C 220.14271 53.801434 217.82006 53.758328 215.79883 55.287109 C 213.69445 56.878779 210.67168 56.795792 209.44141 55.113281 C 208.53511 53.873855 208.13673 53.839846 205.77734 54.796875 C 200.70142 56.855811 199.8096 56.827216 199.24805 54.589844 C 198.55363 51.823052 197.37692 51.996793 194.33984 55.3125 C 191.48108 58.433553 188.93139 58.874113 187.45117 56.503906 C 186.20749 54.512445 184.62016 54.512445 182.07422 56.503906 C 179.3649 58.623163 176.30096 58.482363 173.47852 56.107422 C 170.62394 53.705452 169.62697 53.616626 168.96289 55.708984 C 168.34883 57.643696 166.75506 57.727909 163.79688 55.980469 C 161.71607 54.751343 161.37445 54.752466 158.75781 55.994141 C 156.16079 57.2265 155.69675 57.230054 152.52539 56.044922 C 146.95048 53.961581 144.60755 53.737502 143.78516 55.207031 C 142.80643 56.955911 139.76256 56.842503 135.98633 54.916016 C 131.79802 52.7793 131.17072 52.886797 131.72461 55.65625 C 132.16034 57.834907 131.99742 58.024496 129.24414 58.541016 C 127.62382 58.844987 123.69735 58.85828 120.51953 58.570312 C 114.82454 58.054246 114.74772 58.071955 115.04297 59.857422 C 115.27468 61.258687 114.52047 62.26863 111.71289 64.3125 C 109.7167 65.765687 106.83158 67.476441 105.30273 68.115234 C 103.03202 69.063999 102.61875 69.578825 103.04688 70.927734 C 103.39138 72.01318 102.55948 74.793719 100.61914 79.042969 C 98.995628 82.598378 96.521577 88.011034 95.121094 91.070312 L 92.576172 96.632812 L 92.847656 119.59961 C 93.022098 134.31877 92.819406 143.45009 92.283203 145.02734 C 91.823044 146.38089 90.200026 148.82985 88.675781 150.46875 C 87.151538 152.10765 85.143144 153.44727 84.214844 153.44727 C 82.582031 153.44727 82.545657 153.22577 83.082031 146.61523 C 83.386975 142.85697 83.789351 124.76434 83.974609 106.41016 L 84.310547 73.039062 L 86.775391 66.162109 C 88.130574 62.379953 90.177744 56.647505 91.326172 53.423828 C 93.018839 48.672452 93.818763 47.422824 95.552734 46.818359 C 97.156669 46.259224 98.655827 44.246548 101.54297 38.773438 C 105.39099 31.478793 105.3948 31.472988 108.93945 31 C 111.63181 30.640741 112.87702 29.980111 114.10547 28.253906 C 114.99552 27.003211 117.31342 24.242776 119.25781 22.119141 C 122.74453 18.31101 122.84397 18.264281 126.51758 18.769531 C 129.43581 19.17089 130.9425 18.924597 133.47461 17.632812 C 139.81463 14.398376 145.60976 12.570693 146.54883 13.509766 C 147.95383 14.914767 150.84051 14.538819 155.05664 12.402344 C 157.37938 11.225321 158.89979 10.617321 160.48047 10.53125 z M 149.51758 58.974609 C 155.88001 58.965149 162.21896 59.480358 165.9375 60.521484 C 167.79792 61.042374 170.13012 61.256682 171.11914 60.998047 C 172.10815 60.739413 174.24693 60.925498 175.87109 61.412109 C 178.35491 62.156276 179.16358 62.074097 180.9668 60.892578 C 182.88082 59.638457 183.56682 59.596507 187.35742 60.505859 C 191.13287 61.411575 191.76752 61.374423 193.08984 60.177734 C 194.63518 58.779221 193.90178 58.78523 226.62109 59.925781 C 230.27297 60.05308 231.78975 60.593413 235.36133 63.033203 C 237.73832 64.656964 241.53152 66.980267 243.79102 68.197266 C 247.3736 70.126909 248.78691 71.731765 254.83594 80.740234 C 258.65098 86.421752 262.4135 92.505281 263.19727 94.259766 C 264.89862 98.068297 266.06598 107.06665 266.75 121.66211 C 267.17866 130.80878 267.06499 132.62541 265.98242 133.98047 C 264.71623 135.56542 264.70855 135.56342 263.32227 133.86719 C 262.55774 132.93172 261.32098 131.0524 260.57422 129.68945 C 259.82746 128.32652 258.23361 126.83799 257.03125 126.38086 C 255.57618 125.82764 246.99494 125.71812 231.37109 126.05469 C 205.52227 126.61149 196.73165 127.32499 195.05273 129.00391 C 194.4413 129.61533 193.50433 131.88001 192.9707 134.03516 L 192 137.95312 L 188.82422 137.71484 C 184.85721 137.41783 175.29868 137.42492 172.17969 137.72656 C 170.00349 137.93703 169.75435 137.67889 168.75391 134.17383 C 167.96932 131.42496 167.06474 130.07983 165.43359 129.23633 C 162.31468 127.62347 142.19613 126.96387 121.10547 127.7832 C 102.03936 128.5239 102.72859 128.2806 99.923828 135.24609 C 98.999036 137.54276 97.819446 139.55982 97.302734 139.72852 C 94.984186 140.48551 94.565444 136.64433 94.837891 117.05273 L 95.111328 97.427734 L 98.765625 89.386719 C 104.75717 76.203603 108.28675 70.782729 113.59375 66.613281 C 119.17794 62.226097 121.94416 61.027716 124.95703 61.689453 C 126.21446 61.965631 129.64936 61.486219 132.96289 60.570312 C 136.76992 59.517998 143.15515 58.984069 149.51758 58.974609 z M 180.5918 85.996094 C 175.37345 85.813497 170.42694 87.183289 164.39258 90.058594 C 160.13144 92.088978 156.64648 94.130947 156.64648 94.595703 C 156.64648 95.853161 157.21847 95.71697 166.30469 92.292969 C 178.51072 87.693308 179.3327 87.649762 189.85156 91.050781 C 194.78528 92.645977 199.79171 93.839982 200.97656 93.703125 C 202.88396 93.482808 202.59242 93.201002 198.42578 91.25 C 191.30186 87.914262 185.81015 86.178691 180.5918 85.996094 z M 177.54492 106.25586 C 173.03768 106.26822 171.65689 106.75631 165.7207 109.48438 C 161.75291 111.30784 156.39054 113.40272 153.80273 114.14062 C 151.21493 114.87853 148.75698 115.80081 148.3418 116.18945 C 147.89141 116.61106 148.7137 116.89453 150.37891 116.89453 C 152.91174 116.89453 156.98322 115.63792 172.53906 110.05078 C 175.37982 109.03048 178.65799 108.18706 179.82422 108.17578 C 180.99044 108.1645 185.84913 109.37884 190.62109 110.875 C 199.28956 113.59286 210.67969 115.36704 210.67969 114 C 210.67969 113.60616 208.3428 112.84069 205.48633 112.29883 C 202.62986 111.75696 197.17752 110.2045 193.36914 108.84766 C 187.87945 106.89181 185.04429 106.35759 179.68945 106.27344 C 178.89549 106.26096 178.18881 106.25409 177.54492 106.25586 z M 227.76367 131.19922 C 253.26315 131.19922 255.09251 131.50306 256.66016 136 C 257.17835 137.48651 257.5625 143.66636 257.5625 150.52148 C 257.5625 177.53035 255.54118 179.76418 229.75 181.26758 C 214.30435 182.16791 217.00979 182.26688 210.49023 180.56641 C 204.61961 179.0352 201.61922 176.7869 200.39062 172.99805 C 198.20817 166.26767 197.1816 142.39944 198.82031 136.49805 C 200.2216 131.45161 201.60646 131.19922 227.76367 131.19922 z M 142.08398 133.68359 C 151.37355 133.67071 158.58201 133.78158 159.66211 133.98047 C 163.16283 134.62508 163.75102 136.43082 164.44531 148.64062 C 165.08208 159.83881 163.88879 170.45856 161.54102 174.47852 C 159.77159 177.50819 155.40149 179.98621 148.98633 181.59766 C 143.50484 182.97456 129.80648 183.15268 122.51172 181.94336 C 120.12665 181.54796 116.34021 180.38605 114.09766 179.35938 C 106.49954 175.88084 104.73233 169.95624 105.13477 149.31445 C 105.32061 139.78223 105.68464 135.75014 106.42578 135.00977 C 107.21644 134.21991 113.25363 133.92275 132.25 133.73828 C 135.65906 133.70518 138.98746 133.68789 142.08398 133.68359 z M 220.5957 137.65625 C 220.26103 137.65966 220.19582 137.89215 220.35547 138.37109 C 220.55149 138.95914 223.55034 140.41788 227.01953 141.61328 C 230.48874 142.80869 233.80272 143.63729 234.38477 143.45312 C 234.96681 143.26896 236.48634 143.11719 237.76172 143.11719 C 239.03708 143.11719 240.08008 142.75929 240.08008 142.32227 C 240.08008 141.88522 238.88747 141.5293 237.42773 141.5293 C 234.95398 141.5293 224.88501 139.23174 221.49805 137.89453 C 221.09515 137.73546 220.79651 137.65421 220.5957 137.65625 z M 139.13672 141.03516 C 138.0912 140.96412 135.74604 141.22611 132.35742 141.83789 L 126.05273 142.97461 L 130.96875 143.04688 C 133.6718 143.0861 136.88883 142.71766 138.11914 142.22852 C 139.92792 141.50941 140.18224 141.10619 139.13672 141.03516 z M 149.5332 141.5293 C 149.11788 141.5293 148.49207 142.0283 148.14258 142.63867 C 146.2803 145.89106 134.22682 149.47189 125.12695 149.47461 C 121.83791 149.47568 121.79875 149.50826 119.2832 154.67188 C 115.20904 163.03483 117.24553 167.37647 126.40234 169.8457 C 131.69038 171.27169 135.95446 171.13364 141.73047 169.34961 C 154.15074 165.51339 157.33063 159.31833 150.66602 151.94141 C 147.70234 148.66096 147.18909 146.29099 149.09766 144.70703 C 150.42317 143.60696 150.70754 141.5293 149.5332 141.5293 z M 214.10547 143.36719 C 212.84613 143.40718 212.74447 143.91049 213.71289 144.87891 C 214.82028 145.98629 214.9805 149.47461 213.92383 149.47461 C 212.34824 149.47461 209.88477 154.89261 209.88477 158.35938 C 209.88477 161.18705 210.32085 162.29873 212.07031 163.93555 C 214.86882 166.55385 218.66797 168.46349 222.85938 169.35742 C 231.17711 171.13138 244.32087 168.52644 246.36914 164.69922 C 248.16817 161.33769 246.34252 152.66161 243.24609 149.85938 C 241.51668 148.2943 231.63276 145.43906 230.04883 146.04688 C 229.46715 146.27009 225.59413 145.63346 221.44336 144.63281 C 217.78116 143.74994 215.36481 143.32719 214.10547 143.36719 z M 264.76953 144.70703 C 266.93052 144.70703 267.89258 147.66063 267.89258 154.29492 C 267.89258 159.19468 268.06074 159.80469 269.41406 159.80469 C 270.29251 159.80469 272.85355 157.6216 275.4707 154.64062 C 278.93876 150.69046 280.50784 149.47461 282.14062 149.47461 C 285.18668 149.47461 287.16785 151.16843 286.83984 153.49219 C 286.59769 155.20767 286.22036 155.40805 283.5957 155.20312 C 280.98079 154.99896 280.42962 155.28379 279.00781 157.58594 C 278.11925 159.02464 276.63629 162.66497 275.71094 165.67578 C 274.25221 170.42194 274.14845 171.67277 274.93359 175.07422 C 275.43167 177.23196 275.83789 180.2205 275.83789 181.7168 C 275.83789 183.2131 276.19043 184.4375 276.61914 184.4375 C 277.87806 184.4375 278.4647 180.65897 277.83008 176.64258 C 276.84941 170.43603 277.17046 167.266 279.23438 162.75781 C 280.90723 159.10381 281.6041 158.37411 283.8457 157.92578 C 287.39561 157.2158 288.50304 158.49557 289.32812 164.25586 C 290.03169 169.16773 289.32139 173.06037 284.97266 188.09375 C 281.57361 199.84404 279.24824 203.20636 274.95508 202.57617 C 273.34573 202.33993 273.01397 201.38327 271.31641 192.08398 C 269.34611 181.2907 267.95978 177.13972 267.91602 181.89648 C 267.90272 183.33984 268.47919 187.09468 269.19531 190.24023 C 270.24096 194.83318 270.37591 197.83843 269.88281 205.49609 C 269.5451 210.74057 269.17299 217.35456 269.05664 220.19531 C 267.90201 248.4017 265.10453 286.89348 263.90234 291.10742 C 263.41846 292.80349 261.19203 296.09223 258.71875 298.76367 C 256.33449 301.33894 254.38477 303.66618 254.38477 303.93555 C 254.38477 304.20491 255.49253 304.42578 256.84766 304.42578 C 259.27427 304.42578 259.30557 304.47667 258.94336 307.80273 C 258.74107 309.66015 257.93678 314.93451 257.15625 319.52344 C 256.25797 324.80465 255.71187 332.30423 255.66797 339.95898 L 255.59961 352.05273 L 251.2168 354.00781 C 239.20677 359.3662 214.2262 365.07785 197.06836 366.38672 C 178.37848 367.81246 163.50632 367.16212 146.31641 364.16797 C 128.85772 361.12702 116.60062 357.27304 115.94336 354.61914 C 115.76285 353.89025 115.87165 352.40119 116.18555 351.30859 C 117.76715 345.80334 116.89993 338.66138 112.48633 320.84766 C 109.2731 307.87876 109.13174 306.01367 111.35352 306.01367 C 113.39765 306.01367 113.36844 305.0577 111.26953 303.1582 C 108.97534 301.08199 105.84162 295.57408 104.59375 291.42773 C 103.28454 287.07755 99.439683 260.40333 97.017578 238.86914 C 96.526008 234.49874 95.291463 225.00862 94.275391 217.7793 C 92.536905 205.41002 92.491175 204.09756 93.511719 195.5293 C 94.787297 184.81982 94.916119 181.45014 94.005859 182.49023 C 92.676679 184.00899 91.488281 189.91923 91.488281 195.00781 C 91.488281 202.15941 90.579997 204.30273 87.552734 204.30273 C 84.382203 204.30273 83.647108 203.04533 78.826172 189.36133 C 74.693865 177.63195 72.909414 169.6251 73.714844 166.41602 C 74.107872 164.85007 74.685182 164.57227 77.558594 164.57227 C 80.934938 164.57227 80.94338 164.5791 83.146484 169.48828 C 84.877546 173.3456 85.324582 175.46001 85.21875 179.30664 C 85.063521 184.94906 86.111304 188.41016 87.976562 188.41016 C 88.930452 188.41016 89.101506 188.04255 88.621094 187.01953 C 88.261934 186.25472 87.954826 182.76169 87.939453 179.25586 C 87.914587 173.58706 87.604238 172.26733 85.130859 167.33594 L 82.349609 161.79102 L 78.773438 161.79102 C 75.543909 161.79102 75.178101 161.59888 74.992188 159.80469 C 74.70725 157.05487 75.83435 155.63281 78.298828 155.63281 C 80.795602 155.63281 86.180284 159.1993 88.408203 162.32812 C 89.411878 163.73766 90.725914 164.57227 91.939453 164.57227 C 93.772717 164.57227 93.871094 164.32653 93.871094 159.7793 C 93.871094 154.899 95.292461 150.16357 97.089844 149.05273 C 99.074682 147.82604 100.07328 151.15443 100.63281 160.85547 C 101.57525 177.19518 105.00149 182.46371 117.06836 186.12891 C 122.21748 187.69291 123.92208 187.798 137.87305 187.42188 C 150.79668 187.07347 153.73117 186.7606 157.49219 185.32617 C 166.27687 181.97574 168.36814 177.84185 169.08398 162.40039 C 169.36288 156.38419 169.89472 150.63924 170.26562 149.63477 C 171.01228 147.61267 174.64558 145.81953 179.59961 145.02734 C 182.19567 144.61221 183.70784 144.93025 187.17578 146.62695 C 192.4396 149.2023 192.8632 150.27534 193.60742 162.89453 C 194.42344 176.73125 196.81058 181.70845 203.90625 184.36328 C 210.19077 186.71461 213.85472 186.95304 230.94336 186.13281 C 248.49191 185.29052 252.28051 184.42852 256.5332 180.30664 C 260.45914 176.50146 261.6931 172.01473 262.06055 160.20117 C 262.48718 146.48424 262.79778 144.70703 264.76953 144.70703 z M 223.83203 147.4707 C 225.18727 147.49929 226.8159 147.65472 228.8418 147.90039 C 240.40649 149.30278 243.09284 150.89858 244.8457 157.4082 C 245.99096 161.66135 244.69901 164.75965 241.04297 166.5293 C 234.84383 169.5299 224.50777 168.64865 216.9375 164.47266 C 210.9116 161.14858 210.54413 157.66027 215.58008 151.55078 C 218.1503 148.43266 219.7663 147.38493 223.83203 147.4707 z M 141.94336 149.0957 C 143.49046 149.15396 144.40069 149.53459 145.95117 150.28516 C 148.08374 151.31753 149.66001 152.82262 150.53906 154.66602 C 153.2992 160.45406 151.90622 163.27323 144.68555 166.51367 C 138.24722 169.40302 132.14804 169.85817 126.56641 167.86719 C 119.27803 165.2674 117.4562 161.70168 120.45312 155.90625 C 122.4038 152.13406 124.8248 151.05906 134.11328 149.83984 C 138.21122 149.30195 140.39626 149.03745 141.94336 149.0957 z M 271.07031 151.06445 C 272.30639 151.06445 272.66016 151.59316 272.66016 153.44727 C 272.66016 155.30138 272.30639 155.83203 271.07031 155.83203 C 269.83424 155.83203 269.48242 155.30138 269.48242 153.44727 C 269.48242 151.59316 269.83424 151.06445 271.07031 151.06445 z M 229.11914 153.61523 C 225.56865 153.45525 222.61829 158.12025 225.39453 160.89648 C 226.8063 162.30825 230.17493 162.63586 230.91797 161.43359 C 231.17452 161.01848 230.65976 160.29075 229.77344 159.81641 C 227.50887 158.60444 227.77068 156.74225 230.34766 155.72656 L 232.53125 154.86523 L 230.66406 153.99805 C 230.14736 153.75866 229.62635 153.63809 229.11914 153.61523 z M 135.60742 154.24219 C 131.97961 154.24219 129.72147 157.23542 131.08789 160.23438 C 131.81875 161.83844 132.5506 162.18945 135.17383 162.18945 C 138.3315 162.18945 139.48812 160.97837 137.17773 160.0918 C 136.52217 159.84023 135.98633 158.95819 135.98633 158.13086 C 135.98633 157.30355 136.52217 156.62695 137.17773 156.62695 C 137.83329 156.62695 138.36914 156.08915 138.36914 155.43359 C 138.36914 154.60265 137.53354 154.24219 135.60742 154.24219 z M 200.25977 194.76758 C 197.92119 194.76758 201.27722 200.10249 207.17969 205.76758 C 211.55661 209.96847 212.63558 212.43898 211.50586 215.67969 C 211.0517 216.98252 210.67969 218.74066 210.67969 219.58594 C 210.67969 220.46042 211.10866 220.98134 211.67383 220.79492 C 213.28989 220.26189 214.62839 216.86099 214.64062 213.25781 C 214.65147 210.14313 214.14701 209.33468 207.80859 202.33008 C 204.04454 198.17042 200.64759 194.76758 200.25977 194.76758 z M 163.73242 196.35742 C 162.51759 196.35742 153.79821 204.88023 151.84961 207.97266 C 149.84313 211.15696 149.70228 218.2312 151.60352 220.33203 C 153.03341 221.91206 155.05664 222.28177 155.05664 220.96289 C 155.05664 220.51048 154.47505 219.25171 153.76367 218.16602 C 151.58394 214.83933 152.77992 211.1277 157.69141 205.97852 C 162.25181 201.19741 165.29068 196.35742 163.73242 196.35742 z M 199.67969 211.45508 C 195.25816 211.45508 194.82357 211.64012 190.61133 215.32617 C 183.65656 221.41214 179.58178 221.4438 172.78711 215.46289 C 168.67322 211.8417 165.6931 210.96797 161.81445 212.24805 C 157.41878 213.69874 158.30608 215.18416 163.80664 215.58203 C 167.78192 215.86958 169.01432 216.33599 171.15625 218.35547 C 172.57177 219.69006 174.44623 221.17495 175.32031 221.65625 C 177.58334 222.90235 185.73212 222.78283 188.27148 221.4668 C 189.45165 220.85517 191.38889 219.26265 192.57617 217.92773 C 194.20592 216.09535 195.90982 215.25931 199.5293 214.51172 C 205.93748 213.18813 206.02284 211.45508 199.67969 211.45508 z M 225.05469 221.82422 C 224.46909 221.82013 224.18945 222.03247 224.18945 222.45703 C 224.18945 223.87126 227.30422 225.83437 232.5957 227.75586 C 239.90688 230.41075 247.2218 230.20828 253.78711 227.16797 C 258.07308 225.18319 259.73331 223.375 257.26758 223.375 C 256.66781 223.375 253.35885 224.29873 249.91602 225.42969 C 244.15737 227.32137 243.30766 227.41039 239.28711 226.52344 C 236.88338 225.99316 232.99338 224.70959 230.64453 223.67188 C 227.85408 222.43904 226.03069 221.83103 225.05469 221.82422 z M 140.66406 221.85352 C 139.50779 221.86766 136.97752 222.78062 132.64648 224.68555 C 124.43373 228.29778 120.69311 228.75629 114.06055 226.96094 C 111.22159 226.19244 108.64654 225.82452 108.33789 226.14453 C 107.66817 226.83888 110.61784 228.96752 114.05273 230.26758 C 118.05328 231.78176 123.25875 231.45409 129.7832 229.28125 C 136.05637 227.1921 140.77682 224.5397 141.35547 222.77734 C 141.55848 222.15906 141.35783 221.84503 140.66406 221.85352 z M 196.37695 248.80664 C 194.84733 248.83479 191.5513 249.3481 189.05273 249.94531 C 185.96404 250.68359 183.54773 250.80653 181.50391 250.33203 C 176.49482 249.1691 169.9512 249.50704 163.32812 251.26953 C 159.57825 252.26744 154.55881 252.95066 150.88477 252.96289 C 144.3999 252.9855 142.98613 253.81638 147.30859 255.06445 C 151.25278 256.20329 155.69089 256.0591 161.81055 254.59375 C 165.57546 253.69225 171.09579 253.23706 178.89453 253.18555 C 185.23161 253.14368 191.78912 252.80343 193.46484 252.42969 C 196.36343 251.7832 200.72976 252.26168 212.10352 254.4707 C 216.17106 255.2607 222.59961 254.78245 222.59961 253.68945 C 222.59961 252.97015 199.89322 248.74194 196.37695 248.80664 z M 202.01367 263.41406 C 200.85704 263.47254 199.2233 263.76523 197.16406 264.29883 C 190.65517 265.98546 179.42635 266.17119 170.77344 264.73633 C 166.9622 264.10441 163.58884 263.8428 163.27734 264.1543 C 162.19866 265.23296 164.30626 266.29406 169.80078 267.44141 C 179.56458 269.48023 201.15752 267.94942 203.56641 265.04688 C 204.54245 263.87082 203.9414 263.31661 202.01367 263.41406 z M 223.86523 309.25391 C 223.18809 309.28326 222.27474 309.82482 221.33203 310.86914 C 218.98916 313.46452 209.9222 317.70247 204.26367 318.8457 C 201.09362 319.48617 193.4342 319.86268 184.06055 319.83984 C 166.49915 319.79718 161.38744 318.85951 151.94922 313.94922 C 145.89621 310.80009 143.93164 310.18407 143.93164 311.4375 C 143.93164 312.66821 147.50032 315.38895 152.72266 318.13867 C 157.40497 320.60408 158.98865 320.97938 168.21875 321.82227 C 173.8728 322.33859 180.46541 322.88074 182.86914 323.02539 C 188.4396 323.36057 200.28189 322.7564 205.82227 321.85547 C 213.86637 320.5474 224.98242 314.08167 224.98242 310.71094 C 224.98242 309.70749 224.54238 309.22455 223.86523 309.25391 z "
         transform="matrix(0.73569535,0,0,0.73569535,-22.86622,7.5920242)"
         id="path2481" />
    </g>
    <g
       id="g2532"
       transform="matrix(0.35963709,0,0,0.35963709,8.2235408,-2.7303735)" />
    <g
       transform="matrix(0.35963709,0,0,0.35963709,8.2235408,-2.7303735)"
       id="g7110"
       style="display:inline" />
  </g>
  <g
     id="g2457"
     inkscape:groupmode="layer"
     inkscape:label="Drill"
     style="display:inline" />
</svg>
