G04 #@! TF.GenerationSoftware,KiCad,Pcbnew,(5.1.2)-1*
G04 #@! TF.CreationDate,2019-07-10T22:33:53-05:00*
G04 #@! TF.ProjectId,hank-hill-sao,68616e6b-2d68-4696-9c6c-2d73616f2e6b,rev?*
G04 #@! TF.SameCoordinates,Original*
G04 #@! TF.FileFunction,Copper,L1,Top*
G04 #@! TF.FilePolarity,Positive*
%FSLAX46Y46*%
G04 Gerber Fmt 4.6, Leading zero omitted, Abs format (unit mm)*
G04 Created by KiCad (PCBNEW (5.1.2)-1) date 2019-07-10 22:33:53*
%MOMM*%
%LPD*%
G04 APERTURE LIST*
%ADD10C,0.010000*%
%ADD11C,1.727200*%
%ADD12O,1.727200X1.727200*%
%ADD13R,1.727200X1.727200*%
G04 APERTURE END LIST*
D10*
G36*
X-7313693Y47212700D02*
G01*
X-7185058Y47200261D01*
X-7048095Y47179118D01*
X-6900621Y47148951D01*
X-6740458Y47109440D01*
X-6565424Y47060266D01*
X-6373339Y47001110D01*
X-6162022Y46931651D01*
X-5998536Y46875706D01*
X-5895172Y46840098D01*
X-5793140Y46805398D01*
X-5696558Y46772975D01*
X-5609542Y46744194D01*
X-5536211Y46720423D01*
X-5480681Y46703030D01*
X-5461000Y46697188D01*
X-5319527Y46660163D01*
X-5193099Y46635996D01*
X-5076977Y46625202D01*
X-4966425Y46628298D01*
X-4856703Y46645799D01*
X-4743075Y46678222D01*
X-4620802Y46726084D01*
X-4485146Y46789899D01*
X-4450860Y46807243D01*
X-4322287Y46872905D01*
X-4213842Y46928033D01*
X-4123098Y46973779D01*
X-4047628Y47011293D01*
X-3985006Y47041725D01*
X-3932805Y47066225D01*
X-3888600Y47085945D01*
X-3849964Y47102034D01*
X-3814469Y47115643D01*
X-3779691Y47127921D01*
X-3761845Y47133911D01*
X-3677307Y47159243D01*
X-3591347Y47179179D01*
X-3501833Y47193626D01*
X-3406631Y47202493D01*
X-3303610Y47205689D01*
X-3190637Y47203121D01*
X-3065580Y47194697D01*
X-2926305Y47180326D01*
X-2770681Y47159916D01*
X-2596575Y47133374D01*
X-2401855Y47100611D01*
X-2216150Y47067363D01*
X-1999778Y47028720D01*
X-1803229Y46995768D01*
X-1621725Y46967878D01*
X-1450491Y46944418D01*
X-1284747Y46924760D01*
X-1119718Y46908272D01*
X-950624Y46894325D01*
X-850900Y46887291D01*
X-752232Y46882199D01*
X-644606Y46879217D01*
X-532476Y46878244D01*
X-420297Y46879178D01*
X-312522Y46881918D01*
X-213606Y46886361D01*
X-128003Y46892407D01*
X-60167Y46899953D01*
X-25400Y46906128D01*
X4801Y46913216D01*
X56551Y46925633D01*
X126739Y46942621D01*
X212255Y46963424D01*
X309986Y46987284D01*
X416822Y47013442D01*
X529652Y47041143D01*
X576538Y47052676D01*
X716162Y47086865D01*
X834131Y47115143D01*
X933398Y47137881D01*
X1016917Y47155452D01*
X1087643Y47168228D01*
X1148530Y47176582D01*
X1202531Y47180885D01*
X1252602Y47181510D01*
X1301697Y47178829D01*
X1352769Y47173216D01*
X1408773Y47165041D01*
X1434923Y47160861D01*
X1581520Y47133134D01*
X1735654Y47096032D01*
X1899422Y47048840D01*
X2074923Y46990844D01*
X2264257Y46921330D01*
X2469523Y46839584D01*
X2692818Y46744893D01*
X2812258Y46692302D01*
X3025274Y46598906D01*
X3218151Y46517441D01*
X3392785Y46447205D01*
X3551070Y46387496D01*
X3694903Y46337613D01*
X3826181Y46296852D01*
X3946798Y46264512D01*
X4003011Y46251433D01*
X4120618Y46231385D01*
X4240059Y46221708D01*
X4354783Y46222415D01*
X4458241Y46233521D01*
X4529777Y46250303D01*
X4629234Y46292086D01*
X4730237Y46353861D01*
X4826626Y46431422D01*
X4893175Y46498526D01*
X4965321Y46568376D01*
X5047156Y46626314D01*
X5140912Y46673005D01*
X5248821Y46709118D01*
X5373112Y46735317D01*
X5516018Y46752270D01*
X5679771Y46760643D01*
X5774723Y46761828D01*
X6082371Y46749904D01*
X6385410Y46713158D01*
X6685501Y46651358D01*
X6822099Y46614715D01*
X7001807Y46558594D01*
X7164983Y46497565D01*
X7320474Y46427775D01*
X7477126Y46345374D01*
X7584423Y46282828D01*
X7783839Y46177268D01*
X7991790Y46095559D01*
X8207543Y46037899D01*
X8430365Y46004489D01*
X8636000Y45995317D01*
X8766600Y45999198D01*
X8876237Y46010642D01*
X8968546Y46030887D01*
X9047165Y46061170D01*
X9115729Y46102730D01*
X9177873Y46156803D01*
X9208841Y46190255D01*
X9246142Y46230455D01*
X9282894Y46265623D01*
X9311809Y46288839D01*
X9314445Y46290517D01*
X9403855Y46331547D01*
X9512341Y46358426D01*
X9638274Y46371713D01*
X9780022Y46371968D01*
X9935957Y46359753D01*
X10104449Y46335627D01*
X10283867Y46300151D01*
X10472583Y46253884D01*
X10668967Y46197388D01*
X10871388Y46131221D01*
X11078217Y46055945D01*
X11287824Y45972121D01*
X11498580Y45880307D01*
X11708855Y45781064D01*
X11917018Y45674953D01*
X12121441Y45562534D01*
X12320493Y45444367D01*
X12512545Y45321012D01*
X12695967Y45193030D01*
X12852400Y45074290D01*
X12899118Y45035473D01*
X12958782Y44983138D01*
X13026434Y44921792D01*
X13097120Y44855936D01*
X13165883Y44790076D01*
X13176250Y44779963D01*
X13292860Y44667352D01*
X13395420Y44571749D01*
X13486582Y44491030D01*
X13569000Y44423067D01*
X13645329Y44365737D01*
X13718221Y44316912D01*
X13790329Y44274467D01*
X13839847Y44248378D01*
X13938064Y44201789D01*
X14029569Y44165611D01*
X14120595Y44138315D01*
X14217370Y44118372D01*
X14326127Y44104255D01*
X14453096Y44094433D01*
X14471650Y44093371D01*
X14551928Y44088137D01*
X14629517Y44081655D01*
X14698349Y44074536D01*
X14752353Y44067388D01*
X14779165Y44062448D01*
X14853787Y44042347D01*
X14926350Y44016484D01*
X14998062Y43983700D01*
X15070130Y43942837D01*
X15143762Y43892736D01*
X15220167Y43832238D01*
X15300552Y43760185D01*
X15386124Y43675417D01*
X15478093Y43576776D01*
X15577665Y43463104D01*
X15686049Y43333241D01*
X15804452Y43186028D01*
X15934083Y43020307D01*
X16076150Y42834920D01*
X16122658Y42773600D01*
X16283167Y42563231D01*
X16432514Y42371311D01*
X16573249Y42194911D01*
X16707928Y42031104D01*
X16839103Y41876960D01*
X16969327Y41729551D01*
X17101155Y41585949D01*
X17237138Y41443225D01*
X17379830Y41298451D01*
X17531785Y41148698D01*
X17580730Y41101232D01*
X17706050Y40982564D01*
X17820798Y40879506D01*
X17930176Y40787759D01*
X18039385Y40703025D01*
X18153629Y40621004D01*
X18201462Y40588289D01*
X18308129Y40515029D01*
X18397829Y40450347D01*
X18475598Y40390127D01*
X18546470Y40330257D01*
X18615480Y40266620D01*
X18687664Y40195102D01*
X18707628Y40174652D01*
X18794458Y40081412D01*
X18877550Y39983858D01*
X18959118Y39878864D01*
X19041377Y39763304D01*
X19126543Y39634051D01*
X19216829Y39487978D01*
X19314453Y39321960D01*
X19326219Y39301500D01*
X19376302Y39211750D01*
X19435979Y39100481D01*
X19504454Y38969353D01*
X19580931Y38820023D01*
X19664615Y38654153D01*
X19754707Y38473399D01*
X19850413Y38279421D01*
X19950936Y38073877D01*
X20055480Y37858428D01*
X20163248Y37634731D01*
X20273445Y37404446D01*
X20385273Y37169231D01*
X20497937Y36930745D01*
X20610641Y36690648D01*
X20722588Y36450597D01*
X20832981Y36212253D01*
X20941026Y35977273D01*
X21045925Y35747317D01*
X21146882Y35524044D01*
X21243101Y35309112D01*
X21250137Y35293300D01*
X21425658Y34893882D01*
X21588750Y34512093D01*
X21739963Y34145690D01*
X21879848Y33792429D01*
X22008954Y33450066D01*
X22127832Y33116359D01*
X22237030Y32789063D01*
X22337100Y32465935D01*
X22428591Y32144731D01*
X22512053Y31823207D01*
X22588036Y31499120D01*
X22657089Y31170227D01*
X22719764Y30834283D01*
X22776610Y30489046D01*
X22828177Y30132271D01*
X22875014Y29761715D01*
X22917672Y29375134D01*
X22956701Y28970284D01*
X22992651Y28544923D01*
X23026071Y28096806D01*
X23030802Y28028900D01*
X23043763Y27836294D01*
X23057023Y27629196D01*
X23070620Y27406839D01*
X23084595Y27168458D01*
X23098987Y26913285D01*
X23113834Y26640552D01*
X23129175Y26349494D01*
X23145051Y26039342D01*
X23161499Y25709330D01*
X23178559Y25358691D01*
X23196271Y24986659D01*
X23214673Y24592465D01*
X23233804Y24175343D01*
X23253704Y23734526D01*
X23274412Y23269247D01*
X23278744Y23171150D01*
X23301973Y22639422D01*
X23323739Y22130448D01*
X23344133Y21641631D01*
X23363248Y21170371D01*
X23381175Y20714073D01*
X23398007Y20270136D01*
X23413834Y19835964D01*
X23428749Y19408959D01*
X23442844Y18986522D01*
X23456210Y18566055D01*
X23468938Y18144961D01*
X23481122Y17720641D01*
X23492853Y17290498D01*
X23504221Y16851933D01*
X23509593Y16637000D01*
X23512607Y16499183D01*
X23515300Y16344223D01*
X23517670Y16174428D01*
X23519719Y15992106D01*
X23521445Y15799565D01*
X23522849Y15599113D01*
X23523929Y15393058D01*
X23524685Y15183707D01*
X23525117Y14973369D01*
X23525224Y14764352D01*
X23525007Y14558964D01*
X23524464Y14359512D01*
X23523595Y14168305D01*
X23522400Y13987651D01*
X23520879Y13819857D01*
X23519030Y13667232D01*
X23516854Y13532083D01*
X23514350Y13416718D01*
X23511518Y13323446D01*
X23510192Y13290550D01*
X23497611Y13037171D01*
X23483427Y12808541D01*
X23467556Y12604055D01*
X23449917Y12423110D01*
X23430426Y12265100D01*
X23409002Y12129420D01*
X23385561Y12015466D01*
X23360020Y11922632D01*
X23332298Y11850314D01*
X23307043Y11804650D01*
X23282748Y11772844D01*
X23246473Y11730307D01*
X23204354Y11684111D01*
X23183850Y11662701D01*
X23129463Y11610796D01*
X23083834Y11577814D01*
X23041583Y11561575D01*
X22997331Y11559900D01*
X22952118Y11568834D01*
X22925274Y11577217D01*
X22897379Y11588678D01*
X22867246Y11604262D01*
X22833692Y11625016D01*
X22795530Y11651986D01*
X22751577Y11686218D01*
X22700647Y11728757D01*
X22641554Y11780650D01*
X22573115Y11842944D01*
X22494143Y11916683D01*
X22403454Y12002914D01*
X22299863Y12102683D01*
X22182185Y12217037D01*
X22049234Y12347020D01*
X21899825Y12493680D01*
X21859875Y12532964D01*
X21196300Y13185634D01*
X21196300Y13259967D01*
X21195857Y13280377D01*
X21194566Y13324664D01*
X21192478Y13391320D01*
X21189646Y13478836D01*
X21186122Y13585707D01*
X21181959Y13710423D01*
X21177209Y13851478D01*
X21171924Y14007363D01*
X21166158Y14176572D01*
X21159962Y14357596D01*
X21153390Y14548928D01*
X21146493Y14749060D01*
X21139323Y14956486D01*
X21131935Y15169696D01*
X21124379Y15387184D01*
X21116709Y15607442D01*
X21108977Y15828962D01*
X21101235Y16050237D01*
X21093536Y16269759D01*
X21085933Y16486021D01*
X21078477Y16697515D01*
X21071221Y16902733D01*
X21064218Y17100167D01*
X21057521Y17288311D01*
X21051181Y17465656D01*
X21045251Y17630696D01*
X21039784Y17781921D01*
X21034832Y17917825D01*
X21030448Y18036901D01*
X21026684Y18137640D01*
X21024831Y18186400D01*
X21001369Y18770345D01*
X20976573Y19331842D01*
X20950458Y19870748D01*
X20923040Y20386919D01*
X20894333Y20880212D01*
X20864353Y21350482D01*
X20833114Y21797585D01*
X20800632Y22221378D01*
X20766921Y22621716D01*
X20731997Y22998456D01*
X20695874Y23351453D01*
X20658568Y23680565D01*
X20620093Y23985646D01*
X20580465Y24266553D01*
X20539698Y24523143D01*
X20497808Y24755271D01*
X20454809Y24962793D01*
X20410717Y25145565D01*
X20365546Y25303444D01*
X20319312Y25436285D01*
X20272029Y25543946D01*
X20254029Y25577800D01*
X20221335Y25634312D01*
X20179408Y25704135D01*
X20127834Y25787909D01*
X20066197Y25886277D01*
X19994084Y25999881D01*
X19911079Y26129363D01*
X19816768Y26275364D01*
X19710735Y26438527D01*
X19592568Y26619493D01*
X19461849Y26818904D01*
X19318166Y27037401D01*
X19161104Y27275628D01*
X18990247Y27534226D01*
X18982261Y27546300D01*
X18770134Y27867881D01*
X18572017Y28170027D01*
X18387159Y28453972D01*
X18214810Y28720952D01*
X18054219Y28972202D01*
X17904635Y29208957D01*
X17765308Y29432452D01*
X17635485Y29643923D01*
X17514416Y29844604D01*
X17401351Y30035730D01*
X17295539Y30218536D01*
X17196228Y30394258D01*
X17102668Y30564130D01*
X17014108Y30729389D01*
X16929797Y30891267D01*
X16848984Y31051002D01*
X16837531Y31074021D01*
X16786428Y31175659D01*
X16734742Y31276108D01*
X16684517Y31371563D01*
X16637795Y31458220D01*
X16596620Y31532276D01*
X16563034Y31589925D01*
X16545171Y31618423D01*
X16429824Y31774218D01*
X16302684Y31910883D01*
X16173450Y32020382D01*
X16104435Y32066651D01*
X16015875Y32117968D01*
X15912526Y32172000D01*
X15799147Y32226412D01*
X15680495Y32278871D01*
X15561328Y32327042D01*
X15506700Y32347464D01*
X15423892Y32378067D01*
X15331736Y32412970D01*
X15241054Y32448028D01*
X15162668Y32479098D01*
X15157450Y32481208D01*
X14920258Y32582291D01*
X14682340Y32693395D01*
X14445310Y32813336D01*
X14210784Y32940931D01*
X13980377Y33074994D01*
X13755705Y33214342D01*
X13538383Y33357790D01*
X13330027Y33504154D01*
X13132252Y33652250D01*
X12946674Y33800894D01*
X12774908Y33948902D01*
X12618571Y34095089D01*
X12479276Y34238271D01*
X12358640Y34377263D01*
X12258279Y34510883D01*
X12179807Y34637945D01*
X12158275Y34679698D01*
X12101385Y34796346D01*
X12063496Y35111086D01*
X12052987Y35197423D01*
X12043325Y35274986D01*
X12034955Y35340348D01*
X12028322Y35390077D01*
X12023871Y35420745D01*
X12022184Y35429249D01*
X12009695Y35426491D01*
X11975027Y35417317D01*
X11920408Y35402352D01*
X11848065Y35382219D01*
X11760223Y35357544D01*
X11659111Y35328950D01*
X11546954Y35297062D01*
X11425980Y35262506D01*
X11352906Y35241559D01*
X11216986Y35202717D01*
X11079817Y35163833D01*
X10944964Y35125897D01*
X10815992Y35089899D01*
X10696466Y35056830D01*
X10589952Y35027678D01*
X10500014Y35003436D01*
X10430219Y34985091D01*
X10419395Y34982320D01*
X10155240Y34920250D01*
X9910720Y34873592D01*
X9685284Y34842336D01*
X9478385Y34826474D01*
X9289472Y34825997D01*
X9117998Y34840895D01*
X8963413Y34871160D01*
X8825168Y34916782D01*
X8743950Y34954595D01*
X8668868Y35003538D01*
X8593344Y35069192D01*
X8524289Y35144413D01*
X8468616Y35222055D01*
X8446991Y35261550D01*
X8422120Y35313333D01*
X8397679Y35364123D01*
X8378902Y35403045D01*
X8378691Y35403480D01*
X8332755Y35473136D01*
X8267427Y35537536D01*
X8188702Y35592204D01*
X8102576Y35632664D01*
X8051263Y35647933D01*
X8013300Y35653698D01*
X7959030Y35658212D01*
X7897541Y35660819D01*
X7867650Y35661201D01*
X7729565Y35652642D01*
X7593829Y35625766D01*
X7457624Y35579509D01*
X7318136Y35512808D01*
X7172549Y35424596D01*
X7089817Y35367221D01*
X6920230Y35259379D01*
X6744320Y35175986D01*
X6562456Y35117165D01*
X6375007Y35083038D01*
X6203950Y35073534D01*
X6080413Y35078086D01*
X5971311Y35092239D01*
X5866999Y35117511D01*
X5812713Y35135108D01*
X5718620Y35172815D01*
X5635560Y35217803D01*
X5558626Y35273798D01*
X5482913Y35344520D01*
X5403516Y35433692D01*
X5377775Y35465182D01*
X5301845Y35551711D01*
X5232160Y35614480D01*
X5167914Y35654131D01*
X5121029Y35669430D01*
X5064831Y35673863D01*
X4993378Y35670637D01*
X4915319Y35660677D01*
X4839303Y35644909D01*
X4806950Y35635820D01*
X4772947Y35624280D01*
X4719055Y35604762D01*
X4648989Y35578668D01*
X4566463Y35547398D01*
X4475193Y35512355D01*
X4378895Y35474941D01*
X4337050Y35458545D01*
X4156202Y35388075D01*
X3996533Y35327214D01*
X3855972Y35275342D01*
X3732446Y35231842D01*
X3623886Y35196094D01*
X3528219Y35167481D01*
X3443374Y35145385D01*
X3367280Y35129187D01*
X3297864Y35118268D01*
X3233056Y35112011D01*
X3170784Y35109797D01*
X3168650Y35109785D01*
X3103407Y35110184D01*
X3056741Y35112731D01*
X3021852Y35118408D01*
X2991945Y35128198D01*
X2969183Y35138588D01*
X2918106Y35169025D01*
X2874090Y35207993D01*
X2835308Y35258566D01*
X2799930Y35323817D01*
X2766128Y35406821D01*
X2732073Y35510652D01*
X2716736Y35563035D01*
X2675779Y35694879D01*
X2634500Y35803151D01*
X2592057Y35889674D01*
X2547608Y35956271D01*
X2521689Y35985379D01*
X2458492Y36034814D01*
X2389846Y36061136D01*
X2314026Y36064509D01*
X2229309Y36045100D01*
X2166812Y36019479D01*
X2119256Y35995118D01*
X2070563Y35965845D01*
X2018811Y35930010D01*
X1962083Y35885966D01*
X1898459Y35832067D01*
X1826020Y35766663D01*
X1742847Y35688109D01*
X1647020Y35594755D01*
X1536620Y35484956D01*
X1492250Y35440390D01*
X1372154Y35320350D01*
X1266922Y35217223D01*
X1174305Y35129150D01*
X1092056Y35054271D01*
X1017926Y34990729D01*
X949667Y34936664D01*
X885031Y34890219D01*
X821770Y34849534D01*
X757636Y34812750D01*
X692150Y34778884D01*
X567824Y34722924D01*
X455113Y34684548D01*
X348798Y34662320D01*
X243663Y34654802D01*
X241602Y34654792D01*
X113994Y34665019D01*
X-4384Y34697098D01*
X-114617Y34751691D01*
X-217786Y34829456D01*
X-314975Y34931055D01*
X-399712Y35045650D01*
X-492817Y35172267D01*
X-587982Y35274033D01*
X-686045Y35351467D01*
X-787846Y35405091D01*
X-894224Y35435423D01*
X-1006021Y35442985D01*
X-1038369Y35441095D01*
X-1129220Y35428273D01*
X-1221551Y35404348D01*
X-1317900Y35368073D01*
X-1420807Y35318196D01*
X-1532813Y35253468D01*
X-1656456Y35172639D01*
X-1794278Y35074458D01*
X-1816100Y35058328D01*
X-1979239Y34944434D01*
X-2134190Y34851790D01*
X-2284364Y34779049D01*
X-2433174Y34724867D01*
X-2584029Y34687896D01*
X-2740343Y34666789D01*
X-2820732Y34661799D01*
X-2996088Y34663054D01*
X-3161990Y34682229D01*
X-3324251Y34720576D01*
X-3488686Y34779344D01*
X-3600450Y34829552D01*
X-3699599Y34880343D01*
X-3795795Y34936256D01*
X-3893752Y35000428D01*
X-3998185Y35075999D01*
X-4113806Y35166106D01*
X-4150760Y35195938D01*
X-4287120Y35304782D01*
X-4407646Y35396489D01*
X-4514215Y35472130D01*
X-4608705Y35532774D01*
X-4692995Y35579489D01*
X-4768961Y35613346D01*
X-4838481Y35635414D01*
X-4903433Y35646762D01*
X-4946152Y35648901D01*
X-4997927Y35646296D01*
X-5037432Y35636182D01*
X-5077471Y35615107D01*
X-5081924Y35612311D01*
X-5122361Y35582337D01*
X-5158307Y35545132D01*
X-5191842Y35497244D01*
X-5225048Y35435222D01*
X-5260005Y35355615D01*
X-5298793Y35254971D01*
X-5301044Y35248850D01*
X-5352060Y35130074D01*
X-5410104Y35034866D01*
X-5476938Y34961947D01*
X-5554321Y34910040D01*
X-5644014Y34877864D01*
X-5747777Y34864140D01*
X-5829622Y34864823D01*
X-5935866Y34877866D01*
X-6052598Y34906188D01*
X-6181256Y34950348D01*
X-6323279Y35010908D01*
X-6480104Y35088429D01*
X-6653170Y35183471D01*
X-6667500Y35191699D01*
X-6789391Y35260785D01*
X-6896742Y35318080D01*
X-6992721Y35363591D01*
X-7080494Y35397322D01*
X-7163228Y35419281D01*
X-7244090Y35429471D01*
X-7326246Y35427901D01*
X-7412862Y35414575D01*
X-7507106Y35389499D01*
X-7612144Y35352678D01*
X-7731143Y35304120D01*
X-7867269Y35243830D01*
X-7975600Y35194114D01*
X-8109657Y35132829D01*
X-8224262Y35082272D01*
X-8322465Y35041384D01*
X-8407316Y35009105D01*
X-8481863Y34984378D01*
X-8549155Y34966144D01*
X-8612242Y34953344D01*
X-8674173Y34944920D01*
X-8700554Y34942434D01*
X-8762304Y34939342D01*
X-8825767Y34940756D01*
X-8893356Y34947271D01*
X-8967482Y34959483D01*
X-9050559Y34977990D01*
X-9145000Y35003386D01*
X-9253216Y35036269D01*
X-9377622Y35077234D01*
X-9520629Y35126877D01*
X-9683112Y35185236D01*
X-9894760Y35261349D01*
X-10085849Y35328223D01*
X-10259131Y35386710D01*
X-10417360Y35437661D01*
X-10563285Y35481926D01*
X-10699660Y35520357D01*
X-10829236Y35553805D01*
X-10954765Y35583120D01*
X-11004550Y35593899D01*
X-11069004Y35606942D01*
X-11124561Y35616337D01*
X-11177903Y35622676D01*
X-11235711Y35626549D01*
X-11304666Y35628549D01*
X-11391451Y35629265D01*
X-11404600Y35629296D01*
X-11489109Y35629220D01*
X-11552815Y35628352D01*
X-11600314Y35626265D01*
X-11636200Y35622531D01*
X-11665069Y35616724D01*
X-11691515Y35608415D01*
X-11711338Y35600765D01*
X-11805752Y35551684D01*
X-11885203Y35485379D01*
X-11953805Y35398668D01*
X-12031168Y35297206D01*
X-12116214Y35217844D01*
X-12213221Y35157510D01*
X-12326470Y35113135D01*
X-12367843Y35101545D01*
X-12515785Y35075252D01*
X-12679127Y35068225D01*
X-12856886Y35080320D01*
X-13048078Y35111394D01*
X-13251721Y35161303D01*
X-13466830Y35229903D01*
X-13608050Y35282754D01*
X-13650892Y35300761D01*
X-13712612Y35328230D01*
X-13789325Y35363356D01*
X-13877146Y35404334D01*
X-13972189Y35449357D01*
X-14070569Y35496620D01*
X-14122400Y35521797D01*
X-14296583Y35605712D01*
X-14450148Y35677269D01*
X-14584485Y35736796D01*
X-14700983Y35784618D01*
X-14801031Y35821063D01*
X-14886016Y35846459D01*
X-14957329Y35861132D01*
X-15016357Y35865409D01*
X-15064490Y35859617D01*
X-15103116Y35844083D01*
X-15133624Y35819135D01*
X-15157403Y35785100D01*
X-15165990Y35767560D01*
X-15177833Y35737640D01*
X-15185015Y35708482D01*
X-15188192Y35673384D01*
X-15188017Y35625643D01*
X-15185575Y35567106D01*
X-15180066Y35497272D01*
X-15170351Y35413629D01*
X-15157848Y35327134D01*
X-15145246Y35255200D01*
X-15122852Y35130714D01*
X-15108709Y35027409D01*
X-15102933Y34942406D01*
X-15105638Y34872825D01*
X-15116940Y34815788D01*
X-15136954Y34768413D01*
X-15165795Y34727822D01*
X-15166367Y34727168D01*
X-15201851Y34693303D01*
X-15246896Y34663058D01*
X-15304278Y34635384D01*
X-15376771Y34609237D01*
X-15467150Y34583568D01*
X-15578190Y34557333D01*
X-15665450Y34538932D01*
X-15767614Y34519283D01*
X-15867007Y34502736D01*
X-15966913Y34489062D01*
X-16070614Y34478029D01*
X-16181392Y34469406D01*
X-16302528Y34462964D01*
X-16437305Y34458470D01*
X-16589006Y34455696D01*
X-16760912Y34454409D01*
X-16870212Y34454253D01*
X-17039032Y34454758D01*
X-17192074Y34456311D01*
X-17334361Y34459140D01*
X-17470915Y34463476D01*
X-17606760Y34469549D01*
X-17746917Y34477589D01*
X-17896411Y34487825D01*
X-18060265Y34500487D01*
X-18243500Y34515806D01*
X-18275837Y34518596D01*
X-18463588Y34534582D01*
X-18627900Y34547968D01*
X-18770593Y34558861D01*
X-18893482Y34567367D01*
X-18998385Y34573594D01*
X-19087121Y34577648D01*
X-19161505Y34579637D01*
X-19223356Y34579667D01*
X-19274491Y34577845D01*
X-19278600Y34577596D01*
X-19362262Y34570514D01*
X-19425718Y34560327D01*
X-19474108Y34545609D01*
X-19512571Y34524934D01*
X-19536452Y34506053D01*
X-19577050Y34469673D01*
X-19571920Y34325862D01*
X-19569533Y34247427D01*
X-19567444Y34158004D01*
X-19565969Y34072005D01*
X-19565570Y34036000D01*
X-19565370Y33972295D01*
X-19566923Y33926682D01*
X-19571580Y33891857D01*
X-19580689Y33860517D01*
X-19595601Y33825357D01*
X-19610146Y33794700D01*
X-19641110Y33736308D01*
X-19678330Y33674650D01*
X-19713768Y33623040D01*
X-19713888Y33622882D01*
X-19784793Y33538724D01*
X-19877307Y33444635D01*
X-19990135Y33341662D01*
X-20121979Y33230851D01*
X-20271543Y33113250D01*
X-20437531Y32989905D01*
X-20618647Y32861863D01*
X-20813595Y32730170D01*
X-20845760Y32708977D01*
X-21069871Y32564409D01*
X-21280436Y32434276D01*
X-21482548Y32315753D01*
X-21681296Y32206017D01*
X-21881772Y32102242D01*
X-22089067Y32001605D01*
X-22273762Y31916720D01*
X-22341366Y31885611D01*
X-22407255Y31853980D01*
X-22464729Y31825131D01*
X-22507084Y31802364D01*
X-22513729Y31798487D01*
X-22583503Y31751338D01*
X-22647951Y31697684D01*
X-22701563Y31642725D01*
X-22738828Y31591661D01*
X-22744775Y31580462D01*
X-22765159Y31513501D01*
X-22770598Y31431065D01*
X-22761077Y31338229D01*
X-22745700Y31270481D01*
X-22727864Y31177459D01*
X-22722312Y31070500D01*
X-22729235Y30948864D01*
X-22748827Y30811810D01*
X-22781278Y30658601D01*
X-22826782Y30488496D01*
X-22885528Y30300755D01*
X-22957710Y30094640D01*
X-23043520Y29869411D01*
X-23143148Y29624328D01*
X-23219319Y29444950D01*
X-23231210Y29417375D01*
X-23242374Y29391523D01*
X-23253297Y29366324D01*
X-23264465Y29340709D01*
X-23276366Y29313607D01*
X-23289487Y29283948D01*
X-23304313Y29250664D01*
X-23321331Y29212685D01*
X-23341029Y29168939D01*
X-23363892Y29118359D01*
X-23390407Y29059873D01*
X-23421062Y28992413D01*
X-23456343Y28914907D01*
X-23496736Y28826288D01*
X-23542727Y28725484D01*
X-23594805Y28611426D01*
X-23653455Y28483044D01*
X-23719164Y28339268D01*
X-23792419Y28179029D01*
X-23873706Y28001257D01*
X-23963512Y27804882D01*
X-24062324Y27588835D01*
X-24170628Y27352044D01*
X-24288911Y27093441D01*
X-24314132Y27038300D01*
X-24410031Y26828637D01*
X-24505211Y26620544D01*
X-24598922Y26415661D01*
X-24690415Y26215628D01*
X-24778939Y26022086D01*
X-24863744Y25836675D01*
X-24944080Y25661034D01*
X-25019196Y25496804D01*
X-25088343Y25345625D01*
X-25150771Y25209137D01*
X-25205728Y25088980D01*
X-25252466Y24986794D01*
X-25290234Y24904219D01*
X-25318281Y24842896D01*
X-25321094Y24836746D01*
X-25506097Y24432241D01*
X-25471104Y21483946D01*
X-25465652Y21022505D01*
X-25460544Y20585494D01*
X-25455773Y20171945D01*
X-25451333Y19780890D01*
X-25447217Y19411362D01*
X-25443418Y19062393D01*
X-25439930Y18733015D01*
X-25436747Y18422261D01*
X-25433862Y18129163D01*
X-25431268Y17852752D01*
X-25428959Y17592062D01*
X-25426928Y17346125D01*
X-25425169Y17113973D01*
X-25423676Y16894637D01*
X-25422442Y16687152D01*
X-25421459Y16490548D01*
X-25420723Y16303858D01*
X-25420226Y16126114D01*
X-25419962Y15956349D01*
X-25419924Y15793595D01*
X-25420105Y15636884D01*
X-25420500Y15485248D01*
X-25421102Y15337720D01*
X-25421904Y15193332D01*
X-25422899Y15051117D01*
X-25424082Y14910105D01*
X-25425445Y14769331D01*
X-25425701Y14744700D01*
X-25430001Y14381374D01*
X-25435026Y14042871D01*
X-25440806Y13728625D01*
X-25447369Y13438068D01*
X-25454745Y13170635D01*
X-25462963Y12925757D01*
X-25472052Y12702869D01*
X-25482040Y12501402D01*
X-25492957Y12320791D01*
X-25504832Y12160469D01*
X-25517695Y12019868D01*
X-25531573Y11898421D01*
X-25546496Y11795563D01*
X-25562493Y11710725D01*
X-25579594Y11643341D01*
X-25585634Y11624396D01*
X-25629613Y11512618D01*
X-25690032Y11386158D01*
X-25764982Y11247901D01*
X-25852558Y11100732D01*
X-25950852Y10947537D01*
X-26057958Y10791199D01*
X-26171970Y10634604D01*
X-26290979Y10480637D01*
X-26413080Y10332183D01*
X-26521393Y10208594D01*
X-26637648Y10087050D01*
X-26763646Y9967734D01*
X-26895894Y9853287D01*
X-27030898Y9746353D01*
X-27165167Y9649574D01*
X-27295207Y9565592D01*
X-27417527Y9497051D01*
X-27528299Y9446723D01*
X-27627209Y9417578D01*
X-27732411Y9402756D01*
X-27834150Y9403215D01*
X-27889181Y9411165D01*
X-27956125Y9433890D01*
X-28007369Y9472215D01*
X-28045615Y9529017D01*
X-28073567Y9607172D01*
X-28073666Y9607550D01*
X-28081191Y9651384D01*
X-28086978Y9716542D01*
X-28090998Y9799009D01*
X-28093221Y9894766D01*
X-28093615Y9999795D01*
X-28092151Y10110081D01*
X-28088798Y10221604D01*
X-28083526Y10330349D01*
X-28079594Y10390322D01*
X-28075233Y10449940D01*
X-28069347Y10529886D01*
X-28062305Y10625159D01*
X-28054478Y10730758D01*
X-28046236Y10841681D01*
X-28037949Y10952928D01*
X-28035519Y10985500D01*
X-28025836Y11117851D01*
X-28016943Y11245551D01*
X-28008737Y11370887D01*
X-28001118Y11496146D01*
X-27993985Y11623616D01*
X-27987237Y11755582D01*
X-27980772Y11894332D01*
X-27974489Y12042152D01*
X-27968288Y12201329D01*
X-27962068Y12374150D01*
X-27955726Y12562901D01*
X-27949163Y12769869D01*
X-27942277Y12997342D01*
X-27934967Y13247605D01*
X-27933915Y13284200D01*
X-27926599Y13542375D01*
X-27919505Y13799472D01*
X-27912621Y14056282D01*
X-27905934Y14313599D01*
X-27899433Y14572215D01*
X-27893106Y14832922D01*
X-27886941Y15096513D01*
X-27880926Y15363779D01*
X-27875050Y15635513D01*
X-27869299Y15912508D01*
X-27863662Y16195556D01*
X-27858128Y16485449D01*
X-27852685Y16782979D01*
X-27847319Y17088939D01*
X-27842021Y17404122D01*
X-27836777Y17729319D01*
X-27831576Y18065323D01*
X-27826405Y18412926D01*
X-27821254Y18772921D01*
X-27816109Y19146100D01*
X-27810960Y19533255D01*
X-27805793Y19935179D01*
X-27800598Y20352664D01*
X-27795362Y20786502D01*
X-27790074Y21237485D01*
X-27784720Y21706407D01*
X-27779291Y22194059D01*
X-27773773Y22701234D01*
X-27768155Y23228724D01*
X-27762424Y23777321D01*
X-27756569Y24347818D01*
X-27750578Y24941007D01*
X-27744439Y25557681D01*
X-27738140Y26198631D01*
X-27735465Y26473150D01*
X-27694712Y30664150D01*
X-27422615Y31426150D01*
X-27276360Y31835726D01*
X-27138381Y32222107D01*
X-27008414Y32586020D01*
X-26886196Y32928192D01*
X-26771464Y33249350D01*
X-26663954Y33550221D01*
X-26563404Y33831532D01*
X-26469549Y34094009D01*
X-26382127Y34338380D01*
X-26300875Y34565372D01*
X-26225529Y34775711D01*
X-26155825Y34970124D01*
X-26091502Y35149339D01*
X-26032295Y35314082D01*
X-25977941Y35465080D01*
X-25928177Y35603061D01*
X-25882740Y35728750D01*
X-25841366Y35842876D01*
X-25803793Y35946164D01*
X-25769756Y36039342D01*
X-25738993Y36123137D01*
X-25711241Y36198275D01*
X-25686236Y36265484D01*
X-25663715Y36325491D01*
X-25643414Y36379022D01*
X-25625071Y36426804D01*
X-25608423Y36469565D01*
X-25593205Y36508031D01*
X-25579155Y36542929D01*
X-25566009Y36574986D01*
X-25553504Y36604929D01*
X-25541378Y36633485D01*
X-25529366Y36661380D01*
X-25517206Y36689343D01*
X-25513578Y36697650D01*
X-25434912Y36869573D01*
X-25358477Y37018688D01*
X-25282308Y37147236D01*
X-25204445Y37257460D01*
X-25122925Y37351602D01*
X-25035785Y37431904D01*
X-24941063Y37500610D01*
X-24836797Y37559962D01*
X-24721025Y37612201D01*
X-24709087Y37616983D01*
X-24602315Y37666753D01*
X-24498023Y37731004D01*
X-24394691Y37811232D01*
X-24290796Y37908937D01*
X-24184817Y38025616D01*
X-24075232Y38162767D01*
X-23960520Y38321887D01*
X-23895891Y38417500D01*
X-23836080Y38508826D01*
X-23777305Y38600911D01*
X-23718374Y38695845D01*
X-23658095Y38795718D01*
X-23595276Y38902619D01*
X-23528725Y39018637D01*
X-23457250Y39145862D01*
X-23379657Y39286384D01*
X-23294756Y39442292D01*
X-23201355Y39615675D01*
X-23098260Y39808623D01*
X-23044477Y39909750D01*
X-22934247Y40116814D01*
X-22834695Y40302706D01*
X-22744940Y40468877D01*
X-22664105Y40616774D01*
X-22591311Y40747848D01*
X-22525679Y40863547D01*
X-22466332Y40965319D01*
X-22412391Y41054615D01*
X-22362977Y41132881D01*
X-22317212Y41201569D01*
X-22274217Y41262125D01*
X-22233114Y41316000D01*
X-22193025Y41364642D01*
X-22153071Y41409500D01*
X-22112374Y41452023D01*
X-22104784Y41459659D01*
X-22040523Y41520282D01*
X-21976690Y41571796D01*
X-21910034Y41615472D01*
X-21837303Y41652581D01*
X-21755246Y41684397D01*
X-21660611Y41712189D01*
X-21550148Y41737229D01*
X-21420606Y41760790D01*
X-21278850Y41782677D01*
X-21100908Y41809883D01*
X-20945400Y41836859D01*
X-20809383Y41864489D01*
X-20689915Y41893658D01*
X-20584056Y41925249D01*
X-20488862Y41960148D01*
X-20401392Y41999238D01*
X-20318704Y42043404D01*
X-20237856Y42093531D01*
X-20232088Y42097354D01*
X-20158839Y42150164D01*
X-20087240Y42210725D01*
X-20014484Y42281958D01*
X-19937763Y42366789D01*
X-19854269Y42468141D01*
X-19765458Y42583268D01*
X-19663540Y42716407D01*
X-19551998Y42858060D01*
X-19432342Y43006536D01*
X-19306082Y43160143D01*
X-19174730Y43317191D01*
X-19039796Y43475987D01*
X-18902791Y43634840D01*
X-18765224Y43792058D01*
X-18628608Y43945951D01*
X-18494452Y44094826D01*
X-18364266Y44236991D01*
X-18239563Y44370757D01*
X-18121851Y44494430D01*
X-18012643Y44606319D01*
X-17913447Y44704733D01*
X-17825776Y44787980D01*
X-17751139Y44854369D01*
X-17701417Y44894518D01*
X-17623376Y44949952D01*
X-17547450Y44995466D01*
X-17470732Y45031478D01*
X-17390311Y45058402D01*
X-17303281Y45076656D01*
X-17206731Y45086657D01*
X-17097753Y45088819D01*
X-16973439Y45083561D01*
X-16830880Y45071297D01*
X-16667168Y45052445D01*
X-16630650Y45047795D01*
X-16442511Y45024758D01*
X-16275885Y45007296D01*
X-16127496Y44995445D01*
X-15994069Y44989237D01*
X-15872328Y44988709D01*
X-15758999Y44993894D01*
X-15650806Y45004828D01*
X-15544473Y45021545D01*
X-15436724Y45044081D01*
X-15367000Y45061188D01*
X-15294776Y45081035D01*
X-15222154Y45103793D01*
X-15146199Y45130686D01*
X-15063972Y45162939D01*
X-14972538Y45201777D01*
X-14868959Y45248424D01*
X-14750298Y45304105D01*
X-14613617Y45370043D01*
X-14541500Y45405327D01*
X-14220278Y45560257D01*
X-13909956Y45704318D01*
X-13611384Y45837211D01*
X-13325414Y45958633D01*
X-13052896Y46068285D01*
X-12794679Y46165865D01*
X-12551615Y46251073D01*
X-12324553Y46323607D01*
X-12114345Y46383168D01*
X-11921840Y46429453D01*
X-11747890Y46462163D01*
X-11593343Y46480996D01*
X-11487150Y46485857D01*
X-11410430Y46484776D01*
X-11351711Y46479008D01*
X-11303704Y46466173D01*
X-11259114Y46443890D01*
X-11210650Y46409777D01*
X-11180441Y46385713D01*
X-11072533Y46312688D01*
X-10951036Y46258706D01*
X-10815305Y46223688D01*
X-10664695Y46207556D01*
X-10498562Y46210231D01*
X-10316262Y46231633D01*
X-10163467Y46261047D01*
X-10042887Y46290087D01*
X-9921562Y46324247D01*
X-9796602Y46364643D01*
X-9665118Y46412390D01*
X-9524221Y46468604D01*
X-9371022Y46534401D01*
X-9202631Y46610895D01*
X-9016159Y46699204D01*
X-8966200Y46723344D01*
X-8804710Y46801194D01*
X-8663095Y46868359D01*
X-8538715Y46925918D01*
X-8428933Y46974948D01*
X-8331111Y47016526D01*
X-8242611Y47051730D01*
X-8160795Y47081638D01*
X-8083023Y47107328D01*
X-8006659Y47129876D01*
X-7929064Y47150362D01*
X-7908263Y47155508D01*
X-7788561Y47181799D01*
X-7671433Y47200984D01*
X-7554700Y47212742D01*
X-7436180Y47216753D01*
X-7313693Y47212700D01*
X-7313693Y47212700D01*
G37*
X-7313693Y47212700D02*
X-7185058Y47200261D01*
X-7048095Y47179118D01*
X-6900621Y47148951D01*
X-6740458Y47109440D01*
X-6565424Y47060266D01*
X-6373339Y47001110D01*
X-6162022Y46931651D01*
X-5998536Y46875706D01*
X-5895172Y46840098D01*
X-5793140Y46805398D01*
X-5696558Y46772975D01*
X-5609542Y46744194D01*
X-5536211Y46720423D01*
X-5480681Y46703030D01*
X-5461000Y46697188D01*
X-5319527Y46660163D01*
X-5193099Y46635996D01*
X-5076977Y46625202D01*
X-4966425Y46628298D01*
X-4856703Y46645799D01*
X-4743075Y46678222D01*
X-4620802Y46726084D01*
X-4485146Y46789899D01*
X-4450860Y46807243D01*
X-4322287Y46872905D01*
X-4213842Y46928033D01*
X-4123098Y46973779D01*
X-4047628Y47011293D01*
X-3985006Y47041725D01*
X-3932805Y47066225D01*
X-3888600Y47085945D01*
X-3849964Y47102034D01*
X-3814469Y47115643D01*
X-3779691Y47127921D01*
X-3761845Y47133911D01*
X-3677307Y47159243D01*
X-3591347Y47179179D01*
X-3501833Y47193626D01*
X-3406631Y47202493D01*
X-3303610Y47205689D01*
X-3190637Y47203121D01*
X-3065580Y47194697D01*
X-2926305Y47180326D01*
X-2770681Y47159916D01*
X-2596575Y47133374D01*
X-2401855Y47100611D01*
X-2216150Y47067363D01*
X-1999778Y47028720D01*
X-1803229Y46995768D01*
X-1621725Y46967878D01*
X-1450491Y46944418D01*
X-1284747Y46924760D01*
X-1119718Y46908272D01*
X-950624Y46894325D01*
X-850900Y46887291D01*
X-752232Y46882199D01*
X-644606Y46879217D01*
X-532476Y46878244D01*
X-420297Y46879178D01*
X-312522Y46881918D01*
X-213606Y46886361D01*
X-128003Y46892407D01*
X-60167Y46899953D01*
X-25400Y46906128D01*
X4801Y46913216D01*
X56551Y46925633D01*
X126739Y46942621D01*
X212255Y46963424D01*
X309986Y46987284D01*
X416822Y47013442D01*
X529652Y47041143D01*
X576538Y47052676D01*
X716162Y47086865D01*
X834131Y47115143D01*
X933398Y47137881D01*
X1016917Y47155452D01*
X1087643Y47168228D01*
X1148530Y47176582D01*
X1202531Y47180885D01*
X1252602Y47181510D01*
X1301697Y47178829D01*
X1352769Y47173216D01*
X1408773Y47165041D01*
X1434923Y47160861D01*
X1581520Y47133134D01*
X1735654Y47096032D01*
X1899422Y47048840D01*
X2074923Y46990844D01*
X2264257Y46921330D01*
X2469523Y46839584D01*
X2692818Y46744893D01*
X2812258Y46692302D01*
X3025274Y46598906D01*
X3218151Y46517441D01*
X3392785Y46447205D01*
X3551070Y46387496D01*
X3694903Y46337613D01*
X3826181Y46296852D01*
X3946798Y46264512D01*
X4003011Y46251433D01*
X4120618Y46231385D01*
X4240059Y46221708D01*
X4354783Y46222415D01*
X4458241Y46233521D01*
X4529777Y46250303D01*
X4629234Y46292086D01*
X4730237Y46353861D01*
X4826626Y46431422D01*
X4893175Y46498526D01*
X4965321Y46568376D01*
X5047156Y46626314D01*
X5140912Y46673005D01*
X5248821Y46709118D01*
X5373112Y46735317D01*
X5516018Y46752270D01*
X5679771Y46760643D01*
X5774723Y46761828D01*
X6082371Y46749904D01*
X6385410Y46713158D01*
X6685501Y46651358D01*
X6822099Y46614715D01*
X7001807Y46558594D01*
X7164983Y46497565D01*
X7320474Y46427775D01*
X7477126Y46345374D01*
X7584423Y46282828D01*
X7783839Y46177268D01*
X7991790Y46095559D01*
X8207543Y46037899D01*
X8430365Y46004489D01*
X8636000Y45995317D01*
X8766600Y45999198D01*
X8876237Y46010642D01*
X8968546Y46030887D01*
X9047165Y46061170D01*
X9115729Y46102730D01*
X9177873Y46156803D01*
X9208841Y46190255D01*
X9246142Y46230455D01*
X9282894Y46265623D01*
X9311809Y46288839D01*
X9314445Y46290517D01*
X9403855Y46331547D01*
X9512341Y46358426D01*
X9638274Y46371713D01*
X9780022Y46371968D01*
X9935957Y46359753D01*
X10104449Y46335627D01*
X10283867Y46300151D01*
X10472583Y46253884D01*
X10668967Y46197388D01*
X10871388Y46131221D01*
X11078217Y46055945D01*
X11287824Y45972121D01*
X11498580Y45880307D01*
X11708855Y45781064D01*
X11917018Y45674953D01*
X12121441Y45562534D01*
X12320493Y45444367D01*
X12512545Y45321012D01*
X12695967Y45193030D01*
X12852400Y45074290D01*
X12899118Y45035473D01*
X12958782Y44983138D01*
X13026434Y44921792D01*
X13097120Y44855936D01*
X13165883Y44790076D01*
X13176250Y44779963D01*
X13292860Y44667352D01*
X13395420Y44571749D01*
X13486582Y44491030D01*
X13569000Y44423067D01*
X13645329Y44365737D01*
X13718221Y44316912D01*
X13790329Y44274467D01*
X13839847Y44248378D01*
X13938064Y44201789D01*
X14029569Y44165611D01*
X14120595Y44138315D01*
X14217370Y44118372D01*
X14326127Y44104255D01*
X14453096Y44094433D01*
X14471650Y44093371D01*
X14551928Y44088137D01*
X14629517Y44081655D01*
X14698349Y44074536D01*
X14752353Y44067388D01*
X14779165Y44062448D01*
X14853787Y44042347D01*
X14926350Y44016484D01*
X14998062Y43983700D01*
X15070130Y43942837D01*
X15143762Y43892736D01*
X15220167Y43832238D01*
X15300552Y43760185D01*
X15386124Y43675417D01*
X15478093Y43576776D01*
X15577665Y43463104D01*
X15686049Y43333241D01*
X15804452Y43186028D01*
X15934083Y43020307D01*
X16076150Y42834920D01*
X16122658Y42773600D01*
X16283167Y42563231D01*
X16432514Y42371311D01*
X16573249Y42194911D01*
X16707928Y42031104D01*
X16839103Y41876960D01*
X16969327Y41729551D01*
X17101155Y41585949D01*
X17237138Y41443225D01*
X17379830Y41298451D01*
X17531785Y41148698D01*
X17580730Y41101232D01*
X17706050Y40982564D01*
X17820798Y40879506D01*
X17930176Y40787759D01*
X18039385Y40703025D01*
X18153629Y40621004D01*
X18201462Y40588289D01*
X18308129Y40515029D01*
X18397829Y40450347D01*
X18475598Y40390127D01*
X18546470Y40330257D01*
X18615480Y40266620D01*
X18687664Y40195102D01*
X18707628Y40174652D01*
X18794458Y40081412D01*
X18877550Y39983858D01*
X18959118Y39878864D01*
X19041377Y39763304D01*
X19126543Y39634051D01*
X19216829Y39487978D01*
X19314453Y39321960D01*
X19326219Y39301500D01*
X19376302Y39211750D01*
X19435979Y39100481D01*
X19504454Y38969353D01*
X19580931Y38820023D01*
X19664615Y38654153D01*
X19754707Y38473399D01*
X19850413Y38279421D01*
X19950936Y38073877D01*
X20055480Y37858428D01*
X20163248Y37634731D01*
X20273445Y37404446D01*
X20385273Y37169231D01*
X20497937Y36930745D01*
X20610641Y36690648D01*
X20722588Y36450597D01*
X20832981Y36212253D01*
X20941026Y35977273D01*
X21045925Y35747317D01*
X21146882Y35524044D01*
X21243101Y35309112D01*
X21250137Y35293300D01*
X21425658Y34893882D01*
X21588750Y34512093D01*
X21739963Y34145690D01*
X21879848Y33792429D01*
X22008954Y33450066D01*
X22127832Y33116359D01*
X22237030Y32789063D01*
X22337100Y32465935D01*
X22428591Y32144731D01*
X22512053Y31823207D01*
X22588036Y31499120D01*
X22657089Y31170227D01*
X22719764Y30834283D01*
X22776610Y30489046D01*
X22828177Y30132271D01*
X22875014Y29761715D01*
X22917672Y29375134D01*
X22956701Y28970284D01*
X22992651Y28544923D01*
X23026071Y28096806D01*
X23030802Y28028900D01*
X23043763Y27836294D01*
X23057023Y27629196D01*
X23070620Y27406839D01*
X23084595Y27168458D01*
X23098987Y26913285D01*
X23113834Y26640552D01*
X23129175Y26349494D01*
X23145051Y26039342D01*
X23161499Y25709330D01*
X23178559Y25358691D01*
X23196271Y24986659D01*
X23214673Y24592465D01*
X23233804Y24175343D01*
X23253704Y23734526D01*
X23274412Y23269247D01*
X23278744Y23171150D01*
X23301973Y22639422D01*
X23323739Y22130448D01*
X23344133Y21641631D01*
X23363248Y21170371D01*
X23381175Y20714073D01*
X23398007Y20270136D01*
X23413834Y19835964D01*
X23428749Y19408959D01*
X23442844Y18986522D01*
X23456210Y18566055D01*
X23468938Y18144961D01*
X23481122Y17720641D01*
X23492853Y17290498D01*
X23504221Y16851933D01*
X23509593Y16637000D01*
X23512607Y16499183D01*
X23515300Y16344223D01*
X23517670Y16174428D01*
X23519719Y15992106D01*
X23521445Y15799565D01*
X23522849Y15599113D01*
X23523929Y15393058D01*
X23524685Y15183707D01*
X23525117Y14973369D01*
X23525224Y14764352D01*
X23525007Y14558964D01*
X23524464Y14359512D01*
X23523595Y14168305D01*
X23522400Y13987651D01*
X23520879Y13819857D01*
X23519030Y13667232D01*
X23516854Y13532083D01*
X23514350Y13416718D01*
X23511518Y13323446D01*
X23510192Y13290550D01*
X23497611Y13037171D01*
X23483427Y12808541D01*
X23467556Y12604055D01*
X23449917Y12423110D01*
X23430426Y12265100D01*
X23409002Y12129420D01*
X23385561Y12015466D01*
X23360020Y11922632D01*
X23332298Y11850314D01*
X23307043Y11804650D01*
X23282748Y11772844D01*
X23246473Y11730307D01*
X23204354Y11684111D01*
X23183850Y11662701D01*
X23129463Y11610796D01*
X23083834Y11577814D01*
X23041583Y11561575D01*
X22997331Y11559900D01*
X22952118Y11568834D01*
X22925274Y11577217D01*
X22897379Y11588678D01*
X22867246Y11604262D01*
X22833692Y11625016D01*
X22795530Y11651986D01*
X22751577Y11686218D01*
X22700647Y11728757D01*
X22641554Y11780650D01*
X22573115Y11842944D01*
X22494143Y11916683D01*
X22403454Y12002914D01*
X22299863Y12102683D01*
X22182185Y12217037D01*
X22049234Y12347020D01*
X21899825Y12493680D01*
X21859875Y12532964D01*
X21196300Y13185634D01*
X21196300Y13259967D01*
X21195857Y13280377D01*
X21194566Y13324664D01*
X21192478Y13391320D01*
X21189646Y13478836D01*
X21186122Y13585707D01*
X21181959Y13710423D01*
X21177209Y13851478D01*
X21171924Y14007363D01*
X21166158Y14176572D01*
X21159962Y14357596D01*
X21153390Y14548928D01*
X21146493Y14749060D01*
X21139323Y14956486D01*
X21131935Y15169696D01*
X21124379Y15387184D01*
X21116709Y15607442D01*
X21108977Y15828962D01*
X21101235Y16050237D01*
X21093536Y16269759D01*
X21085933Y16486021D01*
X21078477Y16697515D01*
X21071221Y16902733D01*
X21064218Y17100167D01*
X21057521Y17288311D01*
X21051181Y17465656D01*
X21045251Y17630696D01*
X21039784Y17781921D01*
X21034832Y17917825D01*
X21030448Y18036901D01*
X21026684Y18137640D01*
X21024831Y18186400D01*
X21001369Y18770345D01*
X20976573Y19331842D01*
X20950458Y19870748D01*
X20923040Y20386919D01*
X20894333Y20880212D01*
X20864353Y21350482D01*
X20833114Y21797585D01*
X20800632Y22221378D01*
X20766921Y22621716D01*
X20731997Y22998456D01*
X20695874Y23351453D01*
X20658568Y23680565D01*
X20620093Y23985646D01*
X20580465Y24266553D01*
X20539698Y24523143D01*
X20497808Y24755271D01*
X20454809Y24962793D01*
X20410717Y25145565D01*
X20365546Y25303444D01*
X20319312Y25436285D01*
X20272029Y25543946D01*
X20254029Y25577800D01*
X20221335Y25634312D01*
X20179408Y25704135D01*
X20127834Y25787909D01*
X20066197Y25886277D01*
X19994084Y25999881D01*
X19911079Y26129363D01*
X19816768Y26275364D01*
X19710735Y26438527D01*
X19592568Y26619493D01*
X19461849Y26818904D01*
X19318166Y27037401D01*
X19161104Y27275628D01*
X18990247Y27534226D01*
X18982261Y27546300D01*
X18770134Y27867881D01*
X18572017Y28170027D01*
X18387159Y28453972D01*
X18214810Y28720952D01*
X18054219Y28972202D01*
X17904635Y29208957D01*
X17765308Y29432452D01*
X17635485Y29643923D01*
X17514416Y29844604D01*
X17401351Y30035730D01*
X17295539Y30218536D01*
X17196228Y30394258D01*
X17102668Y30564130D01*
X17014108Y30729389D01*
X16929797Y30891267D01*
X16848984Y31051002D01*
X16837531Y31074021D01*
X16786428Y31175659D01*
X16734742Y31276108D01*
X16684517Y31371563D01*
X16637795Y31458220D01*
X16596620Y31532276D01*
X16563034Y31589925D01*
X16545171Y31618423D01*
X16429824Y31774218D01*
X16302684Y31910883D01*
X16173450Y32020382D01*
X16104435Y32066651D01*
X16015875Y32117968D01*
X15912526Y32172000D01*
X15799147Y32226412D01*
X15680495Y32278871D01*
X15561328Y32327042D01*
X15506700Y32347464D01*
X15423892Y32378067D01*
X15331736Y32412970D01*
X15241054Y32448028D01*
X15162668Y32479098D01*
X15157450Y32481208D01*
X14920258Y32582291D01*
X14682340Y32693395D01*
X14445310Y32813336D01*
X14210784Y32940931D01*
X13980377Y33074994D01*
X13755705Y33214342D01*
X13538383Y33357790D01*
X13330027Y33504154D01*
X13132252Y33652250D01*
X12946674Y33800894D01*
X12774908Y33948902D01*
X12618571Y34095089D01*
X12479276Y34238271D01*
X12358640Y34377263D01*
X12258279Y34510883D01*
X12179807Y34637945D01*
X12158275Y34679698D01*
X12101385Y34796346D01*
X12063496Y35111086D01*
X12052987Y35197423D01*
X12043325Y35274986D01*
X12034955Y35340348D01*
X12028322Y35390077D01*
X12023871Y35420745D01*
X12022184Y35429249D01*
X12009695Y35426491D01*
X11975027Y35417317D01*
X11920408Y35402352D01*
X11848065Y35382219D01*
X11760223Y35357544D01*
X11659111Y35328950D01*
X11546954Y35297062D01*
X11425980Y35262506D01*
X11352906Y35241559D01*
X11216986Y35202717D01*
X11079817Y35163833D01*
X10944964Y35125897D01*
X10815992Y35089899D01*
X10696466Y35056830D01*
X10589952Y35027678D01*
X10500014Y35003436D01*
X10430219Y34985091D01*
X10419395Y34982320D01*
X10155240Y34920250D01*
X9910720Y34873592D01*
X9685284Y34842336D01*
X9478385Y34826474D01*
X9289472Y34825997D01*
X9117998Y34840895D01*
X8963413Y34871160D01*
X8825168Y34916782D01*
X8743950Y34954595D01*
X8668868Y35003538D01*
X8593344Y35069192D01*
X8524289Y35144413D01*
X8468616Y35222055D01*
X8446991Y35261550D01*
X8422120Y35313333D01*
X8397679Y35364123D01*
X8378902Y35403045D01*
X8378691Y35403480D01*
X8332755Y35473136D01*
X8267427Y35537536D01*
X8188702Y35592204D01*
X8102576Y35632664D01*
X8051263Y35647933D01*
X8013300Y35653698D01*
X7959030Y35658212D01*
X7897541Y35660819D01*
X7867650Y35661201D01*
X7729565Y35652642D01*
X7593829Y35625766D01*
X7457624Y35579509D01*
X7318136Y35512808D01*
X7172549Y35424596D01*
X7089817Y35367221D01*
X6920230Y35259379D01*
X6744320Y35175986D01*
X6562456Y35117165D01*
X6375007Y35083038D01*
X6203950Y35073534D01*
X6080413Y35078086D01*
X5971311Y35092239D01*
X5866999Y35117511D01*
X5812713Y35135108D01*
X5718620Y35172815D01*
X5635560Y35217803D01*
X5558626Y35273798D01*
X5482913Y35344520D01*
X5403516Y35433692D01*
X5377775Y35465182D01*
X5301845Y35551711D01*
X5232160Y35614480D01*
X5167914Y35654131D01*
X5121029Y35669430D01*
X5064831Y35673863D01*
X4993378Y35670637D01*
X4915319Y35660677D01*
X4839303Y35644909D01*
X4806950Y35635820D01*
X4772947Y35624280D01*
X4719055Y35604762D01*
X4648989Y35578668D01*
X4566463Y35547398D01*
X4475193Y35512355D01*
X4378895Y35474941D01*
X4337050Y35458545D01*
X4156202Y35388075D01*
X3996533Y35327214D01*
X3855972Y35275342D01*
X3732446Y35231842D01*
X3623886Y35196094D01*
X3528219Y35167481D01*
X3443374Y35145385D01*
X3367280Y35129187D01*
X3297864Y35118268D01*
X3233056Y35112011D01*
X3170784Y35109797D01*
X3168650Y35109785D01*
X3103407Y35110184D01*
X3056741Y35112731D01*
X3021852Y35118408D01*
X2991945Y35128198D01*
X2969183Y35138588D01*
X2918106Y35169025D01*
X2874090Y35207993D01*
X2835308Y35258566D01*
X2799930Y35323817D01*
X2766128Y35406821D01*
X2732073Y35510652D01*
X2716736Y35563035D01*
X2675779Y35694879D01*
X2634500Y35803151D01*
X2592057Y35889674D01*
X2547608Y35956271D01*
X2521689Y35985379D01*
X2458492Y36034814D01*
X2389846Y36061136D01*
X2314026Y36064509D01*
X2229309Y36045100D01*
X2166812Y36019479D01*
X2119256Y35995118D01*
X2070563Y35965845D01*
X2018811Y35930010D01*
X1962083Y35885966D01*
X1898459Y35832067D01*
X1826020Y35766663D01*
X1742847Y35688109D01*
X1647020Y35594755D01*
X1536620Y35484956D01*
X1492250Y35440390D01*
X1372154Y35320350D01*
X1266922Y35217223D01*
X1174305Y35129150D01*
X1092056Y35054271D01*
X1017926Y34990729D01*
X949667Y34936664D01*
X885031Y34890219D01*
X821770Y34849534D01*
X757636Y34812750D01*
X692150Y34778884D01*
X567824Y34722924D01*
X455113Y34684548D01*
X348798Y34662320D01*
X243663Y34654802D01*
X241602Y34654792D01*
X113994Y34665019D01*
X-4384Y34697098D01*
X-114617Y34751691D01*
X-217786Y34829456D01*
X-314975Y34931055D01*
X-399712Y35045650D01*
X-492817Y35172267D01*
X-587982Y35274033D01*
X-686045Y35351467D01*
X-787846Y35405091D01*
X-894224Y35435423D01*
X-1006021Y35442985D01*
X-1038369Y35441095D01*
X-1129220Y35428273D01*
X-1221551Y35404348D01*
X-1317900Y35368073D01*
X-1420807Y35318196D01*
X-1532813Y35253468D01*
X-1656456Y35172639D01*
X-1794278Y35074458D01*
X-1816100Y35058328D01*
X-1979239Y34944434D01*
X-2134190Y34851790D01*
X-2284364Y34779049D01*
X-2433174Y34724867D01*
X-2584029Y34687896D01*
X-2740343Y34666789D01*
X-2820732Y34661799D01*
X-2996088Y34663054D01*
X-3161990Y34682229D01*
X-3324251Y34720576D01*
X-3488686Y34779344D01*
X-3600450Y34829552D01*
X-3699599Y34880343D01*
X-3795795Y34936256D01*
X-3893752Y35000428D01*
X-3998185Y35075999D01*
X-4113806Y35166106D01*
X-4150760Y35195938D01*
X-4287120Y35304782D01*
X-4407646Y35396489D01*
X-4514215Y35472130D01*
X-4608705Y35532774D01*
X-4692995Y35579489D01*
X-4768961Y35613346D01*
X-4838481Y35635414D01*
X-4903433Y35646762D01*
X-4946152Y35648901D01*
X-4997927Y35646296D01*
X-5037432Y35636182D01*
X-5077471Y35615107D01*
X-5081924Y35612311D01*
X-5122361Y35582337D01*
X-5158307Y35545132D01*
X-5191842Y35497244D01*
X-5225048Y35435222D01*
X-5260005Y35355615D01*
X-5298793Y35254971D01*
X-5301044Y35248850D01*
X-5352060Y35130074D01*
X-5410104Y35034866D01*
X-5476938Y34961947D01*
X-5554321Y34910040D01*
X-5644014Y34877864D01*
X-5747777Y34864140D01*
X-5829622Y34864823D01*
X-5935866Y34877866D01*
X-6052598Y34906188D01*
X-6181256Y34950348D01*
X-6323279Y35010908D01*
X-6480104Y35088429D01*
X-6653170Y35183471D01*
X-6667500Y35191699D01*
X-6789391Y35260785D01*
X-6896742Y35318080D01*
X-6992721Y35363591D01*
X-7080494Y35397322D01*
X-7163228Y35419281D01*
X-7244090Y35429471D01*
X-7326246Y35427901D01*
X-7412862Y35414575D01*
X-7507106Y35389499D01*
X-7612144Y35352678D01*
X-7731143Y35304120D01*
X-7867269Y35243830D01*
X-7975600Y35194114D01*
X-8109657Y35132829D01*
X-8224262Y35082272D01*
X-8322465Y35041384D01*
X-8407316Y35009105D01*
X-8481863Y34984378D01*
X-8549155Y34966144D01*
X-8612242Y34953344D01*
X-8674173Y34944920D01*
X-8700554Y34942434D01*
X-8762304Y34939342D01*
X-8825767Y34940756D01*
X-8893356Y34947271D01*
X-8967482Y34959483D01*
X-9050559Y34977990D01*
X-9145000Y35003386D01*
X-9253216Y35036269D01*
X-9377622Y35077234D01*
X-9520629Y35126877D01*
X-9683112Y35185236D01*
X-9894760Y35261349D01*
X-10085849Y35328223D01*
X-10259131Y35386710D01*
X-10417360Y35437661D01*
X-10563285Y35481926D01*
X-10699660Y35520357D01*
X-10829236Y35553805D01*
X-10954765Y35583120D01*
X-11004550Y35593899D01*
X-11069004Y35606942D01*
X-11124561Y35616337D01*
X-11177903Y35622676D01*
X-11235711Y35626549D01*
X-11304666Y35628549D01*
X-11391451Y35629265D01*
X-11404600Y35629296D01*
X-11489109Y35629220D01*
X-11552815Y35628352D01*
X-11600314Y35626265D01*
X-11636200Y35622531D01*
X-11665069Y35616724D01*
X-11691515Y35608415D01*
X-11711338Y35600765D01*
X-11805752Y35551684D01*
X-11885203Y35485379D01*
X-11953805Y35398668D01*
X-12031168Y35297206D01*
X-12116214Y35217844D01*
X-12213221Y35157510D01*
X-12326470Y35113135D01*
X-12367843Y35101545D01*
X-12515785Y35075252D01*
X-12679127Y35068225D01*
X-12856886Y35080320D01*
X-13048078Y35111394D01*
X-13251721Y35161303D01*
X-13466830Y35229903D01*
X-13608050Y35282754D01*
X-13650892Y35300761D01*
X-13712612Y35328230D01*
X-13789325Y35363356D01*
X-13877146Y35404334D01*
X-13972189Y35449357D01*
X-14070569Y35496620D01*
X-14122400Y35521797D01*
X-14296583Y35605712D01*
X-14450148Y35677269D01*
X-14584485Y35736796D01*
X-14700983Y35784618D01*
X-14801031Y35821063D01*
X-14886016Y35846459D01*
X-14957329Y35861132D01*
X-15016357Y35865409D01*
X-15064490Y35859617D01*
X-15103116Y35844083D01*
X-15133624Y35819135D01*
X-15157403Y35785100D01*
X-15165990Y35767560D01*
X-15177833Y35737640D01*
X-15185015Y35708482D01*
X-15188192Y35673384D01*
X-15188017Y35625643D01*
X-15185575Y35567106D01*
X-15180066Y35497272D01*
X-15170351Y35413629D01*
X-15157848Y35327134D01*
X-15145246Y35255200D01*
X-15122852Y35130714D01*
X-15108709Y35027409D01*
X-15102933Y34942406D01*
X-15105638Y34872825D01*
X-15116940Y34815788D01*
X-15136954Y34768413D01*
X-15165795Y34727822D01*
X-15166367Y34727168D01*
X-15201851Y34693303D01*
X-15246896Y34663058D01*
X-15304278Y34635384D01*
X-15376771Y34609237D01*
X-15467150Y34583568D01*
X-15578190Y34557333D01*
X-15665450Y34538932D01*
X-15767614Y34519283D01*
X-15867007Y34502736D01*
X-15966913Y34489062D01*
X-16070614Y34478029D01*
X-16181392Y34469406D01*
X-16302528Y34462964D01*
X-16437305Y34458470D01*
X-16589006Y34455696D01*
X-16760912Y34454409D01*
X-16870212Y34454253D01*
X-17039032Y34454758D01*
X-17192074Y34456311D01*
X-17334361Y34459140D01*
X-17470915Y34463476D01*
X-17606760Y34469549D01*
X-17746917Y34477589D01*
X-17896411Y34487825D01*
X-18060265Y34500487D01*
X-18243500Y34515806D01*
X-18275837Y34518596D01*
X-18463588Y34534582D01*
X-18627900Y34547968D01*
X-18770593Y34558861D01*
X-18893482Y34567367D01*
X-18998385Y34573594D01*
X-19087121Y34577648D01*
X-19161505Y34579637D01*
X-19223356Y34579667D01*
X-19274491Y34577845D01*
X-19278600Y34577596D01*
X-19362262Y34570514D01*
X-19425718Y34560327D01*
X-19474108Y34545609D01*
X-19512571Y34524934D01*
X-19536452Y34506053D01*
X-19577050Y34469673D01*
X-19571920Y34325862D01*
X-19569533Y34247427D01*
X-19567444Y34158004D01*
X-19565969Y34072005D01*
X-19565570Y34036000D01*
X-19565370Y33972295D01*
X-19566923Y33926682D01*
X-19571580Y33891857D01*
X-19580689Y33860517D01*
X-19595601Y33825357D01*
X-19610146Y33794700D01*
X-19641110Y33736308D01*
X-19678330Y33674650D01*
X-19713768Y33623040D01*
X-19713888Y33622882D01*
X-19784793Y33538724D01*
X-19877307Y33444635D01*
X-19990135Y33341662D01*
X-20121979Y33230851D01*
X-20271543Y33113250D01*
X-20437531Y32989905D01*
X-20618647Y32861863D01*
X-20813595Y32730170D01*
X-20845760Y32708977D01*
X-21069871Y32564409D01*
X-21280436Y32434276D01*
X-21482548Y32315753D01*
X-21681296Y32206017D01*
X-21881772Y32102242D01*
X-22089067Y32001605D01*
X-22273762Y31916720D01*
X-22341366Y31885611D01*
X-22407255Y31853980D01*
X-22464729Y31825131D01*
X-22507084Y31802364D01*
X-22513729Y31798487D01*
X-22583503Y31751338D01*
X-22647951Y31697684D01*
X-22701563Y31642725D01*
X-22738828Y31591661D01*
X-22744775Y31580462D01*
X-22765159Y31513501D01*
X-22770598Y31431065D01*
X-22761077Y31338229D01*
X-22745700Y31270481D01*
X-22727864Y31177459D01*
X-22722312Y31070500D01*
X-22729235Y30948864D01*
X-22748827Y30811810D01*
X-22781278Y30658601D01*
X-22826782Y30488496D01*
X-22885528Y30300755D01*
X-22957710Y30094640D01*
X-23043520Y29869411D01*
X-23143148Y29624328D01*
X-23219319Y29444950D01*
X-23231210Y29417375D01*
X-23242374Y29391523D01*
X-23253297Y29366324D01*
X-23264465Y29340709D01*
X-23276366Y29313607D01*
X-23289487Y29283948D01*
X-23304313Y29250664D01*
X-23321331Y29212685D01*
X-23341029Y29168939D01*
X-23363892Y29118359D01*
X-23390407Y29059873D01*
X-23421062Y28992413D01*
X-23456343Y28914907D01*
X-23496736Y28826288D01*
X-23542727Y28725484D01*
X-23594805Y28611426D01*
X-23653455Y28483044D01*
X-23719164Y28339268D01*
X-23792419Y28179029D01*
X-23873706Y28001257D01*
X-23963512Y27804882D01*
X-24062324Y27588835D01*
X-24170628Y27352044D01*
X-24288911Y27093441D01*
X-24314132Y27038300D01*
X-24410031Y26828637D01*
X-24505211Y26620544D01*
X-24598922Y26415661D01*
X-24690415Y26215628D01*
X-24778939Y26022086D01*
X-24863744Y25836675D01*
X-24944080Y25661034D01*
X-25019196Y25496804D01*
X-25088343Y25345625D01*
X-25150771Y25209137D01*
X-25205728Y25088980D01*
X-25252466Y24986794D01*
X-25290234Y24904219D01*
X-25318281Y24842896D01*
X-25321094Y24836746D01*
X-25506097Y24432241D01*
X-25471104Y21483946D01*
X-25465652Y21022505D01*
X-25460544Y20585494D01*
X-25455773Y20171945D01*
X-25451333Y19780890D01*
X-25447217Y19411362D01*
X-25443418Y19062393D01*
X-25439930Y18733015D01*
X-25436747Y18422261D01*
X-25433862Y18129163D01*
X-25431268Y17852752D01*
X-25428959Y17592062D01*
X-25426928Y17346125D01*
X-25425169Y17113973D01*
X-25423676Y16894637D01*
X-25422442Y16687152D01*
X-25421459Y16490548D01*
X-25420723Y16303858D01*
X-25420226Y16126114D01*
X-25419962Y15956349D01*
X-25419924Y15793595D01*
X-25420105Y15636884D01*
X-25420500Y15485248D01*
X-25421102Y15337720D01*
X-25421904Y15193332D01*
X-25422899Y15051117D01*
X-25424082Y14910105D01*
X-25425445Y14769331D01*
X-25425701Y14744700D01*
X-25430001Y14381374D01*
X-25435026Y14042871D01*
X-25440806Y13728625D01*
X-25447369Y13438068D01*
X-25454745Y13170635D01*
X-25462963Y12925757D01*
X-25472052Y12702869D01*
X-25482040Y12501402D01*
X-25492957Y12320791D01*
X-25504832Y12160469D01*
X-25517695Y12019868D01*
X-25531573Y11898421D01*
X-25546496Y11795563D01*
X-25562493Y11710725D01*
X-25579594Y11643341D01*
X-25585634Y11624396D01*
X-25629613Y11512618D01*
X-25690032Y11386158D01*
X-25764982Y11247901D01*
X-25852558Y11100732D01*
X-25950852Y10947537D01*
X-26057958Y10791199D01*
X-26171970Y10634604D01*
X-26290979Y10480637D01*
X-26413080Y10332183D01*
X-26521393Y10208594D01*
X-26637648Y10087050D01*
X-26763646Y9967734D01*
X-26895894Y9853287D01*
X-27030898Y9746353D01*
X-27165167Y9649574D01*
X-27295207Y9565592D01*
X-27417527Y9497051D01*
X-27528299Y9446723D01*
X-27627209Y9417578D01*
X-27732411Y9402756D01*
X-27834150Y9403215D01*
X-27889181Y9411165D01*
X-27956125Y9433890D01*
X-28007369Y9472215D01*
X-28045615Y9529017D01*
X-28073567Y9607172D01*
X-28073666Y9607550D01*
X-28081191Y9651384D01*
X-28086978Y9716542D01*
X-28090998Y9799009D01*
X-28093221Y9894766D01*
X-28093615Y9999795D01*
X-28092151Y10110081D01*
X-28088798Y10221604D01*
X-28083526Y10330349D01*
X-28079594Y10390322D01*
X-28075233Y10449940D01*
X-28069347Y10529886D01*
X-28062305Y10625159D01*
X-28054478Y10730758D01*
X-28046236Y10841681D01*
X-28037949Y10952928D01*
X-28035519Y10985500D01*
X-28025836Y11117851D01*
X-28016943Y11245551D01*
X-28008737Y11370887D01*
X-28001118Y11496146D01*
X-27993985Y11623616D01*
X-27987237Y11755582D01*
X-27980772Y11894332D01*
X-27974489Y12042152D01*
X-27968288Y12201329D01*
X-27962068Y12374150D01*
X-27955726Y12562901D01*
X-27949163Y12769869D01*
X-27942277Y12997342D01*
X-27934967Y13247605D01*
X-27933915Y13284200D01*
X-27926599Y13542375D01*
X-27919505Y13799472D01*
X-27912621Y14056282D01*
X-27905934Y14313599D01*
X-27899433Y14572215D01*
X-27893106Y14832922D01*
X-27886941Y15096513D01*
X-27880926Y15363779D01*
X-27875050Y15635513D01*
X-27869299Y15912508D01*
X-27863662Y16195556D01*
X-27858128Y16485449D01*
X-27852685Y16782979D01*
X-27847319Y17088939D01*
X-27842021Y17404122D01*
X-27836777Y17729319D01*
X-27831576Y18065323D01*
X-27826405Y18412926D01*
X-27821254Y18772921D01*
X-27816109Y19146100D01*
X-27810960Y19533255D01*
X-27805793Y19935179D01*
X-27800598Y20352664D01*
X-27795362Y20786502D01*
X-27790074Y21237485D01*
X-27784720Y21706407D01*
X-27779291Y22194059D01*
X-27773773Y22701234D01*
X-27768155Y23228724D01*
X-27762424Y23777321D01*
X-27756569Y24347818D01*
X-27750578Y24941007D01*
X-27744439Y25557681D01*
X-27738140Y26198631D01*
X-27735465Y26473150D01*
X-27694712Y30664150D01*
X-27422615Y31426150D01*
X-27276360Y31835726D01*
X-27138381Y32222107D01*
X-27008414Y32586020D01*
X-26886196Y32928192D01*
X-26771464Y33249350D01*
X-26663954Y33550221D01*
X-26563404Y33831532D01*
X-26469549Y34094009D01*
X-26382127Y34338380D01*
X-26300875Y34565372D01*
X-26225529Y34775711D01*
X-26155825Y34970124D01*
X-26091502Y35149339D01*
X-26032295Y35314082D01*
X-25977941Y35465080D01*
X-25928177Y35603061D01*
X-25882740Y35728750D01*
X-25841366Y35842876D01*
X-25803793Y35946164D01*
X-25769756Y36039342D01*
X-25738993Y36123137D01*
X-25711241Y36198275D01*
X-25686236Y36265484D01*
X-25663715Y36325491D01*
X-25643414Y36379022D01*
X-25625071Y36426804D01*
X-25608423Y36469565D01*
X-25593205Y36508031D01*
X-25579155Y36542929D01*
X-25566009Y36574986D01*
X-25553504Y36604929D01*
X-25541378Y36633485D01*
X-25529366Y36661380D01*
X-25517206Y36689343D01*
X-25513578Y36697650D01*
X-25434912Y36869573D01*
X-25358477Y37018688D01*
X-25282308Y37147236D01*
X-25204445Y37257460D01*
X-25122925Y37351602D01*
X-25035785Y37431904D01*
X-24941063Y37500610D01*
X-24836797Y37559962D01*
X-24721025Y37612201D01*
X-24709087Y37616983D01*
X-24602315Y37666753D01*
X-24498023Y37731004D01*
X-24394691Y37811232D01*
X-24290796Y37908937D01*
X-24184817Y38025616D01*
X-24075232Y38162767D01*
X-23960520Y38321887D01*
X-23895891Y38417500D01*
X-23836080Y38508826D01*
X-23777305Y38600911D01*
X-23718374Y38695845D01*
X-23658095Y38795718D01*
X-23595276Y38902619D01*
X-23528725Y39018637D01*
X-23457250Y39145862D01*
X-23379657Y39286384D01*
X-23294756Y39442292D01*
X-23201355Y39615675D01*
X-23098260Y39808623D01*
X-23044477Y39909750D01*
X-22934247Y40116814D01*
X-22834695Y40302706D01*
X-22744940Y40468877D01*
X-22664105Y40616774D01*
X-22591311Y40747848D01*
X-22525679Y40863547D01*
X-22466332Y40965319D01*
X-22412391Y41054615D01*
X-22362977Y41132881D01*
X-22317212Y41201569D01*
X-22274217Y41262125D01*
X-22233114Y41316000D01*
X-22193025Y41364642D01*
X-22153071Y41409500D01*
X-22112374Y41452023D01*
X-22104784Y41459659D01*
X-22040523Y41520282D01*
X-21976690Y41571796D01*
X-21910034Y41615472D01*
X-21837303Y41652581D01*
X-21755246Y41684397D01*
X-21660611Y41712189D01*
X-21550148Y41737229D01*
X-21420606Y41760790D01*
X-21278850Y41782677D01*
X-21100908Y41809883D01*
X-20945400Y41836859D01*
X-20809383Y41864489D01*
X-20689915Y41893658D01*
X-20584056Y41925249D01*
X-20488862Y41960148D01*
X-20401392Y41999238D01*
X-20318704Y42043404D01*
X-20237856Y42093531D01*
X-20232088Y42097354D01*
X-20158839Y42150164D01*
X-20087240Y42210725D01*
X-20014484Y42281958D01*
X-19937763Y42366789D01*
X-19854269Y42468141D01*
X-19765458Y42583268D01*
X-19663540Y42716407D01*
X-19551998Y42858060D01*
X-19432342Y43006536D01*
X-19306082Y43160143D01*
X-19174730Y43317191D01*
X-19039796Y43475987D01*
X-18902791Y43634840D01*
X-18765224Y43792058D01*
X-18628608Y43945951D01*
X-18494452Y44094826D01*
X-18364266Y44236991D01*
X-18239563Y44370757D01*
X-18121851Y44494430D01*
X-18012643Y44606319D01*
X-17913447Y44704733D01*
X-17825776Y44787980D01*
X-17751139Y44854369D01*
X-17701417Y44894518D01*
X-17623376Y44949952D01*
X-17547450Y44995466D01*
X-17470732Y45031478D01*
X-17390311Y45058402D01*
X-17303281Y45076656D01*
X-17206731Y45086657D01*
X-17097753Y45088819D01*
X-16973439Y45083561D01*
X-16830880Y45071297D01*
X-16667168Y45052445D01*
X-16630650Y45047795D01*
X-16442511Y45024758D01*
X-16275885Y45007296D01*
X-16127496Y44995445D01*
X-15994069Y44989237D01*
X-15872328Y44988709D01*
X-15758999Y44993894D01*
X-15650806Y45004828D01*
X-15544473Y45021545D01*
X-15436724Y45044081D01*
X-15367000Y45061188D01*
X-15294776Y45081035D01*
X-15222154Y45103793D01*
X-15146199Y45130686D01*
X-15063972Y45162939D01*
X-14972538Y45201777D01*
X-14868959Y45248424D01*
X-14750298Y45304105D01*
X-14613617Y45370043D01*
X-14541500Y45405327D01*
X-14220278Y45560257D01*
X-13909956Y45704318D01*
X-13611384Y45837211D01*
X-13325414Y45958633D01*
X-13052896Y46068285D01*
X-12794679Y46165865D01*
X-12551615Y46251073D01*
X-12324553Y46323607D01*
X-12114345Y46383168D01*
X-11921840Y46429453D01*
X-11747890Y46462163D01*
X-11593343Y46480996D01*
X-11487150Y46485857D01*
X-11410430Y46484776D01*
X-11351711Y46479008D01*
X-11303704Y46466173D01*
X-11259114Y46443890D01*
X-11210650Y46409777D01*
X-11180441Y46385713D01*
X-11072533Y46312688D01*
X-10951036Y46258706D01*
X-10815305Y46223688D01*
X-10664695Y46207556D01*
X-10498562Y46210231D01*
X-10316262Y46231633D01*
X-10163467Y46261047D01*
X-10042887Y46290087D01*
X-9921562Y46324247D01*
X-9796602Y46364643D01*
X-9665118Y46412390D01*
X-9524221Y46468604D01*
X-9371022Y46534401D01*
X-9202631Y46610895D01*
X-9016159Y46699204D01*
X-8966200Y46723344D01*
X-8804710Y46801194D01*
X-8663095Y46868359D01*
X-8538715Y46925918D01*
X-8428933Y46974948D01*
X-8331111Y47016526D01*
X-8242611Y47051730D01*
X-8160795Y47081638D01*
X-8083023Y47107328D01*
X-8006659Y47129876D01*
X-7929064Y47150362D01*
X-7908263Y47155508D01*
X-7788561Y47181799D01*
X-7671433Y47200984D01*
X-7554700Y47212742D01*
X-7436180Y47216753D01*
X-7313693Y47212700D01*
D11*
X1523040Y-39819260D03*
X1523040Y-42359260D03*
D12*
X-1016960Y-39819260D03*
X-1016960Y-42359260D03*
X-3556960Y-39819260D03*
D13*
X-3556960Y-42359260D03*
M02*
