G04 #@! TF.GenerationSoftware,KiCad,Pcbnew,(5.1.2)-1*
G04 #@! TF.CreationDate,2019-06-30T22:56:59-05:00*
G04 #@! TF.ProjectId,hank-hill-sao,68616e6b-2d68-4696-9c6c-2d73616f2e6b,rev?*
G04 #@! TF.SameCoordinates,Original*
G04 #@! TF.FileFunction,Copper,L1,Top*
G04 #@! TF.FilePolarity,Positive*
%FSLAX46Y46*%
G04 Gerber Fmt 4.6, Leading zero omitted, Abs format (unit mm)*
G04 Created by KiCad (PCBNEW (5.1.2)-1) date 2019-06-30 22:56:59*
%MOMM*%
%LPD*%
G04 APERTURE LIST*
%ADD10C,0.010000*%
%ADD11C,1.727200*%
%ADD12O,1.727200X1.727200*%
%ADD13R,1.727200X1.727200*%
G04 APERTURE END LIST*
D10*
G36*
X-6960321Y47141343D02*
G01*
X-6605474Y47055389D01*
X-6185149Y46928065D01*
X-6074130Y46892168D01*
X-5713222Y46776984D01*
X-5428009Y46695674D01*
X-5198412Y46648213D01*
X-5004347Y46634576D01*
X-4825734Y46654740D01*
X-4642490Y46708679D01*
X-4434534Y46796368D01*
X-4238707Y46889911D01*
X-3969390Y47015297D01*
X-3737226Y47104406D01*
X-3519900Y47159356D01*
X-3295098Y47182265D01*
X-3040504Y47175250D01*
X-2733804Y47140430D01*
X-2352682Y47079924D01*
X-2311400Y47072849D01*
X-1750966Y46984227D01*
X-1244783Y46920003D01*
X-803310Y46881066D01*
X-437004Y46868302D01*
X-156323Y46882599D01*
X-122470Y46887100D01*
X62053Y46919362D01*
X304812Y46968847D01*
X565721Y47027181D01*
X687565Y47056339D01*
X907364Y47107307D01*
X1098696Y47140975D01*
X1276434Y47154499D01*
X1455452Y47145035D01*
X1650622Y47109741D01*
X1876817Y47045772D01*
X2148911Y46950286D01*
X2481776Y46820439D01*
X2890286Y46653387D01*
X2971800Y46619645D01*
X3294638Y46487678D01*
X3544185Y46391124D01*
X3739949Y46324040D01*
X3901440Y46280483D01*
X4048168Y46254510D01*
X4199644Y46240178D01*
X4222172Y46238772D01*
X4419585Y46228876D01*
X4547990Y46233964D01*
X4639793Y46262860D01*
X4727399Y46324385D01*
X4812238Y46399411D01*
X5011360Y46557054D01*
X5210616Y46658789D01*
X5440411Y46714794D01*
X5731146Y46735249D01*
X5817640Y46736000D01*
X6300103Y46706951D01*
X6757335Y46614514D01*
X7221833Y46450756D01*
X7493000Y46327014D01*
X7937139Y46135421D01*
X8329565Y46018680D01*
X8666645Y45977165D01*
X8944747Y46011251D01*
X9160236Y46121313D01*
X9194393Y46151411D01*
X9361977Y46275031D01*
X9557665Y46340440D01*
X9803838Y46352181D01*
X10053477Y46325789D01*
X10658459Y46191685D01*
X11280558Y45972511D01*
X11900401Y45678023D01*
X12498614Y45317972D01*
X13055826Y44902112D01*
X13292734Y44695042D01*
X13541064Y44475612D01*
X13747907Y44319517D01*
X13938704Y44213652D01*
X14138899Y44144915D01*
X14373935Y44100199D01*
X14472545Y44087391D01*
X14680142Y44057662D01*
X14864509Y44022660D01*
X14988264Y43989565D01*
X14994726Y43987095D01*
X15121673Y43906553D01*
X15296580Y43750971D01*
X15510797Y43529675D01*
X15755672Y43251992D01*
X16022552Y42927248D01*
X16253152Y42630531D01*
X16662078Y42118867D01*
X17090596Y41632932D01*
X17521847Y41190247D01*
X17938972Y40808333D01*
X18237145Y40568770D01*
X18443133Y40408882D01*
X18624100Y40252050D01*
X18788093Y40086705D01*
X18943162Y39901279D01*
X19097353Y39684204D01*
X19258715Y39423912D01*
X19435296Y39108834D01*
X19635143Y38727403D01*
X19866305Y38268050D01*
X19936993Y38125400D01*
X20392795Y37193613D01*
X20799485Y36339886D01*
X21160203Y35555148D01*
X21478089Y34830325D01*
X21756281Y34156344D01*
X21997919Y33524134D01*
X22206144Y32924620D01*
X22384095Y32348731D01*
X22534911Y31787393D01*
X22661732Y31231533D01*
X22767698Y30672079D01*
X22855948Y30099958D01*
X22929622Y29506097D01*
X22934257Y29464000D01*
X22972841Y29069296D01*
X23012835Y28582402D01*
X23053874Y28012574D01*
X23095596Y27369071D01*
X23137638Y26661149D01*
X23179637Y25898066D01*
X23221228Y25089078D01*
X23262049Y24243442D01*
X23301737Y23370416D01*
X23339927Y22479257D01*
X23376258Y21579221D01*
X23410365Y20679566D01*
X23441885Y19789549D01*
X23470455Y18918427D01*
X23495712Y18075457D01*
X23517293Y17269896D01*
X23534833Y16511001D01*
X23547971Y15808030D01*
X23556342Y15170239D01*
X23559583Y14606885D01*
X23557331Y14127225D01*
X23550161Y13769933D01*
X23531586Y13257181D01*
X23509548Y12835979D01*
X23482812Y12496298D01*
X23450142Y12228112D01*
X23410303Y12021394D01*
X23362059Y11866116D01*
X23304176Y11752252D01*
X23300978Y11747424D01*
X23223600Y11644108D01*
X23146724Y11577872D01*
X23061282Y11553506D01*
X22958204Y11575802D01*
X22828421Y11649551D01*
X22662862Y11779545D01*
X22452458Y11970574D01*
X22188139Y12227430D01*
X21958616Y12456558D01*
X21235032Y13183238D01*
X21133642Y16027719D01*
X21090629Y17188894D01*
X21047696Y18253273D01*
X21004487Y19225661D01*
X20960646Y20110862D01*
X20915816Y20913680D01*
X20869641Y21638919D01*
X20821765Y22291382D01*
X20771832Y22875873D01*
X20719485Y23397198D01*
X20664367Y23860159D01*
X20606124Y24269560D01*
X20544397Y24630205D01*
X20478832Y24946900D01*
X20469026Y24989285D01*
X20444151Y25097440D01*
X20422086Y25189525D01*
X20397833Y25274289D01*
X20366393Y25360484D01*
X20322765Y25456859D01*
X20261950Y25572163D01*
X20178950Y25715146D01*
X20068765Y25894560D01*
X19926395Y26119152D01*
X19746842Y26397674D01*
X19525106Y26738875D01*
X19256188Y27151505D01*
X19073373Y27432000D01*
X18676009Y28044004D01*
X18330176Y28581560D01*
X18030104Y29054117D01*
X17770020Y29471125D01*
X17544151Y29842034D01*
X17346726Y30176292D01*
X17171971Y30483348D01*
X17014115Y30772653D01*
X16901103Y30988000D01*
X16725795Y31320988D01*
X16576493Y31578405D01*
X16435676Y31776485D01*
X16285824Y31931463D01*
X16109416Y32059572D01*
X15888931Y32177047D01*
X15606850Y32300121D01*
X15390856Y32387349D01*
X14527536Y32777958D01*
X13738346Y33233118D01*
X13015307Y33757544D01*
X12875786Y33872972D01*
X12554471Y34174033D01*
X12323302Y34461192D01*
X12174213Y34746568D01*
X12099530Y35039369D01*
X12073491Y35208230D01*
X12048534Y35332440D01*
X12031982Y35381351D01*
X11976278Y35378059D01*
X11844250Y35350299D01*
X11656853Y35302920D01*
X11477483Y35253092D01*
X10951316Y35105305D01*
X10510875Y34990076D01*
X10146444Y34905132D01*
X9848305Y34848199D01*
X9618544Y34818072D01*
X9241053Y34816417D01*
X8922466Y34884665D01*
X8669389Y35019786D01*
X8488428Y35218751D01*
X8416618Y35369210D01*
X8354882Y35453326D01*
X8242850Y35546760D01*
X8218605Y35562720D01*
X8010213Y35637385D01*
X7761460Y35636722D01*
X7497697Y35562893D01*
X7350038Y35488712D01*
X6949778Y35269642D01*
X6606562Y35125190D01*
X6308996Y35054884D01*
X6045687Y35058251D01*
X5805240Y35134817D01*
X5576261Y35284111D01*
X5438649Y35409389D01*
X5254269Y35573157D01*
X5111693Y35652318D01*
X5055422Y35661600D01*
X4961100Y35643720D01*
X4794180Y35594719D01*
X4576256Y35521564D01*
X4328925Y35431218D01*
X4264180Y35406434D01*
X3859159Y35258514D01*
X3533993Y35160273D01*
X3280377Y35110889D01*
X3090009Y35109535D01*
X2954585Y35155388D01*
X2865801Y35247622D01*
X2855419Y35266530D01*
X2806161Y35376834D01*
X2739947Y35541768D01*
X2688810Y35677618D01*
X2609615Y35863009D01*
X2523755Y35985667D01*
X2422326Y36043453D01*
X2296422Y36034224D01*
X2137138Y35955840D01*
X1935571Y35806160D01*
X1682816Y35583043D01*
X1474419Y35385644D01*
X1166611Y35102070D01*
X906665Y34893557D01*
X682908Y34752834D01*
X483669Y34672633D01*
X297275Y34645683D01*
X286238Y34645601D01*
X56257Y34680644D01*
X-148540Y34792911D01*
X-346332Y34993106D01*
X-382717Y35039468D01*
X-542978Y35228287D01*
X-687384Y35341268D01*
X-842689Y35394808D01*
X-980423Y35405800D01*
X-1116091Y35395105D01*
X-1256708Y35354297D01*
X-1422300Y35274205D01*
X-1632892Y35145660D01*
X-1815992Y35023178D01*
X-2157313Y34819739D01*
X-2473353Y34698808D01*
X-2786648Y34653247D01*
X-2969175Y34657985D01*
X-3230633Y34696719D01*
X-3475001Y34775754D01*
X-3727113Y34906353D01*
X-4011805Y35099777D01*
X-4114800Y35177518D01*
X-4423253Y35400637D01*
X-4670782Y35547838D01*
X-4861649Y35621136D01*
X-5000118Y35622543D01*
X-5030472Y35610120D01*
X-5107858Y35534286D01*
X-5197013Y35397933D01*
X-5253780Y35284820D01*
X-5366232Y35073002D01*
X-5492472Y34932185D01*
X-5644612Y34860886D01*
X-5834759Y34857619D01*
X-6075025Y34920902D01*
X-6377520Y35049252D01*
X-6536783Y35127646D01*
X-6805562Y35256281D01*
X-7031619Y35349264D01*
X-7197494Y35399798D01*
X-7254551Y35407046D01*
X-7368769Y35387196D01*
X-7548473Y35333008D01*
X-7767146Y35253242D01*
X-7955833Y35175372D01*
X-8234515Y35060048D01*
X-8465530Y34984614D01*
X-8673240Y34949096D01*
X-8882007Y34953520D01*
X-9116191Y34997911D01*
X-9400156Y35082297D01*
X-9675553Y35177203D01*
X-10172986Y35346452D01*
X-10590064Y35471813D01*
X-10936816Y35555803D01*
X-11223272Y35600937D01*
X-11404546Y35610800D01*
X-11560383Y35606630D01*
X-11669911Y35583365D01*
X-11767821Y35524872D01*
X-11888809Y35415019D01*
X-11944998Y35359491D01*
X-12104738Y35213031D01*
X-12238048Y35127240D01*
X-12379743Y35081724D01*
X-12436116Y35071784D01*
X-12740453Y35064922D01*
X-13106910Y35128525D01*
X-13538323Y35263320D01*
X-14037529Y35470034D01*
X-14097395Y35497515D01*
X-14409213Y35640079D01*
X-14643581Y35741398D01*
X-14814105Y35805299D01*
X-14934391Y35835610D01*
X-15018044Y35836157D01*
X-15078670Y35810768D01*
X-15111560Y35782784D01*
X-15161082Y35705618D01*
X-15170440Y35593126D01*
X-15154036Y35465238D01*
X-15128978Y35260536D01*
X-15114817Y35037050D01*
X-15113703Y34975800D01*
X-15118637Y34821479D01*
X-15147038Y34732582D01*
X-15217653Y34673044D01*
X-15290800Y34635083D01*
X-15472542Y34567778D01*
X-15713420Y34516093D01*
X-16019332Y34479840D01*
X-16396174Y34458831D01*
X-16849841Y34452879D01*
X-17386231Y34461797D01*
X-18011239Y34485395D01*
X-18730762Y34523487D01*
X-18754002Y34524860D01*
X-18992288Y34535245D01*
X-19204680Y34537766D01*
X-19363230Y34532454D01*
X-19427102Y34524118D01*
X-19496505Y34500207D01*
X-19535719Y34455827D01*
X-19553322Y34366238D01*
X-19557889Y34206698D01*
X-19558000Y34146502D01*
X-19571310Y33924913D01*
X-19620403Y33744297D01*
X-19719030Y33579931D01*
X-19880940Y33407090D01*
X-20053028Y33256309D01*
X-20286880Y33075401D01*
X-20586527Y32865168D01*
X-20926805Y32641547D01*
X-21282547Y32420474D01*
X-21628587Y32217885D01*
X-21939760Y32049715D01*
X-22027846Y32005780D01*
X-22304544Y31868718D01*
X-22501321Y31760155D01*
X-22630628Y31666280D01*
X-22704916Y31573285D01*
X-22736636Y31467359D01*
X-22738238Y31334693D01*
X-22729072Y31228017D01*
X-22719641Y31105407D01*
X-22718362Y30983388D01*
X-22727864Y30854961D01*
X-22750771Y30713129D01*
X-22789712Y30550895D01*
X-22847312Y30361259D01*
X-22926198Y30137225D01*
X-23028997Y29871794D01*
X-23158335Y29557968D01*
X-23316840Y29188749D01*
X-23507137Y28757139D01*
X-23731854Y28256141D01*
X-23993617Y27678756D01*
X-24295052Y27017987D01*
X-24374511Y26844207D01*
X-25491445Y24402214D01*
X-25448034Y21256207D01*
X-25431375Y19950908D01*
X-25418827Y18745667D01*
X-25410409Y17639025D01*
X-25406141Y16629525D01*
X-25406041Y15715707D01*
X-25410128Y14896112D01*
X-25418421Y14169282D01*
X-25430939Y13533757D01*
X-25447700Y12988079D01*
X-25468723Y12530789D01*
X-25494028Y12160428D01*
X-25523633Y11875537D01*
X-25557557Y11674658D01*
X-25572641Y11616497D01*
X-25680809Y11357434D01*
X-25854534Y11058365D01*
X-26077718Y10738456D01*
X-26334263Y10416873D01*
X-26608071Y10112783D01*
X-26883045Y9845353D01*
X-27143087Y9633749D01*
X-27339942Y9512300D01*
X-27541630Y9435619D01*
X-27735651Y9401817D01*
X-27893770Y9413121D01*
X-27980496Y9461785D01*
X-28019904Y9523559D01*
X-28048120Y9608323D01*
X-28065473Y9728321D01*
X-28072297Y9895797D01*
X-28068923Y10122996D01*
X-28055683Y10422162D01*
X-28032908Y10805538D01*
X-28021606Y10979125D01*
X-27997300Y11388004D01*
X-27973774Y11869420D01*
X-27950990Y12425327D01*
X-27928910Y13057679D01*
X-27907497Y13768429D01*
X-27886711Y14559531D01*
X-27866515Y15432939D01*
X-27846870Y16390606D01*
X-27827739Y17434487D01*
X-27809084Y18566535D01*
X-27790866Y19788704D01*
X-27773047Y21102948D01*
X-27755589Y22511220D01*
X-27738454Y24015475D01*
X-27721604Y25617665D01*
X-27707060Y27101800D01*
X-27673300Y30657800D01*
X-26636841Y33553400D01*
X-26447221Y34081555D01*
X-26263884Y34589166D01*
X-26090326Y35066747D01*
X-25930047Y35504809D01*
X-25786544Y35893866D01*
X-25663315Y36224431D01*
X-25563859Y36487015D01*
X-25491674Y36672133D01*
X-25452193Y36766216D01*
X-25306532Y37049327D01*
X-25161747Y37258033D01*
X-24995752Y37416903D01*
X-24786459Y37550502D01*
X-24712415Y37589081D01*
X-24558348Y37674947D01*
X-24414086Y37776457D01*
X-24273395Y37902257D01*
X-24130040Y38060995D01*
X-23977788Y38261318D01*
X-23810404Y38511873D01*
X-23621654Y38821307D01*
X-23405303Y39198267D01*
X-23155118Y39651400D01*
X-22943809Y40042191D01*
X-22730489Y40435413D01*
X-22555103Y40749129D01*
X-22410319Y40994793D01*
X-22288809Y41183859D01*
X-22183242Y41327781D01*
X-22086290Y41438014D01*
X-21998572Y41519378D01*
X-21934696Y41568705D01*
X-21863425Y41609556D01*
X-21768873Y41646512D01*
X-21635156Y41684154D01*
X-21446387Y41727063D01*
X-21186682Y41779820D01*
X-20907135Y41834126D01*
X-20656872Y41890935D01*
X-20448542Y41963255D01*
X-20263747Y42064101D01*
X-20084088Y42206486D01*
X-19891167Y42403425D01*
X-19666588Y42667930D01*
X-19584359Y42769807D01*
X-19246370Y43184363D01*
X-18914149Y43577483D01*
X-18595832Y43940440D01*
X-18299554Y44264508D01*
X-18033453Y44540960D01*
X-17805664Y44761071D01*
X-17624325Y44916113D01*
X-17515220Y44988975D01*
X-17429393Y45025616D01*
X-17330540Y45046531D01*
X-17196018Y45052960D01*
X-17003182Y45046142D01*
X-16765490Y45030037D01*
X-16367826Y45002586D01*
X-16044166Y44989200D01*
X-15772141Y44994217D01*
X-15529382Y45021972D01*
X-15293520Y45076801D01*
X-15042188Y45163040D01*
X-14753015Y45285025D01*
X-14403632Y45447093D01*
X-14259318Y45515841D01*
X-13790124Y45731198D01*
X-13323896Y45928606D01*
X-12874401Y46103308D01*
X-12455404Y46250549D01*
X-12080671Y46365574D01*
X-11763967Y46443626D01*
X-11519059Y46479950D01*
X-11462705Y46482001D01*
X-11325153Y46452538D01*
X-11163551Y46378095D01*
X-11106830Y46342300D01*
X-10975727Y46262843D01*
X-10848704Y46221210D01*
X-10683995Y46206829D01*
X-10570700Y46206599D01*
X-10339624Y46220404D01*
X-10105689Y46259941D01*
X-9850684Y46330841D01*
X-9556396Y46438735D01*
X-9204614Y46589255D01*
X-8940800Y46710600D01*
X-8518909Y46902001D01*
X-8162943Y47043708D01*
X-7851001Y47137109D01*
X-7561184Y47183590D01*
X-7271591Y47184539D01*
X-6960321Y47141343D01*
X-6960321Y47141343D01*
G37*
X-6960321Y47141343D02*
X-6605474Y47055389D01*
X-6185149Y46928065D01*
X-6074130Y46892168D01*
X-5713222Y46776984D01*
X-5428009Y46695674D01*
X-5198412Y46648213D01*
X-5004347Y46634576D01*
X-4825734Y46654740D01*
X-4642490Y46708679D01*
X-4434534Y46796368D01*
X-4238707Y46889911D01*
X-3969390Y47015297D01*
X-3737226Y47104406D01*
X-3519900Y47159356D01*
X-3295098Y47182265D01*
X-3040504Y47175250D01*
X-2733804Y47140430D01*
X-2352682Y47079924D01*
X-2311400Y47072849D01*
X-1750966Y46984227D01*
X-1244783Y46920003D01*
X-803310Y46881066D01*
X-437004Y46868302D01*
X-156323Y46882599D01*
X-122470Y46887100D01*
X62053Y46919362D01*
X304812Y46968847D01*
X565721Y47027181D01*
X687565Y47056339D01*
X907364Y47107307D01*
X1098696Y47140975D01*
X1276434Y47154499D01*
X1455452Y47145035D01*
X1650622Y47109741D01*
X1876817Y47045772D01*
X2148911Y46950286D01*
X2481776Y46820439D01*
X2890286Y46653387D01*
X2971800Y46619645D01*
X3294638Y46487678D01*
X3544185Y46391124D01*
X3739949Y46324040D01*
X3901440Y46280483D01*
X4048168Y46254510D01*
X4199644Y46240178D01*
X4222172Y46238772D01*
X4419585Y46228876D01*
X4547990Y46233964D01*
X4639793Y46262860D01*
X4727399Y46324385D01*
X4812238Y46399411D01*
X5011360Y46557054D01*
X5210616Y46658789D01*
X5440411Y46714794D01*
X5731146Y46735249D01*
X5817640Y46736000D01*
X6300103Y46706951D01*
X6757335Y46614514D01*
X7221833Y46450756D01*
X7493000Y46327014D01*
X7937139Y46135421D01*
X8329565Y46018680D01*
X8666645Y45977165D01*
X8944747Y46011251D01*
X9160236Y46121313D01*
X9194393Y46151411D01*
X9361977Y46275031D01*
X9557665Y46340440D01*
X9803838Y46352181D01*
X10053477Y46325789D01*
X10658459Y46191685D01*
X11280558Y45972511D01*
X11900401Y45678023D01*
X12498614Y45317972D01*
X13055826Y44902112D01*
X13292734Y44695042D01*
X13541064Y44475612D01*
X13747907Y44319517D01*
X13938704Y44213652D01*
X14138899Y44144915D01*
X14373935Y44100199D01*
X14472545Y44087391D01*
X14680142Y44057662D01*
X14864509Y44022660D01*
X14988264Y43989565D01*
X14994726Y43987095D01*
X15121673Y43906553D01*
X15296580Y43750971D01*
X15510797Y43529675D01*
X15755672Y43251992D01*
X16022552Y42927248D01*
X16253152Y42630531D01*
X16662078Y42118867D01*
X17090596Y41632932D01*
X17521847Y41190247D01*
X17938972Y40808333D01*
X18237145Y40568770D01*
X18443133Y40408882D01*
X18624100Y40252050D01*
X18788093Y40086705D01*
X18943162Y39901279D01*
X19097353Y39684204D01*
X19258715Y39423912D01*
X19435296Y39108834D01*
X19635143Y38727403D01*
X19866305Y38268050D01*
X19936993Y38125400D01*
X20392795Y37193613D01*
X20799485Y36339886D01*
X21160203Y35555148D01*
X21478089Y34830325D01*
X21756281Y34156344D01*
X21997919Y33524134D01*
X22206144Y32924620D01*
X22384095Y32348731D01*
X22534911Y31787393D01*
X22661732Y31231533D01*
X22767698Y30672079D01*
X22855948Y30099958D01*
X22929622Y29506097D01*
X22934257Y29464000D01*
X22972841Y29069296D01*
X23012835Y28582402D01*
X23053874Y28012574D01*
X23095596Y27369071D01*
X23137638Y26661149D01*
X23179637Y25898066D01*
X23221228Y25089078D01*
X23262049Y24243442D01*
X23301737Y23370416D01*
X23339927Y22479257D01*
X23376258Y21579221D01*
X23410365Y20679566D01*
X23441885Y19789549D01*
X23470455Y18918427D01*
X23495712Y18075457D01*
X23517293Y17269896D01*
X23534833Y16511001D01*
X23547971Y15808030D01*
X23556342Y15170239D01*
X23559583Y14606885D01*
X23557331Y14127225D01*
X23550161Y13769933D01*
X23531586Y13257181D01*
X23509548Y12835979D01*
X23482812Y12496298D01*
X23450142Y12228112D01*
X23410303Y12021394D01*
X23362059Y11866116D01*
X23304176Y11752252D01*
X23300978Y11747424D01*
X23223600Y11644108D01*
X23146724Y11577872D01*
X23061282Y11553506D01*
X22958204Y11575802D01*
X22828421Y11649551D01*
X22662862Y11779545D01*
X22452458Y11970574D01*
X22188139Y12227430D01*
X21958616Y12456558D01*
X21235032Y13183238D01*
X21133642Y16027719D01*
X21090629Y17188894D01*
X21047696Y18253273D01*
X21004487Y19225661D01*
X20960646Y20110862D01*
X20915816Y20913680D01*
X20869641Y21638919D01*
X20821765Y22291382D01*
X20771832Y22875873D01*
X20719485Y23397198D01*
X20664367Y23860159D01*
X20606124Y24269560D01*
X20544397Y24630205D01*
X20478832Y24946900D01*
X20469026Y24989285D01*
X20444151Y25097440D01*
X20422086Y25189525D01*
X20397833Y25274289D01*
X20366393Y25360484D01*
X20322765Y25456859D01*
X20261950Y25572163D01*
X20178950Y25715146D01*
X20068765Y25894560D01*
X19926395Y26119152D01*
X19746842Y26397674D01*
X19525106Y26738875D01*
X19256188Y27151505D01*
X19073373Y27432000D01*
X18676009Y28044004D01*
X18330176Y28581560D01*
X18030104Y29054117D01*
X17770020Y29471125D01*
X17544151Y29842034D01*
X17346726Y30176292D01*
X17171971Y30483348D01*
X17014115Y30772653D01*
X16901103Y30988000D01*
X16725795Y31320988D01*
X16576493Y31578405D01*
X16435676Y31776485D01*
X16285824Y31931463D01*
X16109416Y32059572D01*
X15888931Y32177047D01*
X15606850Y32300121D01*
X15390856Y32387349D01*
X14527536Y32777958D01*
X13738346Y33233118D01*
X13015307Y33757544D01*
X12875786Y33872972D01*
X12554471Y34174033D01*
X12323302Y34461192D01*
X12174213Y34746568D01*
X12099530Y35039369D01*
X12073491Y35208230D01*
X12048534Y35332440D01*
X12031982Y35381351D01*
X11976278Y35378059D01*
X11844250Y35350299D01*
X11656853Y35302920D01*
X11477483Y35253092D01*
X10951316Y35105305D01*
X10510875Y34990076D01*
X10146444Y34905132D01*
X9848305Y34848199D01*
X9618544Y34818072D01*
X9241053Y34816417D01*
X8922466Y34884665D01*
X8669389Y35019786D01*
X8488428Y35218751D01*
X8416618Y35369210D01*
X8354882Y35453326D01*
X8242850Y35546760D01*
X8218605Y35562720D01*
X8010213Y35637385D01*
X7761460Y35636722D01*
X7497697Y35562893D01*
X7350038Y35488712D01*
X6949778Y35269642D01*
X6606562Y35125190D01*
X6308996Y35054884D01*
X6045687Y35058251D01*
X5805240Y35134817D01*
X5576261Y35284111D01*
X5438649Y35409389D01*
X5254269Y35573157D01*
X5111693Y35652318D01*
X5055422Y35661600D01*
X4961100Y35643720D01*
X4794180Y35594719D01*
X4576256Y35521564D01*
X4328925Y35431218D01*
X4264180Y35406434D01*
X3859159Y35258514D01*
X3533993Y35160273D01*
X3280377Y35110889D01*
X3090009Y35109535D01*
X2954585Y35155388D01*
X2865801Y35247622D01*
X2855419Y35266530D01*
X2806161Y35376834D01*
X2739947Y35541768D01*
X2688810Y35677618D01*
X2609615Y35863009D01*
X2523755Y35985667D01*
X2422326Y36043453D01*
X2296422Y36034224D01*
X2137138Y35955840D01*
X1935571Y35806160D01*
X1682816Y35583043D01*
X1474419Y35385644D01*
X1166611Y35102070D01*
X906665Y34893557D01*
X682908Y34752834D01*
X483669Y34672633D01*
X297275Y34645683D01*
X286238Y34645601D01*
X56257Y34680644D01*
X-148540Y34792911D01*
X-346332Y34993106D01*
X-382717Y35039468D01*
X-542978Y35228287D01*
X-687384Y35341268D01*
X-842689Y35394808D01*
X-980423Y35405800D01*
X-1116091Y35395105D01*
X-1256708Y35354297D01*
X-1422300Y35274205D01*
X-1632892Y35145660D01*
X-1815992Y35023178D01*
X-2157313Y34819739D01*
X-2473353Y34698808D01*
X-2786648Y34653247D01*
X-2969175Y34657985D01*
X-3230633Y34696719D01*
X-3475001Y34775754D01*
X-3727113Y34906353D01*
X-4011805Y35099777D01*
X-4114800Y35177518D01*
X-4423253Y35400637D01*
X-4670782Y35547838D01*
X-4861649Y35621136D01*
X-5000118Y35622543D01*
X-5030472Y35610120D01*
X-5107858Y35534286D01*
X-5197013Y35397933D01*
X-5253780Y35284820D01*
X-5366232Y35073002D01*
X-5492472Y34932185D01*
X-5644612Y34860886D01*
X-5834759Y34857619D01*
X-6075025Y34920902D01*
X-6377520Y35049252D01*
X-6536783Y35127646D01*
X-6805562Y35256281D01*
X-7031619Y35349264D01*
X-7197494Y35399798D01*
X-7254551Y35407046D01*
X-7368769Y35387196D01*
X-7548473Y35333008D01*
X-7767146Y35253242D01*
X-7955833Y35175372D01*
X-8234515Y35060048D01*
X-8465530Y34984614D01*
X-8673240Y34949096D01*
X-8882007Y34953520D01*
X-9116191Y34997911D01*
X-9400156Y35082297D01*
X-9675553Y35177203D01*
X-10172986Y35346452D01*
X-10590064Y35471813D01*
X-10936816Y35555803D01*
X-11223272Y35600937D01*
X-11404546Y35610800D01*
X-11560383Y35606630D01*
X-11669911Y35583365D01*
X-11767821Y35524872D01*
X-11888809Y35415019D01*
X-11944998Y35359491D01*
X-12104738Y35213031D01*
X-12238048Y35127240D01*
X-12379743Y35081724D01*
X-12436116Y35071784D01*
X-12740453Y35064922D01*
X-13106910Y35128525D01*
X-13538323Y35263320D01*
X-14037529Y35470034D01*
X-14097395Y35497515D01*
X-14409213Y35640079D01*
X-14643581Y35741398D01*
X-14814105Y35805299D01*
X-14934391Y35835610D01*
X-15018044Y35836157D01*
X-15078670Y35810768D01*
X-15111560Y35782784D01*
X-15161082Y35705618D01*
X-15170440Y35593126D01*
X-15154036Y35465238D01*
X-15128978Y35260536D01*
X-15114817Y35037050D01*
X-15113703Y34975800D01*
X-15118637Y34821479D01*
X-15147038Y34732582D01*
X-15217653Y34673044D01*
X-15290800Y34635083D01*
X-15472542Y34567778D01*
X-15713420Y34516093D01*
X-16019332Y34479840D01*
X-16396174Y34458831D01*
X-16849841Y34452879D01*
X-17386231Y34461797D01*
X-18011239Y34485395D01*
X-18730762Y34523487D01*
X-18754002Y34524860D01*
X-18992288Y34535245D01*
X-19204680Y34537766D01*
X-19363230Y34532454D01*
X-19427102Y34524118D01*
X-19496505Y34500207D01*
X-19535719Y34455827D01*
X-19553322Y34366238D01*
X-19557889Y34206698D01*
X-19558000Y34146502D01*
X-19571310Y33924913D01*
X-19620403Y33744297D01*
X-19719030Y33579931D01*
X-19880940Y33407090D01*
X-20053028Y33256309D01*
X-20286880Y33075401D01*
X-20586527Y32865168D01*
X-20926805Y32641547D01*
X-21282547Y32420474D01*
X-21628587Y32217885D01*
X-21939760Y32049715D01*
X-22027846Y32005780D01*
X-22304544Y31868718D01*
X-22501321Y31760155D01*
X-22630628Y31666280D01*
X-22704916Y31573285D01*
X-22736636Y31467359D01*
X-22738238Y31334693D01*
X-22729072Y31228017D01*
X-22719641Y31105407D01*
X-22718362Y30983388D01*
X-22727864Y30854961D01*
X-22750771Y30713129D01*
X-22789712Y30550895D01*
X-22847312Y30361259D01*
X-22926198Y30137225D01*
X-23028997Y29871794D01*
X-23158335Y29557968D01*
X-23316840Y29188749D01*
X-23507137Y28757139D01*
X-23731854Y28256141D01*
X-23993617Y27678756D01*
X-24295052Y27017987D01*
X-24374511Y26844207D01*
X-25491445Y24402214D01*
X-25448034Y21256207D01*
X-25431375Y19950908D01*
X-25418827Y18745667D01*
X-25410409Y17639025D01*
X-25406141Y16629525D01*
X-25406041Y15715707D01*
X-25410128Y14896112D01*
X-25418421Y14169282D01*
X-25430939Y13533757D01*
X-25447700Y12988079D01*
X-25468723Y12530789D01*
X-25494028Y12160428D01*
X-25523633Y11875537D01*
X-25557557Y11674658D01*
X-25572641Y11616497D01*
X-25680809Y11357434D01*
X-25854534Y11058365D01*
X-26077718Y10738456D01*
X-26334263Y10416873D01*
X-26608071Y10112783D01*
X-26883045Y9845353D01*
X-27143087Y9633749D01*
X-27339942Y9512300D01*
X-27541630Y9435619D01*
X-27735651Y9401817D01*
X-27893770Y9413121D01*
X-27980496Y9461785D01*
X-28019904Y9523559D01*
X-28048120Y9608323D01*
X-28065473Y9728321D01*
X-28072297Y9895797D01*
X-28068923Y10122996D01*
X-28055683Y10422162D01*
X-28032908Y10805538D01*
X-28021606Y10979125D01*
X-27997300Y11388004D01*
X-27973774Y11869420D01*
X-27950990Y12425327D01*
X-27928910Y13057679D01*
X-27907497Y13768429D01*
X-27886711Y14559531D01*
X-27866515Y15432939D01*
X-27846870Y16390606D01*
X-27827739Y17434487D01*
X-27809084Y18566535D01*
X-27790866Y19788704D01*
X-27773047Y21102948D01*
X-27755589Y22511220D01*
X-27738454Y24015475D01*
X-27721604Y25617665D01*
X-27707060Y27101800D01*
X-27673300Y30657800D01*
X-26636841Y33553400D01*
X-26447221Y34081555D01*
X-26263884Y34589166D01*
X-26090326Y35066747D01*
X-25930047Y35504809D01*
X-25786544Y35893866D01*
X-25663315Y36224431D01*
X-25563859Y36487015D01*
X-25491674Y36672133D01*
X-25452193Y36766216D01*
X-25306532Y37049327D01*
X-25161747Y37258033D01*
X-24995752Y37416903D01*
X-24786459Y37550502D01*
X-24712415Y37589081D01*
X-24558348Y37674947D01*
X-24414086Y37776457D01*
X-24273395Y37902257D01*
X-24130040Y38060995D01*
X-23977788Y38261318D01*
X-23810404Y38511873D01*
X-23621654Y38821307D01*
X-23405303Y39198267D01*
X-23155118Y39651400D01*
X-22943809Y40042191D01*
X-22730489Y40435413D01*
X-22555103Y40749129D01*
X-22410319Y40994793D01*
X-22288809Y41183859D01*
X-22183242Y41327781D01*
X-22086290Y41438014D01*
X-21998572Y41519378D01*
X-21934696Y41568705D01*
X-21863425Y41609556D01*
X-21768873Y41646512D01*
X-21635156Y41684154D01*
X-21446387Y41727063D01*
X-21186682Y41779820D01*
X-20907135Y41834126D01*
X-20656872Y41890935D01*
X-20448542Y41963255D01*
X-20263747Y42064101D01*
X-20084088Y42206486D01*
X-19891167Y42403425D01*
X-19666588Y42667930D01*
X-19584359Y42769807D01*
X-19246370Y43184363D01*
X-18914149Y43577483D01*
X-18595832Y43940440D01*
X-18299554Y44264508D01*
X-18033453Y44540960D01*
X-17805664Y44761071D01*
X-17624325Y44916113D01*
X-17515220Y44988975D01*
X-17429393Y45025616D01*
X-17330540Y45046531D01*
X-17196018Y45052960D01*
X-17003182Y45046142D01*
X-16765490Y45030037D01*
X-16367826Y45002586D01*
X-16044166Y44989200D01*
X-15772141Y44994217D01*
X-15529382Y45021972D01*
X-15293520Y45076801D01*
X-15042188Y45163040D01*
X-14753015Y45285025D01*
X-14403632Y45447093D01*
X-14259318Y45515841D01*
X-13790124Y45731198D01*
X-13323896Y45928606D01*
X-12874401Y46103308D01*
X-12455404Y46250549D01*
X-12080671Y46365574D01*
X-11763967Y46443626D01*
X-11519059Y46479950D01*
X-11462705Y46482001D01*
X-11325153Y46452538D01*
X-11163551Y46378095D01*
X-11106830Y46342300D01*
X-10975727Y46262843D01*
X-10848704Y46221210D01*
X-10683995Y46206829D01*
X-10570700Y46206599D01*
X-10339624Y46220404D01*
X-10105689Y46259941D01*
X-9850684Y46330841D01*
X-9556396Y46438735D01*
X-9204614Y46589255D01*
X-8940800Y46710600D01*
X-8518909Y46902001D01*
X-8162943Y47043708D01*
X-7851001Y47137109D01*
X-7561184Y47183590D01*
X-7271591Y47184539D01*
X-6960321Y47141343D01*
D11*
X1514901Y-34993941D03*
X1514901Y-37533941D03*
D12*
X-1025099Y-34993941D03*
X-1025099Y-37533941D03*
X-3565099Y-34993941D03*
D13*
X-3565099Y-37533941D03*
M02*
