G04 #@! TF.GenerationSoftware,KiCad,Pcbnew,(5.1.2)-1*
G04 #@! TF.CreationDate,2019-06-30T22:56:59-05:00*
G04 #@! TF.ProjectId,hank-hill-sao,68616e6b-2d68-4696-9c6c-2d73616f2e6b,rev?*
G04 #@! TF.SameCoordinates,Original*
G04 #@! TF.FileFunction,Legend,Bot*
G04 #@! TF.FilePolarity,Positive*
%FSLAX46Y46*%
G04 Gerber Fmt 4.6, Leading zero omitted, Abs format (unit mm)*
G04 Created by KiCad (PCBNEW (5.1.2)-1) date 2019-06-30 22:56:59*
%MOMM*%
%LPD*%
G04 APERTURE LIST*
%ADD10C,0.120000*%
%ADD11C,0.700000*%
%ADD12C,0.150000*%
G04 APERTURE END LIST*
D10*
X-12867840Y2596260D02*
X-16752840Y2596260D01*
X-16752840Y2596260D02*
X-16752840Y4866260D01*
X-16752840Y4866260D02*
X-12867840Y4866260D01*
X9012920Y5234560D02*
X12897920Y5234560D01*
X9012920Y2964560D02*
X9012920Y5234560D01*
X12897920Y2964560D02*
X9012920Y2964560D01*
X-2118444Y-7282860D02*
X-914316Y-7282860D01*
X-2118444Y-5462860D02*
X-914316Y-5462860D01*
D11*
X-3625099Y-32179941D02*
X-8451099Y-32179941D01*
X6194541Y-32129141D02*
X1454901Y-32129141D01*
X-8451099Y-32179941D02*
X-8451099Y-40561941D01*
X-8451099Y-40561941D02*
X6280901Y-40561941D01*
X6280901Y-40561941D02*
X6280901Y-32179941D01*
D12*
X-13729744Y1458879D02*
X-13729744Y2458879D01*
X-13967840Y2458879D01*
X-14110697Y2411260D01*
X-14205935Y2316021D01*
X-14253554Y2220783D01*
X-14301173Y2030307D01*
X-14301173Y1887450D01*
X-14253554Y1696974D01*
X-14205935Y1601736D01*
X-14110697Y1506498D01*
X-13967840Y1458879D01*
X-13729744Y1458879D01*
X-15253554Y1458879D02*
X-14682125Y1458879D01*
X-14967840Y1458879D02*
X-14967840Y2458879D01*
X-14872601Y2316021D01*
X-14777363Y2220783D01*
X-14682125Y2173164D01*
X12036015Y1827179D02*
X12036015Y2827179D01*
X11797920Y2827179D01*
X11655062Y2779560D01*
X11559824Y2684321D01*
X11512205Y2589083D01*
X11464586Y2398607D01*
X11464586Y2255750D01*
X11512205Y2065274D01*
X11559824Y1970036D01*
X11655062Y1874798D01*
X11797920Y1827179D01*
X12036015Y1827179D01*
X11083634Y2731940D02*
X11036015Y2779560D01*
X10940777Y2827179D01*
X10702681Y2827179D01*
X10607443Y2779560D01*
X10559824Y2731940D01*
X10512205Y2636702D01*
X10512205Y2541464D01*
X10559824Y2398607D01*
X11131253Y1827179D01*
X10512205Y1827179D01*
X-1349713Y-8645240D02*
X-1016380Y-8169050D01*
X-778284Y-8645240D02*
X-778284Y-7645240D01*
X-1159237Y-7645240D01*
X-1254475Y-7692860D01*
X-1302094Y-7740479D01*
X-1349713Y-7835717D01*
X-1349713Y-7978574D01*
X-1302094Y-8073812D01*
X-1254475Y-8121431D01*
X-1159237Y-8169050D01*
X-778284Y-8169050D01*
X-2302094Y-8645240D02*
X-1730665Y-8645240D01*
X-2016379Y-8645240D02*
X-2016379Y-7645240D01*
X-1921141Y-7788098D01*
X-1825903Y-7883336D01*
X-1730665Y-7930955D01*
X-275575Y-29854321D02*
X-942241Y-30854321D01*
X-942241Y-29854321D02*
X-275575Y-30854321D01*
X-1847003Y-30854321D02*
X-1275575Y-30854321D01*
X-1561289Y-30854321D02*
X-1561289Y-29854321D01*
X-1466051Y-29997179D01*
X-1370813Y-30092417D01*
X-1275575Y-30140036D01*
X-2625098Y-33039226D02*
X-2875098Y-33789226D01*
X-3125098Y-33039226D01*
X-3803670Y-33717798D02*
X-3767956Y-33753512D01*
X-3660813Y-33789226D01*
X-3589384Y-33789226D01*
X-3482241Y-33753512D01*
X-3410813Y-33682083D01*
X-3375098Y-33610655D01*
X-3339384Y-33467798D01*
X-3339384Y-33360655D01*
X-3375098Y-33217798D01*
X-3410813Y-33146369D01*
X-3482241Y-33074941D01*
X-3589384Y-33039226D01*
X-3660813Y-33039226D01*
X-3767956Y-33074941D01*
X-3803670Y-33110655D01*
X-4553670Y-33717798D02*
X-4517956Y-33753512D01*
X-4410813Y-33789226D01*
X-4339384Y-33789226D01*
X-4232241Y-33753512D01*
X-4160813Y-33682083D01*
X-4125098Y-33610655D01*
X-4089384Y-33467798D01*
X-4089384Y-33360655D01*
X-4125098Y-33217798D01*
X-4160813Y-33146369D01*
X-4232241Y-33074941D01*
X-4339384Y-33039226D01*
X-4410813Y-33039226D01*
X-4517956Y-33074941D01*
X-4553670Y-33110655D01*
X-174384Y-33753512D02*
X-281527Y-33789226D01*
X-460099Y-33789226D01*
X-531527Y-33753512D01*
X-567241Y-33717798D01*
X-602956Y-33646369D01*
X-602956Y-33574941D01*
X-567241Y-33503512D01*
X-531527Y-33467798D01*
X-460099Y-33432083D01*
X-317241Y-33396369D01*
X-245813Y-33360655D01*
X-210099Y-33324941D01*
X-174384Y-33253512D01*
X-174384Y-33182083D01*
X-210099Y-33110655D01*
X-245813Y-33074941D01*
X-317241Y-33039226D01*
X-495813Y-33039226D01*
X-602956Y-33074941D01*
X-924384Y-33789226D02*
X-924384Y-33039226D01*
X-1102956Y-33039226D01*
X-1210098Y-33074941D01*
X-1281527Y-33146369D01*
X-1317241Y-33217798D01*
X-1352956Y-33360655D01*
X-1352956Y-33467798D01*
X-1317241Y-33610655D01*
X-1281527Y-33682083D01*
X-1210098Y-33753512D01*
X-1102956Y-33789226D01*
X-924384Y-33789226D01*
X-1638670Y-33574941D02*
X-1995813Y-33574941D01*
X-1567241Y-33789226D02*
X-1817241Y-33039226D01*
X-2067241Y-33789226D01*
X3959043Y-33074941D02*
X4030472Y-33039226D01*
X4137615Y-33039226D01*
X4244758Y-33074941D01*
X4316186Y-33146369D01*
X4351901Y-33217798D01*
X4387615Y-33360655D01*
X4387615Y-33467798D01*
X4351901Y-33610655D01*
X4316186Y-33682083D01*
X4244758Y-33753512D01*
X4137615Y-33789226D01*
X4066186Y-33789226D01*
X3959043Y-33753512D01*
X3923329Y-33717798D01*
X3923329Y-33467798D01*
X4066186Y-33467798D01*
X3601901Y-33789226D02*
X3601901Y-33039226D01*
X3316186Y-33039226D01*
X3244758Y-33074941D01*
X3209043Y-33110655D01*
X3173329Y-33182083D01*
X3173329Y-33289226D01*
X3209043Y-33360655D01*
X3244758Y-33396369D01*
X3316186Y-33432083D01*
X3601901Y-33432083D01*
X2851901Y-33789226D02*
X2851901Y-33039226D01*
X2351901Y-33039226D02*
X2209043Y-33039226D01*
X2137615Y-33074941D01*
X2066186Y-33146369D01*
X2030472Y-33289226D01*
X2030472Y-33539226D01*
X2066186Y-33682083D01*
X2137615Y-33753512D01*
X2209043Y-33789226D01*
X2351901Y-33789226D01*
X2423329Y-33753512D01*
X2494758Y-33682083D01*
X2530472Y-33539226D01*
X2530472Y-33289226D01*
X2494758Y-33146369D01*
X2423329Y-33074941D01*
X2351901Y-33039226D01*
X1316186Y-33789226D02*
X1744758Y-33789226D01*
X1530472Y-33789226D02*
X1530472Y-33039226D01*
X1601901Y-33146369D01*
X1673329Y-33217798D01*
X1744758Y-33253512D01*
X-3053670Y-38916941D02*
X-2982241Y-38881226D01*
X-2875099Y-38881226D01*
X-2767956Y-38916941D01*
X-2696527Y-38988369D01*
X-2660813Y-39059798D01*
X-2625099Y-39202655D01*
X-2625099Y-39309798D01*
X-2660813Y-39452655D01*
X-2696527Y-39524083D01*
X-2767956Y-39595512D01*
X-2875099Y-39631226D01*
X-2946527Y-39631226D01*
X-3053670Y-39595512D01*
X-3089384Y-39559798D01*
X-3089384Y-39309798D01*
X-2946527Y-39309798D01*
X-3410813Y-39631226D02*
X-3410813Y-38881226D01*
X-3839384Y-39631226D01*
X-3839384Y-38881226D01*
X-4196527Y-39631226D02*
X-4196527Y-38881226D01*
X-4375099Y-38881226D01*
X-4482241Y-38916941D01*
X-4553670Y-38988369D01*
X-4589384Y-39059798D01*
X-4625099Y-39202655D01*
X-4625099Y-39309798D01*
X-4589384Y-39452655D01*
X-4553670Y-39524083D01*
X-4482241Y-39595512D01*
X-4375099Y-39631226D01*
X-4196527Y-39631226D01*
X-192241Y-39595512D02*
X-299384Y-39631226D01*
X-477956Y-39631226D01*
X-549384Y-39595512D01*
X-585098Y-39559798D01*
X-620813Y-39488369D01*
X-620813Y-39416941D01*
X-585098Y-39345512D01*
X-549384Y-39309798D01*
X-477956Y-39274083D01*
X-335098Y-39238369D01*
X-263670Y-39202655D01*
X-227956Y-39166941D01*
X-192241Y-39095512D01*
X-192241Y-39024083D01*
X-227956Y-38952655D01*
X-263670Y-38916941D01*
X-335098Y-38881226D01*
X-513670Y-38881226D01*
X-620813Y-38916941D01*
X-1370813Y-39559798D02*
X-1335098Y-39595512D01*
X-1227956Y-39631226D01*
X-1156527Y-39631226D01*
X-1049384Y-39595512D01*
X-977956Y-39524083D01*
X-942241Y-39452655D01*
X-906527Y-39309798D01*
X-906527Y-39202655D01*
X-942241Y-39059798D01*
X-977956Y-38988369D01*
X-1049384Y-38916941D01*
X-1156527Y-38881226D01*
X-1227956Y-38881226D01*
X-1335098Y-38916941D01*
X-1370813Y-38952655D01*
X-2049384Y-39631226D02*
X-1692241Y-39631226D01*
X-1692241Y-38881226D01*
X3959043Y-38916941D02*
X4030472Y-38881226D01*
X4137615Y-38881226D01*
X4244758Y-38916941D01*
X4316186Y-38988369D01*
X4351901Y-39059798D01*
X4387615Y-39202655D01*
X4387615Y-39309798D01*
X4351901Y-39452655D01*
X4316186Y-39524083D01*
X4244758Y-39595512D01*
X4137615Y-39631226D01*
X4066186Y-39631226D01*
X3959043Y-39595512D01*
X3923329Y-39559798D01*
X3923329Y-39309798D01*
X4066186Y-39309798D01*
X3601901Y-39631226D02*
X3601901Y-38881226D01*
X3316186Y-38881226D01*
X3244758Y-38916941D01*
X3209043Y-38952655D01*
X3173329Y-39024083D01*
X3173329Y-39131226D01*
X3209043Y-39202655D01*
X3244758Y-39238369D01*
X3316186Y-39274083D01*
X3601901Y-39274083D01*
X2851901Y-39631226D02*
X2851901Y-38881226D01*
X2351901Y-38881226D02*
X2209043Y-38881226D01*
X2137615Y-38916941D01*
X2066186Y-38988369D01*
X2030472Y-39131226D01*
X2030472Y-39381226D01*
X2066186Y-39524083D01*
X2137615Y-39595512D01*
X2209043Y-39631226D01*
X2351901Y-39631226D01*
X2423329Y-39595512D01*
X2494758Y-39524083D01*
X2530472Y-39381226D01*
X2530472Y-39131226D01*
X2494758Y-38988369D01*
X2423329Y-38916941D01*
X2351901Y-38881226D01*
X1744758Y-38952655D02*
X1709043Y-38916941D01*
X1637615Y-38881226D01*
X1459043Y-38881226D01*
X1387615Y-38916941D01*
X1351901Y-38952655D01*
X1316186Y-39024083D01*
X1316186Y-39095512D01*
X1351901Y-39202655D01*
X1780472Y-39631226D01*
X1316186Y-39631226D01*
M02*
