G04 #@! TF.GenerationSoftware,KiCad,Pcbnew,(5.1.2)-1*
G04 #@! TF.CreationDate,2019-07-10T22:33:53-05:00*
G04 #@! TF.ProjectId,hank-hill-sao,68616e6b-2d68-4696-9c6c-2d73616f2e6b,rev?*
G04 #@! TF.SameCoordinates,Original*
G04 #@! TF.FileFunction,Copper,L2,Bot*
G04 #@! TF.FilePolarity,Positive*
%FSLAX46Y46*%
G04 Gerber Fmt 4.6, Leading zero omitted, Abs format (unit mm)*
G04 Created by KiCad (PCBNEW (5.1.2)-1) date 2019-07-10 22:33:53*
%MOMM*%
%LPD*%
G04 APERTURE LIST*
%ADD10C,0.010000*%
%ADD11C,0.100000*%
%ADD12C,1.250000*%
%ADD13C,1.727200*%
%ADD14O,1.727200X1.727200*%
%ADD15R,1.727200X1.727200*%
%ADD16C,0.250000*%
%ADD17C,0.254000*%
G04 APERTURE END LIST*
D10*
G36*
X-13968583Y9175068D02*
G01*
X-13879989Y9172929D01*
X-13807563Y9168653D01*
X-13746699Y9161689D01*
X-13692790Y9151485D01*
X-13641233Y9137490D01*
X-13587420Y9119153D01*
X-13578435Y9115831D01*
X-13499311Y9075597D01*
X-13440388Y9022263D01*
X-13402866Y8957585D01*
X-13387945Y8883315D01*
X-13389691Y8839982D01*
X-13409533Y8761740D01*
X-13447342Y8691069D01*
X-13499217Y8631883D01*
X-13561260Y8588094D01*
X-13629574Y8563615D01*
X-13668838Y8559800D01*
X-13754811Y8548116D01*
X-13831560Y8514933D01*
X-13897246Y8463053D01*
X-13950029Y8395278D01*
X-13988072Y8314412D01*
X-14009536Y8223258D01*
X-14012582Y8124617D01*
X-14002475Y8051188D01*
X-13970434Y7939763D01*
X-13922555Y7843502D01*
X-13855293Y7755340D01*
X-13852359Y7752113D01*
X-13818356Y7717671D01*
X-13782726Y7688740D01*
X-13739241Y7661149D01*
X-13681673Y7630726D01*
X-13642754Y7611755D01*
X-13552252Y7564982D01*
X-13484481Y7522024D01*
X-13441962Y7486331D01*
X-13410322Y7452592D01*
X-13393418Y7426225D01*
X-13386763Y7397998D01*
X-13385800Y7370718D01*
X-13388177Y7332622D01*
X-13398701Y7304935D01*
X-13422465Y7276669D01*
X-13435073Y7264396D01*
X-13497508Y7219149D01*
X-13584521Y7178672D01*
X-13695708Y7143129D01*
X-13775268Y7123935D01*
X-13820216Y7114971D01*
X-13865276Y7108004D01*
X-13914834Y7102723D01*
X-13973273Y7098818D01*
X-14044977Y7095980D01*
X-14134330Y7093897D01*
X-14217650Y7092615D01*
X-14311221Y7091896D01*
X-14402006Y7092148D01*
X-14485106Y7093288D01*
X-14555619Y7095228D01*
X-14608645Y7097884D01*
X-14630400Y7099829D01*
X-14754304Y7118908D01*
X-14858192Y7145045D01*
X-14946954Y7180313D01*
X-15025482Y7226787D01*
X-15098665Y7286541D01*
X-15120790Y7307846D01*
X-15200628Y7402566D01*
X-15271098Y7516452D01*
X-15330033Y7644313D01*
X-15375262Y7780956D01*
X-15404619Y7921190D01*
X-15414047Y8009967D01*
X-15411775Y8167497D01*
X-15385546Y8320007D01*
X-15336587Y8465742D01*
X-15266131Y8602945D01*
X-15175408Y8729861D01*
X-15065649Y8844733D01*
X-14938083Y8945808D01*
X-14793942Y9031328D01*
X-14655800Y9091791D01*
X-14579321Y9118746D01*
X-14509374Y9139409D01*
X-14440587Y9154560D01*
X-14367591Y9164977D01*
X-14285016Y9171440D01*
X-14187490Y9174729D01*
X-14077950Y9175620D01*
X-13968583Y9175068D01*
X-13968583Y9175068D01*
G37*
X-13968583Y9175068D02*
X-13879989Y9172929D01*
X-13807563Y9168653D01*
X-13746699Y9161689D01*
X-13692790Y9151485D01*
X-13641233Y9137490D01*
X-13587420Y9119153D01*
X-13578435Y9115831D01*
X-13499311Y9075597D01*
X-13440388Y9022263D01*
X-13402866Y8957585D01*
X-13387945Y8883315D01*
X-13389691Y8839982D01*
X-13409533Y8761740D01*
X-13447342Y8691069D01*
X-13499217Y8631883D01*
X-13561260Y8588094D01*
X-13629574Y8563615D01*
X-13668838Y8559800D01*
X-13754811Y8548116D01*
X-13831560Y8514933D01*
X-13897246Y8463053D01*
X-13950029Y8395278D01*
X-13988072Y8314412D01*
X-14009536Y8223258D01*
X-14012582Y8124617D01*
X-14002475Y8051188D01*
X-13970434Y7939763D01*
X-13922555Y7843502D01*
X-13855293Y7755340D01*
X-13852359Y7752113D01*
X-13818356Y7717671D01*
X-13782726Y7688740D01*
X-13739241Y7661149D01*
X-13681673Y7630726D01*
X-13642754Y7611755D01*
X-13552252Y7564982D01*
X-13484481Y7522024D01*
X-13441962Y7486331D01*
X-13410322Y7452592D01*
X-13393418Y7426225D01*
X-13386763Y7397998D01*
X-13385800Y7370718D01*
X-13388177Y7332622D01*
X-13398701Y7304935D01*
X-13422465Y7276669D01*
X-13435073Y7264396D01*
X-13497508Y7219149D01*
X-13584521Y7178672D01*
X-13695708Y7143129D01*
X-13775268Y7123935D01*
X-13820216Y7114971D01*
X-13865276Y7108004D01*
X-13914834Y7102723D01*
X-13973273Y7098818D01*
X-14044977Y7095980D01*
X-14134330Y7093897D01*
X-14217650Y7092615D01*
X-14311221Y7091896D01*
X-14402006Y7092148D01*
X-14485106Y7093288D01*
X-14555619Y7095228D01*
X-14608645Y7097884D01*
X-14630400Y7099829D01*
X-14754304Y7118908D01*
X-14858192Y7145045D01*
X-14946954Y7180313D01*
X-15025482Y7226787D01*
X-15098665Y7286541D01*
X-15120790Y7307846D01*
X-15200628Y7402566D01*
X-15271098Y7516452D01*
X-15330033Y7644313D01*
X-15375262Y7780956D01*
X-15404619Y7921190D01*
X-15414047Y8009967D01*
X-15411775Y8167497D01*
X-15385546Y8320007D01*
X-15336587Y8465742D01*
X-15266131Y8602945D01*
X-15175408Y8729861D01*
X-15065649Y8844733D01*
X-14938083Y8945808D01*
X-14793942Y9031328D01*
X-14655800Y9091791D01*
X-14579321Y9118746D01*
X-14509374Y9139409D01*
X-14440587Y9154560D01*
X-14367591Y9164977D01*
X-14285016Y9171440D01*
X-14187490Y9174729D01*
X-14077950Y9175620D01*
X-13968583Y9175068D01*
G36*
X10635431Y9343996D02*
G01*
X10732113Y9336553D01*
X10818981Y9323744D01*
X10877550Y9309331D01*
X10916013Y9295587D01*
X10968641Y9274542D01*
X11031956Y9247806D01*
X11102479Y9216986D01*
X11176730Y9183692D01*
X11251232Y9149531D01*
X11322505Y9116114D01*
X11387071Y9085049D01*
X11441451Y9057943D01*
X11482166Y9036407D01*
X11505737Y9022048D01*
X11509988Y9016869D01*
X11495760Y9009920D01*
X11461220Y8995205D01*
X11409752Y8974099D01*
X11344741Y8947981D01*
X11269572Y8918226D01*
X11214100Y8896509D01*
X11088495Y8846952D01*
X10983755Y8804163D01*
X10896721Y8766653D01*
X10824236Y8732935D01*
X10763144Y8701523D01*
X10710285Y8670929D01*
X10662504Y8639667D01*
X10649797Y8630729D01*
X10550486Y8548213D01*
X10475444Y8460585D01*
X10424743Y8369197D01*
X10398458Y8275400D01*
X10396659Y8180547D01*
X10419421Y8085990D01*
X10466817Y7993081D01*
X10538919Y7903173D01*
X10607158Y7840243D01*
X10647075Y7810163D01*
X10700424Y7773686D01*
X10758411Y7736715D01*
X10786256Y7719973D01*
X10888370Y7653750D01*
X10973477Y7585559D01*
X11040220Y7517125D01*
X11087241Y7450171D01*
X11113183Y7386423D01*
X11116689Y7327605D01*
X11111708Y7306451D01*
X11080565Y7251197D01*
X11027528Y7202705D01*
X10955392Y7161773D01*
X10866951Y7129196D01*
X10765001Y7105771D01*
X10652337Y7092292D01*
X10531753Y7089557D01*
X10406044Y7098361D01*
X10388600Y7100508D01*
X10251592Y7125636D01*
X10112029Y7164742D01*
X9976445Y7215311D01*
X9851373Y7274830D01*
X9743348Y7340785D01*
X9720182Y7357673D01*
X9612343Y7454950D01*
X9521228Y7569104D01*
X9448255Y7696742D01*
X9394845Y7834468D01*
X9362417Y7978889D01*
X9352389Y8126612D01*
X9358529Y8222577D01*
X9390645Y8393054D01*
X9445945Y8554723D01*
X9524825Y8708365D01*
X9627682Y8854759D01*
X9746040Y8985919D01*
X9882073Y9104583D01*
X10029420Y9201570D01*
X10186306Y9275899D01*
X10350956Y9326586D01*
X10369340Y9330650D01*
X10445760Y9341392D01*
X10537219Y9345725D01*
X10635431Y9343996D01*
X10635431Y9343996D01*
G37*
X10635431Y9343996D02*
X10732113Y9336553D01*
X10818981Y9323744D01*
X10877550Y9309331D01*
X10916013Y9295587D01*
X10968641Y9274542D01*
X11031956Y9247806D01*
X11102479Y9216986D01*
X11176730Y9183692D01*
X11251232Y9149531D01*
X11322505Y9116114D01*
X11387071Y9085049D01*
X11441451Y9057943D01*
X11482166Y9036407D01*
X11505737Y9022048D01*
X11509988Y9016869D01*
X11495760Y9009920D01*
X11461220Y8995205D01*
X11409752Y8974099D01*
X11344741Y8947981D01*
X11269572Y8918226D01*
X11214100Y8896509D01*
X11088495Y8846952D01*
X10983755Y8804163D01*
X10896721Y8766653D01*
X10824236Y8732935D01*
X10763144Y8701523D01*
X10710285Y8670929D01*
X10662504Y8639667D01*
X10649797Y8630729D01*
X10550486Y8548213D01*
X10475444Y8460585D01*
X10424743Y8369197D01*
X10398458Y8275400D01*
X10396659Y8180547D01*
X10419421Y8085990D01*
X10466817Y7993081D01*
X10538919Y7903173D01*
X10607158Y7840243D01*
X10647075Y7810163D01*
X10700424Y7773686D01*
X10758411Y7736715D01*
X10786256Y7719973D01*
X10888370Y7653750D01*
X10973477Y7585559D01*
X11040220Y7517125D01*
X11087241Y7450171D01*
X11113183Y7386423D01*
X11116689Y7327605D01*
X11111708Y7306451D01*
X11080565Y7251197D01*
X11027528Y7202705D01*
X10955392Y7161773D01*
X10866951Y7129196D01*
X10765001Y7105771D01*
X10652337Y7092292D01*
X10531753Y7089557D01*
X10406044Y7098361D01*
X10388600Y7100508D01*
X10251592Y7125636D01*
X10112029Y7164742D01*
X9976445Y7215311D01*
X9851373Y7274830D01*
X9743348Y7340785D01*
X9720182Y7357673D01*
X9612343Y7454950D01*
X9521228Y7569104D01*
X9448255Y7696742D01*
X9394845Y7834468D01*
X9362417Y7978889D01*
X9352389Y8126612D01*
X9358529Y8222577D01*
X9390645Y8393054D01*
X9445945Y8554723D01*
X9524825Y8708365D01*
X9627682Y8854759D01*
X9746040Y8985919D01*
X9882073Y9104583D01*
X10029420Y9201570D01*
X10186306Y9275899D01*
X10350956Y9326586D01*
X10369340Y9330650D01*
X10445760Y9341392D01*
X10537219Y9345725D01*
X10635431Y9343996D01*
D11*
G36*
X12713884Y4625376D02*
G01*
X12738153Y4621776D01*
X12761951Y4615815D01*
X12785051Y4607550D01*
X12807229Y4597060D01*
X12828273Y4584447D01*
X12847978Y4569833D01*
X12866157Y4553357D01*
X12882633Y4535178D01*
X12897247Y4515473D01*
X12909860Y4494429D01*
X12920350Y4472251D01*
X12928615Y4449151D01*
X12934576Y4425353D01*
X12938176Y4401084D01*
X12939380Y4376580D01*
X12939380Y3126580D01*
X12938176Y3102076D01*
X12934576Y3077807D01*
X12928615Y3054009D01*
X12920350Y3030909D01*
X12909860Y3008731D01*
X12897247Y2987687D01*
X12882633Y2967982D01*
X12866157Y2949803D01*
X12847978Y2933327D01*
X12828273Y2918713D01*
X12807229Y2906100D01*
X12785051Y2895610D01*
X12761951Y2887345D01*
X12738153Y2881384D01*
X12713884Y2877784D01*
X12689380Y2876580D01*
X11939380Y2876580D01*
X11914876Y2877784D01*
X11890607Y2881384D01*
X11866809Y2887345D01*
X11843709Y2895610D01*
X11821531Y2906100D01*
X11800487Y2918713D01*
X11780782Y2933327D01*
X11762603Y2949803D01*
X11746127Y2967982D01*
X11731513Y2987687D01*
X11718900Y3008731D01*
X11708410Y3030909D01*
X11700145Y3054009D01*
X11694184Y3077807D01*
X11690584Y3102076D01*
X11689380Y3126580D01*
X11689380Y4376580D01*
X11690584Y4401084D01*
X11694184Y4425353D01*
X11700145Y4449151D01*
X11708410Y4472251D01*
X11718900Y4494429D01*
X11731513Y4515473D01*
X11746127Y4535178D01*
X11762603Y4553357D01*
X11780782Y4569833D01*
X11800487Y4584447D01*
X11821531Y4597060D01*
X11843709Y4607550D01*
X11866809Y4615815D01*
X11890607Y4621776D01*
X11914876Y4625376D01*
X11939380Y4626580D01*
X12689380Y4626580D01*
X12713884Y4625376D01*
X12713884Y4625376D01*
G37*
D12*
X12314380Y3751580D03*
D11*
G36*
X9913884Y4625376D02*
G01*
X9938153Y4621776D01*
X9961951Y4615815D01*
X9985051Y4607550D01*
X10007229Y4597060D01*
X10028273Y4584447D01*
X10047978Y4569833D01*
X10066157Y4553357D01*
X10082633Y4535178D01*
X10097247Y4515473D01*
X10109860Y4494429D01*
X10120350Y4472251D01*
X10128615Y4449151D01*
X10134576Y4425353D01*
X10138176Y4401084D01*
X10139380Y4376580D01*
X10139380Y3126580D01*
X10138176Y3102076D01*
X10134576Y3077807D01*
X10128615Y3054009D01*
X10120350Y3030909D01*
X10109860Y3008731D01*
X10097247Y2987687D01*
X10082633Y2967982D01*
X10066157Y2949803D01*
X10047978Y2933327D01*
X10028273Y2918713D01*
X10007229Y2906100D01*
X9985051Y2895610D01*
X9961951Y2887345D01*
X9938153Y2881384D01*
X9913884Y2877784D01*
X9889380Y2876580D01*
X9139380Y2876580D01*
X9114876Y2877784D01*
X9090607Y2881384D01*
X9066809Y2887345D01*
X9043709Y2895610D01*
X9021531Y2906100D01*
X9000487Y2918713D01*
X8980782Y2933327D01*
X8962603Y2949803D01*
X8946127Y2967982D01*
X8931513Y2987687D01*
X8918900Y3008731D01*
X8908410Y3030909D01*
X8900145Y3054009D01*
X8894184Y3077807D01*
X8890584Y3102076D01*
X8889380Y3126580D01*
X8889380Y4376580D01*
X8890584Y4401084D01*
X8894184Y4425353D01*
X8900145Y4449151D01*
X8908410Y4472251D01*
X8918900Y4494429D01*
X8931513Y4515473D01*
X8946127Y4535178D01*
X8962603Y4553357D01*
X8980782Y4569833D01*
X9000487Y4584447D01*
X9021531Y4597060D01*
X9043709Y4607550D01*
X9066809Y4615815D01*
X9090607Y4621776D01*
X9114876Y4625376D01*
X9139380Y4626580D01*
X9889380Y4626580D01*
X9913884Y4625376D01*
X9913884Y4625376D01*
G37*
D12*
X9514380Y3751580D03*
D11*
G36*
X-15635976Y4826036D02*
G01*
X-15611707Y4822436D01*
X-15587909Y4816475D01*
X-15564809Y4808210D01*
X-15542631Y4797720D01*
X-15521587Y4785107D01*
X-15501882Y4770493D01*
X-15483703Y4754017D01*
X-15467227Y4735838D01*
X-15452613Y4716133D01*
X-15440000Y4695089D01*
X-15429510Y4672911D01*
X-15421245Y4649811D01*
X-15415284Y4626013D01*
X-15411684Y4601744D01*
X-15410480Y4577240D01*
X-15410480Y3327240D01*
X-15411684Y3302736D01*
X-15415284Y3278467D01*
X-15421245Y3254669D01*
X-15429510Y3231569D01*
X-15440000Y3209391D01*
X-15452613Y3188347D01*
X-15467227Y3168642D01*
X-15483703Y3150463D01*
X-15501882Y3133987D01*
X-15521587Y3119373D01*
X-15542631Y3106760D01*
X-15564809Y3096270D01*
X-15587909Y3088005D01*
X-15611707Y3082044D01*
X-15635976Y3078444D01*
X-15660480Y3077240D01*
X-16410480Y3077240D01*
X-16434984Y3078444D01*
X-16459253Y3082044D01*
X-16483051Y3088005D01*
X-16506151Y3096270D01*
X-16528329Y3106760D01*
X-16549373Y3119373D01*
X-16569078Y3133987D01*
X-16587257Y3150463D01*
X-16603733Y3168642D01*
X-16618347Y3188347D01*
X-16630960Y3209391D01*
X-16641450Y3231569D01*
X-16649715Y3254669D01*
X-16655676Y3278467D01*
X-16659276Y3302736D01*
X-16660480Y3327240D01*
X-16660480Y4577240D01*
X-16659276Y4601744D01*
X-16655676Y4626013D01*
X-16649715Y4649811D01*
X-16641450Y4672911D01*
X-16630960Y4695089D01*
X-16618347Y4716133D01*
X-16603733Y4735838D01*
X-16587257Y4754017D01*
X-16569078Y4770493D01*
X-16549373Y4785107D01*
X-16528329Y4797720D01*
X-16506151Y4808210D01*
X-16483051Y4816475D01*
X-16459253Y4822436D01*
X-16434984Y4826036D01*
X-16410480Y4827240D01*
X-15660480Y4827240D01*
X-15635976Y4826036D01*
X-15635976Y4826036D01*
G37*
D12*
X-16035480Y3952240D03*
D11*
G36*
X-12835976Y4826036D02*
G01*
X-12811707Y4822436D01*
X-12787909Y4816475D01*
X-12764809Y4808210D01*
X-12742631Y4797720D01*
X-12721587Y4785107D01*
X-12701882Y4770493D01*
X-12683703Y4754017D01*
X-12667227Y4735838D01*
X-12652613Y4716133D01*
X-12640000Y4695089D01*
X-12629510Y4672911D01*
X-12621245Y4649811D01*
X-12615284Y4626013D01*
X-12611684Y4601744D01*
X-12610480Y4577240D01*
X-12610480Y3327240D01*
X-12611684Y3302736D01*
X-12615284Y3278467D01*
X-12621245Y3254669D01*
X-12629510Y3231569D01*
X-12640000Y3209391D01*
X-12652613Y3188347D01*
X-12667227Y3168642D01*
X-12683703Y3150463D01*
X-12701882Y3133987D01*
X-12721587Y3119373D01*
X-12742631Y3106760D01*
X-12764809Y3096270D01*
X-12787909Y3088005D01*
X-12811707Y3082044D01*
X-12835976Y3078444D01*
X-12860480Y3077240D01*
X-13610480Y3077240D01*
X-13634984Y3078444D01*
X-13659253Y3082044D01*
X-13683051Y3088005D01*
X-13706151Y3096270D01*
X-13728329Y3106760D01*
X-13749373Y3119373D01*
X-13769078Y3133987D01*
X-13787257Y3150463D01*
X-13803733Y3168642D01*
X-13818347Y3188347D01*
X-13830960Y3209391D01*
X-13841450Y3231569D01*
X-13849715Y3254669D01*
X-13855676Y3278467D01*
X-13859276Y3302736D01*
X-13860480Y3327240D01*
X-13860480Y4577240D01*
X-13859276Y4601744D01*
X-13855676Y4626013D01*
X-13849715Y4649811D01*
X-13841450Y4672911D01*
X-13830960Y4695089D01*
X-13818347Y4716133D01*
X-13803733Y4735838D01*
X-13787257Y4754017D01*
X-13769078Y4770493D01*
X-13749373Y4785107D01*
X-13728329Y4797720D01*
X-13706151Y4808210D01*
X-13683051Y4816475D01*
X-13659253Y4822436D01*
X-13634984Y4826036D01*
X-13610480Y4827240D01*
X-12860480Y4827240D01*
X-12835976Y4826036D01*
X-12835976Y4826036D01*
G37*
D12*
X-13235480Y3952240D03*
D11*
G36*
X-196936Y-10919424D02*
G01*
X-172667Y-10923024D01*
X-148869Y-10928985D01*
X-125769Y-10937250D01*
X-103591Y-10947740D01*
X-82547Y-10960353D01*
X-62842Y-10974967D01*
X-44663Y-10991443D01*
X-28187Y-11009622D01*
X-13573Y-11029327D01*
X-960Y-11050371D01*
X9530Y-11072549D01*
X17795Y-11095649D01*
X23756Y-11119447D01*
X27356Y-11143716D01*
X28560Y-11168220D01*
X28560Y-12418220D01*
X27356Y-12442724D01*
X23756Y-12466993D01*
X17795Y-12490791D01*
X9530Y-12513891D01*
X-960Y-12536069D01*
X-13573Y-12557113D01*
X-28187Y-12576818D01*
X-44663Y-12594997D01*
X-62842Y-12611473D01*
X-82547Y-12626087D01*
X-103591Y-12638700D01*
X-125769Y-12649190D01*
X-148869Y-12657455D01*
X-172667Y-12663416D01*
X-196936Y-12667016D01*
X-221440Y-12668220D01*
X-971440Y-12668220D01*
X-995944Y-12667016D01*
X-1020213Y-12663416D01*
X-1044011Y-12657455D01*
X-1067111Y-12649190D01*
X-1089289Y-12638700D01*
X-1110333Y-12626087D01*
X-1130038Y-12611473D01*
X-1148217Y-12594997D01*
X-1164693Y-12576818D01*
X-1179307Y-12557113D01*
X-1191920Y-12536069D01*
X-1202410Y-12513891D01*
X-1210675Y-12490791D01*
X-1216636Y-12466993D01*
X-1220236Y-12442724D01*
X-1221440Y-12418220D01*
X-1221440Y-11168220D01*
X-1220236Y-11143716D01*
X-1216636Y-11119447D01*
X-1210675Y-11095649D01*
X-1202410Y-11072549D01*
X-1191920Y-11050371D01*
X-1179307Y-11029327D01*
X-1164693Y-11009622D01*
X-1148217Y-10991443D01*
X-1130038Y-10974967D01*
X-1110333Y-10960353D01*
X-1089289Y-10947740D01*
X-1067111Y-10937250D01*
X-1044011Y-10928985D01*
X-1020213Y-10923024D01*
X-995944Y-10919424D01*
X-971440Y-10918220D01*
X-221440Y-10918220D01*
X-196936Y-10919424D01*
X-196936Y-10919424D01*
G37*
D12*
X-596440Y-11793220D03*
D11*
G36*
X-2996936Y-10919424D02*
G01*
X-2972667Y-10923024D01*
X-2948869Y-10928985D01*
X-2925769Y-10937250D01*
X-2903591Y-10947740D01*
X-2882547Y-10960353D01*
X-2862842Y-10974967D01*
X-2844663Y-10991443D01*
X-2828187Y-11009622D01*
X-2813573Y-11029327D01*
X-2800960Y-11050371D01*
X-2790470Y-11072549D01*
X-2782205Y-11095649D01*
X-2776244Y-11119447D01*
X-2772644Y-11143716D01*
X-2771440Y-11168220D01*
X-2771440Y-12418220D01*
X-2772644Y-12442724D01*
X-2776244Y-12466993D01*
X-2782205Y-12490791D01*
X-2790470Y-12513891D01*
X-2800960Y-12536069D01*
X-2813573Y-12557113D01*
X-2828187Y-12576818D01*
X-2844663Y-12594997D01*
X-2862842Y-12611473D01*
X-2882547Y-12626087D01*
X-2903591Y-12638700D01*
X-2925769Y-12649190D01*
X-2948869Y-12657455D01*
X-2972667Y-12663416D01*
X-2996936Y-12667016D01*
X-3021440Y-12668220D01*
X-3771440Y-12668220D01*
X-3795944Y-12667016D01*
X-3820213Y-12663416D01*
X-3844011Y-12657455D01*
X-3867111Y-12649190D01*
X-3889289Y-12638700D01*
X-3910333Y-12626087D01*
X-3930038Y-12611473D01*
X-3948217Y-12594997D01*
X-3964693Y-12576818D01*
X-3979307Y-12557113D01*
X-3991920Y-12536069D01*
X-4002410Y-12513891D01*
X-4010675Y-12490791D01*
X-4016636Y-12466993D01*
X-4020236Y-12442724D01*
X-4021440Y-12418220D01*
X-4021440Y-11168220D01*
X-4020236Y-11143716D01*
X-4016636Y-11119447D01*
X-4010675Y-11095649D01*
X-4002410Y-11072549D01*
X-3991920Y-11050371D01*
X-3979307Y-11029327D01*
X-3964693Y-11009622D01*
X-3948217Y-10991443D01*
X-3930038Y-10974967D01*
X-3910333Y-10960353D01*
X-3889289Y-10947740D01*
X-3867111Y-10937250D01*
X-3844011Y-10928985D01*
X-3820213Y-10923024D01*
X-3795944Y-10919424D01*
X-3771440Y-10918220D01*
X-3021440Y-10918220D01*
X-2996936Y-10919424D01*
X-2996936Y-10919424D01*
G37*
D12*
X-3396440Y-11793220D03*
D13*
X1523040Y-39819260D03*
X1523040Y-42359260D03*
D14*
X-1016960Y-39819260D03*
X-1016960Y-42359260D03*
X-3556960Y-39819260D03*
D15*
X-3556960Y-42359260D03*
D16*
X-3556960Y-11953740D02*
X-3396440Y-11793220D01*
X-3556960Y-39819260D02*
X-3556960Y-11953740D01*
X128560Y-11793220D02*
X131100Y-11795760D01*
X-596440Y-11793220D02*
X128560Y-11793220D01*
X131100Y-11795760D02*
X2425700Y-11795760D01*
X2425700Y-11795760D02*
X9575800Y-4645660D01*
X9514380Y-4584240D02*
X9514380Y3751580D01*
X9575800Y-4645660D02*
X9514380Y-4584240D01*
X-596440Y-10818220D02*
X-8120280Y-3294380D01*
X-596440Y-11793220D02*
X-596440Y-10818220D01*
X-8788860Y-3294380D02*
X-16035480Y3952240D01*
X-8120280Y-3294380D02*
X-8788860Y-3294380D01*
D17*
G36*
X990141Y48003071D02*
G01*
X1149396Y47995528D01*
X1310547Y47983388D01*
X1469804Y47967045D01*
X1623184Y47946937D01*
X1766653Y47923548D01*
X1896167Y47897423D01*
X2007061Y47869365D01*
X2096467Y47839941D01*
X2118548Y47830892D01*
X2162438Y47808992D01*
X2159797Y47806148D01*
X2143340Y47784027D01*
X2127508Y47757059D01*
X2117069Y47734457D01*
X2112704Y47718688D01*
X2110874Y47709912D01*
X2108205Y47685159D01*
X2110417Y47660361D01*
X2115796Y47640723D01*
X2127702Y47607864D01*
X2138437Y47585401D01*
X2152504Y47566397D01*
X2186805Y47528100D01*
X2203301Y47512689D01*
X2257866Y47470131D01*
X2268443Y47462714D01*
X2341144Y47417070D01*
X2348673Y47412696D01*
X2437379Y47365146D01*
X2443297Y47362170D01*
X2545881Y47313889D01*
X2550945Y47311639D01*
X2665275Y47263805D01*
X2669929Y47261965D01*
X2793878Y47215756D01*
X2797428Y47214492D01*
X2871680Y47189293D01*
X2873692Y47188629D01*
X3004431Y47146679D01*
X3006609Y47146001D01*
X3117931Y47112474D01*
X3121440Y47111472D01*
X3217567Y47085509D01*
X3222666Y47084245D01*
X3307824Y47064985D01*
X3314417Y47063676D01*
X3392829Y47050257D01*
X3400219Y47049215D01*
X3476108Y47040778D01*
X3483086Y47040196D01*
X3560679Y47035879D01*
X3565812Y47035698D01*
X3636628Y47034626D01*
X3639780Y47034617D01*
X3728139Y47035473D01*
X3733942Y47035662D01*
X3804581Y47039580D01*
X3815952Y47040725D01*
X3875704Y47049476D01*
X3891057Y47052705D01*
X3946758Y47068063D01*
X3960763Y47072817D01*
X4019247Y47096554D01*
X4028061Y47100529D01*
X4096164Y47134416D01*
X4099850Y47136326D01*
X4160565Y47169054D01*
X4310712Y47243867D01*
X4454455Y47299943D01*
X4600404Y47340489D01*
X4755254Y47367159D01*
X4926205Y47381116D01*
X5049475Y47383650D01*
X5219451Y47379104D01*
X5391673Y47365142D01*
X5569847Y47341127D01*
X5757212Y47306376D01*
X5956970Y47260177D01*
X6172179Y47201835D01*
X6406251Y47130554D01*
X6486678Y47104554D01*
X6487347Y47104340D01*
X6675841Y47044553D01*
X6678839Y47043642D01*
X6849473Y46994118D01*
X6853590Y46992998D01*
X7011348Y46952905D01*
X7016513Y46951706D01*
X7166386Y46920212D01*
X7172263Y46919121D01*
X7319235Y46895395D01*
X7325260Y46894570D01*
X7474321Y46877780D01*
X7479864Y46877278D01*
X7636000Y46866591D01*
X7640587Y46866361D01*
X7808786Y46860948D01*
X7811901Y46860886D01*
X7955580Y46859789D01*
X7957241Y46859787D01*
X8065104Y46860374D01*
X8066695Y46860393D01*
X8164568Y46862152D01*
X8166675Y46862207D01*
X8260382Y46865447D01*
X8262683Y46865547D01*
X8358050Y46870578D01*
X8360144Y46870706D01*
X8462995Y46877837D01*
X8464606Y46877959D01*
X8580766Y46887499D01*
X8581833Y46887591D01*
X8717127Y46899852D01*
X8717488Y46899885D01*
X8724023Y46900496D01*
X8902917Y46916733D01*
X9059227Y46929636D01*
X9195377Y46939185D01*
X9314246Y46945416D01*
X9418544Y46948373D01*
X9511228Y46948130D01*
X9595216Y46944769D01*
X9673857Y46938335D01*
X9750558Y46928789D01*
X9828778Y46915999D01*
X9893030Y46903628D01*
X10002205Y46878336D01*
X10123001Y46844276D01*
X10257565Y46800621D01*
X10406945Y46746849D01*
X10572155Y46682478D01*
X10754226Y46607051D01*
X10954187Y46520131D01*
X11173327Y46421178D01*
X11412592Y46309813D01*
X11572362Y46233940D01*
X11956427Y46051517D01*
X11957074Y46051212D01*
X12319517Y45881555D01*
X12320255Y45881212D01*
X12661345Y45724208D01*
X12662193Y45723822D01*
X12982201Y45579356D01*
X12983180Y45578919D01*
X13282374Y45446878D01*
X13283513Y45446381D01*
X13562163Y45326651D01*
X13563501Y45326086D01*
X13821877Y45218551D01*
X13823465Y45217902D01*
X14061835Y45122450D01*
X14063742Y45121704D01*
X14282378Y45038219D01*
X14284702Y45037358D01*
X14483872Y44965728D01*
X14486752Y44964731D01*
X14666726Y44904841D01*
X14670328Y44903702D01*
X14828031Y44856384D01*
X14899584Y44834325D01*
X14972764Y44808564D01*
X15039102Y44782365D01*
X15082922Y44762421D01*
X15230529Y44678894D01*
X15387514Y44572387D01*
X15552977Y44443344D01*
X15725499Y44292722D01*
X15903798Y44121517D01*
X16086706Y43930715D01*
X16273145Y43721266D01*
X16462008Y43494200D01*
X16652787Y43249819D01*
X16683350Y43209261D01*
X16768851Y43093162D01*
X16859590Y42966236D01*
X16952320Y42833265D01*
X17043703Y42699147D01*
X17130013Y42569371D01*
X17207926Y42448836D01*
X17274112Y42342462D01*
X17284908Y42324557D01*
X17285154Y42324152D01*
X17346401Y42223425D01*
X17347768Y42221227D01*
X17400558Y42138265D01*
X17402855Y42134783D01*
X17450616Y42064903D01*
X17453910Y42060307D01*
X17500073Y41998830D01*
X17503950Y41993923D01*
X17551944Y41936164D01*
X17555548Y41932013D01*
X17608802Y41873292D01*
X17610872Y41871063D01*
X17640709Y41839706D01*
X17645203Y41835214D01*
X17830658Y41658880D01*
X17839529Y41651194D01*
X18036764Y41495658D01*
X18046565Y41488656D01*
X18258074Y41352231D01*
X18268207Y41346339D01*
X18496487Y41227340D01*
X18504143Y41223669D01*
X18637000Y41165345D01*
X18795386Y41095420D01*
X18928628Y41026222D01*
X19044166Y40953555D01*
X19147735Y40873704D01*
X19245147Y40782303D01*
X19341851Y40674541D01*
X19424983Y40569377D01*
X19478058Y40497041D01*
X19531460Y40420016D01*
X19585887Y40336914D01*
X19642423Y40245791D01*
X19702138Y40144699D01*
X19765917Y40032007D01*
X19834909Y39905619D01*
X19909933Y39764052D01*
X19992137Y39605218D01*
X20082233Y39427874D01*
X20181526Y39229624D01*
X20237562Y39116795D01*
X20365624Y38856934D01*
X20498213Y38585304D01*
X20634763Y38303170D01*
X20773556Y38014165D01*
X20914178Y37719230D01*
X21054957Y37421921D01*
X21195405Y37123310D01*
X21334036Y36826579D01*
X21469780Y36534031D01*
X21601855Y36247347D01*
X21729149Y35968916D01*
X21850500Y35701236D01*
X21964559Y35447232D01*
X22070928Y35207708D01*
X22167852Y34986504D01*
X22254686Y34784969D01*
X22273593Y34740519D01*
X22467463Y34273031D01*
X22644750Y33823472D01*
X22805959Y33390187D01*
X22951611Y32971447D01*
X23082094Y32565901D01*
X23197909Y32171866D01*
X23299501Y31787827D01*
X23387320Y31412264D01*
X23461834Y31043566D01*
X23523500Y30680142D01*
X23572790Y30320236D01*
X23602832Y30041923D01*
X23621791Y29833569D01*
X23641394Y29599587D01*
X23661491Y29342026D01*
X23682075Y29061264D01*
X23703060Y28758792D01*
X23724454Y28434709D01*
X23746192Y28090211D01*
X23768233Y27726142D01*
X23790536Y27343349D01*
X23813060Y26942672D01*
X23835776Y26524737D01*
X23858609Y26091033D01*
X23881553Y25641750D01*
X23904556Y25177944D01*
X23927578Y24700455D01*
X23950578Y24210121D01*
X23973516Y23707779D01*
X23996352Y23194270D01*
X24019044Y22670429D01*
X24041554Y22137096D01*
X24063845Y21594973D01*
X24085862Y21045304D01*
X24107581Y20488521D01*
X24107580Y20488521D01*
X24128958Y19925465D01*
X24128959Y19925465D01*
X24149943Y19357366D01*
X24170506Y18784671D01*
X24190609Y18208215D01*
X24210197Y17629231D01*
X24229249Y17048027D01*
X24231777Y16969466D01*
X24231778Y16969435D01*
X24244820Y16567175D01*
X24244823Y16567082D01*
X24257349Y16189217D01*
X24257352Y16189109D01*
X24269406Y15834643D01*
X24269411Y15834515D01*
X24281037Y15502450D01*
X24281042Y15502300D01*
X24292287Y15191639D01*
X24292294Y15191464D01*
X24303201Y14901209D01*
X24303208Y14901004D01*
X24313823Y14630157D01*
X24313833Y14629919D01*
X24324201Y14377483D01*
X24324213Y14377207D01*
X24334378Y14142184D01*
X24334392Y14141864D01*
X24344400Y13923257D01*
X24344417Y13922887D01*
X24354313Y13719699D01*
X24354335Y13719274D01*
X24364163Y13530506D01*
X24364189Y13530018D01*
X24373994Y13354673D01*
X24374026Y13354117D01*
X24383854Y13191198D01*
X24383894Y13190567D01*
X24393789Y13039076D01*
X24393837Y13038367D01*
X24403844Y12897306D01*
X24403903Y12896514D01*
X24414068Y12764887D01*
X24414138Y12764017D01*
X24424504Y12640824D01*
X24424563Y12640142D01*
X24429317Y12587069D01*
X24429365Y12586549D01*
X24440389Y12468926D01*
X24440529Y12467514D01*
X24450575Y12371842D01*
X24450952Y12368644D01*
X24461029Y12291553D01*
X24461958Y12285564D01*
X24473072Y12223683D01*
X24475247Y12213837D01*
X24488405Y12163796D01*
X24492906Y12149957D01*
X24509115Y12108385D01*
X24516424Y12092838D01*
X24536690Y12056363D01*
X24545079Y12043232D01*
X24570409Y12008485D01*
X24576884Y12000329D01*
X24608285Y11963939D01*
X24611146Y11960734D01*
X24634931Y11934985D01*
X24639827Y11929969D01*
X24746451Y11826614D01*
X24753948Y11819902D01*
X24883958Y11712474D01*
X24890191Y11707642D01*
X25042105Y11597235D01*
X25047437Y11593564D01*
X25219772Y11481274D01*
X25223849Y11478726D01*
X25360145Y11397094D01*
X25360825Y11396689D01*
X25425901Y11358262D01*
X25490463Y11318892D01*
X25547761Y11282795D01*
X25590659Y11254445D01*
X25592484Y11253178D01*
X25724670Y11154511D01*
X25853303Y11047001D01*
X25976387Y10933002D01*
X26090627Y10815949D01*
X26192679Y10699467D01*
X26279196Y10587417D01*
X26347591Y10482988D01*
X26377494Y10427897D01*
X26415776Y10340846D01*
X26457235Y10227557D01*
X26501086Y10089622D01*
X26546666Y9929005D01*
X26593524Y9747370D01*
X26641305Y9546220D01*
X26689697Y9326980D01*
X26738434Y9090924D01*
X26787221Y8839481D01*
X26835826Y8573794D01*
X26883945Y8295401D01*
X26931360Y8005368D01*
X26977807Y7705016D01*
X27023020Y7395716D01*
X27066746Y7078759D01*
X27108803Y6754880D01*
X27120815Y6658508D01*
X27145256Y6457671D01*
X27166097Y6279779D01*
X27183635Y6121521D01*
X27198100Y5980205D01*
X27209727Y5853110D01*
X27218757Y5737515D01*
X27225459Y5630300D01*
X27230072Y5528798D01*
X27232846Y5429888D01*
X27234019Y5330294D01*
X27234069Y5315123D01*
X27233570Y5208207D01*
X27231363Y5109252D01*
X27227096Y5013609D01*
X27220406Y4917294D01*
X27210898Y4816183D01*
X27198145Y4706120D01*
X27181739Y4583238D01*
X27161260Y4443556D01*
X27136405Y4283843D01*
X27127902Y4230599D01*
X27081313Y3954374D01*
X27027961Y3663370D01*
X26968266Y3359026D01*
X26902636Y3042734D01*
X26831557Y2716259D01*
X26755449Y2381064D01*
X26674771Y2038791D01*
X26590043Y1691300D01*
X26501618Y1339787D01*
X26410056Y986271D01*
X26315691Y631879D01*
X26219081Y278599D01*
X26120617Y-72204D01*
X26020771Y-418867D01*
X25920030Y-759693D01*
X25818803Y-1093243D01*
X25717557Y-1417885D01*
X25616788Y-1731899D01*
X25516901Y-2033846D01*
X25418407Y-2321979D01*
X25321742Y-2594778D01*
X25227421Y-2850498D01*
X25135922Y-3087519D01*
X25047731Y-3304224D01*
X24963447Y-3498755D01*
X24883241Y-3670260D01*
X24870559Y-3695968D01*
X24818214Y-3798854D01*
X24773234Y-3881279D01*
X24732477Y-3948254D01*
X24692411Y-4005542D01*
X24648791Y-4059513D01*
X24596882Y-4116409D01*
X24550339Y-4163778D01*
X24421171Y-4284192D01*
X24276242Y-4403726D01*
X24244179Y-4427394D01*
X24133203Y-4493607D01*
X23934730Y-4600359D01*
X23684869Y-4733053D01*
X23669254Y-4740411D01*
X23655166Y-4748827D01*
X23640683Y-4756519D01*
X23626313Y-4766065D01*
X23423550Y-4887201D01*
X23402325Y-4899112D01*
X23394695Y-4904440D01*
X23386707Y-4909212D01*
X23367139Y-4923681D01*
X23196005Y-5043179D01*
X23175998Y-5056324D01*
X23168461Y-5062412D01*
X23160506Y-5067967D01*
X23142291Y-5083552D01*
X23088382Y-5127099D01*
X23062615Y-5141822D01*
X23060886Y-5142828D01*
X23031709Y-5160115D01*
X23027010Y-5163039D01*
X22865392Y-5268570D01*
X22858340Y-5273524D01*
X22720326Y-5377646D01*
X22711741Y-5384734D01*
X22595753Y-5489376D01*
X22586057Y-5499126D01*
X22490519Y-5606214D01*
X22480649Y-5618789D01*
X22403984Y-5730251D01*
X22395217Y-5745052D01*
X22335849Y-5862817D01*
X22329251Y-5878414D01*
X22285602Y-6004408D01*
X22281939Y-6017072D01*
X22259691Y-6112245D01*
X22258142Y-6119935D01*
X22244701Y-6199250D01*
X22244140Y-6202879D01*
X22229621Y-6306698D01*
X22229330Y-6308925D01*
X22213798Y-6436376D01*
X22213623Y-6437887D01*
X22197140Y-6588102D01*
X22197024Y-6589203D01*
X22179657Y-6761308D01*
X22179575Y-6762150D01*
X22161385Y-6955277D01*
X22161323Y-6955949D01*
X22142377Y-7169227D01*
X22142329Y-7169777D01*
X22122689Y-7402334D01*
X22122651Y-7402798D01*
X22102383Y-7653765D01*
X22102352Y-7654163D01*
X22081518Y-7922668D01*
X22081491Y-7923019D01*
X22060157Y-8208192D01*
X22060134Y-8208503D01*
X22038363Y-8509473D01*
X22038343Y-8509756D01*
X22016200Y-8825654D01*
X22016182Y-8825912D01*
X21993730Y-9155865D01*
X21993714Y-9156105D01*
X21971018Y-9499243D01*
X21971003Y-9499469D01*
X21948127Y-9854923D01*
X21948114Y-9855136D01*
X21925122Y-10222033D01*
X21925109Y-10222237D01*
X21902065Y-10599709D01*
X21902053Y-10599907D01*
X21879022Y-10987081D01*
X21879011Y-10987272D01*
X21856055Y-11383278D01*
X21856044Y-11383467D01*
X21833230Y-11787435D01*
X21833220Y-11787612D01*
X21812732Y-12159616D01*
X21812726Y-12159735D01*
X21799627Y-12401699D01*
X21799622Y-12401778D01*
X21787114Y-12635519D01*
X21787110Y-12635610D01*
X21775097Y-12863158D01*
X21775091Y-12863260D01*
X21763478Y-13086642D01*
X21763473Y-13086751D01*
X21752163Y-13307997D01*
X21752157Y-13308113D01*
X21741055Y-13529251D01*
X21741049Y-13529369D01*
X21730059Y-13752428D01*
X21730053Y-13752546D01*
X21719079Y-13979555D01*
X21719074Y-13979669D01*
X21708021Y-14212656D01*
X21708016Y-14212763D01*
X21696788Y-14453756D01*
X21696783Y-14453856D01*
X21685284Y-14704886D01*
X21685280Y-14704975D01*
X21673415Y-14968069D01*
X21673411Y-14968148D01*
X21661083Y-15245335D01*
X21661080Y-15245404D01*
X21648194Y-15538713D01*
X21648192Y-15538771D01*
X21634652Y-15850231D01*
X21634650Y-15850280D01*
X21620361Y-16181918D01*
X21620359Y-16181958D01*
X21605224Y-16535805D01*
X21605223Y-16535831D01*
X21596289Y-16745703D01*
X21567497Y-17398363D01*
X21537288Y-18035362D01*
X21505634Y-18657765D01*
X21472641Y-19263826D01*
X21438294Y-19854210D01*
X21402680Y-20427652D01*
X21365839Y-20983757D01*
X21327805Y-21522239D01*
X21288640Y-22042385D01*
X21248345Y-22544255D01*
X21207003Y-23026914D01*
X21164662Y-23489831D01*
X21121350Y-23932753D01*
X21077125Y-24355068D01*
X21032040Y-24756222D01*
X20986110Y-25136048D01*
X20939415Y-25493754D01*
X20892010Y-25828865D01*
X20843951Y-26140845D01*
X20795287Y-26429278D01*
X20746092Y-26693585D01*
X20696478Y-26933071D01*
X20646407Y-27147777D01*
X20628094Y-27219595D01*
X20608574Y-27289637D01*
X20582333Y-27376983D01*
X20551682Y-27474216D01*
X20518911Y-27574065D01*
X20486343Y-27669191D01*
X20480298Y-27686331D01*
X20479863Y-27687587D01*
X20390203Y-27950560D01*
X20389354Y-27953139D01*
X20298090Y-28240804D01*
X20297413Y-28243006D01*
X20204710Y-28554716D01*
X20204158Y-28556627D01*
X20110182Y-28891735D01*
X20109724Y-28893415D01*
X20014641Y-29251276D01*
X20014253Y-29252771D01*
X19918228Y-29632737D01*
X19917896Y-29634082D01*
X19821096Y-30035506D01*
X19820808Y-30036728D01*
X19723396Y-30458965D01*
X19723142Y-30460087D01*
X19625287Y-30902490D01*
X19625063Y-30903526D01*
X19526928Y-31365448D01*
X19526781Y-31366149D01*
X19483568Y-31575351D01*
X19483451Y-31575923D01*
X19437600Y-31803165D01*
X19437452Y-31803910D01*
X19392602Y-32033260D01*
X19392456Y-32034019D01*
X19348335Y-32267165D01*
X19348194Y-32267922D01*
X19304531Y-32506549D01*
X19304398Y-32507286D01*
X19260920Y-32753080D01*
X19260798Y-32753785D01*
X19217234Y-33008432D01*
X19217122Y-33009096D01*
X19173200Y-33274283D01*
X19173100Y-33274897D01*
X19128548Y-33552309D01*
X19128459Y-33552868D01*
X19083005Y-33844190D01*
X19082928Y-33844694D01*
X19036300Y-34151614D01*
X19036233Y-34152061D01*
X18988160Y-34476264D01*
X18988102Y-34476656D01*
X18938311Y-34819827D01*
X18938262Y-34820168D01*
X18886481Y-35183995D01*
X18886440Y-35184289D01*
X18832398Y-35570456D01*
X18832367Y-35570674D01*
X18791496Y-35866467D01*
X18791455Y-35866771D01*
X18748412Y-36183931D01*
X18748341Y-36184459D01*
X18709736Y-36478160D01*
X18709651Y-36478825D01*
X18675386Y-36750598D01*
X18675284Y-36751423D01*
X18645261Y-37002800D01*
X18645144Y-37003813D01*
X18619266Y-37236326D01*
X18619136Y-37237555D01*
X18597304Y-37452737D01*
X18597163Y-37454211D01*
X18579281Y-37653592D01*
X18579136Y-37655338D01*
X18565104Y-37840452D01*
X18564966Y-37842492D01*
X18554688Y-38014869D01*
X18554570Y-38017214D01*
X18547947Y-38178388D01*
X18547866Y-38181033D01*
X18544801Y-38332534D01*
X18544775Y-38335453D01*
X18545170Y-38478815D01*
X18545218Y-38481954D01*
X18548976Y-38618707D01*
X18549108Y-38621981D01*
X18556130Y-38753658D01*
X18556350Y-38756962D01*
X18566539Y-38885095D01*
X18566835Y-38888305D01*
X18580093Y-39014426D01*
X18580355Y-39016717D01*
X18588241Y-39080562D01*
X18588417Y-39081925D01*
X18596361Y-39140982D01*
X18596573Y-39142489D01*
X18604347Y-39195466D01*
X18597329Y-39405507D01*
X18596072Y-39419227D01*
X18596207Y-39439105D01*
X18595543Y-39458979D01*
X18596435Y-39472733D01*
X18597977Y-39699838D01*
X18597261Y-39715554D01*
X18598205Y-39733473D01*
X18598327Y-39751402D01*
X18599974Y-39767033D01*
X18611099Y-39978153D01*
X18611129Y-39994387D01*
X18612868Y-40011714D01*
X18613785Y-40029121D01*
X18616226Y-40045182D01*
X18636336Y-40245587D01*
X18637028Y-40260674D01*
X18639695Y-40279066D01*
X18641548Y-40297528D01*
X18644518Y-40312315D01*
X18672791Y-40507263D01*
X18673803Y-40519591D01*
X18677617Y-40540539D01*
X18680673Y-40561611D01*
X18683640Y-40573621D01*
X18719673Y-40771531D01*
X18720967Y-40782752D01*
X18725698Y-40804627D01*
X18729704Y-40826628D01*
X18732804Y-40837479D01*
X18836820Y-41318387D01*
X18836961Y-41319571D01*
X18843926Y-41351238D01*
X18850794Y-41382993D01*
X18851160Y-41384130D01*
X18929798Y-41741682D01*
X18999073Y-42086658D01*
X19019106Y-42201282D01*
X18989835Y-42331934D01*
X18941495Y-42468609D01*
X18877560Y-42594198D01*
X18796365Y-42711742D01*
X18695766Y-42823868D01*
X18573560Y-42932559D01*
X18427909Y-43039244D01*
X18256847Y-43145464D01*
X18127089Y-43217081D01*
X17988016Y-43287218D01*
X17824832Y-43363362D01*
X17639066Y-43444922D01*
X17432372Y-43531296D01*
X17206140Y-43622016D01*
X16962180Y-43716456D01*
X16701671Y-43814247D01*
X16426069Y-43914911D01*
X16136966Y-44017929D01*
X15835755Y-44122852D01*
X15523743Y-44229262D01*
X15202516Y-44336646D01*
X14873241Y-44444635D01*
X14537644Y-44552671D01*
X14197012Y-44660343D01*
X13852737Y-44767207D01*
X13505963Y-44872891D01*
X13158540Y-44976808D01*
X12811730Y-45078555D01*
X12466784Y-45177726D01*
X12125462Y-45273769D01*
X11788913Y-45366310D01*
X11458326Y-45454955D01*
X11135718Y-45539095D01*
X10822026Y-45618402D01*
X10518901Y-45692367D01*
X10227600Y-45760581D01*
X10062831Y-45797728D01*
X9690585Y-45877672D01*
X9294630Y-45957570D01*
X8876585Y-46037156D01*
X8437778Y-46116217D01*
X7980359Y-46194389D01*
X7505547Y-46271474D01*
X7015566Y-46347108D01*
X6511683Y-46421079D01*
X5995653Y-46493101D01*
X5469017Y-46562914D01*
X5095781Y-46610220D01*
X4854425Y-46640713D01*
X4853849Y-46640787D01*
X4637464Y-46669130D01*
X4636735Y-46669227D01*
X4445088Y-46695460D01*
X4444139Y-46695594D01*
X4276948Y-46719766D01*
X4275677Y-46719956D01*
X4132659Y-46742113D01*
X4130882Y-46742401D01*
X4011753Y-46762590D01*
X4009115Y-46763066D01*
X3913593Y-46781336D01*
X3909326Y-46782228D01*
X3837128Y-46798624D01*
X3829163Y-46800707D01*
X3780005Y-46815277D01*
X3760718Y-46822750D01*
X3734319Y-46835541D01*
X3713086Y-46848541D01*
X3694797Y-46865433D01*
X3683975Y-46879462D01*
X3678879Y-46887118D01*
X3667181Y-46909095D01*
X3659997Y-46932932D01*
X3657600Y-46957713D01*
X3660084Y-46982485D01*
X3669208Y-47010533D01*
X3673411Y-47019676D01*
X3685977Y-47041169D01*
X3702495Y-47059797D01*
X3723423Y-47075509D01*
X3737295Y-47083839D01*
X3760211Y-47094034D01*
X3724895Y-47097985D01*
X3631992Y-47107648D01*
X3552219Y-47115060D01*
X3533539Y-47116604D01*
X3389459Y-47126947D01*
X3220464Y-47136942D01*
X3026416Y-47146600D01*
X2808157Y-47155882D01*
X2566132Y-47164772D01*
X2300564Y-47173262D01*
X2012447Y-47181322D01*
X1701287Y-47188963D01*
X1368805Y-47196141D01*
X1014249Y-47202869D01*
X639060Y-47209117D01*
X639060Y-47209116D01*
X242695Y-47214885D01*
X242695Y-47214886D01*
X-52172Y-47218694D01*
X-52172Y-47218693D01*
X-214854Y-47220451D01*
X-400268Y-47222037D01*
X-607199Y-47223456D01*
X-832836Y-47224705D01*
X-1075464Y-47225787D01*
X-1332451Y-47226701D01*
X-1332451Y-47226700D01*
X-1602061Y-47227445D01*
X-1881826Y-47228023D01*
X-2169678Y-47228434D01*
X-2463449Y-47228678D01*
X-2760934Y-47228755D01*
X-3060009Y-47228666D01*
X-3358533Y-47228411D01*
X-3654308Y-47227991D01*
X-3945165Y-47227406D01*
X-4229025Y-47226656D01*
X-4229025Y-47226657D01*
X-4503460Y-47225742D01*
X-4766671Y-47224664D01*
X-5016067Y-47223423D01*
X-5016067Y-47223422D01*
X-5249846Y-47222018D01*
X-5465809Y-47220449D01*
X-5661540Y-47218720D01*
X-5755444Y-47217748D01*
X-6176109Y-47212619D01*
X-6577552Y-47206671D01*
X-6959655Y-47199917D01*
X-7321272Y-47192381D01*
X-7661866Y-47184081D01*
X-7980782Y-47175033D01*
X-8276833Y-47165269D01*
X-8549778Y-47154793D01*
X-8798063Y-47143659D01*
X-8959517Y-47135341D01*
X-9089257Y-47128042D01*
X-9198847Y-47121268D01*
X-9292722Y-47114544D01*
X-9376504Y-47107321D01*
X-9405793Y-47104264D01*
X-9367308Y-47098088D01*
X-9359187Y-47096512D01*
X-9324947Y-47088702D01*
X-9306343Y-47082926D01*
X-9286938Y-47075225D01*
X-9264809Y-47063818D01*
X-9248904Y-47051649D01*
X-9243573Y-47046859D01*
X-9226774Y-47028484D01*
X-9213883Y-47007185D01*
X-9205394Y-46983781D01*
X-9201490Y-46949382D01*
X-9201691Y-46940900D01*
X-9204717Y-46916189D01*
X-9212507Y-46892542D01*
X-9224760Y-46870870D01*
X-9247201Y-46846471D01*
X-9258448Y-46837069D01*
X-9287653Y-46818753D01*
X-9310926Y-46808248D01*
X-9323906Y-46803226D01*
X-9360183Y-46791431D01*
X-9367033Y-46789414D01*
X-9417292Y-46776145D01*
X-9421372Y-46775140D01*
X-9486594Y-46760210D01*
X-9489228Y-46759636D01*
X-9570389Y-46742862D01*
X-9572180Y-46742506D01*
X-9670260Y-46723701D01*
X-9671525Y-46723465D01*
X-9787503Y-46702445D01*
X-9788420Y-46702282D01*
X-9923274Y-46678861D01*
X-9923952Y-46678745D01*
X-10078661Y-46652737D01*
X-10079168Y-46652653D01*
X-10254710Y-46623874D01*
X-10255094Y-46623812D01*
X-10452449Y-46592076D01*
X-10452740Y-46592029D01*
X-10672885Y-46557152D01*
X-10673104Y-46557118D01*
X-10917019Y-46518913D01*
X-10917141Y-46518894D01*
X-11023110Y-46502401D01*
X-11178386Y-46478222D01*
X-11333974Y-46453898D01*
X-11487077Y-46429872D01*
X-11634294Y-46406682D01*
X-11772831Y-46384770D01*
X-11772831Y-46384771D01*
X-11899234Y-46364683D01*
X-12010653Y-46346872D01*
X-12104109Y-46331808D01*
X-12175785Y-46320098D01*
X-12189815Y-46317773D01*
X-12503838Y-46263246D01*
X-12824633Y-46203151D01*
X-13151362Y-46137800D01*
X-13483178Y-46067499D01*
X-13818871Y-45992625D01*
X-14157494Y-45913504D01*
X-14497852Y-45830516D01*
X-14839037Y-45743976D01*
X-15179869Y-45654264D01*
X-15519439Y-45561693D01*
X-15856544Y-45466651D01*
X-16190122Y-45369495D01*
X-16519123Y-45270573D01*
X-16842792Y-45170146D01*
X-17159618Y-45068708D01*
X-17468917Y-44966491D01*
X-17769310Y-44863958D01*
X-18059901Y-44761409D01*
X-18339769Y-44659148D01*
X-18607563Y-44557642D01*
X-18862356Y-44457200D01*
X-19103039Y-44358206D01*
X-19328491Y-44261050D01*
X-19537655Y-44166106D01*
X-19729299Y-44073837D01*
X-19902285Y-43984685D01*
X-20055336Y-43899205D01*
X-20187082Y-43818081D01*
X-20295966Y-43742298D01*
X-20380188Y-43673434D01*
X-20439952Y-43612149D01*
X-20456860Y-43589876D01*
X-20522624Y-43475034D01*
X-20577751Y-43339645D01*
X-20610838Y-43222860D01*
X-5058632Y-43222860D01*
X-5046372Y-43347342D01*
X-5010062Y-43467040D01*
X-4951097Y-43577354D01*
X-4871745Y-43674045D01*
X-4775054Y-43753397D01*
X-4664740Y-43812362D01*
X-4545042Y-43848672D01*
X-4420560Y-43860932D01*
X-3842710Y-43857860D01*
X-3683960Y-43699110D01*
X-3683960Y-42486260D01*
X-4896810Y-42486260D01*
X-5055560Y-42645010D01*
X-5058632Y-43222860D01*
X-20610838Y-43222860D01*
X-20622061Y-43183247D01*
X-20625775Y-43163230D01*
X-20623640Y-43148869D01*
X-20583640Y-42939235D01*
X-20533889Y-42725402D01*
X-20474417Y-42509103D01*
X-20401500Y-42280111D01*
X-20309493Y-41995250D01*
X-20304367Y-41981999D01*
X-20299168Y-41963284D01*
X-20293187Y-41944765D01*
X-20290162Y-41930859D01*
X-20262349Y-41830732D01*
X-20257652Y-41816858D01*
X-20253350Y-41798335D01*
X-20248260Y-41780013D01*
X-20245742Y-41765584D01*
X-20223003Y-41667691D01*
X-20218103Y-41650222D01*
X-20215397Y-41634946D01*
X-20211886Y-41619830D01*
X-20209533Y-41601839D01*
X-20191645Y-41500851D01*
X-20187300Y-41480827D01*
X-20185785Y-41467765D01*
X-20183489Y-41454805D01*
X-20181909Y-41434355D01*
X-20169750Y-41329551D01*
X-20166542Y-41308582D01*
X-20165875Y-41296154D01*
X-20164441Y-41283793D01*
X-20164073Y-41262585D01*
X-20158237Y-41153823D01*
X-20156364Y-41133717D01*
X-20156435Y-41120258D01*
X-20155714Y-41106816D01*
X-20156614Y-41086634D01*
X-20157214Y-40973437D01*
X-20156487Y-40955454D01*
X-20157393Y-40939788D01*
X-20157476Y-40924127D01*
X-20159332Y-40906255D01*
X-20166221Y-40787114D01*
X-20166270Y-40772142D01*
X-20168162Y-40753552D01*
X-20169241Y-40734893D01*
X-20171567Y-40720100D01*
X-20185030Y-40587813D01*
X-20185887Y-40571242D01*
X-20188435Y-40554362D01*
X-20190163Y-40537384D01*
X-20193453Y-40521122D01*
X-20220388Y-40342688D01*
X-20203916Y-40260964D01*
X-20202808Y-40254650D01*
X-20190641Y-40173267D01*
X-20189840Y-40166767D01*
X-20181902Y-40085041D01*
X-20181477Y-40079328D01*
X-20177020Y-39993223D01*
X-20176871Y-39988977D01*
X-20175145Y-39894461D01*
X-20175124Y-39892191D01*
X-20175099Y-39827249D01*
X-20175105Y-39825931D01*
X-20175171Y-39819260D01*
X-5062811Y-39819260D01*
X-5033876Y-40113037D01*
X-4948185Y-40395524D01*
X-4809029Y-40655866D01*
X-4621757Y-40884057D01*
X-4613695Y-40890674D01*
X-4664740Y-40906158D01*
X-4775054Y-40965123D01*
X-4871745Y-41044475D01*
X-4951097Y-41141166D01*
X-5010062Y-41251480D01*
X-5046372Y-41371178D01*
X-5058632Y-41495660D01*
X-5055560Y-42073510D01*
X-4896810Y-42232260D01*
X-3683960Y-42232260D01*
X-3683960Y-42212260D01*
X-3429960Y-42212260D01*
X-3429960Y-42232260D01*
X-3409960Y-42232260D01*
X-3409960Y-42486260D01*
X-3429960Y-42486260D01*
X-3429960Y-43699110D01*
X-3271210Y-43857860D01*
X-2693360Y-43860932D01*
X-2568878Y-43848672D01*
X-2449180Y-43812362D01*
X-2338866Y-43753397D01*
X-2242175Y-43674045D01*
X-2162823Y-43577354D01*
X-2103858Y-43467040D01*
X-2088374Y-43415995D01*
X-2081757Y-43424057D01*
X-1853566Y-43611329D01*
X-1593224Y-43750485D01*
X-1310737Y-43836176D01*
X-1090579Y-43857860D01*
X-943341Y-43857860D01*
X-723183Y-43836176D01*
X-440696Y-43750485D01*
X-180354Y-43611329D01*
X47837Y-43424057D01*
X235109Y-43195866D01*
X254923Y-43158797D01*
X359001Y-43314562D01*
X567738Y-43523299D01*
X813187Y-43687302D01*
X1085915Y-43800270D01*
X1375441Y-43857860D01*
X1670639Y-43857860D01*
X1960165Y-43800270D01*
X2232893Y-43687302D01*
X2478342Y-43523299D01*
X2687079Y-43314562D01*
X2851082Y-43069113D01*
X2964050Y-42796385D01*
X3021640Y-42506859D01*
X3021640Y-42211661D01*
X2964050Y-41922135D01*
X2851082Y-41649407D01*
X2687079Y-41403958D01*
X2478342Y-41195221D01*
X2319759Y-41089260D01*
X2478342Y-40983299D01*
X2687079Y-40774562D01*
X2851082Y-40529113D01*
X2964050Y-40256385D01*
X3021640Y-39966859D01*
X3021640Y-39671661D01*
X2964050Y-39382135D01*
X2851082Y-39109407D01*
X2687079Y-38863958D01*
X2478342Y-38655221D01*
X2232893Y-38491218D01*
X1960165Y-38378250D01*
X1670639Y-38320660D01*
X1375441Y-38320660D01*
X1085915Y-38378250D01*
X813187Y-38491218D01*
X567738Y-38655221D01*
X359001Y-38863958D01*
X254923Y-39019723D01*
X235109Y-38982654D01*
X47837Y-38754463D01*
X-180354Y-38567191D01*
X-440696Y-38428035D01*
X-723183Y-38342344D01*
X-943341Y-38320660D01*
X-1090579Y-38320660D01*
X-1310737Y-38342344D01*
X-1593224Y-38428035D01*
X-1853566Y-38567191D01*
X-2081757Y-38754463D01*
X-2269029Y-38982654D01*
X-2286960Y-39016200D01*
X-2304891Y-38982654D01*
X-2492163Y-38754463D01*
X-2720354Y-38567191D01*
X-2796960Y-38526244D01*
X-2796960Y-13273689D01*
X-2681590Y-13238692D01*
X-2528054Y-13156625D01*
X-2393478Y-13046182D01*
X-2283035Y-12911606D01*
X-2200968Y-12758070D01*
X-2150432Y-12591474D01*
X-2133368Y-12418220D01*
X-2133368Y-11168220D01*
X-2150432Y-10994966D01*
X-2200968Y-10828370D01*
X-2283035Y-10674834D01*
X-2393478Y-10540258D01*
X-2528054Y-10429815D01*
X-2681590Y-10347748D01*
X-2848186Y-10297212D01*
X-3021440Y-10280148D01*
X-3771440Y-10280148D01*
X-3944694Y-10297212D01*
X-4111290Y-10347748D01*
X-4264826Y-10429815D01*
X-4399402Y-10540258D01*
X-4509845Y-10674834D01*
X-4591912Y-10828370D01*
X-4642448Y-10994966D01*
X-4659512Y-11168220D01*
X-4659512Y-12418220D01*
X-4642448Y-12591474D01*
X-4591912Y-12758070D01*
X-4509845Y-12911606D01*
X-4399402Y-13046182D01*
X-4316959Y-13113841D01*
X-4316960Y-38526244D01*
X-4393566Y-38567191D01*
X-4621757Y-38754463D01*
X-4809029Y-38982654D01*
X-4948185Y-39242996D01*
X-5033876Y-39525483D01*
X-5062811Y-39819260D01*
X-20175171Y-39819260D01*
X-20176114Y-39724990D01*
X-20176163Y-39722533D01*
X-20178639Y-39638176D01*
X-20178814Y-39634255D01*
X-20183406Y-39558126D01*
X-20183763Y-39553574D01*
X-20191122Y-39477317D01*
X-20191550Y-39473491D01*
X-20202329Y-39388751D01*
X-20202647Y-39386427D01*
X-20217018Y-39288003D01*
X-20217305Y-39286135D01*
X-20236370Y-39167900D01*
X-20236664Y-39166150D01*
X-20261518Y-39024626D01*
X-20261736Y-39023418D01*
X-20292071Y-38859973D01*
X-20292240Y-38859083D01*
X-20327748Y-38675085D01*
X-20327882Y-38674399D01*
X-20368255Y-38471217D01*
X-20368366Y-38470666D01*
X-20413295Y-38249668D01*
X-20413388Y-38249214D01*
X-20462565Y-38011768D01*
X-20462646Y-38011382D01*
X-20515764Y-37758856D01*
X-20515834Y-37758523D01*
X-20572583Y-37492285D01*
X-20572647Y-37491989D01*
X-20632721Y-37213408D01*
X-20632778Y-37213142D01*
X-20695868Y-36923586D01*
X-20695922Y-36923343D01*
X-20761719Y-36624180D01*
X-20761768Y-36623954D01*
X-20829965Y-36316552D01*
X-20830013Y-36316338D01*
X-20900302Y-36002066D01*
X-20900348Y-36001863D01*
X-20972420Y-35682088D01*
X-20972464Y-35681890D01*
X-21046011Y-35357982D01*
X-21046056Y-35357787D01*
X-21120771Y-35031113D01*
X-21120815Y-35030920D01*
X-21196389Y-34702848D01*
X-21196434Y-34702654D01*
X-21272558Y-34374553D01*
X-21272605Y-34374354D01*
X-21348973Y-34047592D01*
X-21349021Y-34047387D01*
X-21425323Y-33723332D01*
X-21425373Y-33723117D01*
X-21501302Y-33403138D01*
X-21501356Y-33402911D01*
X-21576604Y-33088375D01*
X-21576663Y-33088132D01*
X-21650921Y-32780407D01*
X-21650984Y-32780144D01*
X-21723944Y-32480600D01*
X-21724015Y-32480311D01*
X-21795369Y-32190315D01*
X-21795449Y-32189994D01*
X-21864889Y-31910915D01*
X-21864980Y-31910552D01*
X-21932199Y-31643757D01*
X-21932291Y-31643392D01*
X-21982760Y-31445557D01*
X-21982867Y-31445141D01*
X-22077110Y-31080864D01*
X-22077251Y-31080323D01*
X-22167018Y-30739538D01*
X-22167186Y-30738907D01*
X-22252897Y-30420178D01*
X-22253096Y-30419449D01*
X-22335168Y-30121343D01*
X-22335402Y-30120503D01*
X-22414255Y-29841586D01*
X-22414530Y-29840628D01*
X-22490582Y-29579467D01*
X-22490903Y-29578383D01*
X-22564572Y-29333544D01*
X-22564944Y-29332328D01*
X-22636651Y-29102377D01*
X-22637079Y-29101032D01*
X-22707240Y-28884535D01*
X-22707727Y-28883064D01*
X-22776761Y-28678589D01*
X-22777308Y-28677002D01*
X-22845635Y-28483113D01*
X-22845985Y-28482132D01*
X-22857874Y-28449258D01*
X-22912367Y-28297216D01*
X-22959305Y-28161567D01*
X-23001196Y-28034580D01*
X-23040580Y-27908396D01*
X-23079936Y-27775283D01*
X-23118388Y-27639529D01*
X-23194244Y-27356054D01*
X-23270587Y-27048677D01*
X-23347239Y-26718562D01*
X-23423899Y-26367385D01*
X-23500292Y-25996738D01*
X-23576227Y-25607810D01*
X-23651354Y-25202597D01*
X-23725485Y-24782262D01*
X-23798325Y-24348566D01*
X-23869674Y-23902697D01*
X-23939218Y-23446563D01*
X-24006737Y-22981479D01*
X-24071965Y-22509051D01*
X-24134704Y-22030438D01*
X-24194660Y-21547453D01*
X-24251574Y-21061701D01*
X-24305239Y-20574313D01*
X-24333858Y-20300450D01*
X-24365487Y-19993910D01*
X-24365507Y-19993714D01*
X-24396926Y-19693769D01*
X-24396949Y-19693554D01*
X-24428339Y-19398738D01*
X-24428364Y-19398504D01*
X-24459927Y-19107183D01*
X-24459954Y-19106937D01*
X-24491887Y-18817479D01*
X-24491915Y-18817222D01*
X-24524419Y-18527994D01*
X-24524449Y-18527731D01*
X-24557723Y-18237102D01*
X-24557754Y-18236838D01*
X-24591999Y-17943174D01*
X-24592029Y-17942914D01*
X-24627442Y-17644582D01*
X-24627473Y-17644328D01*
X-24664256Y-17339697D01*
X-24664285Y-17339454D01*
X-24702637Y-17026891D01*
X-24702666Y-17026662D01*
X-24742786Y-16704534D01*
X-24742812Y-16704321D01*
X-24784899Y-16370996D01*
X-24784924Y-16370799D01*
X-24829179Y-16024644D01*
X-24829202Y-16024466D01*
X-24875824Y-15663849D01*
X-24875845Y-15663690D01*
X-24925034Y-15286978D01*
X-24925053Y-15286836D01*
X-24977008Y-14892396D01*
X-24977024Y-14892272D01*
X-25031945Y-14478473D01*
X-25031959Y-14478365D01*
X-25090045Y-14043573D01*
X-25090058Y-14043480D01*
X-25151509Y-13586064D01*
X-25151517Y-13586003D01*
X-25185938Y-13330729D01*
X-25185943Y-13330691D01*
X-25250675Y-12851716D01*
X-25250681Y-12851674D01*
X-25312264Y-12397129D01*
X-25312270Y-12397080D01*
X-25370817Y-11966206D01*
X-25370825Y-11966147D01*
X-25426454Y-11558186D01*
X-25426464Y-11558117D01*
X-25479288Y-11172307D01*
X-25479299Y-11172226D01*
X-25529434Y-10807811D01*
X-25529447Y-10807716D01*
X-25577007Y-10463935D01*
X-25577023Y-10463824D01*
X-25622125Y-10139918D01*
X-25622143Y-10139789D01*
X-25664902Y-9834999D01*
X-25664923Y-9834850D01*
X-25705452Y-9548417D01*
X-25705476Y-9548244D01*
X-25743892Y-9279409D01*
X-25743921Y-9279210D01*
X-25780339Y-9027213D01*
X-25780372Y-9026984D01*
X-25814906Y-8791067D01*
X-25814945Y-8790801D01*
X-25847712Y-8570204D01*
X-25847758Y-8569901D01*
X-25878871Y-8363866D01*
X-25878924Y-8363517D01*
X-25908500Y-8171283D01*
X-25908562Y-8170884D01*
X-25936715Y-7991693D01*
X-25936788Y-7991236D01*
X-25963634Y-7824329D01*
X-25963718Y-7823810D01*
X-25989371Y-7668428D01*
X-25989470Y-7667838D01*
X-26014046Y-7523221D01*
X-26014161Y-7522554D01*
X-26037775Y-7387943D01*
X-26037909Y-7387194D01*
X-26060676Y-7261830D01*
X-26060831Y-7260994D01*
X-26082866Y-7144119D01*
X-26083044Y-7143192D01*
X-26104463Y-7034045D01*
X-26104666Y-7033031D01*
X-26125583Y-6930853D01*
X-26125813Y-6929755D01*
X-26146343Y-6833789D01*
X-26146600Y-6832617D01*
X-26166860Y-6742101D01*
X-26167140Y-6740877D01*
X-26187243Y-6655054D01*
X-26187544Y-6653798D01*
X-26207606Y-6571908D01*
X-26207839Y-6570971D01*
X-26217634Y-6532266D01*
X-26218243Y-6529952D01*
X-26264744Y-6359750D01*
X-26266259Y-6354631D01*
X-26313005Y-6208063D01*
X-26315459Y-6201080D01*
X-26363395Y-6076393D01*
X-26367393Y-6067112D01*
X-26417468Y-5962548D01*
X-26423916Y-5950735D01*
X-26477076Y-5864541D01*
X-26487059Y-5850566D01*
X-26544250Y-5780985D01*
X-26558452Y-5766296D01*
X-26620622Y-5711574D01*
X-26638068Y-5698685D01*
X-26704354Y-5657975D01*
X-26721916Y-5648988D01*
X-26763567Y-5631610D01*
X-26772099Y-5628404D01*
X-26830426Y-5608849D01*
X-26835779Y-5607185D01*
X-26849798Y-5603164D01*
X-26855790Y-5596498D01*
X-26869052Y-5580574D01*
X-26878276Y-5571482D01*
X-26886944Y-5561840D01*
X-26902254Y-5547849D01*
X-26930988Y-5519529D01*
X-26934258Y-5515471D01*
X-26939828Y-5510816D01*
X-26941073Y-5509589D01*
X-26942121Y-5508900D01*
X-26974379Y-5481941D01*
X-26988046Y-5469452D01*
X-27000212Y-5460352D01*
X-27011852Y-5450624D01*
X-27027134Y-5440214D01*
X-27055257Y-5419178D01*
X-27057223Y-5417316D01*
X-27060533Y-5415232D01*
X-27069022Y-5408882D01*
X-27075644Y-5405717D01*
X-27103857Y-5387952D01*
X-27121475Y-5375951D01*
X-27132327Y-5370026D01*
X-27142795Y-5363434D01*
X-27161874Y-5353892D01*
X-27176292Y-5346019D01*
X-27177371Y-5345204D01*
X-27180985Y-5343456D01*
X-27210229Y-5327488D01*
X-27220943Y-5324133D01*
X-27233942Y-5317847D01*
X-27260002Y-5304813D01*
X-27264284Y-5303174D01*
X-27268407Y-5301180D01*
X-27295731Y-5291136D01*
X-27300239Y-5289411D01*
X-27302509Y-5288050D01*
X-27322160Y-5281019D01*
X-27354442Y-5268662D01*
X-27358763Y-5267924D01*
X-27363159Y-5266351D01*
X-27392031Y-5255738D01*
X-27394917Y-5254988D01*
X-27397722Y-5253985D01*
X-27427518Y-5246522D01*
X-27489907Y-5230320D01*
X-27492896Y-5230147D01*
X-27544452Y-5217234D01*
X-27557988Y-5213014D01*
X-27577062Y-5209067D01*
X-27595966Y-5204332D01*
X-27609996Y-5202251D01*
X-27726072Y-5178230D01*
X-27892930Y-5134910D01*
X-27949493Y-5077157D01*
X-28029517Y-4984472D01*
X-28110226Y-4879545D01*
X-28191970Y-4761469D01*
X-28275130Y-4629330D01*
X-28360030Y-4482336D01*
X-28447026Y-4319688D01*
X-28536517Y-4140545D01*
X-28628855Y-3944193D01*
X-28724446Y-3729838D01*
X-28823734Y-3496621D01*
X-28927088Y-3243876D01*
X-29034960Y-2970746D01*
X-29147804Y-2676388D01*
X-29265989Y-2360177D01*
X-29390005Y-2021184D01*
X-29520411Y-1658272D01*
X-29556124Y-1557909D01*
X-29593535Y-1451975D01*
X-29637591Y-1326209D01*
X-29687277Y-1183568D01*
X-29741675Y-1026735D01*
X-29799811Y-858552D01*
X-29860717Y-681852D01*
X-29860718Y-681852D01*
X-29923423Y-499466D01*
X-29986932Y-314303D01*
X-29986931Y-314303D01*
X-30050363Y-128933D01*
X-30050364Y-128933D01*
X-30112665Y53562D01*
X-30172896Y230442D01*
X-30230089Y398881D01*
X-30230090Y398881D01*
X-30283278Y556051D01*
X-30331490Y699119D01*
X-30373754Y825243D01*
X-30409092Y931562D01*
X-30424055Y977008D01*
X-30479233Y1147400D01*
X-30534495Y1322024D01*
X-30589392Y1499223D01*
X-30642941Y1675638D01*
X-30694481Y1848964D01*
X-30743196Y2016360D01*
X-30788354Y2175289D01*
X-30829127Y2322855D01*
X-30864803Y2456575D01*
X-30894515Y2573367D01*
X-30917447Y2670246D01*
X-30931768Y2738602D01*
X-30950211Y2850445D01*
X-30966396Y2980245D01*
X-30980269Y3128940D01*
X-30991740Y3296783D01*
X-31000770Y3484363D01*
X-31007339Y3692200D01*
X-31011433Y3920827D01*
X-31013047Y4170657D01*
X-31012186Y4442390D01*
X-31008849Y4736741D01*
X-31003046Y5054140D01*
X-30994778Y5395374D01*
X-30984069Y5760462D01*
X-30975205Y6028299D01*
X-30975204Y6028333D01*
X-30971905Y6128816D01*
X-30971896Y6129108D01*
X-30968227Y6249307D01*
X-30968221Y6249509D01*
X-30964337Y6383744D01*
X-30964332Y6383910D01*
X-30960393Y6526502D01*
X-30960389Y6526654D01*
X-30956550Y6671926D01*
X-30956546Y6672084D01*
X-30952964Y6814355D01*
X-30952960Y6814539D01*
X-30949893Y6943763D01*
X-30944611Y7157571D01*
X-30940375Y7299984D01*
X-18615336Y7299984D01*
X-18608408Y7233292D01*
X-18605669Y7217144D01*
X-18564468Y7043186D01*
X-18559727Y7027667D01*
X-18495820Y6858099D01*
X-18492159Y6849384D01*
X-18474257Y6810846D01*
X-18470232Y6802919D01*
X-18386291Y6651035D01*
X-18378683Y6638932D01*
X-18276143Y6494542D01*
X-18267626Y6483823D01*
X-18145477Y6346051D01*
X-18136676Y6337064D01*
X-17993905Y6205030D01*
X-17985383Y6197817D01*
X-17820981Y6070643D01*
X-17813130Y6065034D01*
X-17626084Y5941841D01*
X-17619116Y5937566D01*
X-17408417Y5817477D01*
X-17403308Y5814718D01*
X-17247228Y5734980D01*
X-17241871Y5732400D01*
X-16882140Y5569380D01*
X-16874830Y5566338D01*
X-16568108Y5449787D01*
X-16583734Y5448248D01*
X-16750330Y5397712D01*
X-16903866Y5315645D01*
X-17038442Y5205202D01*
X-17148885Y5070626D01*
X-17230952Y4917090D01*
X-17281488Y4750494D01*
X-17298552Y4577240D01*
X-17298552Y3327240D01*
X-17281488Y3153986D01*
X-17230952Y2987390D01*
X-17148885Y2833854D01*
X-17038442Y2699278D01*
X-16903866Y2588835D01*
X-16750330Y2506768D01*
X-16583734Y2456232D01*
X-16410480Y2439168D01*
X-15660480Y2439168D01*
X-15602882Y2444841D01*
X-9352660Y-3805382D01*
X-9328861Y-3834381D01*
X-9213136Y-3929354D01*
X-9081107Y-3999926D01*
X-8937846Y-4043383D01*
X-8826193Y-4054380D01*
X-8826184Y-4054380D01*
X-8788861Y-4058056D01*
X-8751538Y-4054380D01*
X-8435081Y-4054380D01*
X-1746344Y-10743118D01*
X-1791912Y-10828370D01*
X-1842448Y-10994966D01*
X-1859512Y-11168220D01*
X-1859512Y-12418220D01*
X-1842448Y-12591474D01*
X-1791912Y-12758070D01*
X-1709845Y-12911606D01*
X-1599402Y-13046182D01*
X-1464826Y-13156625D01*
X-1311290Y-13238692D01*
X-1144694Y-13289228D01*
X-971440Y-13306292D01*
X-221440Y-13306292D01*
X-48186Y-13289228D01*
X118410Y-13238692D01*
X271946Y-13156625D01*
X406522Y-13046182D01*
X516965Y-12911606D01*
X599032Y-12758070D01*
X649568Y-12591474D01*
X653086Y-12555760D01*
X2388378Y-12555760D01*
X2425700Y-12559436D01*
X2463022Y-12555760D01*
X2463033Y-12555760D01*
X2574686Y-12544763D01*
X2717947Y-12501306D01*
X2849976Y-12430734D01*
X2965701Y-12335761D01*
X2989504Y-12306757D01*
X10086808Y-5209455D01*
X10115801Y-5185661D01*
X10139595Y-5156668D01*
X10139599Y-5156664D01*
X10208655Y-5072518D01*
X10210774Y-5069936D01*
X10281346Y-4937906D01*
X10308600Y-4848059D01*
X10324802Y-4794647D01*
X10339476Y-4645661D01*
X10337596Y-4626568D01*
X10324802Y-4496675D01*
X10281346Y-4353414D01*
X10274380Y-4340382D01*
X10274380Y2330241D01*
X10382766Y2388175D01*
X10517342Y2498618D01*
X10627785Y2633194D01*
X10709852Y2786730D01*
X10737107Y2876580D01*
X11051308Y2876580D01*
X11063568Y2752098D01*
X11099878Y2632400D01*
X11158843Y2522086D01*
X11238195Y2425395D01*
X11334886Y2346043D01*
X11445200Y2287078D01*
X11564898Y2250768D01*
X11689380Y2238508D01*
X12028630Y2241580D01*
X12187380Y2400330D01*
X12187380Y3624580D01*
X12441380Y3624580D01*
X12441380Y2400330D01*
X12600130Y2241580D01*
X12939380Y2238508D01*
X13063862Y2250768D01*
X13183560Y2287078D01*
X13293874Y2346043D01*
X13390565Y2425395D01*
X13469917Y2522086D01*
X13528882Y2632400D01*
X13565192Y2752098D01*
X13577452Y2876580D01*
X13574380Y3465830D01*
X13415630Y3624580D01*
X12441380Y3624580D01*
X12187380Y3624580D01*
X11213130Y3624580D01*
X11054380Y3465830D01*
X11051308Y2876580D01*
X10737107Y2876580D01*
X10760388Y2953326D01*
X10777452Y3126580D01*
X10777452Y4376580D01*
X10760388Y4549834D01*
X10737108Y4626580D01*
X11051308Y4626580D01*
X11054380Y4037330D01*
X11213130Y3878580D01*
X12187380Y3878580D01*
X12187380Y5102830D01*
X12441380Y5102830D01*
X12441380Y3878580D01*
X13415630Y3878580D01*
X13574380Y4037330D01*
X13577452Y4626580D01*
X13565192Y4751062D01*
X13528882Y4870760D01*
X13469917Y4981074D01*
X13390565Y5077765D01*
X13293874Y5157117D01*
X13183560Y5216082D01*
X13063862Y5252392D01*
X12939380Y5264652D01*
X12600130Y5261580D01*
X12441380Y5102830D01*
X12187380Y5102830D01*
X12028630Y5261580D01*
X11689380Y5264652D01*
X11564898Y5252392D01*
X11445200Y5216082D01*
X11334886Y5157117D01*
X11238195Y5077765D01*
X11158843Y4981074D01*
X11099878Y4870760D01*
X11063568Y4751062D01*
X11051308Y4626580D01*
X10737108Y4626580D01*
X10709852Y4716430D01*
X10627785Y4869966D01*
X10517342Y5004542D01*
X10382766Y5114985D01*
X10229230Y5197052D01*
X10062634Y5247588D01*
X9889380Y5264652D01*
X9139380Y5264652D01*
X8966126Y5247588D01*
X8799530Y5197052D01*
X8645994Y5114985D01*
X8511418Y5004542D01*
X8400975Y4869966D01*
X8318908Y4716430D01*
X8268372Y4549834D01*
X8251308Y4376580D01*
X8251308Y3126580D01*
X8268372Y2953326D01*
X8318908Y2786730D01*
X8400975Y2633194D01*
X8511418Y2498618D01*
X8645994Y2388175D01*
X8754381Y2330241D01*
X8754380Y-4392277D01*
X2110899Y-11035760D01*
X653586Y-11035760D01*
X649568Y-10994966D01*
X599032Y-10828370D01*
X516965Y-10674834D01*
X406522Y-10540258D01*
X271946Y-10429815D01*
X118410Y-10347748D01*
X-38421Y-10300174D01*
X-56439Y-10278219D01*
X-85437Y-10254421D01*
X-7556476Y-2783383D01*
X-7580279Y-2754379D01*
X-7696004Y-2659406D01*
X-7828033Y-2588834D01*
X-7971294Y-2545377D01*
X-8082947Y-2534380D01*
X-8082958Y-2534380D01*
X-8120280Y-2530704D01*
X-8157602Y-2534380D01*
X-8474058Y-2534380D01*
X-13485954Y2477516D01*
X-13362480Y2600990D01*
X-13362480Y3825240D01*
X-13108480Y3825240D01*
X-13108480Y2600990D01*
X-12949730Y2442240D01*
X-12610480Y2439168D01*
X-12485998Y2451428D01*
X-12366300Y2487738D01*
X-12255986Y2546703D01*
X-12159295Y2626055D01*
X-12079943Y2722746D01*
X-12020978Y2833060D01*
X-11984668Y2952758D01*
X-11972408Y3077240D01*
X-11975480Y3666490D01*
X-12134230Y3825240D01*
X-13108480Y3825240D01*
X-13362480Y3825240D01*
X-14336730Y3825240D01*
X-14495480Y3666490D01*
X-14496411Y3487972D01*
X-14772408Y3763969D01*
X-14772408Y4577240D01*
X-14789472Y4750494D01*
X-14840008Y4917090D01*
X-14922075Y5070626D01*
X-14962686Y5120111D01*
X-14614167Y5109252D01*
X-14606462Y5109245D01*
X-14426929Y5114549D01*
X-14449982Y5071420D01*
X-14486292Y4951722D01*
X-14498552Y4827240D01*
X-14495480Y4237990D01*
X-14336730Y4079240D01*
X-13362480Y4079240D01*
X-13362480Y4099240D01*
X-13108480Y4099240D01*
X-13108480Y4079240D01*
X-12134230Y4079240D01*
X-11975480Y4237990D01*
X-11972408Y4827240D01*
X-11984668Y4951722D01*
X-12020978Y5071420D01*
X-12079943Y5181734D01*
X-12159295Y5278425D01*
X-12255986Y5357777D01*
X-12366300Y5416742D01*
X-12485998Y5453052D01*
X-12530522Y5457437D01*
X-12324553Y5524016D01*
X-12318493Y5526145D01*
X-11921016Y5677222D01*
X-11915438Y5679495D01*
X-11512841Y5854792D01*
X-11508456Y5856801D01*
X-11218606Y5996328D01*
X-11214901Y5998187D01*
X-10967311Y6127488D01*
X-10962782Y6129971D01*
X-10739772Y6258237D01*
X-10734423Y6261492D01*
X-10535240Y6389516D01*
X-10529021Y6393779D01*
X-10352911Y6522356D01*
X-10345839Y6527914D01*
X-10192049Y6657838D01*
X-10184260Y6664995D01*
X-10052035Y6797060D01*
X-10043832Y6806080D01*
X-9932419Y6941079D01*
X-9924302Y6952069D01*
X-9832948Y7090798D01*
X-9825558Y7103580D01*
X-9753508Y7246832D01*
X-9747477Y7260871D01*
X-9693979Y7409441D01*
X-9689721Y7423906D01*
X-9654020Y7578587D01*
X-9651963Y7589762D01*
X-9639050Y7683199D01*
X-9637954Y7695542D01*
X-9631630Y7854691D01*
X-9631881Y7869176D01*
X-9637859Y7949370D01*
X6003488Y7949370D01*
X6008534Y7869497D01*
X6009262Y7861747D01*
X6019878Y7776852D01*
X6021670Y7766218D01*
X6032709Y7714258D01*
X6036533Y7700250D01*
X6068360Y7605396D01*
X6072202Y7595373D01*
X6117437Y7490804D01*
X6121049Y7483163D01*
X6175419Y7377400D01*
X6179552Y7369981D01*
X6238786Y7271549D01*
X6243560Y7264202D01*
X6284451Y7205787D01*
X6291168Y7197028D01*
X6387372Y7082269D01*
X6394595Y7074356D01*
X6512520Y6955641D01*
X6518750Y6949778D01*
X6655519Y6829491D01*
X6661143Y6824824D01*
X6813881Y6705348D01*
X6819215Y6701397D01*
X6985046Y6585114D01*
X6990333Y6581600D01*
X7165023Y6471701D01*
X7170993Y6468169D01*
X7510570Y6279592D01*
X7516928Y6276293D01*
X7874347Y6103414D01*
X7880452Y6100657D01*
X8253135Y5944073D01*
X8259047Y5941761D01*
X8644413Y5802064D01*
X8650197Y5800123D01*
X9045667Y5677908D01*
X9051391Y5676285D01*
X9454387Y5572148D01*
X9460119Y5570808D01*
X9868061Y5485342D01*
X9873875Y5484264D01*
X10284185Y5418065D01*
X10290153Y5417247D01*
X10700250Y5370908D01*
X10706456Y5370361D01*
X11113762Y5344478D01*
X11120289Y5344231D01*
X11522225Y5339398D01*
X11529166Y5339504D01*
X11923152Y5356316D01*
X11927297Y5356561D01*
X11979309Y5360487D01*
X11982841Y5360804D01*
X12308610Y5394564D01*
X12314894Y5395374D01*
X12627443Y5443620D01*
X12634071Y5444824D01*
X12932039Y5507153D01*
X12939084Y5508837D01*
X13221107Y5584844D01*
X13228646Y5587129D01*
X13493361Y5676410D01*
X13501470Y5679457D01*
X13747514Y5781607D01*
X13756259Y5785632D01*
X13982270Y5900248D01*
X13990871Y5905038D01*
X14163042Y6009857D01*
X14171394Y6015405D01*
X14260701Y6079953D01*
X14267061Y6084864D01*
X14360859Y6162140D01*
X14365739Y6166373D01*
X14458843Y6251384D01*
X14463284Y6255640D01*
X14550507Y6343394D01*
X14555267Y6348453D01*
X14631425Y6433955D01*
X14637435Y6441230D01*
X14697341Y6519488D01*
X14701677Y6525509D01*
X14706696Y6532926D01*
X14710449Y6538815D01*
X14807226Y6700294D01*
X14813604Y6712363D01*
X14889392Y6876582D01*
X14894778Y6890289D01*
X14950622Y7060887D01*
X14954348Y7074949D01*
X14991289Y7255565D01*
X14993257Y7268598D01*
X15012340Y7462870D01*
X15012908Y7472088D01*
X15016232Y7604103D01*
X15016241Y7610100D01*
X15013156Y7749976D01*
X15012848Y7756449D01*
X15002962Y7891488D01*
X15002246Y7898549D01*
X14984698Y8033853D01*
X14983626Y8040665D01*
X14957553Y8181332D01*
X14956323Y8187195D01*
X14920865Y8338327D01*
X14919701Y8342901D01*
X14873995Y8509596D01*
X14873305Y8512018D01*
X14852289Y8583105D01*
X14851073Y8586990D01*
X14763951Y8850331D01*
X14761292Y8857614D01*
X14665323Y9097499D01*
X14661702Y9105698D01*
X14556631Y9322575D01*
X14551773Y9331647D01*
X14437343Y9525964D01*
X14430957Y9535749D01*
X14306913Y9707953D01*
X14298754Y9718134D01*
X14164842Y9868672D01*
X14156511Y9877195D01*
X14059224Y9967810D01*
X14052170Y9973912D01*
X13935398Y10067656D01*
X13928583Y10072761D01*
X13802376Y10160854D01*
X13795442Y10165365D01*
X13658650Y10248152D01*
X13651838Y10251993D01*
X13503313Y10329818D01*
X13496826Y10332986D01*
X13335420Y10406191D01*
X13329405Y10408735D01*
X13153967Y10477664D01*
X13148513Y10479664D01*
X12957895Y10544662D01*
X12953036Y10546211D01*
X12746090Y10607621D01*
X12741823Y10608806D01*
X12517398Y10666971D01*
X12513695Y10667872D01*
X12270645Y10723137D01*
X12267458Y10723819D01*
X12004631Y10776527D01*
X12001910Y10777042D01*
X11718159Y10827537D01*
X11715850Y10827926D01*
X11410026Y10876551D01*
X11408079Y10876845D01*
X11079033Y10923944D01*
X11077488Y10924155D01*
X10767000Y10964714D01*
X10766003Y10964840D01*
X10592147Y10986153D01*
X10591481Y10986233D01*
X10415963Y11006809D01*
X10415327Y11006882D01*
X10242358Y11026276D01*
X10241704Y11026348D01*
X10075495Y11044113D01*
X10074771Y11044188D01*
X9919534Y11059880D01*
X9918653Y11059966D01*
X9778598Y11073138D01*
X9777409Y11073244D01*
X9656749Y11083449D01*
X9655609Y11083540D01*
X9617113Y11086447D01*
X9614881Y11086596D01*
X9513308Y11092469D01*
X9510508Y11092600D01*
X9396090Y11096685D01*
X9393978Y11096743D01*
X9271677Y11099073D01*
X9269875Y11099095D01*
X9144656Y11099703D01*
X9142925Y11099699D01*
X9019752Y11098619D01*
X9017876Y11098589D01*
X8901714Y11095853D01*
X8899396Y11095777D01*
X8795208Y11091419D01*
X8791880Y11091236D01*
X8704630Y11085289D01*
X8699979Y11084886D01*
X8651938Y11079832D01*
X8645454Y11078981D01*
X8484954Y11053687D01*
X8476775Y11052121D01*
X8325713Y11018040D01*
X8316322Y11015540D01*
X8172873Y10971412D01*
X8162772Y10967832D01*
X8025109Y10912394D01*
X8014972Y10907785D01*
X7881270Y10839776D01*
X7871767Y10834417D01*
X7740201Y10752574D01*
X7731835Y10746896D01*
X7600578Y10649959D01*
X7593590Y10644408D01*
X7460818Y10531114D01*
X7455218Y10526040D01*
X7319103Y10395128D01*
X7314750Y10390733D01*
X7173468Y10240940D01*
X7170163Y10237297D01*
X7021887Y10067362D01*
X7019426Y10064454D01*
X6862331Y9873116D01*
X6861184Y9871699D01*
X6830711Y9833478D01*
X6829065Y9831367D01*
X6653965Y9601990D01*
X6650725Y9597551D01*
X6497760Y9378098D01*
X6494202Y9372706D01*
X6362690Y9161938D01*
X6358906Y9155454D01*
X6248164Y8952132D01*
X6244311Y8944450D01*
X6153660Y8747336D01*
X6149965Y8738424D01*
X6078721Y8546277D01*
X6075650Y8536891D01*
X6028808Y8372316D01*
X6025825Y8359251D01*
X6013278Y8286901D01*
X6011886Y8276180D01*
X6005567Y8203370D01*
X-9671544Y8203370D01*
X-9678298Y8243040D01*
X-9680372Y8252862D01*
X-9731066Y8453321D01*
X-9733451Y8461569D01*
X-9802555Y8673414D01*
X-9805086Y8680461D01*
X-9892304Y8902500D01*
X-9894791Y8908391D01*
X-9990594Y9120274D01*
X-9994884Y9128877D01*
X-10108713Y9337065D01*
X-10115815Y9348557D01*
X-10251561Y9544120D01*
X-10259676Y9554598D01*
X-10417072Y9737281D01*
X-10425894Y9746535D01*
X-10604672Y9916082D01*
X-10613881Y9924014D01*
X-10813774Y10080169D01*
X-10823074Y10086784D01*
X-11043814Y10229293D01*
X-11052610Y10234482D01*
X-11274029Y10353392D01*
X-11278878Y10355864D01*
X-11397899Y10413354D01*
X-11399975Y10414334D01*
X-11511524Y10465750D01*
X-11514591Y10467115D01*
X-11620500Y10512577D01*
X-11624640Y10514268D01*
X-11726738Y10553898D01*
X-11731942Y10555788D01*
X-11832060Y10589707D01*
X-11838187Y10591612D01*
X-11938157Y10619940D01*
X-11944919Y10621657D01*
X-12046573Y10644515D01*
X-12053578Y10645885D01*
X-12158744Y10663394D01*
X-12165574Y10664341D01*
X-12276086Y10676622D01*
X-12282386Y10677164D01*
X-12400073Y10684338D01*
X-12405607Y10684554D01*
X-12532300Y10686742D01*
X-12536965Y10686737D01*
X-12674496Y10684059D01*
X-12678292Y10683928D01*
X-12828492Y10676506D01*
X-12831488Y10676323D01*
X-12996187Y10664277D01*
X-12998485Y10664088D01*
X-13179514Y10647539D01*
X-13181224Y10647371D01*
X-13380415Y10626440D01*
X-13381644Y10626304D01*
X-13600828Y10601112D01*
X-13601670Y10601013D01*
X-13842677Y10571681D01*
X-13843171Y10571620D01*
X-14049337Y10545709D01*
X-14049737Y10545658D01*
X-14361332Y10505490D01*
X-14361911Y10505414D01*
X-14649716Y10466968D01*
X-14650432Y10466870D01*
X-14915976Y10429859D01*
X-14916851Y10429734D01*
X-15161666Y10393873D01*
X-15162727Y10393713D01*
X-15388343Y10358715D01*
X-15389615Y10358511D01*
X-15597562Y10324090D01*
X-15599071Y10323831D01*
X-15790879Y10289701D01*
X-15792646Y10289374D01*
X-15969845Y10255249D01*
X-15971887Y10254838D01*
X-16136008Y10220431D01*
X-16138327Y10219922D01*
X-16290901Y10184947D01*
X-16293481Y10184327D01*
X-16436036Y10148498D01*
X-16438840Y10147759D01*
X-16572909Y10110789D01*
X-16575871Y10109934D01*
X-16702982Y10071539D01*
X-16706016Y10070581D01*
X-16827701Y10030472D01*
X-16829637Y10029816D01*
X-16862843Y10018275D01*
X-16866746Y10016847D01*
X-16957354Y9981993D01*
X-16962344Y9979951D01*
X-17063880Y9935859D01*
X-17067564Y9934188D01*
X-17173777Y9883986D01*
X-17177045Y9882384D01*
X-17281686Y9829205D01*
X-17285156Y9827374D01*
X-17381972Y9774347D01*
X-17386399Y9771805D01*
X-17469142Y9722062D01*
X-17474313Y9718781D01*
X-17514056Y9692199D01*
X-17521106Y9687127D01*
X-17600734Y9625594D01*
X-17606777Y9620619D01*
X-17693733Y9544422D01*
X-17698066Y9540443D01*
X-17786313Y9455576D01*
X-17790179Y9451695D01*
X-17873680Y9364154D01*
X-17877910Y9359493D01*
X-17950626Y9275272D01*
X-17955413Y9269380D01*
X-17999070Y9212241D01*
X-18004179Y9205051D01*
X-18113897Y9038665D01*
X-18117959Y9032076D01*
X-18221743Y8851653D01*
X-18225024Y8845573D01*
X-18320720Y8656057D01*
X-18323544Y8650082D01*
X-18409000Y8456416D01*
X-18411573Y8450137D01*
X-18484638Y8257266D01*
X-18487085Y8250180D01*
X-18545605Y8063046D01*
X-18547970Y8054431D01*
X-18589793Y7877980D01*
X-18591113Y7871712D01*
X-18596982Y7839872D01*
X-18598083Y7832776D01*
X-18623421Y7632315D01*
X-18624403Y7618683D01*
X-18625572Y7553984D01*
X-30930881Y7553984D01*
X-30925456Y7667241D01*
X-30917126Y7800588D01*
X-30907424Y7919418D01*
X-30896122Y8025969D01*
X-30883007Y8122550D01*
X-30867832Y8211643D01*
X-30850321Y8295805D01*
X-30830142Y8377649D01*
X-30806887Y8459876D01*
X-30780146Y8545047D01*
X-30757736Y8611784D01*
X-30665550Y8848543D01*
X-30557512Y9070202D01*
X-30434371Y9276343D01*
X-30297646Y9464718D01*
X-30147040Y9635235D01*
X-30064065Y9715719D01*
X-29983580Y9784640D01*
X-29897186Y9848804D01*
X-29796145Y9914618D01*
X-29731393Y9953554D01*
X-29730360Y9954182D01*
X-29610537Y10027794D01*
X-29604943Y10031436D01*
X-29501307Y10102865D01*
X-29494641Y10107788D01*
X-29399351Y10183084D01*
X-29393181Y10188286D01*
X-29298397Y10273499D01*
X-29294528Y10277126D01*
X-29228779Y10341398D01*
X-29225111Y10345135D01*
X-29106748Y10470789D01*
X-29100823Y10477543D01*
X-29004428Y10595591D01*
X-28997419Y10605035D01*
X-28921578Y10717786D01*
X-28914124Y10730378D01*
X-28857420Y10840142D01*
X-28850659Y10855696D01*
X-28811678Y10964781D01*
X-28807263Y10980118D01*
X-28788277Y11066051D01*
X-28786558Y11075520D01*
X-28771732Y11179485D01*
X-28771248Y11183289D01*
X-28756789Y11312478D01*
X-28756527Y11315053D01*
X-28742440Y11469294D01*
X-28742284Y11471154D01*
X-28728576Y11650273D01*
X-28728476Y11651680D01*
X-28715152Y11855506D01*
X-28715085Y11856608D01*
X-28702151Y12084966D01*
X-28702104Y12085854D01*
X-28689564Y12338571D01*
X-28689530Y12339303D01*
X-28677391Y12616208D01*
X-28677365Y12616822D01*
X-28665633Y12917741D01*
X-28665614Y12918265D01*
X-28654293Y13243025D01*
X-28654278Y13243477D01*
X-28643375Y13591905D01*
X-28643363Y13592300D01*
X-28632884Y13964223D01*
X-28632875Y13964571D01*
X-28622824Y14359817D01*
X-28622817Y14360128D01*
X-28613200Y14778523D01*
X-28613193Y14778801D01*
X-28604016Y15220173D01*
X-28604011Y15220425D01*
X-28595280Y15684600D01*
X-28595276Y15684828D01*
X-28586997Y16171634D01*
X-28586994Y16171843D01*
X-28579171Y16681106D01*
X-28579168Y16681298D01*
X-28571807Y17212846D01*
X-28571805Y17213024D01*
X-28564913Y17766685D01*
X-28564912Y17766795D01*
X-28562790Y17949979D01*
X-28562789Y17950013D01*
X-28561072Y18101745D01*
X-28561072Y18101761D01*
X-28559422Y18249256D01*
X-28559422Y18249278D01*
X-28557834Y18393473D01*
X-28557833Y18393498D01*
X-28556298Y18535334D01*
X-28556298Y18535362D01*
X-28554810Y18675775D01*
X-28554810Y18675807D01*
X-28553362Y18815736D01*
X-28553361Y18815768D01*
X-28551944Y18956151D01*
X-28551944Y18956187D01*
X-28550553Y19097963D01*
X-28550553Y19098000D01*
X-28549181Y19242107D01*
X-28549180Y19242142D01*
X-28547818Y19389519D01*
X-28547818Y19389555D01*
X-28546460Y19541139D01*
X-28546460Y19541174D01*
X-28545099Y19697903D01*
X-28545099Y19697936D01*
X-28543727Y19860750D01*
X-28543726Y19860782D01*
X-28542338Y20030619D01*
X-28542338Y20030647D01*
X-28540924Y20208444D01*
X-28540924Y20208471D01*
X-28539479Y20395167D01*
X-28539479Y20395191D01*
X-28537995Y20591724D01*
X-28537994Y20591746D01*
X-28536464Y20799055D01*
X-28536464Y20799074D01*
X-28534881Y21018097D01*
X-28534881Y21018114D01*
X-28533238Y21249790D01*
X-28533238Y21249805D01*
X-28531527Y21495070D01*
X-28531527Y21495083D01*
X-28529742Y21754878D01*
X-28529742Y21754890D01*
X-28527876Y22030152D01*
X-28527876Y22030162D01*
X-28525921Y22321829D01*
X-28525921Y22321837D01*
X-28523870Y22630848D01*
X-28523870Y22630855D01*
X-28521716Y22958147D01*
X-28521716Y22958153D01*
X-28519452Y23304666D01*
X-28519452Y23304671D01*
X-28517071Y23671343D01*
X-28517071Y23671348D01*
X-28514566Y24059117D01*
X-28514566Y24059120D01*
X-28511929Y24468923D01*
X-28511929Y24468926D01*
X-28509154Y24901703D01*
X-28509154Y24901705D01*
X-28506233Y25358394D01*
X-28506233Y25358395D01*
X-28504452Y25637301D01*
X-28473284Y30521351D01*
X-28056224Y31704549D01*
X-27905853Y32130664D01*
X-27763313Y32533530D01*
X-27628280Y32913973D01*
X-27500431Y33272821D01*
X-27379445Y33610899D01*
X-27264997Y33929033D01*
X-27156766Y34228047D01*
X-27054314Y34509084D01*
X-26957669Y34772015D01*
X-26866076Y35018839D01*
X-26779518Y35249554D01*
X-26697467Y35465544D01*
X-26619864Y35666937D01*
X-26546085Y35855351D01*
X-26476028Y36031050D01*
X-26409288Y36195072D01*
X-26345514Y36348317D01*
X-26284534Y36491259D01*
X-26225862Y36625118D01*
X-26169264Y36750526D01*
X-26114381Y36868402D01*
X-26060907Y36979544D01*
X-26008472Y37084880D01*
X-25956832Y37185091D01*
X-25905533Y37281260D01*
X-25854297Y37374129D01*
X-25816492Y37440751D01*
X-25709535Y37619460D01*
X-25605237Y37777340D01*
X-25498882Y37920919D01*
X-25385865Y38056288D01*
X-25261189Y38189720D01*
X-25151800Y38297115D01*
X-25041783Y38404319D01*
X-25039097Y38407015D01*
X-24937806Y38511813D01*
X-24934851Y38514977D01*
X-24837924Y38622354D01*
X-24835114Y38625574D01*
X-24738083Y38740624D01*
X-24735751Y38743473D01*
X-24634146Y38871287D01*
X-24632557Y38873328D01*
X-24543266Y38990472D01*
X-24541384Y38993005D01*
X-24334245Y39279242D01*
X-24331907Y39282585D01*
X-24122964Y39591759D01*
X-24120951Y39594833D01*
X-23911670Y39924691D01*
X-23909892Y39927578D01*
X-23701741Y40275871D01*
X-23700820Y40277436D01*
X-23674805Y40322414D01*
X-23674595Y40322779D01*
X-23642463Y40378761D01*
X-23642192Y40379235D01*
X-23610887Y40434323D01*
X-23610564Y40434896D01*
X-23579177Y40490801D01*
X-23578829Y40491424D01*
X-23546453Y40549857D01*
X-23546116Y40550470D01*
X-23511842Y40613140D01*
X-23511535Y40613704D01*
X-23474457Y40682323D01*
X-23474198Y40682806D01*
X-23433406Y40759084D01*
X-23433195Y40759480D01*
X-23387781Y40845126D01*
X-23387614Y40845441D01*
X-23336672Y40942167D01*
X-23336545Y40942408D01*
X-23279167Y41051925D01*
X-23279074Y41052104D01*
X-23214350Y41176120D01*
X-23214281Y41176252D01*
X-23141305Y41316480D01*
X-23141257Y41316572D01*
X-23059120Y41474720D01*
X-23059087Y41474785D01*
X-22966882Y41652566D01*
X-22966863Y41652602D01*
X-22893396Y41794365D01*
X-22822497Y41931026D01*
X-22754759Y42061239D01*
X-22691122Y42183218D01*
X-22632528Y42295174D01*
X-22579926Y42395307D01*
X-22534110Y42482107D01*
X-22496479Y42552924D01*
X-22468877Y42604301D01*
X-22423371Y42610604D01*
X-22351702Y42619452D01*
X-22266405Y42629127D01*
X-22170836Y42639204D01*
X-22098267Y42646404D01*
X-21859273Y42669913D01*
X-21858761Y42669964D01*
X-21643354Y42692035D01*
X-21642693Y42692105D01*
X-21449115Y42712964D01*
X-21448269Y42713058D01*
X-21274761Y42732932D01*
X-21273688Y42733059D01*
X-21118491Y42752174D01*
X-21117144Y42752348D01*
X-20978501Y42770931D01*
X-20976832Y42771166D01*
X-20852985Y42789443D01*
X-20850945Y42789761D01*
X-20740133Y42807959D01*
X-20737695Y42808383D01*
X-20638163Y42826727D01*
X-20635326Y42827284D01*
X-20545313Y42846002D01*
X-20543610Y42846368D01*
X-20536390Y42847973D01*
X-20534704Y42848360D01*
X-20472956Y42862972D01*
X-20469853Y42863748D01*
X-20414282Y42878385D01*
X-20410175Y42879541D01*
X-20367196Y42892420D01*
X-20358317Y42895442D01*
X-20335511Y42904157D01*
X-20313238Y42915281D01*
X-20296839Y42927543D01*
X-20282764Y42939957D01*
X-20275800Y42946585D01*
X-20246585Y42976575D01*
X-20244729Y42978520D01*
X-20201845Y43024448D01*
X-20200947Y43025420D01*
X-20145871Y43085651D01*
X-20145318Y43086260D01*
X-20079522Y43159157D01*
X-20079125Y43159599D01*
X-20004083Y43243526D01*
X-20003768Y43243880D01*
X-19920953Y43337199D01*
X-19920679Y43337508D01*
X-19831566Y43438584D01*
X-19831314Y43438871D01*
X-19737377Y43546066D01*
X-19737202Y43546266D01*
X-19694648Y43595032D01*
X-19694644Y43595036D01*
X-19532343Y43781046D01*
X-19385559Y43948739D01*
X-19252636Y44099928D01*
X-19132239Y44236059D01*
X-19023496Y44358054D01*
X-18924991Y44467454D01*
X-18835466Y44565622D01*
X-18753504Y44654095D01*
X-18678105Y44733962D01*
X-18607825Y44806787D01*
X-18541367Y44873981D01*
X-18477492Y44936884D01*
X-18414761Y44997041D01*
X-18351873Y45055846D01*
X-18293158Y45109584D01*
X-18059021Y45314455D01*
X-17834809Y45495142D01*
X-17619166Y45652475D01*
X-17411354Y45786804D01*
X-17210593Y45898573D01*
X-17016080Y45988303D01*
X-16826864Y46056619D01*
X-16641874Y46104183D01*
X-16459802Y46131650D01*
X-16279153Y46139549D01*
X-16098362Y46128210D01*
X-15915912Y46097751D01*
X-15730410Y46048133D01*
X-15538532Y45978481D01*
X-15537574Y45978094D01*
X-15440871Y45939436D01*
X-15437319Y45938077D01*
X-15358051Y45909110D01*
X-15351608Y45906949D01*
X-15284312Y45886365D01*
X-15274713Y45883835D01*
X-15213930Y45870329D01*
X-15202691Y45868357D01*
X-15142958Y45860622D01*
X-15133117Y45859735D01*
X-15068973Y45856464D01*
X-15063521Y45856303D01*
X-15018766Y45855945D01*
X-15014164Y45855992D01*
X-14948141Y45857857D01*
X-14941504Y45858218D01*
X-14873301Y45863726D01*
X-14866619Y45864444D01*
X-14794717Y45874101D01*
X-14788454Y45875102D01*
X-14711331Y45889411D01*
X-14705782Y45890569D01*
X-14621916Y45910037D01*
X-14617209Y45911225D01*
X-14525080Y45936358D01*
X-14521217Y45937478D01*
X-14419304Y45968779D01*
X-14416204Y45969775D01*
X-14302984Y46007751D01*
X-14300540Y46008598D01*
X-14174494Y46053753D01*
X-14172589Y46054453D01*
X-14032193Y46107294D01*
X-14030726Y46107856D01*
X-13874462Y46168887D01*
X-13873344Y46169330D01*
X-13699688Y46239056D01*
X-13698845Y46239398D01*
X-13506277Y46318325D01*
X-13505650Y46318584D01*
X-13292649Y46407216D01*
X-13292242Y46407386D01*
X-13119342Y46480038D01*
X-12902041Y46571133D01*
X-12706003Y46652126D01*
X-12528966Y46723846D01*
X-12369318Y46786860D01*
X-12224738Y46842021D01*
X-12093266Y46890045D01*
X-11972909Y46931664D01*
X-11861621Y46967636D01*
X-11757187Y46998770D01*
X-11657576Y47025814D01*
X-11560254Y47049632D01*
X-11495169Y47064150D01*
X-11365622Y47085562D01*
X-11218785Y47098542D01*
X-11059145Y47102913D01*
X-10893689Y47098367D01*
X-10727604Y47084648D01*
X-10701815Y47081629D01*
X-10701479Y47081590D01*
X-10559488Y47065353D01*
X-10556749Y47065070D01*
X-10433856Y47053710D01*
X-10429939Y47053409D01*
X-10320362Y47046690D01*
X-10315467Y47046485D01*
X-10213424Y47044172D01*
X-10208194Y47044161D01*
X-10107903Y47046019D01*
X-10103215Y47046192D01*
X-9998894Y47051984D01*
X-9996773Y47052120D01*
X-9985739Y47052918D01*
X-9982792Y47053165D01*
X-9796757Y47070982D01*
X-9791271Y47071629D01*
X-9610640Y47096896D01*
X-9605103Y47097795D01*
X-9432362Y47129792D01*
X-9426548Y47131010D01*
X-9264184Y47169015D01*
X-9257805Y47170684D01*
X-9108304Y47213975D01*
X-9100957Y47216347D01*
X-8966805Y47264203D01*
X-8957893Y47267767D01*
X-8841576Y47319467D01*
X-8830178Y47325237D01*
X-8734182Y47380059D01*
X-8718939Y47390292D01*
X-8645751Y47447514D01*
X-8636073Y47455900D01*
X-8634806Y47457115D01*
X-8628176Y47463969D01*
X-8583716Y47513526D01*
X-8565286Y47540296D01*
X-8542719Y47584218D01*
X-8533567Y47607371D01*
X-8528837Y47635974D01*
X-8526722Y47678663D01*
X-8527933Y47703529D01*
X-8533193Y47725437D01*
X-8545220Y47761193D01*
X-8556001Y47795785D01*
X-8555888Y47797166D01*
X-8552578Y47802997D01*
X-8527353Y47824926D01*
X-8468257Y47857330D01*
X-8441751Y47868671D01*
X-8328113Y47907533D01*
X-8195482Y47939925D01*
X-8040896Y47966091D01*
X-7863693Y47985729D01*
X-7663136Y47998706D01*
X-7438106Y48004992D01*
X-7328503Y48005625D01*
X-7111760Y48002294D01*
X-6913330Y47992702D01*
X-6733843Y47977119D01*
X-6574538Y47955893D01*
X-6436746Y47929501D01*
X-6322216Y47898733D01*
X-6233044Y47865037D01*
X-6171731Y47831398D01*
X-6136856Y47801355D01*
X-6130804Y47792566D01*
X-6130971Y47792117D01*
X-6133134Y47785795D01*
X-6150164Y47731371D01*
X-6155879Y47697959D01*
X-6157333Y47657087D01*
X-6155775Y47632240D01*
X-6146381Y47600798D01*
X-6130808Y47565916D01*
X-6118479Y47544287D01*
X-6107645Y47530993D01*
X-6073593Y47494542D01*
X-6066068Y47487131D01*
X-6065034Y47486194D01*
X-6054163Y47477383D01*
X-5987094Y47428893D01*
X-5970570Y47418771D01*
X-5882919Y47373888D01*
X-5870828Y47368473D01*
X-5767302Y47328451D01*
X-5757514Y47325118D01*
X-5642822Y47291210D01*
X-5633994Y47288941D01*
X-5512842Y47262400D01*
X-5503990Y47260787D01*
X-5381089Y47242865D01*
X-5371266Y47241821D01*
X-5251321Y47233772D01*
X-5241068Y47233499D01*
X-5156407Y47234666D01*
X-5145770Y47235260D01*
X-5042712Y47245360D01*
X-5026959Y47247911D01*
X-4944149Y47266727D01*
X-4921757Y47274056D01*
X-4855134Y47302950D01*
X-4830113Y47317382D01*
X-4775612Y47357719D01*
X-4762927Y47368461D01*
X-4755272Y47375856D01*
X-4745518Y47386408D01*
X-4698442Y47443509D01*
X-4679958Y47473677D01*
X-4654723Y47531743D01*
X-4647086Y47555439D01*
X-4644478Y47573951D01*
X-4640246Y47637706D01*
X-4642800Y47672791D01*
X-4658733Y47746962D01*
X-4662963Y47762051D01*
X-4673122Y47791226D01*
X-4674842Y47796353D01*
X-4665454Y47809350D01*
X-4635447Y47833007D01*
X-4579153Y47862025D01*
X-4495970Y47892136D01*
X-4386495Y47921210D01*
X-4251085Y47948392D01*
X-4089155Y47973513D01*
X-4024448Y47982009D01*
X-3974314Y47986672D01*
X-3901567Y47990986D01*
X-3810046Y47994797D01*
X-3704649Y47997983D01*
X-3589800Y48000475D01*
X-3469358Y48002225D01*
X-3347909Y48003181D01*
X-3229219Y48003302D01*
X-3117581Y48002543D01*
X-3017277Y48000871D01*
X-2932650Y47998270D01*
X-2867599Y47994738D01*
X-2680548Y47977391D01*
X-2515352Y47955438D01*
X-2372382Y47929254D01*
X-2252965Y47899504D01*
X-2158853Y47867363D01*
X-2092483Y47835291D01*
X-2056230Y47808673D01*
X-2047055Y47796594D01*
X-2046858Y47795762D01*
X-2046996Y47794809D01*
X-2054817Y47769040D01*
X-2054991Y47768605D01*
X-2056982Y47763302D01*
X-2068677Y47729908D01*
X-2074563Y47705718D01*
X-2075809Y47686704D01*
X-2075568Y47661757D01*
X-2072889Y47637005D01*
X-2066678Y47616289D01*
X-2055238Y47587354D01*
X-2038977Y47558175D01*
X-2004831Y47512342D01*
X-1981621Y47488487D01*
X-1924882Y47443750D01*
X-1908158Y47432590D01*
X-1831636Y47389868D01*
X-1819459Y47383899D01*
X-1725962Y47344109D01*
X-1716441Y47340501D01*
X-1608776Y47304563D01*
X-1600739Y47302172D01*
X-1481714Y47271002D01*
X-1474417Y47269319D01*
X-1346841Y47243836D01*
X-1339769Y47242630D01*
X-1206449Y47223753D01*
X-1199190Y47222938D01*
X-1062933Y47211584D01*
X-1058465Y47211291D01*
X-1034778Y47210156D01*
X-1029464Y47210012D01*
X-890868Y47209178D01*
X-878882Y47209673D01*
X-759269Y47220284D01*
X-743584Y47222670D01*
X-638957Y47245352D01*
X-620978Y47250666D01*
X-527343Y47286043D01*
X-517259Y47290359D01*
X-506233Y47295653D01*
X-495359Y47301542D01*
X-423523Y47345097D01*
X-398558Y47364910D01*
X-350046Y47414528D01*
X-334470Y47433950D01*
X-325662Y47449837D01*
X-298648Y47508028D01*
X-290429Y47531529D01*
X-287764Y47546223D01*
X-280517Y47606011D01*
X-271253Y47669175D01*
X-250204Y47713771D01*
X-210090Y47760841D01*
X-146246Y47809580D01*
X-57082Y47856984D01*
X57008Y47900421D01*
X194980Y47938122D01*
X355682Y47968934D01*
X539507Y47992268D01*
X562545Y47994469D01*
X693487Y48002883D01*
X836851Y48005632D01*
X990141Y48003071D01*
X990141Y48003071D01*
G37*
X990141Y48003071D02*
X1149396Y47995528D01*
X1310547Y47983388D01*
X1469804Y47967045D01*
X1623184Y47946937D01*
X1766653Y47923548D01*
X1896167Y47897423D01*
X2007061Y47869365D01*
X2096467Y47839941D01*
X2118548Y47830892D01*
X2162438Y47808992D01*
X2159797Y47806148D01*
X2143340Y47784027D01*
X2127508Y47757059D01*
X2117069Y47734457D01*
X2112704Y47718688D01*
X2110874Y47709912D01*
X2108205Y47685159D01*
X2110417Y47660361D01*
X2115796Y47640723D01*
X2127702Y47607864D01*
X2138437Y47585401D01*
X2152504Y47566397D01*
X2186805Y47528100D01*
X2203301Y47512689D01*
X2257866Y47470131D01*
X2268443Y47462714D01*
X2341144Y47417070D01*
X2348673Y47412696D01*
X2437379Y47365146D01*
X2443297Y47362170D01*
X2545881Y47313889D01*
X2550945Y47311639D01*
X2665275Y47263805D01*
X2669929Y47261965D01*
X2793878Y47215756D01*
X2797428Y47214492D01*
X2871680Y47189293D01*
X2873692Y47188629D01*
X3004431Y47146679D01*
X3006609Y47146001D01*
X3117931Y47112474D01*
X3121440Y47111472D01*
X3217567Y47085509D01*
X3222666Y47084245D01*
X3307824Y47064985D01*
X3314417Y47063676D01*
X3392829Y47050257D01*
X3400219Y47049215D01*
X3476108Y47040778D01*
X3483086Y47040196D01*
X3560679Y47035879D01*
X3565812Y47035698D01*
X3636628Y47034626D01*
X3639780Y47034617D01*
X3728139Y47035473D01*
X3733942Y47035662D01*
X3804581Y47039580D01*
X3815952Y47040725D01*
X3875704Y47049476D01*
X3891057Y47052705D01*
X3946758Y47068063D01*
X3960763Y47072817D01*
X4019247Y47096554D01*
X4028061Y47100529D01*
X4096164Y47134416D01*
X4099850Y47136326D01*
X4160565Y47169054D01*
X4310712Y47243867D01*
X4454455Y47299943D01*
X4600404Y47340489D01*
X4755254Y47367159D01*
X4926205Y47381116D01*
X5049475Y47383650D01*
X5219451Y47379104D01*
X5391673Y47365142D01*
X5569847Y47341127D01*
X5757212Y47306376D01*
X5956970Y47260177D01*
X6172179Y47201835D01*
X6406251Y47130554D01*
X6486678Y47104554D01*
X6487347Y47104340D01*
X6675841Y47044553D01*
X6678839Y47043642D01*
X6849473Y46994118D01*
X6853590Y46992998D01*
X7011348Y46952905D01*
X7016513Y46951706D01*
X7166386Y46920212D01*
X7172263Y46919121D01*
X7319235Y46895395D01*
X7325260Y46894570D01*
X7474321Y46877780D01*
X7479864Y46877278D01*
X7636000Y46866591D01*
X7640587Y46866361D01*
X7808786Y46860948D01*
X7811901Y46860886D01*
X7955580Y46859789D01*
X7957241Y46859787D01*
X8065104Y46860374D01*
X8066695Y46860393D01*
X8164568Y46862152D01*
X8166675Y46862207D01*
X8260382Y46865447D01*
X8262683Y46865547D01*
X8358050Y46870578D01*
X8360144Y46870706D01*
X8462995Y46877837D01*
X8464606Y46877959D01*
X8580766Y46887499D01*
X8581833Y46887591D01*
X8717127Y46899852D01*
X8717488Y46899885D01*
X8724023Y46900496D01*
X8902917Y46916733D01*
X9059227Y46929636D01*
X9195377Y46939185D01*
X9314246Y46945416D01*
X9418544Y46948373D01*
X9511228Y46948130D01*
X9595216Y46944769D01*
X9673857Y46938335D01*
X9750558Y46928789D01*
X9828778Y46915999D01*
X9893030Y46903628D01*
X10002205Y46878336D01*
X10123001Y46844276D01*
X10257565Y46800621D01*
X10406945Y46746849D01*
X10572155Y46682478D01*
X10754226Y46607051D01*
X10954187Y46520131D01*
X11173327Y46421178D01*
X11412592Y46309813D01*
X11572362Y46233940D01*
X11956427Y46051517D01*
X11957074Y46051212D01*
X12319517Y45881555D01*
X12320255Y45881212D01*
X12661345Y45724208D01*
X12662193Y45723822D01*
X12982201Y45579356D01*
X12983180Y45578919D01*
X13282374Y45446878D01*
X13283513Y45446381D01*
X13562163Y45326651D01*
X13563501Y45326086D01*
X13821877Y45218551D01*
X13823465Y45217902D01*
X14061835Y45122450D01*
X14063742Y45121704D01*
X14282378Y45038219D01*
X14284702Y45037358D01*
X14483872Y44965728D01*
X14486752Y44964731D01*
X14666726Y44904841D01*
X14670328Y44903702D01*
X14828031Y44856384D01*
X14899584Y44834325D01*
X14972764Y44808564D01*
X15039102Y44782365D01*
X15082922Y44762421D01*
X15230529Y44678894D01*
X15387514Y44572387D01*
X15552977Y44443344D01*
X15725499Y44292722D01*
X15903798Y44121517D01*
X16086706Y43930715D01*
X16273145Y43721266D01*
X16462008Y43494200D01*
X16652787Y43249819D01*
X16683350Y43209261D01*
X16768851Y43093162D01*
X16859590Y42966236D01*
X16952320Y42833265D01*
X17043703Y42699147D01*
X17130013Y42569371D01*
X17207926Y42448836D01*
X17274112Y42342462D01*
X17284908Y42324557D01*
X17285154Y42324152D01*
X17346401Y42223425D01*
X17347768Y42221227D01*
X17400558Y42138265D01*
X17402855Y42134783D01*
X17450616Y42064903D01*
X17453910Y42060307D01*
X17500073Y41998830D01*
X17503950Y41993923D01*
X17551944Y41936164D01*
X17555548Y41932013D01*
X17608802Y41873292D01*
X17610872Y41871063D01*
X17640709Y41839706D01*
X17645203Y41835214D01*
X17830658Y41658880D01*
X17839529Y41651194D01*
X18036764Y41495658D01*
X18046565Y41488656D01*
X18258074Y41352231D01*
X18268207Y41346339D01*
X18496487Y41227340D01*
X18504143Y41223669D01*
X18637000Y41165345D01*
X18795386Y41095420D01*
X18928628Y41026222D01*
X19044166Y40953555D01*
X19147735Y40873704D01*
X19245147Y40782303D01*
X19341851Y40674541D01*
X19424983Y40569377D01*
X19478058Y40497041D01*
X19531460Y40420016D01*
X19585887Y40336914D01*
X19642423Y40245791D01*
X19702138Y40144699D01*
X19765917Y40032007D01*
X19834909Y39905619D01*
X19909933Y39764052D01*
X19992137Y39605218D01*
X20082233Y39427874D01*
X20181526Y39229624D01*
X20237562Y39116795D01*
X20365624Y38856934D01*
X20498213Y38585304D01*
X20634763Y38303170D01*
X20773556Y38014165D01*
X20914178Y37719230D01*
X21054957Y37421921D01*
X21195405Y37123310D01*
X21334036Y36826579D01*
X21469780Y36534031D01*
X21601855Y36247347D01*
X21729149Y35968916D01*
X21850500Y35701236D01*
X21964559Y35447232D01*
X22070928Y35207708D01*
X22167852Y34986504D01*
X22254686Y34784969D01*
X22273593Y34740519D01*
X22467463Y34273031D01*
X22644750Y33823472D01*
X22805959Y33390187D01*
X22951611Y32971447D01*
X23082094Y32565901D01*
X23197909Y32171866D01*
X23299501Y31787827D01*
X23387320Y31412264D01*
X23461834Y31043566D01*
X23523500Y30680142D01*
X23572790Y30320236D01*
X23602832Y30041923D01*
X23621791Y29833569D01*
X23641394Y29599587D01*
X23661491Y29342026D01*
X23682075Y29061264D01*
X23703060Y28758792D01*
X23724454Y28434709D01*
X23746192Y28090211D01*
X23768233Y27726142D01*
X23790536Y27343349D01*
X23813060Y26942672D01*
X23835776Y26524737D01*
X23858609Y26091033D01*
X23881553Y25641750D01*
X23904556Y25177944D01*
X23927578Y24700455D01*
X23950578Y24210121D01*
X23973516Y23707779D01*
X23996352Y23194270D01*
X24019044Y22670429D01*
X24041554Y22137096D01*
X24063845Y21594973D01*
X24085862Y21045304D01*
X24107581Y20488521D01*
X24107580Y20488521D01*
X24128958Y19925465D01*
X24128959Y19925465D01*
X24149943Y19357366D01*
X24170506Y18784671D01*
X24190609Y18208215D01*
X24210197Y17629231D01*
X24229249Y17048027D01*
X24231777Y16969466D01*
X24231778Y16969435D01*
X24244820Y16567175D01*
X24244823Y16567082D01*
X24257349Y16189217D01*
X24257352Y16189109D01*
X24269406Y15834643D01*
X24269411Y15834515D01*
X24281037Y15502450D01*
X24281042Y15502300D01*
X24292287Y15191639D01*
X24292294Y15191464D01*
X24303201Y14901209D01*
X24303208Y14901004D01*
X24313823Y14630157D01*
X24313833Y14629919D01*
X24324201Y14377483D01*
X24324213Y14377207D01*
X24334378Y14142184D01*
X24334392Y14141864D01*
X24344400Y13923257D01*
X24344417Y13922887D01*
X24354313Y13719699D01*
X24354335Y13719274D01*
X24364163Y13530506D01*
X24364189Y13530018D01*
X24373994Y13354673D01*
X24374026Y13354117D01*
X24383854Y13191198D01*
X24383894Y13190567D01*
X24393789Y13039076D01*
X24393837Y13038367D01*
X24403844Y12897306D01*
X24403903Y12896514D01*
X24414068Y12764887D01*
X24414138Y12764017D01*
X24424504Y12640824D01*
X24424563Y12640142D01*
X24429317Y12587069D01*
X24429365Y12586549D01*
X24440389Y12468926D01*
X24440529Y12467514D01*
X24450575Y12371842D01*
X24450952Y12368644D01*
X24461029Y12291553D01*
X24461958Y12285564D01*
X24473072Y12223683D01*
X24475247Y12213837D01*
X24488405Y12163796D01*
X24492906Y12149957D01*
X24509115Y12108385D01*
X24516424Y12092838D01*
X24536690Y12056363D01*
X24545079Y12043232D01*
X24570409Y12008485D01*
X24576884Y12000329D01*
X24608285Y11963939D01*
X24611146Y11960734D01*
X24634931Y11934985D01*
X24639827Y11929969D01*
X24746451Y11826614D01*
X24753948Y11819902D01*
X24883958Y11712474D01*
X24890191Y11707642D01*
X25042105Y11597235D01*
X25047437Y11593564D01*
X25219772Y11481274D01*
X25223849Y11478726D01*
X25360145Y11397094D01*
X25360825Y11396689D01*
X25425901Y11358262D01*
X25490463Y11318892D01*
X25547761Y11282795D01*
X25590659Y11254445D01*
X25592484Y11253178D01*
X25724670Y11154511D01*
X25853303Y11047001D01*
X25976387Y10933002D01*
X26090627Y10815949D01*
X26192679Y10699467D01*
X26279196Y10587417D01*
X26347591Y10482988D01*
X26377494Y10427897D01*
X26415776Y10340846D01*
X26457235Y10227557D01*
X26501086Y10089622D01*
X26546666Y9929005D01*
X26593524Y9747370D01*
X26641305Y9546220D01*
X26689697Y9326980D01*
X26738434Y9090924D01*
X26787221Y8839481D01*
X26835826Y8573794D01*
X26883945Y8295401D01*
X26931360Y8005368D01*
X26977807Y7705016D01*
X27023020Y7395716D01*
X27066746Y7078759D01*
X27108803Y6754880D01*
X27120815Y6658508D01*
X27145256Y6457671D01*
X27166097Y6279779D01*
X27183635Y6121521D01*
X27198100Y5980205D01*
X27209727Y5853110D01*
X27218757Y5737515D01*
X27225459Y5630300D01*
X27230072Y5528798D01*
X27232846Y5429888D01*
X27234019Y5330294D01*
X27234069Y5315123D01*
X27233570Y5208207D01*
X27231363Y5109252D01*
X27227096Y5013609D01*
X27220406Y4917294D01*
X27210898Y4816183D01*
X27198145Y4706120D01*
X27181739Y4583238D01*
X27161260Y4443556D01*
X27136405Y4283843D01*
X27127902Y4230599D01*
X27081313Y3954374D01*
X27027961Y3663370D01*
X26968266Y3359026D01*
X26902636Y3042734D01*
X26831557Y2716259D01*
X26755449Y2381064D01*
X26674771Y2038791D01*
X26590043Y1691300D01*
X26501618Y1339787D01*
X26410056Y986271D01*
X26315691Y631879D01*
X26219081Y278599D01*
X26120617Y-72204D01*
X26020771Y-418867D01*
X25920030Y-759693D01*
X25818803Y-1093243D01*
X25717557Y-1417885D01*
X25616788Y-1731899D01*
X25516901Y-2033846D01*
X25418407Y-2321979D01*
X25321742Y-2594778D01*
X25227421Y-2850498D01*
X25135922Y-3087519D01*
X25047731Y-3304224D01*
X24963447Y-3498755D01*
X24883241Y-3670260D01*
X24870559Y-3695968D01*
X24818214Y-3798854D01*
X24773234Y-3881279D01*
X24732477Y-3948254D01*
X24692411Y-4005542D01*
X24648791Y-4059513D01*
X24596882Y-4116409D01*
X24550339Y-4163778D01*
X24421171Y-4284192D01*
X24276242Y-4403726D01*
X24244179Y-4427394D01*
X24133203Y-4493607D01*
X23934730Y-4600359D01*
X23684869Y-4733053D01*
X23669254Y-4740411D01*
X23655166Y-4748827D01*
X23640683Y-4756519D01*
X23626313Y-4766065D01*
X23423550Y-4887201D01*
X23402325Y-4899112D01*
X23394695Y-4904440D01*
X23386707Y-4909212D01*
X23367139Y-4923681D01*
X23196005Y-5043179D01*
X23175998Y-5056324D01*
X23168461Y-5062412D01*
X23160506Y-5067967D01*
X23142291Y-5083552D01*
X23088382Y-5127099D01*
X23062615Y-5141822D01*
X23060886Y-5142828D01*
X23031709Y-5160115D01*
X23027010Y-5163039D01*
X22865392Y-5268570D01*
X22858340Y-5273524D01*
X22720326Y-5377646D01*
X22711741Y-5384734D01*
X22595753Y-5489376D01*
X22586057Y-5499126D01*
X22490519Y-5606214D01*
X22480649Y-5618789D01*
X22403984Y-5730251D01*
X22395217Y-5745052D01*
X22335849Y-5862817D01*
X22329251Y-5878414D01*
X22285602Y-6004408D01*
X22281939Y-6017072D01*
X22259691Y-6112245D01*
X22258142Y-6119935D01*
X22244701Y-6199250D01*
X22244140Y-6202879D01*
X22229621Y-6306698D01*
X22229330Y-6308925D01*
X22213798Y-6436376D01*
X22213623Y-6437887D01*
X22197140Y-6588102D01*
X22197024Y-6589203D01*
X22179657Y-6761308D01*
X22179575Y-6762150D01*
X22161385Y-6955277D01*
X22161323Y-6955949D01*
X22142377Y-7169227D01*
X22142329Y-7169777D01*
X22122689Y-7402334D01*
X22122651Y-7402798D01*
X22102383Y-7653765D01*
X22102352Y-7654163D01*
X22081518Y-7922668D01*
X22081491Y-7923019D01*
X22060157Y-8208192D01*
X22060134Y-8208503D01*
X22038363Y-8509473D01*
X22038343Y-8509756D01*
X22016200Y-8825654D01*
X22016182Y-8825912D01*
X21993730Y-9155865D01*
X21993714Y-9156105D01*
X21971018Y-9499243D01*
X21971003Y-9499469D01*
X21948127Y-9854923D01*
X21948114Y-9855136D01*
X21925122Y-10222033D01*
X21925109Y-10222237D01*
X21902065Y-10599709D01*
X21902053Y-10599907D01*
X21879022Y-10987081D01*
X21879011Y-10987272D01*
X21856055Y-11383278D01*
X21856044Y-11383467D01*
X21833230Y-11787435D01*
X21833220Y-11787612D01*
X21812732Y-12159616D01*
X21812726Y-12159735D01*
X21799627Y-12401699D01*
X21799622Y-12401778D01*
X21787114Y-12635519D01*
X21787110Y-12635610D01*
X21775097Y-12863158D01*
X21775091Y-12863260D01*
X21763478Y-13086642D01*
X21763473Y-13086751D01*
X21752163Y-13307997D01*
X21752157Y-13308113D01*
X21741055Y-13529251D01*
X21741049Y-13529369D01*
X21730059Y-13752428D01*
X21730053Y-13752546D01*
X21719079Y-13979555D01*
X21719074Y-13979669D01*
X21708021Y-14212656D01*
X21708016Y-14212763D01*
X21696788Y-14453756D01*
X21696783Y-14453856D01*
X21685284Y-14704886D01*
X21685280Y-14704975D01*
X21673415Y-14968069D01*
X21673411Y-14968148D01*
X21661083Y-15245335D01*
X21661080Y-15245404D01*
X21648194Y-15538713D01*
X21648192Y-15538771D01*
X21634652Y-15850231D01*
X21634650Y-15850280D01*
X21620361Y-16181918D01*
X21620359Y-16181958D01*
X21605224Y-16535805D01*
X21605223Y-16535831D01*
X21596289Y-16745703D01*
X21567497Y-17398363D01*
X21537288Y-18035362D01*
X21505634Y-18657765D01*
X21472641Y-19263826D01*
X21438294Y-19854210D01*
X21402680Y-20427652D01*
X21365839Y-20983757D01*
X21327805Y-21522239D01*
X21288640Y-22042385D01*
X21248345Y-22544255D01*
X21207003Y-23026914D01*
X21164662Y-23489831D01*
X21121350Y-23932753D01*
X21077125Y-24355068D01*
X21032040Y-24756222D01*
X20986110Y-25136048D01*
X20939415Y-25493754D01*
X20892010Y-25828865D01*
X20843951Y-26140845D01*
X20795287Y-26429278D01*
X20746092Y-26693585D01*
X20696478Y-26933071D01*
X20646407Y-27147777D01*
X20628094Y-27219595D01*
X20608574Y-27289637D01*
X20582333Y-27376983D01*
X20551682Y-27474216D01*
X20518911Y-27574065D01*
X20486343Y-27669191D01*
X20480298Y-27686331D01*
X20479863Y-27687587D01*
X20390203Y-27950560D01*
X20389354Y-27953139D01*
X20298090Y-28240804D01*
X20297413Y-28243006D01*
X20204710Y-28554716D01*
X20204158Y-28556627D01*
X20110182Y-28891735D01*
X20109724Y-28893415D01*
X20014641Y-29251276D01*
X20014253Y-29252771D01*
X19918228Y-29632737D01*
X19917896Y-29634082D01*
X19821096Y-30035506D01*
X19820808Y-30036728D01*
X19723396Y-30458965D01*
X19723142Y-30460087D01*
X19625287Y-30902490D01*
X19625063Y-30903526D01*
X19526928Y-31365448D01*
X19526781Y-31366149D01*
X19483568Y-31575351D01*
X19483451Y-31575923D01*
X19437600Y-31803165D01*
X19437452Y-31803910D01*
X19392602Y-32033260D01*
X19392456Y-32034019D01*
X19348335Y-32267165D01*
X19348194Y-32267922D01*
X19304531Y-32506549D01*
X19304398Y-32507286D01*
X19260920Y-32753080D01*
X19260798Y-32753785D01*
X19217234Y-33008432D01*
X19217122Y-33009096D01*
X19173200Y-33274283D01*
X19173100Y-33274897D01*
X19128548Y-33552309D01*
X19128459Y-33552868D01*
X19083005Y-33844190D01*
X19082928Y-33844694D01*
X19036300Y-34151614D01*
X19036233Y-34152061D01*
X18988160Y-34476264D01*
X18988102Y-34476656D01*
X18938311Y-34819827D01*
X18938262Y-34820168D01*
X18886481Y-35183995D01*
X18886440Y-35184289D01*
X18832398Y-35570456D01*
X18832367Y-35570674D01*
X18791496Y-35866467D01*
X18791455Y-35866771D01*
X18748412Y-36183931D01*
X18748341Y-36184459D01*
X18709736Y-36478160D01*
X18709651Y-36478825D01*
X18675386Y-36750598D01*
X18675284Y-36751423D01*
X18645261Y-37002800D01*
X18645144Y-37003813D01*
X18619266Y-37236326D01*
X18619136Y-37237555D01*
X18597304Y-37452737D01*
X18597163Y-37454211D01*
X18579281Y-37653592D01*
X18579136Y-37655338D01*
X18565104Y-37840452D01*
X18564966Y-37842492D01*
X18554688Y-38014869D01*
X18554570Y-38017214D01*
X18547947Y-38178388D01*
X18547866Y-38181033D01*
X18544801Y-38332534D01*
X18544775Y-38335453D01*
X18545170Y-38478815D01*
X18545218Y-38481954D01*
X18548976Y-38618707D01*
X18549108Y-38621981D01*
X18556130Y-38753658D01*
X18556350Y-38756962D01*
X18566539Y-38885095D01*
X18566835Y-38888305D01*
X18580093Y-39014426D01*
X18580355Y-39016717D01*
X18588241Y-39080562D01*
X18588417Y-39081925D01*
X18596361Y-39140982D01*
X18596573Y-39142489D01*
X18604347Y-39195466D01*
X18597329Y-39405507D01*
X18596072Y-39419227D01*
X18596207Y-39439105D01*
X18595543Y-39458979D01*
X18596435Y-39472733D01*
X18597977Y-39699838D01*
X18597261Y-39715554D01*
X18598205Y-39733473D01*
X18598327Y-39751402D01*
X18599974Y-39767033D01*
X18611099Y-39978153D01*
X18611129Y-39994387D01*
X18612868Y-40011714D01*
X18613785Y-40029121D01*
X18616226Y-40045182D01*
X18636336Y-40245587D01*
X18637028Y-40260674D01*
X18639695Y-40279066D01*
X18641548Y-40297528D01*
X18644518Y-40312315D01*
X18672791Y-40507263D01*
X18673803Y-40519591D01*
X18677617Y-40540539D01*
X18680673Y-40561611D01*
X18683640Y-40573621D01*
X18719673Y-40771531D01*
X18720967Y-40782752D01*
X18725698Y-40804627D01*
X18729704Y-40826628D01*
X18732804Y-40837479D01*
X18836820Y-41318387D01*
X18836961Y-41319571D01*
X18843926Y-41351238D01*
X18850794Y-41382993D01*
X18851160Y-41384130D01*
X18929798Y-41741682D01*
X18999073Y-42086658D01*
X19019106Y-42201282D01*
X18989835Y-42331934D01*
X18941495Y-42468609D01*
X18877560Y-42594198D01*
X18796365Y-42711742D01*
X18695766Y-42823868D01*
X18573560Y-42932559D01*
X18427909Y-43039244D01*
X18256847Y-43145464D01*
X18127089Y-43217081D01*
X17988016Y-43287218D01*
X17824832Y-43363362D01*
X17639066Y-43444922D01*
X17432372Y-43531296D01*
X17206140Y-43622016D01*
X16962180Y-43716456D01*
X16701671Y-43814247D01*
X16426069Y-43914911D01*
X16136966Y-44017929D01*
X15835755Y-44122852D01*
X15523743Y-44229262D01*
X15202516Y-44336646D01*
X14873241Y-44444635D01*
X14537644Y-44552671D01*
X14197012Y-44660343D01*
X13852737Y-44767207D01*
X13505963Y-44872891D01*
X13158540Y-44976808D01*
X12811730Y-45078555D01*
X12466784Y-45177726D01*
X12125462Y-45273769D01*
X11788913Y-45366310D01*
X11458326Y-45454955D01*
X11135718Y-45539095D01*
X10822026Y-45618402D01*
X10518901Y-45692367D01*
X10227600Y-45760581D01*
X10062831Y-45797728D01*
X9690585Y-45877672D01*
X9294630Y-45957570D01*
X8876585Y-46037156D01*
X8437778Y-46116217D01*
X7980359Y-46194389D01*
X7505547Y-46271474D01*
X7015566Y-46347108D01*
X6511683Y-46421079D01*
X5995653Y-46493101D01*
X5469017Y-46562914D01*
X5095781Y-46610220D01*
X4854425Y-46640713D01*
X4853849Y-46640787D01*
X4637464Y-46669130D01*
X4636735Y-46669227D01*
X4445088Y-46695460D01*
X4444139Y-46695594D01*
X4276948Y-46719766D01*
X4275677Y-46719956D01*
X4132659Y-46742113D01*
X4130882Y-46742401D01*
X4011753Y-46762590D01*
X4009115Y-46763066D01*
X3913593Y-46781336D01*
X3909326Y-46782228D01*
X3837128Y-46798624D01*
X3829163Y-46800707D01*
X3780005Y-46815277D01*
X3760718Y-46822750D01*
X3734319Y-46835541D01*
X3713086Y-46848541D01*
X3694797Y-46865433D01*
X3683975Y-46879462D01*
X3678879Y-46887118D01*
X3667181Y-46909095D01*
X3659997Y-46932932D01*
X3657600Y-46957713D01*
X3660084Y-46982485D01*
X3669208Y-47010533D01*
X3673411Y-47019676D01*
X3685977Y-47041169D01*
X3702495Y-47059797D01*
X3723423Y-47075509D01*
X3737295Y-47083839D01*
X3760211Y-47094034D01*
X3724895Y-47097985D01*
X3631992Y-47107648D01*
X3552219Y-47115060D01*
X3533539Y-47116604D01*
X3389459Y-47126947D01*
X3220464Y-47136942D01*
X3026416Y-47146600D01*
X2808157Y-47155882D01*
X2566132Y-47164772D01*
X2300564Y-47173262D01*
X2012447Y-47181322D01*
X1701287Y-47188963D01*
X1368805Y-47196141D01*
X1014249Y-47202869D01*
X639060Y-47209117D01*
X639060Y-47209116D01*
X242695Y-47214885D01*
X242695Y-47214886D01*
X-52172Y-47218694D01*
X-52172Y-47218693D01*
X-214854Y-47220451D01*
X-400268Y-47222037D01*
X-607199Y-47223456D01*
X-832836Y-47224705D01*
X-1075464Y-47225787D01*
X-1332451Y-47226701D01*
X-1332451Y-47226700D01*
X-1602061Y-47227445D01*
X-1881826Y-47228023D01*
X-2169678Y-47228434D01*
X-2463449Y-47228678D01*
X-2760934Y-47228755D01*
X-3060009Y-47228666D01*
X-3358533Y-47228411D01*
X-3654308Y-47227991D01*
X-3945165Y-47227406D01*
X-4229025Y-47226656D01*
X-4229025Y-47226657D01*
X-4503460Y-47225742D01*
X-4766671Y-47224664D01*
X-5016067Y-47223423D01*
X-5016067Y-47223422D01*
X-5249846Y-47222018D01*
X-5465809Y-47220449D01*
X-5661540Y-47218720D01*
X-5755444Y-47217748D01*
X-6176109Y-47212619D01*
X-6577552Y-47206671D01*
X-6959655Y-47199917D01*
X-7321272Y-47192381D01*
X-7661866Y-47184081D01*
X-7980782Y-47175033D01*
X-8276833Y-47165269D01*
X-8549778Y-47154793D01*
X-8798063Y-47143659D01*
X-8959517Y-47135341D01*
X-9089257Y-47128042D01*
X-9198847Y-47121268D01*
X-9292722Y-47114544D01*
X-9376504Y-47107321D01*
X-9405793Y-47104264D01*
X-9367308Y-47098088D01*
X-9359187Y-47096512D01*
X-9324947Y-47088702D01*
X-9306343Y-47082926D01*
X-9286938Y-47075225D01*
X-9264809Y-47063818D01*
X-9248904Y-47051649D01*
X-9243573Y-47046859D01*
X-9226774Y-47028484D01*
X-9213883Y-47007185D01*
X-9205394Y-46983781D01*
X-9201490Y-46949382D01*
X-9201691Y-46940900D01*
X-9204717Y-46916189D01*
X-9212507Y-46892542D01*
X-9224760Y-46870870D01*
X-9247201Y-46846471D01*
X-9258448Y-46837069D01*
X-9287653Y-46818753D01*
X-9310926Y-46808248D01*
X-9323906Y-46803226D01*
X-9360183Y-46791431D01*
X-9367033Y-46789414D01*
X-9417292Y-46776145D01*
X-9421372Y-46775140D01*
X-9486594Y-46760210D01*
X-9489228Y-46759636D01*
X-9570389Y-46742862D01*
X-9572180Y-46742506D01*
X-9670260Y-46723701D01*
X-9671525Y-46723465D01*
X-9787503Y-46702445D01*
X-9788420Y-46702282D01*
X-9923274Y-46678861D01*
X-9923952Y-46678745D01*
X-10078661Y-46652737D01*
X-10079168Y-46652653D01*
X-10254710Y-46623874D01*
X-10255094Y-46623812D01*
X-10452449Y-46592076D01*
X-10452740Y-46592029D01*
X-10672885Y-46557152D01*
X-10673104Y-46557118D01*
X-10917019Y-46518913D01*
X-10917141Y-46518894D01*
X-11023110Y-46502401D01*
X-11178386Y-46478222D01*
X-11333974Y-46453898D01*
X-11487077Y-46429872D01*
X-11634294Y-46406682D01*
X-11772831Y-46384770D01*
X-11772831Y-46384771D01*
X-11899234Y-46364683D01*
X-12010653Y-46346872D01*
X-12104109Y-46331808D01*
X-12175785Y-46320098D01*
X-12189815Y-46317773D01*
X-12503838Y-46263246D01*
X-12824633Y-46203151D01*
X-13151362Y-46137800D01*
X-13483178Y-46067499D01*
X-13818871Y-45992625D01*
X-14157494Y-45913504D01*
X-14497852Y-45830516D01*
X-14839037Y-45743976D01*
X-15179869Y-45654264D01*
X-15519439Y-45561693D01*
X-15856544Y-45466651D01*
X-16190122Y-45369495D01*
X-16519123Y-45270573D01*
X-16842792Y-45170146D01*
X-17159618Y-45068708D01*
X-17468917Y-44966491D01*
X-17769310Y-44863958D01*
X-18059901Y-44761409D01*
X-18339769Y-44659148D01*
X-18607563Y-44557642D01*
X-18862356Y-44457200D01*
X-19103039Y-44358206D01*
X-19328491Y-44261050D01*
X-19537655Y-44166106D01*
X-19729299Y-44073837D01*
X-19902285Y-43984685D01*
X-20055336Y-43899205D01*
X-20187082Y-43818081D01*
X-20295966Y-43742298D01*
X-20380188Y-43673434D01*
X-20439952Y-43612149D01*
X-20456860Y-43589876D01*
X-20522624Y-43475034D01*
X-20577751Y-43339645D01*
X-20610838Y-43222860D01*
X-5058632Y-43222860D01*
X-5046372Y-43347342D01*
X-5010062Y-43467040D01*
X-4951097Y-43577354D01*
X-4871745Y-43674045D01*
X-4775054Y-43753397D01*
X-4664740Y-43812362D01*
X-4545042Y-43848672D01*
X-4420560Y-43860932D01*
X-3842710Y-43857860D01*
X-3683960Y-43699110D01*
X-3683960Y-42486260D01*
X-4896810Y-42486260D01*
X-5055560Y-42645010D01*
X-5058632Y-43222860D01*
X-20610838Y-43222860D01*
X-20622061Y-43183247D01*
X-20625775Y-43163230D01*
X-20623640Y-43148869D01*
X-20583640Y-42939235D01*
X-20533889Y-42725402D01*
X-20474417Y-42509103D01*
X-20401500Y-42280111D01*
X-20309493Y-41995250D01*
X-20304367Y-41981999D01*
X-20299168Y-41963284D01*
X-20293187Y-41944765D01*
X-20290162Y-41930859D01*
X-20262349Y-41830732D01*
X-20257652Y-41816858D01*
X-20253350Y-41798335D01*
X-20248260Y-41780013D01*
X-20245742Y-41765584D01*
X-20223003Y-41667691D01*
X-20218103Y-41650222D01*
X-20215397Y-41634946D01*
X-20211886Y-41619830D01*
X-20209533Y-41601839D01*
X-20191645Y-41500851D01*
X-20187300Y-41480827D01*
X-20185785Y-41467765D01*
X-20183489Y-41454805D01*
X-20181909Y-41434355D01*
X-20169750Y-41329551D01*
X-20166542Y-41308582D01*
X-20165875Y-41296154D01*
X-20164441Y-41283793D01*
X-20164073Y-41262585D01*
X-20158237Y-41153823D01*
X-20156364Y-41133717D01*
X-20156435Y-41120258D01*
X-20155714Y-41106816D01*
X-20156614Y-41086634D01*
X-20157214Y-40973437D01*
X-20156487Y-40955454D01*
X-20157393Y-40939788D01*
X-20157476Y-40924127D01*
X-20159332Y-40906255D01*
X-20166221Y-40787114D01*
X-20166270Y-40772142D01*
X-20168162Y-40753552D01*
X-20169241Y-40734893D01*
X-20171567Y-40720100D01*
X-20185030Y-40587813D01*
X-20185887Y-40571242D01*
X-20188435Y-40554362D01*
X-20190163Y-40537384D01*
X-20193453Y-40521122D01*
X-20220388Y-40342688D01*
X-20203916Y-40260964D01*
X-20202808Y-40254650D01*
X-20190641Y-40173267D01*
X-20189840Y-40166767D01*
X-20181902Y-40085041D01*
X-20181477Y-40079328D01*
X-20177020Y-39993223D01*
X-20176871Y-39988977D01*
X-20175145Y-39894461D01*
X-20175124Y-39892191D01*
X-20175099Y-39827249D01*
X-20175105Y-39825931D01*
X-20175171Y-39819260D01*
X-5062811Y-39819260D01*
X-5033876Y-40113037D01*
X-4948185Y-40395524D01*
X-4809029Y-40655866D01*
X-4621757Y-40884057D01*
X-4613695Y-40890674D01*
X-4664740Y-40906158D01*
X-4775054Y-40965123D01*
X-4871745Y-41044475D01*
X-4951097Y-41141166D01*
X-5010062Y-41251480D01*
X-5046372Y-41371178D01*
X-5058632Y-41495660D01*
X-5055560Y-42073510D01*
X-4896810Y-42232260D01*
X-3683960Y-42232260D01*
X-3683960Y-42212260D01*
X-3429960Y-42212260D01*
X-3429960Y-42232260D01*
X-3409960Y-42232260D01*
X-3409960Y-42486260D01*
X-3429960Y-42486260D01*
X-3429960Y-43699110D01*
X-3271210Y-43857860D01*
X-2693360Y-43860932D01*
X-2568878Y-43848672D01*
X-2449180Y-43812362D01*
X-2338866Y-43753397D01*
X-2242175Y-43674045D01*
X-2162823Y-43577354D01*
X-2103858Y-43467040D01*
X-2088374Y-43415995D01*
X-2081757Y-43424057D01*
X-1853566Y-43611329D01*
X-1593224Y-43750485D01*
X-1310737Y-43836176D01*
X-1090579Y-43857860D01*
X-943341Y-43857860D01*
X-723183Y-43836176D01*
X-440696Y-43750485D01*
X-180354Y-43611329D01*
X47837Y-43424057D01*
X235109Y-43195866D01*
X254923Y-43158797D01*
X359001Y-43314562D01*
X567738Y-43523299D01*
X813187Y-43687302D01*
X1085915Y-43800270D01*
X1375441Y-43857860D01*
X1670639Y-43857860D01*
X1960165Y-43800270D01*
X2232893Y-43687302D01*
X2478342Y-43523299D01*
X2687079Y-43314562D01*
X2851082Y-43069113D01*
X2964050Y-42796385D01*
X3021640Y-42506859D01*
X3021640Y-42211661D01*
X2964050Y-41922135D01*
X2851082Y-41649407D01*
X2687079Y-41403958D01*
X2478342Y-41195221D01*
X2319759Y-41089260D01*
X2478342Y-40983299D01*
X2687079Y-40774562D01*
X2851082Y-40529113D01*
X2964050Y-40256385D01*
X3021640Y-39966859D01*
X3021640Y-39671661D01*
X2964050Y-39382135D01*
X2851082Y-39109407D01*
X2687079Y-38863958D01*
X2478342Y-38655221D01*
X2232893Y-38491218D01*
X1960165Y-38378250D01*
X1670639Y-38320660D01*
X1375441Y-38320660D01*
X1085915Y-38378250D01*
X813187Y-38491218D01*
X567738Y-38655221D01*
X359001Y-38863958D01*
X254923Y-39019723D01*
X235109Y-38982654D01*
X47837Y-38754463D01*
X-180354Y-38567191D01*
X-440696Y-38428035D01*
X-723183Y-38342344D01*
X-943341Y-38320660D01*
X-1090579Y-38320660D01*
X-1310737Y-38342344D01*
X-1593224Y-38428035D01*
X-1853566Y-38567191D01*
X-2081757Y-38754463D01*
X-2269029Y-38982654D01*
X-2286960Y-39016200D01*
X-2304891Y-38982654D01*
X-2492163Y-38754463D01*
X-2720354Y-38567191D01*
X-2796960Y-38526244D01*
X-2796960Y-13273689D01*
X-2681590Y-13238692D01*
X-2528054Y-13156625D01*
X-2393478Y-13046182D01*
X-2283035Y-12911606D01*
X-2200968Y-12758070D01*
X-2150432Y-12591474D01*
X-2133368Y-12418220D01*
X-2133368Y-11168220D01*
X-2150432Y-10994966D01*
X-2200968Y-10828370D01*
X-2283035Y-10674834D01*
X-2393478Y-10540258D01*
X-2528054Y-10429815D01*
X-2681590Y-10347748D01*
X-2848186Y-10297212D01*
X-3021440Y-10280148D01*
X-3771440Y-10280148D01*
X-3944694Y-10297212D01*
X-4111290Y-10347748D01*
X-4264826Y-10429815D01*
X-4399402Y-10540258D01*
X-4509845Y-10674834D01*
X-4591912Y-10828370D01*
X-4642448Y-10994966D01*
X-4659512Y-11168220D01*
X-4659512Y-12418220D01*
X-4642448Y-12591474D01*
X-4591912Y-12758070D01*
X-4509845Y-12911606D01*
X-4399402Y-13046182D01*
X-4316959Y-13113841D01*
X-4316960Y-38526244D01*
X-4393566Y-38567191D01*
X-4621757Y-38754463D01*
X-4809029Y-38982654D01*
X-4948185Y-39242996D01*
X-5033876Y-39525483D01*
X-5062811Y-39819260D01*
X-20175171Y-39819260D01*
X-20176114Y-39724990D01*
X-20176163Y-39722533D01*
X-20178639Y-39638176D01*
X-20178814Y-39634255D01*
X-20183406Y-39558126D01*
X-20183763Y-39553574D01*
X-20191122Y-39477317D01*
X-20191550Y-39473491D01*
X-20202329Y-39388751D01*
X-20202647Y-39386427D01*
X-20217018Y-39288003D01*
X-20217305Y-39286135D01*
X-20236370Y-39167900D01*
X-20236664Y-39166150D01*
X-20261518Y-39024626D01*
X-20261736Y-39023418D01*
X-20292071Y-38859973D01*
X-20292240Y-38859083D01*
X-20327748Y-38675085D01*
X-20327882Y-38674399D01*
X-20368255Y-38471217D01*
X-20368366Y-38470666D01*
X-20413295Y-38249668D01*
X-20413388Y-38249214D01*
X-20462565Y-38011768D01*
X-20462646Y-38011382D01*
X-20515764Y-37758856D01*
X-20515834Y-37758523D01*
X-20572583Y-37492285D01*
X-20572647Y-37491989D01*
X-20632721Y-37213408D01*
X-20632778Y-37213142D01*
X-20695868Y-36923586D01*
X-20695922Y-36923343D01*
X-20761719Y-36624180D01*
X-20761768Y-36623954D01*
X-20829965Y-36316552D01*
X-20830013Y-36316338D01*
X-20900302Y-36002066D01*
X-20900348Y-36001863D01*
X-20972420Y-35682088D01*
X-20972464Y-35681890D01*
X-21046011Y-35357982D01*
X-21046056Y-35357787D01*
X-21120771Y-35031113D01*
X-21120815Y-35030920D01*
X-21196389Y-34702848D01*
X-21196434Y-34702654D01*
X-21272558Y-34374553D01*
X-21272605Y-34374354D01*
X-21348973Y-34047592D01*
X-21349021Y-34047387D01*
X-21425323Y-33723332D01*
X-21425373Y-33723117D01*
X-21501302Y-33403138D01*
X-21501356Y-33402911D01*
X-21576604Y-33088375D01*
X-21576663Y-33088132D01*
X-21650921Y-32780407D01*
X-21650984Y-32780144D01*
X-21723944Y-32480600D01*
X-21724015Y-32480311D01*
X-21795369Y-32190315D01*
X-21795449Y-32189994D01*
X-21864889Y-31910915D01*
X-21864980Y-31910552D01*
X-21932199Y-31643757D01*
X-21932291Y-31643392D01*
X-21982760Y-31445557D01*
X-21982867Y-31445141D01*
X-22077110Y-31080864D01*
X-22077251Y-31080323D01*
X-22167018Y-30739538D01*
X-22167186Y-30738907D01*
X-22252897Y-30420178D01*
X-22253096Y-30419449D01*
X-22335168Y-30121343D01*
X-22335402Y-30120503D01*
X-22414255Y-29841586D01*
X-22414530Y-29840628D01*
X-22490582Y-29579467D01*
X-22490903Y-29578383D01*
X-22564572Y-29333544D01*
X-22564944Y-29332328D01*
X-22636651Y-29102377D01*
X-22637079Y-29101032D01*
X-22707240Y-28884535D01*
X-22707727Y-28883064D01*
X-22776761Y-28678589D01*
X-22777308Y-28677002D01*
X-22845635Y-28483113D01*
X-22845985Y-28482132D01*
X-22857874Y-28449258D01*
X-22912367Y-28297216D01*
X-22959305Y-28161567D01*
X-23001196Y-28034580D01*
X-23040580Y-27908396D01*
X-23079936Y-27775283D01*
X-23118388Y-27639529D01*
X-23194244Y-27356054D01*
X-23270587Y-27048677D01*
X-23347239Y-26718562D01*
X-23423899Y-26367385D01*
X-23500292Y-25996738D01*
X-23576227Y-25607810D01*
X-23651354Y-25202597D01*
X-23725485Y-24782262D01*
X-23798325Y-24348566D01*
X-23869674Y-23902697D01*
X-23939218Y-23446563D01*
X-24006737Y-22981479D01*
X-24071965Y-22509051D01*
X-24134704Y-22030438D01*
X-24194660Y-21547453D01*
X-24251574Y-21061701D01*
X-24305239Y-20574313D01*
X-24333858Y-20300450D01*
X-24365487Y-19993910D01*
X-24365507Y-19993714D01*
X-24396926Y-19693769D01*
X-24396949Y-19693554D01*
X-24428339Y-19398738D01*
X-24428364Y-19398504D01*
X-24459927Y-19107183D01*
X-24459954Y-19106937D01*
X-24491887Y-18817479D01*
X-24491915Y-18817222D01*
X-24524419Y-18527994D01*
X-24524449Y-18527731D01*
X-24557723Y-18237102D01*
X-24557754Y-18236838D01*
X-24591999Y-17943174D01*
X-24592029Y-17942914D01*
X-24627442Y-17644582D01*
X-24627473Y-17644328D01*
X-24664256Y-17339697D01*
X-24664285Y-17339454D01*
X-24702637Y-17026891D01*
X-24702666Y-17026662D01*
X-24742786Y-16704534D01*
X-24742812Y-16704321D01*
X-24784899Y-16370996D01*
X-24784924Y-16370799D01*
X-24829179Y-16024644D01*
X-24829202Y-16024466D01*
X-24875824Y-15663849D01*
X-24875845Y-15663690D01*
X-24925034Y-15286978D01*
X-24925053Y-15286836D01*
X-24977008Y-14892396D01*
X-24977024Y-14892272D01*
X-25031945Y-14478473D01*
X-25031959Y-14478365D01*
X-25090045Y-14043573D01*
X-25090058Y-14043480D01*
X-25151509Y-13586064D01*
X-25151517Y-13586003D01*
X-25185938Y-13330729D01*
X-25185943Y-13330691D01*
X-25250675Y-12851716D01*
X-25250681Y-12851674D01*
X-25312264Y-12397129D01*
X-25312270Y-12397080D01*
X-25370817Y-11966206D01*
X-25370825Y-11966147D01*
X-25426454Y-11558186D01*
X-25426464Y-11558117D01*
X-25479288Y-11172307D01*
X-25479299Y-11172226D01*
X-25529434Y-10807811D01*
X-25529447Y-10807716D01*
X-25577007Y-10463935D01*
X-25577023Y-10463824D01*
X-25622125Y-10139918D01*
X-25622143Y-10139789D01*
X-25664902Y-9834999D01*
X-25664923Y-9834850D01*
X-25705452Y-9548417D01*
X-25705476Y-9548244D01*
X-25743892Y-9279409D01*
X-25743921Y-9279210D01*
X-25780339Y-9027213D01*
X-25780372Y-9026984D01*
X-25814906Y-8791067D01*
X-25814945Y-8790801D01*
X-25847712Y-8570204D01*
X-25847758Y-8569901D01*
X-25878871Y-8363866D01*
X-25878924Y-8363517D01*
X-25908500Y-8171283D01*
X-25908562Y-8170884D01*
X-25936715Y-7991693D01*
X-25936788Y-7991236D01*
X-25963634Y-7824329D01*
X-25963718Y-7823810D01*
X-25989371Y-7668428D01*
X-25989470Y-7667838D01*
X-26014046Y-7523221D01*
X-26014161Y-7522554D01*
X-26037775Y-7387943D01*
X-26037909Y-7387194D01*
X-26060676Y-7261830D01*
X-26060831Y-7260994D01*
X-26082866Y-7144119D01*
X-26083044Y-7143192D01*
X-26104463Y-7034045D01*
X-26104666Y-7033031D01*
X-26125583Y-6930853D01*
X-26125813Y-6929755D01*
X-26146343Y-6833789D01*
X-26146600Y-6832617D01*
X-26166860Y-6742101D01*
X-26167140Y-6740877D01*
X-26187243Y-6655054D01*
X-26187544Y-6653798D01*
X-26207606Y-6571908D01*
X-26207839Y-6570971D01*
X-26217634Y-6532266D01*
X-26218243Y-6529952D01*
X-26264744Y-6359750D01*
X-26266259Y-6354631D01*
X-26313005Y-6208063D01*
X-26315459Y-6201080D01*
X-26363395Y-6076393D01*
X-26367393Y-6067112D01*
X-26417468Y-5962548D01*
X-26423916Y-5950735D01*
X-26477076Y-5864541D01*
X-26487059Y-5850566D01*
X-26544250Y-5780985D01*
X-26558452Y-5766296D01*
X-26620622Y-5711574D01*
X-26638068Y-5698685D01*
X-26704354Y-5657975D01*
X-26721916Y-5648988D01*
X-26763567Y-5631610D01*
X-26772099Y-5628404D01*
X-26830426Y-5608849D01*
X-26835779Y-5607185D01*
X-26849798Y-5603164D01*
X-26855790Y-5596498D01*
X-26869052Y-5580574D01*
X-26878276Y-5571482D01*
X-26886944Y-5561840D01*
X-26902254Y-5547849D01*
X-26930988Y-5519529D01*
X-26934258Y-5515471D01*
X-26939828Y-5510816D01*
X-26941073Y-5509589D01*
X-26942121Y-5508900D01*
X-26974379Y-5481941D01*
X-26988046Y-5469452D01*
X-27000212Y-5460352D01*
X-27011852Y-5450624D01*
X-27027134Y-5440214D01*
X-27055257Y-5419178D01*
X-27057223Y-5417316D01*
X-27060533Y-5415232D01*
X-27069022Y-5408882D01*
X-27075644Y-5405717D01*
X-27103857Y-5387952D01*
X-27121475Y-5375951D01*
X-27132327Y-5370026D01*
X-27142795Y-5363434D01*
X-27161874Y-5353892D01*
X-27176292Y-5346019D01*
X-27177371Y-5345204D01*
X-27180985Y-5343456D01*
X-27210229Y-5327488D01*
X-27220943Y-5324133D01*
X-27233942Y-5317847D01*
X-27260002Y-5304813D01*
X-27264284Y-5303174D01*
X-27268407Y-5301180D01*
X-27295731Y-5291136D01*
X-27300239Y-5289411D01*
X-27302509Y-5288050D01*
X-27322160Y-5281019D01*
X-27354442Y-5268662D01*
X-27358763Y-5267924D01*
X-27363159Y-5266351D01*
X-27392031Y-5255738D01*
X-27394917Y-5254988D01*
X-27397722Y-5253985D01*
X-27427518Y-5246522D01*
X-27489907Y-5230320D01*
X-27492896Y-5230147D01*
X-27544452Y-5217234D01*
X-27557988Y-5213014D01*
X-27577062Y-5209067D01*
X-27595966Y-5204332D01*
X-27609996Y-5202251D01*
X-27726072Y-5178230D01*
X-27892930Y-5134910D01*
X-27949493Y-5077157D01*
X-28029517Y-4984472D01*
X-28110226Y-4879545D01*
X-28191970Y-4761469D01*
X-28275130Y-4629330D01*
X-28360030Y-4482336D01*
X-28447026Y-4319688D01*
X-28536517Y-4140545D01*
X-28628855Y-3944193D01*
X-28724446Y-3729838D01*
X-28823734Y-3496621D01*
X-28927088Y-3243876D01*
X-29034960Y-2970746D01*
X-29147804Y-2676388D01*
X-29265989Y-2360177D01*
X-29390005Y-2021184D01*
X-29520411Y-1658272D01*
X-29556124Y-1557909D01*
X-29593535Y-1451975D01*
X-29637591Y-1326209D01*
X-29687277Y-1183568D01*
X-29741675Y-1026735D01*
X-29799811Y-858552D01*
X-29860717Y-681852D01*
X-29860718Y-681852D01*
X-29923423Y-499466D01*
X-29986932Y-314303D01*
X-29986931Y-314303D01*
X-30050363Y-128933D01*
X-30050364Y-128933D01*
X-30112665Y53562D01*
X-30172896Y230442D01*
X-30230089Y398881D01*
X-30230090Y398881D01*
X-30283278Y556051D01*
X-30331490Y699119D01*
X-30373754Y825243D01*
X-30409092Y931562D01*
X-30424055Y977008D01*
X-30479233Y1147400D01*
X-30534495Y1322024D01*
X-30589392Y1499223D01*
X-30642941Y1675638D01*
X-30694481Y1848964D01*
X-30743196Y2016360D01*
X-30788354Y2175289D01*
X-30829127Y2322855D01*
X-30864803Y2456575D01*
X-30894515Y2573367D01*
X-30917447Y2670246D01*
X-30931768Y2738602D01*
X-30950211Y2850445D01*
X-30966396Y2980245D01*
X-30980269Y3128940D01*
X-30991740Y3296783D01*
X-31000770Y3484363D01*
X-31007339Y3692200D01*
X-31011433Y3920827D01*
X-31013047Y4170657D01*
X-31012186Y4442390D01*
X-31008849Y4736741D01*
X-31003046Y5054140D01*
X-30994778Y5395374D01*
X-30984069Y5760462D01*
X-30975205Y6028299D01*
X-30975204Y6028333D01*
X-30971905Y6128816D01*
X-30971896Y6129108D01*
X-30968227Y6249307D01*
X-30968221Y6249509D01*
X-30964337Y6383744D01*
X-30964332Y6383910D01*
X-30960393Y6526502D01*
X-30960389Y6526654D01*
X-30956550Y6671926D01*
X-30956546Y6672084D01*
X-30952964Y6814355D01*
X-30952960Y6814539D01*
X-30949893Y6943763D01*
X-30944611Y7157571D01*
X-30940375Y7299984D01*
X-18615336Y7299984D01*
X-18608408Y7233292D01*
X-18605669Y7217144D01*
X-18564468Y7043186D01*
X-18559727Y7027667D01*
X-18495820Y6858099D01*
X-18492159Y6849384D01*
X-18474257Y6810846D01*
X-18470232Y6802919D01*
X-18386291Y6651035D01*
X-18378683Y6638932D01*
X-18276143Y6494542D01*
X-18267626Y6483823D01*
X-18145477Y6346051D01*
X-18136676Y6337064D01*
X-17993905Y6205030D01*
X-17985383Y6197817D01*
X-17820981Y6070643D01*
X-17813130Y6065034D01*
X-17626084Y5941841D01*
X-17619116Y5937566D01*
X-17408417Y5817477D01*
X-17403308Y5814718D01*
X-17247228Y5734980D01*
X-17241871Y5732400D01*
X-16882140Y5569380D01*
X-16874830Y5566338D01*
X-16568108Y5449787D01*
X-16583734Y5448248D01*
X-16750330Y5397712D01*
X-16903866Y5315645D01*
X-17038442Y5205202D01*
X-17148885Y5070626D01*
X-17230952Y4917090D01*
X-17281488Y4750494D01*
X-17298552Y4577240D01*
X-17298552Y3327240D01*
X-17281488Y3153986D01*
X-17230952Y2987390D01*
X-17148885Y2833854D01*
X-17038442Y2699278D01*
X-16903866Y2588835D01*
X-16750330Y2506768D01*
X-16583734Y2456232D01*
X-16410480Y2439168D01*
X-15660480Y2439168D01*
X-15602882Y2444841D01*
X-9352660Y-3805382D01*
X-9328861Y-3834381D01*
X-9213136Y-3929354D01*
X-9081107Y-3999926D01*
X-8937846Y-4043383D01*
X-8826193Y-4054380D01*
X-8826184Y-4054380D01*
X-8788861Y-4058056D01*
X-8751538Y-4054380D01*
X-8435081Y-4054380D01*
X-1746344Y-10743118D01*
X-1791912Y-10828370D01*
X-1842448Y-10994966D01*
X-1859512Y-11168220D01*
X-1859512Y-12418220D01*
X-1842448Y-12591474D01*
X-1791912Y-12758070D01*
X-1709845Y-12911606D01*
X-1599402Y-13046182D01*
X-1464826Y-13156625D01*
X-1311290Y-13238692D01*
X-1144694Y-13289228D01*
X-971440Y-13306292D01*
X-221440Y-13306292D01*
X-48186Y-13289228D01*
X118410Y-13238692D01*
X271946Y-13156625D01*
X406522Y-13046182D01*
X516965Y-12911606D01*
X599032Y-12758070D01*
X649568Y-12591474D01*
X653086Y-12555760D01*
X2388378Y-12555760D01*
X2425700Y-12559436D01*
X2463022Y-12555760D01*
X2463033Y-12555760D01*
X2574686Y-12544763D01*
X2717947Y-12501306D01*
X2849976Y-12430734D01*
X2965701Y-12335761D01*
X2989504Y-12306757D01*
X10086808Y-5209455D01*
X10115801Y-5185661D01*
X10139595Y-5156668D01*
X10139599Y-5156664D01*
X10208655Y-5072518D01*
X10210774Y-5069936D01*
X10281346Y-4937906D01*
X10308600Y-4848059D01*
X10324802Y-4794647D01*
X10339476Y-4645661D01*
X10337596Y-4626568D01*
X10324802Y-4496675D01*
X10281346Y-4353414D01*
X10274380Y-4340382D01*
X10274380Y2330241D01*
X10382766Y2388175D01*
X10517342Y2498618D01*
X10627785Y2633194D01*
X10709852Y2786730D01*
X10737107Y2876580D01*
X11051308Y2876580D01*
X11063568Y2752098D01*
X11099878Y2632400D01*
X11158843Y2522086D01*
X11238195Y2425395D01*
X11334886Y2346043D01*
X11445200Y2287078D01*
X11564898Y2250768D01*
X11689380Y2238508D01*
X12028630Y2241580D01*
X12187380Y2400330D01*
X12187380Y3624580D01*
X12441380Y3624580D01*
X12441380Y2400330D01*
X12600130Y2241580D01*
X12939380Y2238508D01*
X13063862Y2250768D01*
X13183560Y2287078D01*
X13293874Y2346043D01*
X13390565Y2425395D01*
X13469917Y2522086D01*
X13528882Y2632400D01*
X13565192Y2752098D01*
X13577452Y2876580D01*
X13574380Y3465830D01*
X13415630Y3624580D01*
X12441380Y3624580D01*
X12187380Y3624580D01*
X11213130Y3624580D01*
X11054380Y3465830D01*
X11051308Y2876580D01*
X10737107Y2876580D01*
X10760388Y2953326D01*
X10777452Y3126580D01*
X10777452Y4376580D01*
X10760388Y4549834D01*
X10737108Y4626580D01*
X11051308Y4626580D01*
X11054380Y4037330D01*
X11213130Y3878580D01*
X12187380Y3878580D01*
X12187380Y5102830D01*
X12441380Y5102830D01*
X12441380Y3878580D01*
X13415630Y3878580D01*
X13574380Y4037330D01*
X13577452Y4626580D01*
X13565192Y4751062D01*
X13528882Y4870760D01*
X13469917Y4981074D01*
X13390565Y5077765D01*
X13293874Y5157117D01*
X13183560Y5216082D01*
X13063862Y5252392D01*
X12939380Y5264652D01*
X12600130Y5261580D01*
X12441380Y5102830D01*
X12187380Y5102830D01*
X12028630Y5261580D01*
X11689380Y5264652D01*
X11564898Y5252392D01*
X11445200Y5216082D01*
X11334886Y5157117D01*
X11238195Y5077765D01*
X11158843Y4981074D01*
X11099878Y4870760D01*
X11063568Y4751062D01*
X11051308Y4626580D01*
X10737108Y4626580D01*
X10709852Y4716430D01*
X10627785Y4869966D01*
X10517342Y5004542D01*
X10382766Y5114985D01*
X10229230Y5197052D01*
X10062634Y5247588D01*
X9889380Y5264652D01*
X9139380Y5264652D01*
X8966126Y5247588D01*
X8799530Y5197052D01*
X8645994Y5114985D01*
X8511418Y5004542D01*
X8400975Y4869966D01*
X8318908Y4716430D01*
X8268372Y4549834D01*
X8251308Y4376580D01*
X8251308Y3126580D01*
X8268372Y2953326D01*
X8318908Y2786730D01*
X8400975Y2633194D01*
X8511418Y2498618D01*
X8645994Y2388175D01*
X8754381Y2330241D01*
X8754380Y-4392277D01*
X2110899Y-11035760D01*
X653586Y-11035760D01*
X649568Y-10994966D01*
X599032Y-10828370D01*
X516965Y-10674834D01*
X406522Y-10540258D01*
X271946Y-10429815D01*
X118410Y-10347748D01*
X-38421Y-10300174D01*
X-56439Y-10278219D01*
X-85437Y-10254421D01*
X-7556476Y-2783383D01*
X-7580279Y-2754379D01*
X-7696004Y-2659406D01*
X-7828033Y-2588834D01*
X-7971294Y-2545377D01*
X-8082947Y-2534380D01*
X-8082958Y-2534380D01*
X-8120280Y-2530704D01*
X-8157602Y-2534380D01*
X-8474058Y-2534380D01*
X-13485954Y2477516D01*
X-13362480Y2600990D01*
X-13362480Y3825240D01*
X-13108480Y3825240D01*
X-13108480Y2600990D01*
X-12949730Y2442240D01*
X-12610480Y2439168D01*
X-12485998Y2451428D01*
X-12366300Y2487738D01*
X-12255986Y2546703D01*
X-12159295Y2626055D01*
X-12079943Y2722746D01*
X-12020978Y2833060D01*
X-11984668Y2952758D01*
X-11972408Y3077240D01*
X-11975480Y3666490D01*
X-12134230Y3825240D01*
X-13108480Y3825240D01*
X-13362480Y3825240D01*
X-14336730Y3825240D01*
X-14495480Y3666490D01*
X-14496411Y3487972D01*
X-14772408Y3763969D01*
X-14772408Y4577240D01*
X-14789472Y4750494D01*
X-14840008Y4917090D01*
X-14922075Y5070626D01*
X-14962686Y5120111D01*
X-14614167Y5109252D01*
X-14606462Y5109245D01*
X-14426929Y5114549D01*
X-14449982Y5071420D01*
X-14486292Y4951722D01*
X-14498552Y4827240D01*
X-14495480Y4237990D01*
X-14336730Y4079240D01*
X-13362480Y4079240D01*
X-13362480Y4099240D01*
X-13108480Y4099240D01*
X-13108480Y4079240D01*
X-12134230Y4079240D01*
X-11975480Y4237990D01*
X-11972408Y4827240D01*
X-11984668Y4951722D01*
X-12020978Y5071420D01*
X-12079943Y5181734D01*
X-12159295Y5278425D01*
X-12255986Y5357777D01*
X-12366300Y5416742D01*
X-12485998Y5453052D01*
X-12530522Y5457437D01*
X-12324553Y5524016D01*
X-12318493Y5526145D01*
X-11921016Y5677222D01*
X-11915438Y5679495D01*
X-11512841Y5854792D01*
X-11508456Y5856801D01*
X-11218606Y5996328D01*
X-11214901Y5998187D01*
X-10967311Y6127488D01*
X-10962782Y6129971D01*
X-10739772Y6258237D01*
X-10734423Y6261492D01*
X-10535240Y6389516D01*
X-10529021Y6393779D01*
X-10352911Y6522356D01*
X-10345839Y6527914D01*
X-10192049Y6657838D01*
X-10184260Y6664995D01*
X-10052035Y6797060D01*
X-10043832Y6806080D01*
X-9932419Y6941079D01*
X-9924302Y6952069D01*
X-9832948Y7090798D01*
X-9825558Y7103580D01*
X-9753508Y7246832D01*
X-9747477Y7260871D01*
X-9693979Y7409441D01*
X-9689721Y7423906D01*
X-9654020Y7578587D01*
X-9651963Y7589762D01*
X-9639050Y7683199D01*
X-9637954Y7695542D01*
X-9631630Y7854691D01*
X-9631881Y7869176D01*
X-9637859Y7949370D01*
X6003488Y7949370D01*
X6008534Y7869497D01*
X6009262Y7861747D01*
X6019878Y7776852D01*
X6021670Y7766218D01*
X6032709Y7714258D01*
X6036533Y7700250D01*
X6068360Y7605396D01*
X6072202Y7595373D01*
X6117437Y7490804D01*
X6121049Y7483163D01*
X6175419Y7377400D01*
X6179552Y7369981D01*
X6238786Y7271549D01*
X6243560Y7264202D01*
X6284451Y7205787D01*
X6291168Y7197028D01*
X6387372Y7082269D01*
X6394595Y7074356D01*
X6512520Y6955641D01*
X6518750Y6949778D01*
X6655519Y6829491D01*
X6661143Y6824824D01*
X6813881Y6705348D01*
X6819215Y6701397D01*
X6985046Y6585114D01*
X6990333Y6581600D01*
X7165023Y6471701D01*
X7170993Y6468169D01*
X7510570Y6279592D01*
X7516928Y6276293D01*
X7874347Y6103414D01*
X7880452Y6100657D01*
X8253135Y5944073D01*
X8259047Y5941761D01*
X8644413Y5802064D01*
X8650197Y5800123D01*
X9045667Y5677908D01*
X9051391Y5676285D01*
X9454387Y5572148D01*
X9460119Y5570808D01*
X9868061Y5485342D01*
X9873875Y5484264D01*
X10284185Y5418065D01*
X10290153Y5417247D01*
X10700250Y5370908D01*
X10706456Y5370361D01*
X11113762Y5344478D01*
X11120289Y5344231D01*
X11522225Y5339398D01*
X11529166Y5339504D01*
X11923152Y5356316D01*
X11927297Y5356561D01*
X11979309Y5360487D01*
X11982841Y5360804D01*
X12308610Y5394564D01*
X12314894Y5395374D01*
X12627443Y5443620D01*
X12634071Y5444824D01*
X12932039Y5507153D01*
X12939084Y5508837D01*
X13221107Y5584844D01*
X13228646Y5587129D01*
X13493361Y5676410D01*
X13501470Y5679457D01*
X13747514Y5781607D01*
X13756259Y5785632D01*
X13982270Y5900248D01*
X13990871Y5905038D01*
X14163042Y6009857D01*
X14171394Y6015405D01*
X14260701Y6079953D01*
X14267061Y6084864D01*
X14360859Y6162140D01*
X14365739Y6166373D01*
X14458843Y6251384D01*
X14463284Y6255640D01*
X14550507Y6343394D01*
X14555267Y6348453D01*
X14631425Y6433955D01*
X14637435Y6441230D01*
X14697341Y6519488D01*
X14701677Y6525509D01*
X14706696Y6532926D01*
X14710449Y6538815D01*
X14807226Y6700294D01*
X14813604Y6712363D01*
X14889392Y6876582D01*
X14894778Y6890289D01*
X14950622Y7060887D01*
X14954348Y7074949D01*
X14991289Y7255565D01*
X14993257Y7268598D01*
X15012340Y7462870D01*
X15012908Y7472088D01*
X15016232Y7604103D01*
X15016241Y7610100D01*
X15013156Y7749976D01*
X15012848Y7756449D01*
X15002962Y7891488D01*
X15002246Y7898549D01*
X14984698Y8033853D01*
X14983626Y8040665D01*
X14957553Y8181332D01*
X14956323Y8187195D01*
X14920865Y8338327D01*
X14919701Y8342901D01*
X14873995Y8509596D01*
X14873305Y8512018D01*
X14852289Y8583105D01*
X14851073Y8586990D01*
X14763951Y8850331D01*
X14761292Y8857614D01*
X14665323Y9097499D01*
X14661702Y9105698D01*
X14556631Y9322575D01*
X14551773Y9331647D01*
X14437343Y9525964D01*
X14430957Y9535749D01*
X14306913Y9707953D01*
X14298754Y9718134D01*
X14164842Y9868672D01*
X14156511Y9877195D01*
X14059224Y9967810D01*
X14052170Y9973912D01*
X13935398Y10067656D01*
X13928583Y10072761D01*
X13802376Y10160854D01*
X13795442Y10165365D01*
X13658650Y10248152D01*
X13651838Y10251993D01*
X13503313Y10329818D01*
X13496826Y10332986D01*
X13335420Y10406191D01*
X13329405Y10408735D01*
X13153967Y10477664D01*
X13148513Y10479664D01*
X12957895Y10544662D01*
X12953036Y10546211D01*
X12746090Y10607621D01*
X12741823Y10608806D01*
X12517398Y10666971D01*
X12513695Y10667872D01*
X12270645Y10723137D01*
X12267458Y10723819D01*
X12004631Y10776527D01*
X12001910Y10777042D01*
X11718159Y10827537D01*
X11715850Y10827926D01*
X11410026Y10876551D01*
X11408079Y10876845D01*
X11079033Y10923944D01*
X11077488Y10924155D01*
X10767000Y10964714D01*
X10766003Y10964840D01*
X10592147Y10986153D01*
X10591481Y10986233D01*
X10415963Y11006809D01*
X10415327Y11006882D01*
X10242358Y11026276D01*
X10241704Y11026348D01*
X10075495Y11044113D01*
X10074771Y11044188D01*
X9919534Y11059880D01*
X9918653Y11059966D01*
X9778598Y11073138D01*
X9777409Y11073244D01*
X9656749Y11083449D01*
X9655609Y11083540D01*
X9617113Y11086447D01*
X9614881Y11086596D01*
X9513308Y11092469D01*
X9510508Y11092600D01*
X9396090Y11096685D01*
X9393978Y11096743D01*
X9271677Y11099073D01*
X9269875Y11099095D01*
X9144656Y11099703D01*
X9142925Y11099699D01*
X9019752Y11098619D01*
X9017876Y11098589D01*
X8901714Y11095853D01*
X8899396Y11095777D01*
X8795208Y11091419D01*
X8791880Y11091236D01*
X8704630Y11085289D01*
X8699979Y11084886D01*
X8651938Y11079832D01*
X8645454Y11078981D01*
X8484954Y11053687D01*
X8476775Y11052121D01*
X8325713Y11018040D01*
X8316322Y11015540D01*
X8172873Y10971412D01*
X8162772Y10967832D01*
X8025109Y10912394D01*
X8014972Y10907785D01*
X7881270Y10839776D01*
X7871767Y10834417D01*
X7740201Y10752574D01*
X7731835Y10746896D01*
X7600578Y10649959D01*
X7593590Y10644408D01*
X7460818Y10531114D01*
X7455218Y10526040D01*
X7319103Y10395128D01*
X7314750Y10390733D01*
X7173468Y10240940D01*
X7170163Y10237297D01*
X7021887Y10067362D01*
X7019426Y10064454D01*
X6862331Y9873116D01*
X6861184Y9871699D01*
X6830711Y9833478D01*
X6829065Y9831367D01*
X6653965Y9601990D01*
X6650725Y9597551D01*
X6497760Y9378098D01*
X6494202Y9372706D01*
X6362690Y9161938D01*
X6358906Y9155454D01*
X6248164Y8952132D01*
X6244311Y8944450D01*
X6153660Y8747336D01*
X6149965Y8738424D01*
X6078721Y8546277D01*
X6075650Y8536891D01*
X6028808Y8372316D01*
X6025825Y8359251D01*
X6013278Y8286901D01*
X6011886Y8276180D01*
X6005567Y8203370D01*
X-9671544Y8203370D01*
X-9678298Y8243040D01*
X-9680372Y8252862D01*
X-9731066Y8453321D01*
X-9733451Y8461569D01*
X-9802555Y8673414D01*
X-9805086Y8680461D01*
X-9892304Y8902500D01*
X-9894791Y8908391D01*
X-9990594Y9120274D01*
X-9994884Y9128877D01*
X-10108713Y9337065D01*
X-10115815Y9348557D01*
X-10251561Y9544120D01*
X-10259676Y9554598D01*
X-10417072Y9737281D01*
X-10425894Y9746535D01*
X-10604672Y9916082D01*
X-10613881Y9924014D01*
X-10813774Y10080169D01*
X-10823074Y10086784D01*
X-11043814Y10229293D01*
X-11052610Y10234482D01*
X-11274029Y10353392D01*
X-11278878Y10355864D01*
X-11397899Y10413354D01*
X-11399975Y10414334D01*
X-11511524Y10465750D01*
X-11514591Y10467115D01*
X-11620500Y10512577D01*
X-11624640Y10514268D01*
X-11726738Y10553898D01*
X-11731942Y10555788D01*
X-11832060Y10589707D01*
X-11838187Y10591612D01*
X-11938157Y10619940D01*
X-11944919Y10621657D01*
X-12046573Y10644515D01*
X-12053578Y10645885D01*
X-12158744Y10663394D01*
X-12165574Y10664341D01*
X-12276086Y10676622D01*
X-12282386Y10677164D01*
X-12400073Y10684338D01*
X-12405607Y10684554D01*
X-12532300Y10686742D01*
X-12536965Y10686737D01*
X-12674496Y10684059D01*
X-12678292Y10683928D01*
X-12828492Y10676506D01*
X-12831488Y10676323D01*
X-12996187Y10664277D01*
X-12998485Y10664088D01*
X-13179514Y10647539D01*
X-13181224Y10647371D01*
X-13380415Y10626440D01*
X-13381644Y10626304D01*
X-13600828Y10601112D01*
X-13601670Y10601013D01*
X-13842677Y10571681D01*
X-13843171Y10571620D01*
X-14049337Y10545709D01*
X-14049737Y10545658D01*
X-14361332Y10505490D01*
X-14361911Y10505414D01*
X-14649716Y10466968D01*
X-14650432Y10466870D01*
X-14915976Y10429859D01*
X-14916851Y10429734D01*
X-15161666Y10393873D01*
X-15162727Y10393713D01*
X-15388343Y10358715D01*
X-15389615Y10358511D01*
X-15597562Y10324090D01*
X-15599071Y10323831D01*
X-15790879Y10289701D01*
X-15792646Y10289374D01*
X-15969845Y10255249D01*
X-15971887Y10254838D01*
X-16136008Y10220431D01*
X-16138327Y10219922D01*
X-16290901Y10184947D01*
X-16293481Y10184327D01*
X-16436036Y10148498D01*
X-16438840Y10147759D01*
X-16572909Y10110789D01*
X-16575871Y10109934D01*
X-16702982Y10071539D01*
X-16706016Y10070581D01*
X-16827701Y10030472D01*
X-16829637Y10029816D01*
X-16862843Y10018275D01*
X-16866746Y10016847D01*
X-16957354Y9981993D01*
X-16962344Y9979951D01*
X-17063880Y9935859D01*
X-17067564Y9934188D01*
X-17173777Y9883986D01*
X-17177045Y9882384D01*
X-17281686Y9829205D01*
X-17285156Y9827374D01*
X-17381972Y9774347D01*
X-17386399Y9771805D01*
X-17469142Y9722062D01*
X-17474313Y9718781D01*
X-17514056Y9692199D01*
X-17521106Y9687127D01*
X-17600734Y9625594D01*
X-17606777Y9620619D01*
X-17693733Y9544422D01*
X-17698066Y9540443D01*
X-17786313Y9455576D01*
X-17790179Y9451695D01*
X-17873680Y9364154D01*
X-17877910Y9359493D01*
X-17950626Y9275272D01*
X-17955413Y9269380D01*
X-17999070Y9212241D01*
X-18004179Y9205051D01*
X-18113897Y9038665D01*
X-18117959Y9032076D01*
X-18221743Y8851653D01*
X-18225024Y8845573D01*
X-18320720Y8656057D01*
X-18323544Y8650082D01*
X-18409000Y8456416D01*
X-18411573Y8450137D01*
X-18484638Y8257266D01*
X-18487085Y8250180D01*
X-18545605Y8063046D01*
X-18547970Y8054431D01*
X-18589793Y7877980D01*
X-18591113Y7871712D01*
X-18596982Y7839872D01*
X-18598083Y7832776D01*
X-18623421Y7632315D01*
X-18624403Y7618683D01*
X-18625572Y7553984D01*
X-30930881Y7553984D01*
X-30925456Y7667241D01*
X-30917126Y7800588D01*
X-30907424Y7919418D01*
X-30896122Y8025969D01*
X-30883007Y8122550D01*
X-30867832Y8211643D01*
X-30850321Y8295805D01*
X-30830142Y8377649D01*
X-30806887Y8459876D01*
X-30780146Y8545047D01*
X-30757736Y8611784D01*
X-30665550Y8848543D01*
X-30557512Y9070202D01*
X-30434371Y9276343D01*
X-30297646Y9464718D01*
X-30147040Y9635235D01*
X-30064065Y9715719D01*
X-29983580Y9784640D01*
X-29897186Y9848804D01*
X-29796145Y9914618D01*
X-29731393Y9953554D01*
X-29730360Y9954182D01*
X-29610537Y10027794D01*
X-29604943Y10031436D01*
X-29501307Y10102865D01*
X-29494641Y10107788D01*
X-29399351Y10183084D01*
X-29393181Y10188286D01*
X-29298397Y10273499D01*
X-29294528Y10277126D01*
X-29228779Y10341398D01*
X-29225111Y10345135D01*
X-29106748Y10470789D01*
X-29100823Y10477543D01*
X-29004428Y10595591D01*
X-28997419Y10605035D01*
X-28921578Y10717786D01*
X-28914124Y10730378D01*
X-28857420Y10840142D01*
X-28850659Y10855696D01*
X-28811678Y10964781D01*
X-28807263Y10980118D01*
X-28788277Y11066051D01*
X-28786558Y11075520D01*
X-28771732Y11179485D01*
X-28771248Y11183289D01*
X-28756789Y11312478D01*
X-28756527Y11315053D01*
X-28742440Y11469294D01*
X-28742284Y11471154D01*
X-28728576Y11650273D01*
X-28728476Y11651680D01*
X-28715152Y11855506D01*
X-28715085Y11856608D01*
X-28702151Y12084966D01*
X-28702104Y12085854D01*
X-28689564Y12338571D01*
X-28689530Y12339303D01*
X-28677391Y12616208D01*
X-28677365Y12616822D01*
X-28665633Y12917741D01*
X-28665614Y12918265D01*
X-28654293Y13243025D01*
X-28654278Y13243477D01*
X-28643375Y13591905D01*
X-28643363Y13592300D01*
X-28632884Y13964223D01*
X-28632875Y13964571D01*
X-28622824Y14359817D01*
X-28622817Y14360128D01*
X-28613200Y14778523D01*
X-28613193Y14778801D01*
X-28604016Y15220173D01*
X-28604011Y15220425D01*
X-28595280Y15684600D01*
X-28595276Y15684828D01*
X-28586997Y16171634D01*
X-28586994Y16171843D01*
X-28579171Y16681106D01*
X-28579168Y16681298D01*
X-28571807Y17212846D01*
X-28571805Y17213024D01*
X-28564913Y17766685D01*
X-28564912Y17766795D01*
X-28562790Y17949979D01*
X-28562789Y17950013D01*
X-28561072Y18101745D01*
X-28561072Y18101761D01*
X-28559422Y18249256D01*
X-28559422Y18249278D01*
X-28557834Y18393473D01*
X-28557833Y18393498D01*
X-28556298Y18535334D01*
X-28556298Y18535362D01*
X-28554810Y18675775D01*
X-28554810Y18675807D01*
X-28553362Y18815736D01*
X-28553361Y18815768D01*
X-28551944Y18956151D01*
X-28551944Y18956187D01*
X-28550553Y19097963D01*
X-28550553Y19098000D01*
X-28549181Y19242107D01*
X-28549180Y19242142D01*
X-28547818Y19389519D01*
X-28547818Y19389555D01*
X-28546460Y19541139D01*
X-28546460Y19541174D01*
X-28545099Y19697903D01*
X-28545099Y19697936D01*
X-28543727Y19860750D01*
X-28543726Y19860782D01*
X-28542338Y20030619D01*
X-28542338Y20030647D01*
X-28540924Y20208444D01*
X-28540924Y20208471D01*
X-28539479Y20395167D01*
X-28539479Y20395191D01*
X-28537995Y20591724D01*
X-28537994Y20591746D01*
X-28536464Y20799055D01*
X-28536464Y20799074D01*
X-28534881Y21018097D01*
X-28534881Y21018114D01*
X-28533238Y21249790D01*
X-28533238Y21249805D01*
X-28531527Y21495070D01*
X-28531527Y21495083D01*
X-28529742Y21754878D01*
X-28529742Y21754890D01*
X-28527876Y22030152D01*
X-28527876Y22030162D01*
X-28525921Y22321829D01*
X-28525921Y22321837D01*
X-28523870Y22630848D01*
X-28523870Y22630855D01*
X-28521716Y22958147D01*
X-28521716Y22958153D01*
X-28519452Y23304666D01*
X-28519452Y23304671D01*
X-28517071Y23671343D01*
X-28517071Y23671348D01*
X-28514566Y24059117D01*
X-28514566Y24059120D01*
X-28511929Y24468923D01*
X-28511929Y24468926D01*
X-28509154Y24901703D01*
X-28509154Y24901705D01*
X-28506233Y25358394D01*
X-28506233Y25358395D01*
X-28504452Y25637301D01*
X-28473284Y30521351D01*
X-28056224Y31704549D01*
X-27905853Y32130664D01*
X-27763313Y32533530D01*
X-27628280Y32913973D01*
X-27500431Y33272821D01*
X-27379445Y33610899D01*
X-27264997Y33929033D01*
X-27156766Y34228047D01*
X-27054314Y34509084D01*
X-26957669Y34772015D01*
X-26866076Y35018839D01*
X-26779518Y35249554D01*
X-26697467Y35465544D01*
X-26619864Y35666937D01*
X-26546085Y35855351D01*
X-26476028Y36031050D01*
X-26409288Y36195072D01*
X-26345514Y36348317D01*
X-26284534Y36491259D01*
X-26225862Y36625118D01*
X-26169264Y36750526D01*
X-26114381Y36868402D01*
X-26060907Y36979544D01*
X-26008472Y37084880D01*
X-25956832Y37185091D01*
X-25905533Y37281260D01*
X-25854297Y37374129D01*
X-25816492Y37440751D01*
X-25709535Y37619460D01*
X-25605237Y37777340D01*
X-25498882Y37920919D01*
X-25385865Y38056288D01*
X-25261189Y38189720D01*
X-25151800Y38297115D01*
X-25041783Y38404319D01*
X-25039097Y38407015D01*
X-24937806Y38511813D01*
X-24934851Y38514977D01*
X-24837924Y38622354D01*
X-24835114Y38625574D01*
X-24738083Y38740624D01*
X-24735751Y38743473D01*
X-24634146Y38871287D01*
X-24632557Y38873328D01*
X-24543266Y38990472D01*
X-24541384Y38993005D01*
X-24334245Y39279242D01*
X-24331907Y39282585D01*
X-24122964Y39591759D01*
X-24120951Y39594833D01*
X-23911670Y39924691D01*
X-23909892Y39927578D01*
X-23701741Y40275871D01*
X-23700820Y40277436D01*
X-23674805Y40322414D01*
X-23674595Y40322779D01*
X-23642463Y40378761D01*
X-23642192Y40379235D01*
X-23610887Y40434323D01*
X-23610564Y40434896D01*
X-23579177Y40490801D01*
X-23578829Y40491424D01*
X-23546453Y40549857D01*
X-23546116Y40550470D01*
X-23511842Y40613140D01*
X-23511535Y40613704D01*
X-23474457Y40682323D01*
X-23474198Y40682806D01*
X-23433406Y40759084D01*
X-23433195Y40759480D01*
X-23387781Y40845126D01*
X-23387614Y40845441D01*
X-23336672Y40942167D01*
X-23336545Y40942408D01*
X-23279167Y41051925D01*
X-23279074Y41052104D01*
X-23214350Y41176120D01*
X-23214281Y41176252D01*
X-23141305Y41316480D01*
X-23141257Y41316572D01*
X-23059120Y41474720D01*
X-23059087Y41474785D01*
X-22966882Y41652566D01*
X-22966863Y41652602D01*
X-22893396Y41794365D01*
X-22822497Y41931026D01*
X-22754759Y42061239D01*
X-22691122Y42183218D01*
X-22632528Y42295174D01*
X-22579926Y42395307D01*
X-22534110Y42482107D01*
X-22496479Y42552924D01*
X-22468877Y42604301D01*
X-22423371Y42610604D01*
X-22351702Y42619452D01*
X-22266405Y42629127D01*
X-22170836Y42639204D01*
X-22098267Y42646404D01*
X-21859273Y42669913D01*
X-21858761Y42669964D01*
X-21643354Y42692035D01*
X-21642693Y42692105D01*
X-21449115Y42712964D01*
X-21448269Y42713058D01*
X-21274761Y42732932D01*
X-21273688Y42733059D01*
X-21118491Y42752174D01*
X-21117144Y42752348D01*
X-20978501Y42770931D01*
X-20976832Y42771166D01*
X-20852985Y42789443D01*
X-20850945Y42789761D01*
X-20740133Y42807959D01*
X-20737695Y42808383D01*
X-20638163Y42826727D01*
X-20635326Y42827284D01*
X-20545313Y42846002D01*
X-20543610Y42846368D01*
X-20536390Y42847973D01*
X-20534704Y42848360D01*
X-20472956Y42862972D01*
X-20469853Y42863748D01*
X-20414282Y42878385D01*
X-20410175Y42879541D01*
X-20367196Y42892420D01*
X-20358317Y42895442D01*
X-20335511Y42904157D01*
X-20313238Y42915281D01*
X-20296839Y42927543D01*
X-20282764Y42939957D01*
X-20275800Y42946585D01*
X-20246585Y42976575D01*
X-20244729Y42978520D01*
X-20201845Y43024448D01*
X-20200947Y43025420D01*
X-20145871Y43085651D01*
X-20145318Y43086260D01*
X-20079522Y43159157D01*
X-20079125Y43159599D01*
X-20004083Y43243526D01*
X-20003768Y43243880D01*
X-19920953Y43337199D01*
X-19920679Y43337508D01*
X-19831566Y43438584D01*
X-19831314Y43438871D01*
X-19737377Y43546066D01*
X-19737202Y43546266D01*
X-19694648Y43595032D01*
X-19694644Y43595036D01*
X-19532343Y43781046D01*
X-19385559Y43948739D01*
X-19252636Y44099928D01*
X-19132239Y44236059D01*
X-19023496Y44358054D01*
X-18924991Y44467454D01*
X-18835466Y44565622D01*
X-18753504Y44654095D01*
X-18678105Y44733962D01*
X-18607825Y44806787D01*
X-18541367Y44873981D01*
X-18477492Y44936884D01*
X-18414761Y44997041D01*
X-18351873Y45055846D01*
X-18293158Y45109584D01*
X-18059021Y45314455D01*
X-17834809Y45495142D01*
X-17619166Y45652475D01*
X-17411354Y45786804D01*
X-17210593Y45898573D01*
X-17016080Y45988303D01*
X-16826864Y46056619D01*
X-16641874Y46104183D01*
X-16459802Y46131650D01*
X-16279153Y46139549D01*
X-16098362Y46128210D01*
X-15915912Y46097751D01*
X-15730410Y46048133D01*
X-15538532Y45978481D01*
X-15537574Y45978094D01*
X-15440871Y45939436D01*
X-15437319Y45938077D01*
X-15358051Y45909110D01*
X-15351608Y45906949D01*
X-15284312Y45886365D01*
X-15274713Y45883835D01*
X-15213930Y45870329D01*
X-15202691Y45868357D01*
X-15142958Y45860622D01*
X-15133117Y45859735D01*
X-15068973Y45856464D01*
X-15063521Y45856303D01*
X-15018766Y45855945D01*
X-15014164Y45855992D01*
X-14948141Y45857857D01*
X-14941504Y45858218D01*
X-14873301Y45863726D01*
X-14866619Y45864444D01*
X-14794717Y45874101D01*
X-14788454Y45875102D01*
X-14711331Y45889411D01*
X-14705782Y45890569D01*
X-14621916Y45910037D01*
X-14617209Y45911225D01*
X-14525080Y45936358D01*
X-14521217Y45937478D01*
X-14419304Y45968779D01*
X-14416204Y45969775D01*
X-14302984Y46007751D01*
X-14300540Y46008598D01*
X-14174494Y46053753D01*
X-14172589Y46054453D01*
X-14032193Y46107294D01*
X-14030726Y46107856D01*
X-13874462Y46168887D01*
X-13873344Y46169330D01*
X-13699688Y46239056D01*
X-13698845Y46239398D01*
X-13506277Y46318325D01*
X-13505650Y46318584D01*
X-13292649Y46407216D01*
X-13292242Y46407386D01*
X-13119342Y46480038D01*
X-12902041Y46571133D01*
X-12706003Y46652126D01*
X-12528966Y46723846D01*
X-12369318Y46786860D01*
X-12224738Y46842021D01*
X-12093266Y46890045D01*
X-11972909Y46931664D01*
X-11861621Y46967636D01*
X-11757187Y46998770D01*
X-11657576Y47025814D01*
X-11560254Y47049632D01*
X-11495169Y47064150D01*
X-11365622Y47085562D01*
X-11218785Y47098542D01*
X-11059145Y47102913D01*
X-10893689Y47098367D01*
X-10727604Y47084648D01*
X-10701815Y47081629D01*
X-10701479Y47081590D01*
X-10559488Y47065353D01*
X-10556749Y47065070D01*
X-10433856Y47053710D01*
X-10429939Y47053409D01*
X-10320362Y47046690D01*
X-10315467Y47046485D01*
X-10213424Y47044172D01*
X-10208194Y47044161D01*
X-10107903Y47046019D01*
X-10103215Y47046192D01*
X-9998894Y47051984D01*
X-9996773Y47052120D01*
X-9985739Y47052918D01*
X-9982792Y47053165D01*
X-9796757Y47070982D01*
X-9791271Y47071629D01*
X-9610640Y47096896D01*
X-9605103Y47097795D01*
X-9432362Y47129792D01*
X-9426548Y47131010D01*
X-9264184Y47169015D01*
X-9257805Y47170684D01*
X-9108304Y47213975D01*
X-9100957Y47216347D01*
X-8966805Y47264203D01*
X-8957893Y47267767D01*
X-8841576Y47319467D01*
X-8830178Y47325237D01*
X-8734182Y47380059D01*
X-8718939Y47390292D01*
X-8645751Y47447514D01*
X-8636073Y47455900D01*
X-8634806Y47457115D01*
X-8628176Y47463969D01*
X-8583716Y47513526D01*
X-8565286Y47540296D01*
X-8542719Y47584218D01*
X-8533567Y47607371D01*
X-8528837Y47635974D01*
X-8526722Y47678663D01*
X-8527933Y47703529D01*
X-8533193Y47725437D01*
X-8545220Y47761193D01*
X-8556001Y47795785D01*
X-8555888Y47797166D01*
X-8552578Y47802997D01*
X-8527353Y47824926D01*
X-8468257Y47857330D01*
X-8441751Y47868671D01*
X-8328113Y47907533D01*
X-8195482Y47939925D01*
X-8040896Y47966091D01*
X-7863693Y47985729D01*
X-7663136Y47998706D01*
X-7438106Y48004992D01*
X-7328503Y48005625D01*
X-7111760Y48002294D01*
X-6913330Y47992702D01*
X-6733843Y47977119D01*
X-6574538Y47955893D01*
X-6436746Y47929501D01*
X-6322216Y47898733D01*
X-6233044Y47865037D01*
X-6171731Y47831398D01*
X-6136856Y47801355D01*
X-6130804Y47792566D01*
X-6130971Y47792117D01*
X-6133134Y47785795D01*
X-6150164Y47731371D01*
X-6155879Y47697959D01*
X-6157333Y47657087D01*
X-6155775Y47632240D01*
X-6146381Y47600798D01*
X-6130808Y47565916D01*
X-6118479Y47544287D01*
X-6107645Y47530993D01*
X-6073593Y47494542D01*
X-6066068Y47487131D01*
X-6065034Y47486194D01*
X-6054163Y47477383D01*
X-5987094Y47428893D01*
X-5970570Y47418771D01*
X-5882919Y47373888D01*
X-5870828Y47368473D01*
X-5767302Y47328451D01*
X-5757514Y47325118D01*
X-5642822Y47291210D01*
X-5633994Y47288941D01*
X-5512842Y47262400D01*
X-5503990Y47260787D01*
X-5381089Y47242865D01*
X-5371266Y47241821D01*
X-5251321Y47233772D01*
X-5241068Y47233499D01*
X-5156407Y47234666D01*
X-5145770Y47235260D01*
X-5042712Y47245360D01*
X-5026959Y47247911D01*
X-4944149Y47266727D01*
X-4921757Y47274056D01*
X-4855134Y47302950D01*
X-4830113Y47317382D01*
X-4775612Y47357719D01*
X-4762927Y47368461D01*
X-4755272Y47375856D01*
X-4745518Y47386408D01*
X-4698442Y47443509D01*
X-4679958Y47473677D01*
X-4654723Y47531743D01*
X-4647086Y47555439D01*
X-4644478Y47573951D01*
X-4640246Y47637706D01*
X-4642800Y47672791D01*
X-4658733Y47746962D01*
X-4662963Y47762051D01*
X-4673122Y47791226D01*
X-4674842Y47796353D01*
X-4665454Y47809350D01*
X-4635447Y47833007D01*
X-4579153Y47862025D01*
X-4495970Y47892136D01*
X-4386495Y47921210D01*
X-4251085Y47948392D01*
X-4089155Y47973513D01*
X-4024448Y47982009D01*
X-3974314Y47986672D01*
X-3901567Y47990986D01*
X-3810046Y47994797D01*
X-3704649Y47997983D01*
X-3589800Y48000475D01*
X-3469358Y48002225D01*
X-3347909Y48003181D01*
X-3229219Y48003302D01*
X-3117581Y48002543D01*
X-3017277Y48000871D01*
X-2932650Y47998270D01*
X-2867599Y47994738D01*
X-2680548Y47977391D01*
X-2515352Y47955438D01*
X-2372382Y47929254D01*
X-2252965Y47899504D01*
X-2158853Y47867363D01*
X-2092483Y47835291D01*
X-2056230Y47808673D01*
X-2047055Y47796594D01*
X-2046858Y47795762D01*
X-2046996Y47794809D01*
X-2054817Y47769040D01*
X-2054991Y47768605D01*
X-2056982Y47763302D01*
X-2068677Y47729908D01*
X-2074563Y47705718D01*
X-2075809Y47686704D01*
X-2075568Y47661757D01*
X-2072889Y47637005D01*
X-2066678Y47616289D01*
X-2055238Y47587354D01*
X-2038977Y47558175D01*
X-2004831Y47512342D01*
X-1981621Y47488487D01*
X-1924882Y47443750D01*
X-1908158Y47432590D01*
X-1831636Y47389868D01*
X-1819459Y47383899D01*
X-1725962Y47344109D01*
X-1716441Y47340501D01*
X-1608776Y47304563D01*
X-1600739Y47302172D01*
X-1481714Y47271002D01*
X-1474417Y47269319D01*
X-1346841Y47243836D01*
X-1339769Y47242630D01*
X-1206449Y47223753D01*
X-1199190Y47222938D01*
X-1062933Y47211584D01*
X-1058465Y47211291D01*
X-1034778Y47210156D01*
X-1029464Y47210012D01*
X-890868Y47209178D01*
X-878882Y47209673D01*
X-759269Y47220284D01*
X-743584Y47222670D01*
X-638957Y47245352D01*
X-620978Y47250666D01*
X-527343Y47286043D01*
X-517259Y47290359D01*
X-506233Y47295653D01*
X-495359Y47301542D01*
X-423523Y47345097D01*
X-398558Y47364910D01*
X-350046Y47414528D01*
X-334470Y47433950D01*
X-325662Y47449837D01*
X-298648Y47508028D01*
X-290429Y47531529D01*
X-287764Y47546223D01*
X-280517Y47606011D01*
X-271253Y47669175D01*
X-250204Y47713771D01*
X-210090Y47760841D01*
X-146246Y47809580D01*
X-57082Y47856984D01*
X57008Y47900421D01*
X194980Y47938122D01*
X355682Y47968934D01*
X539507Y47992268D01*
X562545Y47994469D01*
X693487Y48002883D01*
X836851Y48005632D01*
X990141Y48003071D01*
M02*
