G04 #@! TF.GenerationSoftware,KiCad,Pcbnew,(5.1.2)-1*
G04 #@! TF.CreationDate,2019-06-30T22:56:59-05:00*
G04 #@! TF.ProjectId,hank-hill-sao,68616e6b-2d68-4696-9c6c-2d73616f2e6b,rev?*
G04 #@! TF.SameCoordinates,Original*
G04 #@! TF.FileFunction,Soldermask,Bot*
G04 #@! TF.FilePolarity,Negative*
%FSLAX46Y46*%
G04 Gerber Fmt 4.6, Leading zero omitted, Abs format (unit mm)*
G04 Created by KiCad (PCBNEW (5.1.2)-1) date 2019-06-30 22:56:59*
%MOMM*%
%LPD*%
G04 APERTURE LIST*
%ADD10C,0.200000*%
%ADD11C,0.010000*%
%ADD12C,0.100000*%
%ADD13C,1.650000*%
%ADD14C,2.127200*%
%ADD15O,2.127200X2.127200*%
%ADD16R,2.127200X2.127200*%
G04 APERTURE END LIST*
D10*
X-14990875Y-18203593D02*
X-14990875Y-18203593D01*
X-16260565Y-18178565D02*
X-16260895Y-18178543D01*
X-15536912Y-19957873D02*
X-15536912Y-19957873D01*
X-16219075Y-19060258D02*
X-16219075Y-19060258D01*
X-14926540Y-21034535D02*
X-14926540Y-21068510D01*
X-15699452Y-20074288D02*
X-15699452Y-20071963D01*
X-15523967Y-18014593D02*
X-15523967Y-18014593D01*
X-15498842Y-21378395D02*
X-15304300Y-21355295D01*
X-15498842Y-21182593D02*
X-15498842Y-21378395D01*
X11261093Y-15772735D02*
X11090079Y-15621784D01*
X8855054Y-17441942D02*
X8855054Y-17441942D01*
X12621343Y-19435370D02*
X12621343Y-19435370D01*
X8904495Y-20106374D02*
X8904495Y-20106374D01*
X15039789Y-21760958D02*
X15039789Y-21760958D01*
X10734879Y-16042817D02*
X11261093Y-15772735D01*
X11449996Y-19424129D02*
X11449996Y-19424129D01*
X9527982Y-22188041D02*
X9283915Y-21911232D01*
X9283915Y-21911232D02*
X9322675Y-21341727D01*
X12836871Y-26094988D02*
X12836871Y-26094988D01*
X7923489Y-16809146D02*
X7879982Y-16199301D01*
X7879982Y-16199301D02*
X7031448Y-16205601D01*
X8157186Y-19686245D02*
X8226816Y-19446842D01*
X7975219Y-19576062D02*
X8157186Y-19686245D01*
X13932680Y-21022228D02*
X13932680Y-21022228D01*
X15023040Y-17383434D02*
X15023040Y-17383434D01*
X9449088Y-20465672D02*
X9449088Y-20465672D01*
X10431470Y-19743107D02*
X10431470Y-19743107D01*
X10109904Y-18920959D02*
X10109904Y-18920959D01*
X9951615Y-18685744D02*
X9951615Y-18685744D01*
X10138110Y-20383445D02*
X10138110Y-20383445D01*
X11852706Y-19528730D02*
X11852706Y-19528730D01*
X12145382Y-20868059D02*
X12145382Y-20868059D01*
X14769639Y-17490641D02*
X14769639Y-17490641D01*
X12631525Y-24503567D02*
X12631525Y-24503567D01*
X11517851Y-21480398D02*
X11517851Y-21480398D01*
X13739203Y-22170104D02*
X13739203Y-22170104D01*
X10417859Y-22432239D02*
X10417859Y-22432239D01*
X10946923Y-20991740D02*
X10946923Y-20991740D01*
X11517236Y-21001032D02*
X11517236Y-21001032D01*
X9773730Y-21363073D02*
X9773730Y-21363073D01*
X10059032Y-21315188D02*
X10104879Y-21630660D01*
X13261781Y-23849909D02*
X13261781Y-23849909D01*
X11519214Y-23493516D02*
X11519214Y-23493516D01*
X10050069Y-21615570D02*
X10059032Y-21315188D01*
X13280003Y-25629247D02*
X13280003Y-25629247D01*
D11*
G36*
X-12404078Y10557734D02*
G01*
X-12293733Y10551641D01*
X-12191207Y10541167D01*
X-12094775Y10526288D01*
X-12002713Y10506979D01*
X-11913296Y10483217D01*
X-11824801Y10454978D01*
X-11735503Y10422236D01*
X-11645900Y10385906D01*
X-11389975Y10270059D01*
X-11157639Y10147815D01*
X-10947647Y10018114D01*
X-10758755Y9879894D01*
X-10589719Y9732096D01*
X-10439294Y9573657D01*
X-10306236Y9403518D01*
X-10189301Y9220618D01*
X-10114426Y9080500D01*
X-10025958Y8890097D01*
X-9947425Y8697494D01*
X-9880581Y8507732D01*
X-9827185Y8325855D01*
X-9788991Y8156906D01*
X-9784918Y8134350D01*
X-9773341Y8047028D01*
X-9766131Y7947586D01*
X-9763306Y7843210D01*
X-9764882Y7741082D01*
X-9770879Y7648386D01*
X-9781314Y7572306D01*
X-9783503Y7561668D01*
X-9825166Y7410871D01*
X-9883271Y7266310D01*
X-9958717Y7127106D01*
X-10052400Y6992379D01*
X-10165220Y6861251D01*
X-10298074Y6732842D01*
X-10451860Y6606272D01*
X-10627476Y6480662D01*
X-10825819Y6355133D01*
X-11047789Y6228805D01*
X-11254960Y6120519D01*
X-11662775Y5926026D01*
X-12067800Y5755439D01*
X-12469652Y5608848D01*
X-12867946Y5486343D01*
X-13262299Y5388015D01*
X-13652327Y5313954D01*
X-14037646Y5264251D01*
X-14417873Y5238995D01*
X-14792623Y5238278D01*
X-14966950Y5246456D01*
X-15333479Y5281935D01*
X-15700385Y5342020D01*
X-16065346Y5426059D01*
X-16426043Y5533401D01*
X-16780155Y5663394D01*
X-17125362Y5815387D01*
X-17294383Y5899681D01*
X-17520939Y6026004D01*
X-17722903Y6157197D01*
X-17900705Y6293763D01*
X-18054775Y6436204D01*
X-18185544Y6585021D01*
X-18293441Y6740717D01*
X-18378895Y6903792D01*
X-18442338Y7074749D01*
X-18484198Y7254089D01*
X-18490758Y7296150D01*
X-18503566Y7468811D01*
X-18494835Y7654142D01*
X-18464691Y7851554D01*
X-18413259Y8060459D01*
X-18395653Y8113768D01*
X-15416148Y8113768D01*
X-15410120Y7956217D01*
X-15379134Y7796239D01*
X-15323139Y7633209D01*
X-15284146Y7547068D01*
X-15217514Y7427076D01*
X-15144338Y7328905D01*
X-15061692Y7250557D01*
X-14966648Y7190032D01*
X-14856278Y7145331D01*
X-14727654Y7114453D01*
X-14630400Y7100569D01*
X-14560725Y7094916D01*
X-14472997Y7091073D01*
X-14373245Y7089001D01*
X-14267496Y7088662D01*
X-14161777Y7090017D01*
X-14062115Y7093028D01*
X-13974538Y7097655D01*
X-13905072Y7103860D01*
X-13893800Y7105298D01*
X-13783931Y7122491D01*
X-13693218Y7141994D01*
X-13615430Y7165452D01*
X-13544332Y7194514D01*
X-13529460Y7201585D01*
X-13461681Y7240458D01*
X-13416807Y7281155D01*
X-13392367Y7326634D01*
X-13385800Y7373659D01*
X-13394441Y7421200D01*
X-13421438Y7466723D01*
X-13468404Y7511721D01*
X-13536951Y7557691D01*
X-13628692Y7606128D01*
X-13644817Y7613822D01*
X-13711790Y7646645D01*
X-13761391Y7674558D01*
X-13799948Y7701780D01*
X-13833791Y7732530D01*
X-13852400Y7752157D01*
X-13920446Y7840155D01*
X-13968982Y7936015D01*
X-14001547Y8046788D01*
X-14002475Y8051188D01*
X-14013699Y8153457D01*
X-14005192Y8250241D01*
X-13978794Y8338736D01*
X-13936344Y8416141D01*
X-13879679Y8479651D01*
X-13810638Y8526466D01*
X-13731061Y8553781D01*
X-13668838Y8559800D01*
X-13598724Y8571848D01*
X-13532712Y8605382D01*
X-13474701Y8656489D01*
X-13428590Y8721256D01*
X-13398276Y8795771D01*
X-13389691Y8839982D01*
X-13391950Y8918688D01*
X-13417455Y8988747D01*
X-13465008Y9048405D01*
X-13533407Y9095908D01*
X-13578435Y9115831D01*
X-13633022Y9134903D01*
X-13684630Y9149546D01*
X-13737862Y9160310D01*
X-13797324Y9167748D01*
X-13867624Y9172411D01*
X-13953365Y9174850D01*
X-14059154Y9175616D01*
X-14077950Y9175620D01*
X-14194326Y9174597D01*
X-14290728Y9171128D01*
X-14372524Y9164433D01*
X-14445087Y9153735D01*
X-14513787Y9138252D01*
X-14583993Y9117207D01*
X-14655800Y9091791D01*
X-14811857Y9021761D01*
X-14954322Y8933753D01*
X-15081133Y8829741D01*
X-15190228Y8711698D01*
X-15279546Y8581596D01*
X-15347023Y8441410D01*
X-15353526Y8424083D01*
X-15397267Y8269515D01*
X-15416148Y8113768D01*
X-18395653Y8113768D01*
X-18340664Y8280266D01*
X-18247032Y8510388D01*
X-18218950Y8572500D01*
X-18115529Y8781651D01*
X-18008463Y8967876D01*
X-17896174Y9133566D01*
X-17777087Y9281113D01*
X-17691118Y9372600D01*
X-17585670Y9471993D01*
X-17480539Y9557643D01*
X-17368942Y9634315D01*
X-17244100Y9706773D01*
X-17138650Y9760750D01*
X-17032326Y9810414D01*
X-16920877Y9857579D01*
X-16802965Y9902529D01*
X-16677253Y9945547D01*
X-16542406Y9986917D01*
X-16397086Y10026922D01*
X-16239957Y10065846D01*
X-16069681Y10103973D01*
X-15884923Y10141586D01*
X-15684344Y10178968D01*
X-15466609Y10216404D01*
X-15230381Y10254177D01*
X-14974322Y10292569D01*
X-14697096Y10331866D01*
X-14397367Y10372350D01*
X-14073797Y10414305D01*
X-14033500Y10419427D01*
X-13775201Y10451673D01*
X-13540238Y10479755D01*
X-13326887Y10503650D01*
X-13133424Y10523334D01*
X-12958124Y10538782D01*
X-12799264Y10549970D01*
X-12655119Y10556875D01*
X-12523965Y10559471D01*
X-12404078Y10557734D01*
X-12404078Y10557734D01*
G37*
X-12404078Y10557734D02*
X-12293733Y10551641D01*
X-12191207Y10541167D01*
X-12094775Y10526288D01*
X-12002713Y10506979D01*
X-11913296Y10483217D01*
X-11824801Y10454978D01*
X-11735503Y10422236D01*
X-11645900Y10385906D01*
X-11389975Y10270059D01*
X-11157639Y10147815D01*
X-10947647Y10018114D01*
X-10758755Y9879894D01*
X-10589719Y9732096D01*
X-10439294Y9573657D01*
X-10306236Y9403518D01*
X-10189301Y9220618D01*
X-10114426Y9080500D01*
X-10025958Y8890097D01*
X-9947425Y8697494D01*
X-9880581Y8507732D01*
X-9827185Y8325855D01*
X-9788991Y8156906D01*
X-9784918Y8134350D01*
X-9773341Y8047028D01*
X-9766131Y7947586D01*
X-9763306Y7843210D01*
X-9764882Y7741082D01*
X-9770879Y7648386D01*
X-9781314Y7572306D01*
X-9783503Y7561668D01*
X-9825166Y7410871D01*
X-9883271Y7266310D01*
X-9958717Y7127106D01*
X-10052400Y6992379D01*
X-10165220Y6861251D01*
X-10298074Y6732842D01*
X-10451860Y6606272D01*
X-10627476Y6480662D01*
X-10825819Y6355133D01*
X-11047789Y6228805D01*
X-11254960Y6120519D01*
X-11662775Y5926026D01*
X-12067800Y5755439D01*
X-12469652Y5608848D01*
X-12867946Y5486343D01*
X-13262299Y5388015D01*
X-13652327Y5313954D01*
X-14037646Y5264251D01*
X-14417873Y5238995D01*
X-14792623Y5238278D01*
X-14966950Y5246456D01*
X-15333479Y5281935D01*
X-15700385Y5342020D01*
X-16065346Y5426059D01*
X-16426043Y5533401D01*
X-16780155Y5663394D01*
X-17125362Y5815387D01*
X-17294383Y5899681D01*
X-17520939Y6026004D01*
X-17722903Y6157197D01*
X-17900705Y6293763D01*
X-18054775Y6436204D01*
X-18185544Y6585021D01*
X-18293441Y6740717D01*
X-18378895Y6903792D01*
X-18442338Y7074749D01*
X-18484198Y7254089D01*
X-18490758Y7296150D01*
X-18503566Y7468811D01*
X-18494835Y7654142D01*
X-18464691Y7851554D01*
X-18413259Y8060459D01*
X-18395653Y8113768D01*
X-15416148Y8113768D01*
X-15410120Y7956217D01*
X-15379134Y7796239D01*
X-15323139Y7633209D01*
X-15284146Y7547068D01*
X-15217514Y7427076D01*
X-15144338Y7328905D01*
X-15061692Y7250557D01*
X-14966648Y7190032D01*
X-14856278Y7145331D01*
X-14727654Y7114453D01*
X-14630400Y7100569D01*
X-14560725Y7094916D01*
X-14472997Y7091073D01*
X-14373245Y7089001D01*
X-14267496Y7088662D01*
X-14161777Y7090017D01*
X-14062115Y7093028D01*
X-13974538Y7097655D01*
X-13905072Y7103860D01*
X-13893800Y7105298D01*
X-13783931Y7122491D01*
X-13693218Y7141994D01*
X-13615430Y7165452D01*
X-13544332Y7194514D01*
X-13529460Y7201585D01*
X-13461681Y7240458D01*
X-13416807Y7281155D01*
X-13392367Y7326634D01*
X-13385800Y7373659D01*
X-13394441Y7421200D01*
X-13421438Y7466723D01*
X-13468404Y7511721D01*
X-13536951Y7557691D01*
X-13628692Y7606128D01*
X-13644817Y7613822D01*
X-13711790Y7646645D01*
X-13761391Y7674558D01*
X-13799948Y7701780D01*
X-13833791Y7732530D01*
X-13852400Y7752157D01*
X-13920446Y7840155D01*
X-13968982Y7936015D01*
X-14001547Y8046788D01*
X-14002475Y8051188D01*
X-14013699Y8153457D01*
X-14005192Y8250241D01*
X-13978794Y8338736D01*
X-13936344Y8416141D01*
X-13879679Y8479651D01*
X-13810638Y8526466D01*
X-13731061Y8553781D01*
X-13668838Y8559800D01*
X-13598724Y8571848D01*
X-13532712Y8605382D01*
X-13474701Y8656489D01*
X-13428590Y8721256D01*
X-13398276Y8795771D01*
X-13389691Y8839982D01*
X-13391950Y8918688D01*
X-13417455Y8988747D01*
X-13465008Y9048405D01*
X-13533407Y9095908D01*
X-13578435Y9115831D01*
X-13633022Y9134903D01*
X-13684630Y9149546D01*
X-13737862Y9160310D01*
X-13797324Y9167748D01*
X-13867624Y9172411D01*
X-13953365Y9174850D01*
X-14059154Y9175616D01*
X-14077950Y9175620D01*
X-14194326Y9174597D01*
X-14290728Y9171128D01*
X-14372524Y9164433D01*
X-14445087Y9153735D01*
X-14513787Y9138252D01*
X-14583993Y9117207D01*
X-14655800Y9091791D01*
X-14811857Y9021761D01*
X-14954322Y8933753D01*
X-15081133Y8829741D01*
X-15190228Y8711698D01*
X-15279546Y8581596D01*
X-15347023Y8441410D01*
X-15353526Y8424083D01*
X-15397267Y8269515D01*
X-15416148Y8113768D01*
X-18395653Y8113768D01*
X-18340664Y8280266D01*
X-18247032Y8510388D01*
X-18218950Y8572500D01*
X-18115529Y8781651D01*
X-18008463Y8967876D01*
X-17896174Y9133566D01*
X-17777087Y9281113D01*
X-17691118Y9372600D01*
X-17585670Y9471993D01*
X-17480539Y9557643D01*
X-17368942Y9634315D01*
X-17244100Y9706773D01*
X-17138650Y9760750D01*
X-17032326Y9810414D01*
X-16920877Y9857579D01*
X-16802965Y9902529D01*
X-16677253Y9945547D01*
X-16542406Y9986917D01*
X-16397086Y10026922D01*
X-16239957Y10065846D01*
X-16069681Y10103973D01*
X-15884923Y10141586D01*
X-15684344Y10178968D01*
X-15466609Y10216404D01*
X-15230381Y10254177D01*
X-14974322Y10292569D01*
X-14697096Y10331866D01*
X-14397367Y10372350D01*
X-14073797Y10414305D01*
X-14033500Y10419427D01*
X-13775201Y10451673D01*
X-13540238Y10479755D01*
X-13326887Y10503650D01*
X-13133424Y10523334D01*
X-12958124Y10538782D01*
X-12799264Y10549970D01*
X-12655119Y10556875D01*
X-12523965Y10559471D01*
X-12404078Y10557734D01*
G36*
X9234904Y10971372D02*
G01*
X9361030Y10968843D01*
X9483096Y10964738D01*
X9596202Y10959084D01*
X9673226Y10953765D01*
X9854846Y10938050D01*
X10056057Y10918401D01*
X10271462Y10895456D01*
X10495667Y10869854D01*
X10723278Y10842231D01*
X10948897Y10813228D01*
X11167132Y10783480D01*
X11372586Y10753628D01*
X11398250Y10749746D01*
X11733857Y10695774D01*
X12045247Y10639219D01*
X12333530Y10579389D01*
X12599817Y10515590D01*
X12845221Y10447126D01*
X13070852Y10373304D01*
X13277823Y10293430D01*
X13467244Y10206810D01*
X13640227Y10112749D01*
X13797884Y10010555D01*
X13941327Y9899532D01*
X14071666Y9778987D01*
X14190013Y9648226D01*
X14297479Y9506554D01*
X14395177Y9353278D01*
X14484217Y9187703D01*
X14565712Y9009136D01*
X14640771Y8816882D01*
X14681551Y8699564D01*
X14745948Y8496287D01*
X14797325Y8310200D01*
X14836469Y8137178D01*
X14864166Y7973091D01*
X14881206Y7813812D01*
X14888375Y7655214D01*
X14888719Y7613650D01*
X14880942Y7409375D01*
X14856476Y7221427D01*
X14814271Y7046121D01*
X14753279Y6879772D01*
X14672451Y6718692D01*
X14601445Y6604000D01*
X14543464Y6526723D01*
X14468698Y6441706D01*
X14382337Y6353946D01*
X14289573Y6268438D01*
X14195596Y6190180D01*
X14105596Y6124167D01*
X14097000Y6118422D01*
X13890474Y5994915D01*
X13663070Y5883404D01*
X13416486Y5784249D01*
X13152421Y5697811D01*
X12872575Y5624449D01*
X12578647Y5564524D01*
X12272336Y5518395D01*
X11955340Y5486424D01*
X11629360Y5468969D01*
X11296094Y5466391D01*
X11055350Y5473819D01*
X10621171Y5505752D01*
X10184571Y5560591D01*
X9748827Y5637581D01*
X9317217Y5735962D01*
X8893021Y5854977D01*
X8479517Y5993870D01*
X8079983Y6151881D01*
X8032750Y6172259D01*
X7920926Y6222625D01*
X7797585Y6281061D01*
X7668789Y6344490D01*
X7540603Y6409831D01*
X7419090Y6474006D01*
X7310317Y6533936D01*
X7239000Y6575285D01*
X7020341Y6713517D01*
X6826646Y6852318D01*
X6657478Y6992240D01*
X6512400Y7133829D01*
X6390978Y7277634D01*
X6292773Y7424205D01*
X6217350Y7574090D01*
X6164272Y7727836D01*
X6133103Y7885994D01*
X6125112Y7975600D01*
X6126262Y8096148D01*
X9355388Y8096148D01*
X9359289Y8000115D01*
X9369971Y7916266D01*
X9376523Y7886700D01*
X9402659Y7807643D01*
X9440720Y7719725D01*
X9486184Y7631834D01*
X9534531Y7552859D01*
X9571957Y7502419D01*
X9646702Y7422020D01*
X9728672Y7353324D01*
X9824384Y7291399D01*
X9912350Y7244832D01*
X10071412Y7177829D01*
X10237369Y7128880D01*
X10405426Y7098766D01*
X10570785Y7088268D01*
X10728650Y7098164D01*
X10772325Y7104957D01*
X10871908Y7129191D01*
X10957461Y7162980D01*
X11026925Y7204610D01*
X11078244Y7252369D01*
X11109360Y7304545D01*
X11118217Y7359423D01*
X11113240Y7388817D01*
X11084880Y7452134D01*
X11036936Y7519524D01*
X10973704Y7586405D01*
X10899481Y7648191D01*
X10824315Y7697086D01*
X10700761Y7772972D01*
X10600466Y7848265D01*
X10521409Y7924805D01*
X10461565Y8004434D01*
X10436046Y8050338D01*
X10403053Y8143712D01*
X10394842Y8237781D01*
X10410882Y8331097D01*
X10450646Y8422213D01*
X10513604Y8509679D01*
X10599228Y8592049D01*
X10647158Y8628595D01*
X10694618Y8660712D01*
X10744926Y8691130D01*
X10801501Y8721479D01*
X10867760Y8753392D01*
X10947119Y8788498D01*
X11042996Y8828430D01*
X11158807Y8874820D01*
X11182350Y8884106D01*
X11263056Y8915881D01*
X11337364Y8945141D01*
X11401509Y8970403D01*
X11451726Y8990185D01*
X11484248Y9003003D01*
X11493500Y9006654D01*
X11510692Y9014482D01*
X11512983Y9021868D01*
X11497722Y9032848D01*
X11465044Y9050037D01*
X11404046Y9080233D01*
X11330220Y9115151D01*
X11248370Y9152683D01*
X11163297Y9190717D01*
X11079806Y9227143D01*
X11002700Y9259851D01*
X10936780Y9286732D01*
X10886851Y9305674D01*
X10871191Y9310948D01*
X10830176Y9322848D01*
X10791674Y9331153D01*
X10749636Y9336482D01*
X10698016Y9339454D01*
X10630768Y9340687D01*
X10579100Y9340850D01*
X10478268Y9339166D01*
X10394980Y9333023D01*
X10321534Y9320792D01*
X10250233Y9300841D01*
X10173377Y9271539D01*
X10101301Y9239616D01*
X9954646Y9158488D01*
X9818155Y9056079D01*
X9694230Y8935296D01*
X9585273Y8799040D01*
X9493685Y8650219D01*
X9421869Y8491735D01*
X9383188Y8371160D01*
X9367456Y8290289D01*
X9358150Y8195746D01*
X9355388Y8096148D01*
X6126262Y8096148D01*
X6126626Y8134298D01*
X6147688Y8299042D01*
X6188613Y8470479D01*
X6249715Y8649256D01*
X6331309Y8836020D01*
X6433710Y9031418D01*
X6557232Y9236096D01*
X6702190Y9450702D01*
X6868900Y9675883D01*
X7057674Y9912286D01*
X7080946Y9940382D01*
X7238594Y10123925D01*
X7388684Y10285337D01*
X7533366Y10425960D01*
X7674788Y10547133D01*
X7815103Y10650198D01*
X7956459Y10736496D01*
X8101006Y10807368D01*
X8250895Y10864154D01*
X8408275Y10908194D01*
X8575297Y10940831D01*
X8714874Y10959367D01*
X8787800Y10965150D01*
X8881166Y10969214D01*
X8990072Y10971586D01*
X9109618Y10972296D01*
X9234904Y10971372D01*
X9234904Y10971372D01*
G37*
X9234904Y10971372D02*
X9361030Y10968843D01*
X9483096Y10964738D01*
X9596202Y10959084D01*
X9673226Y10953765D01*
X9854846Y10938050D01*
X10056057Y10918401D01*
X10271462Y10895456D01*
X10495667Y10869854D01*
X10723278Y10842231D01*
X10948897Y10813228D01*
X11167132Y10783480D01*
X11372586Y10753628D01*
X11398250Y10749746D01*
X11733857Y10695774D01*
X12045247Y10639219D01*
X12333530Y10579389D01*
X12599817Y10515590D01*
X12845221Y10447126D01*
X13070852Y10373304D01*
X13277823Y10293430D01*
X13467244Y10206810D01*
X13640227Y10112749D01*
X13797884Y10010555D01*
X13941327Y9899532D01*
X14071666Y9778987D01*
X14190013Y9648226D01*
X14297479Y9506554D01*
X14395177Y9353278D01*
X14484217Y9187703D01*
X14565712Y9009136D01*
X14640771Y8816882D01*
X14681551Y8699564D01*
X14745948Y8496287D01*
X14797325Y8310200D01*
X14836469Y8137178D01*
X14864166Y7973091D01*
X14881206Y7813812D01*
X14888375Y7655214D01*
X14888719Y7613650D01*
X14880942Y7409375D01*
X14856476Y7221427D01*
X14814271Y7046121D01*
X14753279Y6879772D01*
X14672451Y6718692D01*
X14601445Y6604000D01*
X14543464Y6526723D01*
X14468698Y6441706D01*
X14382337Y6353946D01*
X14289573Y6268438D01*
X14195596Y6190180D01*
X14105596Y6124167D01*
X14097000Y6118422D01*
X13890474Y5994915D01*
X13663070Y5883404D01*
X13416486Y5784249D01*
X13152421Y5697811D01*
X12872575Y5624449D01*
X12578647Y5564524D01*
X12272336Y5518395D01*
X11955340Y5486424D01*
X11629360Y5468969D01*
X11296094Y5466391D01*
X11055350Y5473819D01*
X10621171Y5505752D01*
X10184571Y5560591D01*
X9748827Y5637581D01*
X9317217Y5735962D01*
X8893021Y5854977D01*
X8479517Y5993870D01*
X8079983Y6151881D01*
X8032750Y6172259D01*
X7920926Y6222625D01*
X7797585Y6281061D01*
X7668789Y6344490D01*
X7540603Y6409831D01*
X7419090Y6474006D01*
X7310317Y6533936D01*
X7239000Y6575285D01*
X7020341Y6713517D01*
X6826646Y6852318D01*
X6657478Y6992240D01*
X6512400Y7133829D01*
X6390978Y7277634D01*
X6292773Y7424205D01*
X6217350Y7574090D01*
X6164272Y7727836D01*
X6133103Y7885994D01*
X6125112Y7975600D01*
X6126262Y8096148D01*
X9355388Y8096148D01*
X9359289Y8000115D01*
X9369971Y7916266D01*
X9376523Y7886700D01*
X9402659Y7807643D01*
X9440720Y7719725D01*
X9486184Y7631834D01*
X9534531Y7552859D01*
X9571957Y7502419D01*
X9646702Y7422020D01*
X9728672Y7353324D01*
X9824384Y7291399D01*
X9912350Y7244832D01*
X10071412Y7177829D01*
X10237369Y7128880D01*
X10405426Y7098766D01*
X10570785Y7088268D01*
X10728650Y7098164D01*
X10772325Y7104957D01*
X10871908Y7129191D01*
X10957461Y7162980D01*
X11026925Y7204610D01*
X11078244Y7252369D01*
X11109360Y7304545D01*
X11118217Y7359423D01*
X11113240Y7388817D01*
X11084880Y7452134D01*
X11036936Y7519524D01*
X10973704Y7586405D01*
X10899481Y7648191D01*
X10824315Y7697086D01*
X10700761Y7772972D01*
X10600466Y7848265D01*
X10521409Y7924805D01*
X10461565Y8004434D01*
X10436046Y8050338D01*
X10403053Y8143712D01*
X10394842Y8237781D01*
X10410882Y8331097D01*
X10450646Y8422213D01*
X10513604Y8509679D01*
X10599228Y8592049D01*
X10647158Y8628595D01*
X10694618Y8660712D01*
X10744926Y8691130D01*
X10801501Y8721479D01*
X10867760Y8753392D01*
X10947119Y8788498D01*
X11042996Y8828430D01*
X11158807Y8874820D01*
X11182350Y8884106D01*
X11263056Y8915881D01*
X11337364Y8945141D01*
X11401509Y8970403D01*
X11451726Y8990185D01*
X11484248Y9003003D01*
X11493500Y9006654D01*
X11510692Y9014482D01*
X11512983Y9021868D01*
X11497722Y9032848D01*
X11465044Y9050037D01*
X11404046Y9080233D01*
X11330220Y9115151D01*
X11248370Y9152683D01*
X11163297Y9190717D01*
X11079806Y9227143D01*
X11002700Y9259851D01*
X10936780Y9286732D01*
X10886851Y9305674D01*
X10871191Y9310948D01*
X10830176Y9322848D01*
X10791674Y9331153D01*
X10749636Y9336482D01*
X10698016Y9339454D01*
X10630768Y9340687D01*
X10579100Y9340850D01*
X10478268Y9339166D01*
X10394980Y9333023D01*
X10321534Y9320792D01*
X10250233Y9300841D01*
X10173377Y9271539D01*
X10101301Y9239616D01*
X9954646Y9158488D01*
X9818155Y9056079D01*
X9694230Y8935296D01*
X9585273Y8799040D01*
X9493685Y8650219D01*
X9421869Y8491735D01*
X9383188Y8371160D01*
X9367456Y8290289D01*
X9358150Y8195746D01*
X9355388Y8096148D01*
X6126262Y8096148D01*
X6126626Y8134298D01*
X6147688Y8299042D01*
X6188613Y8470479D01*
X6249715Y8649256D01*
X6331309Y8836020D01*
X6433710Y9031418D01*
X6557232Y9236096D01*
X6702190Y9450702D01*
X6868900Y9675883D01*
X7057674Y9912286D01*
X7080946Y9940382D01*
X7238594Y10123925D01*
X7388684Y10285337D01*
X7533366Y10425960D01*
X7674788Y10547133D01*
X7815103Y10650198D01*
X7956459Y10736496D01*
X8101006Y10807368D01*
X8250895Y10864154D01*
X8408275Y10908194D01*
X8575297Y10940831D01*
X8714874Y10959367D01*
X8787800Y10965150D01*
X8881166Y10969214D01*
X8990072Y10971586D01*
X9109618Y10972296D01*
X9234904Y10971372D01*
D12*
G36*
X-15340494Y4804671D02*
G01*
X-15308460Y4799919D01*
X-15277046Y4792050D01*
X-15246554Y4781140D01*
X-15217279Y4767294D01*
X-15189502Y4750645D01*
X-15163490Y4731353D01*
X-15139495Y4709605D01*
X-15117747Y4685610D01*
X-15098455Y4659598D01*
X-15081806Y4631821D01*
X-15067960Y4602546D01*
X-15057050Y4572054D01*
X-15049181Y4540640D01*
X-15044429Y4508606D01*
X-15042840Y4476260D01*
X-15042840Y2986260D01*
X-15044429Y2953914D01*
X-15049181Y2921880D01*
X-15057050Y2890466D01*
X-15067960Y2859974D01*
X-15081806Y2830699D01*
X-15098455Y2802922D01*
X-15117747Y2776910D01*
X-15139495Y2752915D01*
X-15163490Y2731167D01*
X-15189502Y2711875D01*
X-15217279Y2695226D01*
X-15246554Y2681380D01*
X-15277046Y2670470D01*
X-15308460Y2662601D01*
X-15340494Y2657849D01*
X-15372840Y2656260D01*
X-16362840Y2656260D01*
X-16395186Y2657849D01*
X-16427220Y2662601D01*
X-16458634Y2670470D01*
X-16489126Y2681380D01*
X-16518401Y2695226D01*
X-16546178Y2711875D01*
X-16572190Y2731167D01*
X-16596185Y2752915D01*
X-16617933Y2776910D01*
X-16637225Y2802922D01*
X-16653874Y2830699D01*
X-16667720Y2859974D01*
X-16678630Y2890466D01*
X-16686499Y2921880D01*
X-16691251Y2953914D01*
X-16692840Y2986260D01*
X-16692840Y4476260D01*
X-16691251Y4508606D01*
X-16686499Y4540640D01*
X-16678630Y4572054D01*
X-16667720Y4602546D01*
X-16653874Y4631821D01*
X-16637225Y4659598D01*
X-16617933Y4685610D01*
X-16596185Y4709605D01*
X-16572190Y4731353D01*
X-16546178Y4750645D01*
X-16518401Y4767294D01*
X-16489126Y4781140D01*
X-16458634Y4792050D01*
X-16427220Y4799919D01*
X-16395186Y4804671D01*
X-16362840Y4806260D01*
X-15372840Y4806260D01*
X-15340494Y4804671D01*
X-15340494Y4804671D01*
G37*
D13*
X-15867840Y3731260D03*
D12*
G36*
X-12540494Y4804671D02*
G01*
X-12508460Y4799919D01*
X-12477046Y4792050D01*
X-12446554Y4781140D01*
X-12417279Y4767294D01*
X-12389502Y4750645D01*
X-12363490Y4731353D01*
X-12339495Y4709605D01*
X-12317747Y4685610D01*
X-12298455Y4659598D01*
X-12281806Y4631821D01*
X-12267960Y4602546D01*
X-12257050Y4572054D01*
X-12249181Y4540640D01*
X-12244429Y4508606D01*
X-12242840Y4476260D01*
X-12242840Y2986260D01*
X-12244429Y2953914D01*
X-12249181Y2921880D01*
X-12257050Y2890466D01*
X-12267960Y2859974D01*
X-12281806Y2830699D01*
X-12298455Y2802922D01*
X-12317747Y2776910D01*
X-12339495Y2752915D01*
X-12363490Y2731167D01*
X-12389502Y2711875D01*
X-12417279Y2695226D01*
X-12446554Y2681380D01*
X-12477046Y2670470D01*
X-12508460Y2662601D01*
X-12540494Y2657849D01*
X-12572840Y2656260D01*
X-13562840Y2656260D01*
X-13595186Y2657849D01*
X-13627220Y2662601D01*
X-13658634Y2670470D01*
X-13689126Y2681380D01*
X-13718401Y2695226D01*
X-13746178Y2711875D01*
X-13772190Y2731167D01*
X-13796185Y2752915D01*
X-13817933Y2776910D01*
X-13837225Y2802922D01*
X-13853874Y2830699D01*
X-13867720Y2859974D01*
X-13878630Y2890466D01*
X-13886499Y2921880D01*
X-13891251Y2953914D01*
X-13892840Y2986260D01*
X-13892840Y4476260D01*
X-13891251Y4508606D01*
X-13886499Y4540640D01*
X-13878630Y4572054D01*
X-13867720Y4602546D01*
X-13853874Y4631821D01*
X-13837225Y4659598D01*
X-13817933Y4685610D01*
X-13796185Y4709605D01*
X-13772190Y4731353D01*
X-13746178Y4750645D01*
X-13718401Y4767294D01*
X-13689126Y4781140D01*
X-13658634Y4792050D01*
X-13627220Y4799919D01*
X-13595186Y4804671D01*
X-13562840Y4806260D01*
X-12572840Y4806260D01*
X-12540494Y4804671D01*
X-12540494Y4804671D01*
G37*
D13*
X-13067840Y3731260D03*
D12*
G36*
X13225266Y5172971D02*
G01*
X13257300Y5168219D01*
X13288714Y5160350D01*
X13319206Y5149440D01*
X13348481Y5135594D01*
X13376258Y5118945D01*
X13402270Y5099653D01*
X13426265Y5077905D01*
X13448013Y5053910D01*
X13467305Y5027898D01*
X13483954Y5000121D01*
X13497800Y4970846D01*
X13508710Y4940354D01*
X13516579Y4908940D01*
X13521331Y4876906D01*
X13522920Y4844560D01*
X13522920Y3354560D01*
X13521331Y3322214D01*
X13516579Y3290180D01*
X13508710Y3258766D01*
X13497800Y3228274D01*
X13483954Y3198999D01*
X13467305Y3171222D01*
X13448013Y3145210D01*
X13426265Y3121215D01*
X13402270Y3099467D01*
X13376258Y3080175D01*
X13348481Y3063526D01*
X13319206Y3049680D01*
X13288714Y3038770D01*
X13257300Y3030901D01*
X13225266Y3026149D01*
X13192920Y3024560D01*
X12202920Y3024560D01*
X12170574Y3026149D01*
X12138540Y3030901D01*
X12107126Y3038770D01*
X12076634Y3049680D01*
X12047359Y3063526D01*
X12019582Y3080175D01*
X11993570Y3099467D01*
X11969575Y3121215D01*
X11947827Y3145210D01*
X11928535Y3171222D01*
X11911886Y3198999D01*
X11898040Y3228274D01*
X11887130Y3258766D01*
X11879261Y3290180D01*
X11874509Y3322214D01*
X11872920Y3354560D01*
X11872920Y4844560D01*
X11874509Y4876906D01*
X11879261Y4908940D01*
X11887130Y4940354D01*
X11898040Y4970846D01*
X11911886Y5000121D01*
X11928535Y5027898D01*
X11947827Y5053910D01*
X11969575Y5077905D01*
X11993570Y5099653D01*
X12019582Y5118945D01*
X12047359Y5135594D01*
X12076634Y5149440D01*
X12107126Y5160350D01*
X12138540Y5168219D01*
X12170574Y5172971D01*
X12202920Y5174560D01*
X13192920Y5174560D01*
X13225266Y5172971D01*
X13225266Y5172971D01*
G37*
D13*
X12697920Y4099560D03*
D12*
G36*
X10425266Y5172971D02*
G01*
X10457300Y5168219D01*
X10488714Y5160350D01*
X10519206Y5149440D01*
X10548481Y5135594D01*
X10576258Y5118945D01*
X10602270Y5099653D01*
X10626265Y5077905D01*
X10648013Y5053910D01*
X10667305Y5027898D01*
X10683954Y5000121D01*
X10697800Y4970846D01*
X10708710Y4940354D01*
X10716579Y4908940D01*
X10721331Y4876906D01*
X10722920Y4844560D01*
X10722920Y3354560D01*
X10721331Y3322214D01*
X10716579Y3290180D01*
X10708710Y3258766D01*
X10697800Y3228274D01*
X10683954Y3198999D01*
X10667305Y3171222D01*
X10648013Y3145210D01*
X10626265Y3121215D01*
X10602270Y3099467D01*
X10576258Y3080175D01*
X10548481Y3063526D01*
X10519206Y3049680D01*
X10488714Y3038770D01*
X10457300Y3030901D01*
X10425266Y3026149D01*
X10392920Y3024560D01*
X9402920Y3024560D01*
X9370574Y3026149D01*
X9338540Y3030901D01*
X9307126Y3038770D01*
X9276634Y3049680D01*
X9247359Y3063526D01*
X9219582Y3080175D01*
X9193570Y3099467D01*
X9169575Y3121215D01*
X9147827Y3145210D01*
X9128535Y3171222D01*
X9111886Y3198999D01*
X9098040Y3228274D01*
X9087130Y3258766D01*
X9079261Y3290180D01*
X9074509Y3322214D01*
X9072920Y3354560D01*
X9072920Y4844560D01*
X9074509Y4876906D01*
X9079261Y4908940D01*
X9087130Y4940354D01*
X9098040Y4970846D01*
X9111886Y5000121D01*
X9128535Y5027898D01*
X9147827Y5053910D01*
X9169575Y5077905D01*
X9193570Y5099653D01*
X9219582Y5118945D01*
X9247359Y5135594D01*
X9276634Y5149440D01*
X9307126Y5160350D01*
X9338540Y5168219D01*
X9370574Y5172971D01*
X9402920Y5174560D01*
X10392920Y5174560D01*
X10425266Y5172971D01*
X10425266Y5172971D01*
G37*
D13*
X9897920Y4099560D03*
D12*
G36*
X-2389034Y-5299449D02*
G01*
X-2357000Y-5304201D01*
X-2325586Y-5312070D01*
X-2295094Y-5322980D01*
X-2265819Y-5336826D01*
X-2238042Y-5353475D01*
X-2212030Y-5372767D01*
X-2188035Y-5394515D01*
X-2166287Y-5418510D01*
X-2146995Y-5444522D01*
X-2130346Y-5472299D01*
X-2116500Y-5501574D01*
X-2105590Y-5532066D01*
X-2097721Y-5563480D01*
X-2092969Y-5595514D01*
X-2091380Y-5627860D01*
X-2091380Y-7117860D01*
X-2092969Y-7150206D01*
X-2097721Y-7182240D01*
X-2105590Y-7213654D01*
X-2116500Y-7244146D01*
X-2130346Y-7273421D01*
X-2146995Y-7301198D01*
X-2166287Y-7327210D01*
X-2188035Y-7351205D01*
X-2212030Y-7372953D01*
X-2238042Y-7392245D01*
X-2265819Y-7408894D01*
X-2295094Y-7422740D01*
X-2325586Y-7433650D01*
X-2357000Y-7441519D01*
X-2389034Y-7446271D01*
X-2421380Y-7447860D01*
X-3411380Y-7447860D01*
X-3443726Y-7446271D01*
X-3475760Y-7441519D01*
X-3507174Y-7433650D01*
X-3537666Y-7422740D01*
X-3566941Y-7408894D01*
X-3594718Y-7392245D01*
X-3620730Y-7372953D01*
X-3644725Y-7351205D01*
X-3666473Y-7327210D01*
X-3685765Y-7301198D01*
X-3702414Y-7273421D01*
X-3716260Y-7244146D01*
X-3727170Y-7213654D01*
X-3735039Y-7182240D01*
X-3739791Y-7150206D01*
X-3741380Y-7117860D01*
X-3741380Y-5627860D01*
X-3739791Y-5595514D01*
X-3735039Y-5563480D01*
X-3727170Y-5532066D01*
X-3716260Y-5501574D01*
X-3702414Y-5472299D01*
X-3685765Y-5444522D01*
X-3666473Y-5418510D01*
X-3644725Y-5394515D01*
X-3620730Y-5372767D01*
X-3594718Y-5353475D01*
X-3566941Y-5336826D01*
X-3537666Y-5322980D01*
X-3507174Y-5312070D01*
X-3475760Y-5304201D01*
X-3443726Y-5299449D01*
X-3411380Y-5297860D01*
X-2421380Y-5297860D01*
X-2389034Y-5299449D01*
X-2389034Y-5299449D01*
G37*
D13*
X-2916380Y-6372860D03*
D12*
G36*
X410966Y-5299449D02*
G01*
X443000Y-5304201D01*
X474414Y-5312070D01*
X504906Y-5322980D01*
X534181Y-5336826D01*
X561958Y-5353475D01*
X587970Y-5372767D01*
X611965Y-5394515D01*
X633713Y-5418510D01*
X653005Y-5444522D01*
X669654Y-5472299D01*
X683500Y-5501574D01*
X694410Y-5532066D01*
X702279Y-5563480D01*
X707031Y-5595514D01*
X708620Y-5627860D01*
X708620Y-7117860D01*
X707031Y-7150206D01*
X702279Y-7182240D01*
X694410Y-7213654D01*
X683500Y-7244146D01*
X669654Y-7273421D01*
X653005Y-7301198D01*
X633713Y-7327210D01*
X611965Y-7351205D01*
X587970Y-7372953D01*
X561958Y-7392245D01*
X534181Y-7408894D01*
X504906Y-7422740D01*
X474414Y-7433650D01*
X443000Y-7441519D01*
X410966Y-7446271D01*
X378620Y-7447860D01*
X-611380Y-7447860D01*
X-643726Y-7446271D01*
X-675760Y-7441519D01*
X-707174Y-7433650D01*
X-737666Y-7422740D01*
X-766941Y-7408894D01*
X-794718Y-7392245D01*
X-820730Y-7372953D01*
X-844725Y-7351205D01*
X-866473Y-7327210D01*
X-885765Y-7301198D01*
X-902414Y-7273421D01*
X-916260Y-7244146D01*
X-927170Y-7213654D01*
X-935039Y-7182240D01*
X-939791Y-7150206D01*
X-941380Y-7117860D01*
X-941380Y-5627860D01*
X-939791Y-5595514D01*
X-935039Y-5563480D01*
X-927170Y-5532066D01*
X-916260Y-5501574D01*
X-902414Y-5472299D01*
X-885765Y-5444522D01*
X-866473Y-5418510D01*
X-844725Y-5394515D01*
X-820730Y-5372767D01*
X-794718Y-5353475D01*
X-766941Y-5336826D01*
X-737666Y-5322980D01*
X-707174Y-5312070D01*
X-675760Y-5304201D01*
X-643726Y-5299449D01*
X-611380Y-5297860D01*
X378620Y-5297860D01*
X410966Y-5299449D01*
X410966Y-5299449D01*
G37*
D13*
X-116380Y-6372860D03*
D14*
X1514901Y-34993941D03*
X1514901Y-37533941D03*
D15*
X-1025099Y-34993941D03*
X-1025099Y-37533941D03*
X-3565099Y-34993941D03*
D16*
X-3565099Y-37533941D03*
M02*
